<?xml version="1.0" encoding="UTF-8" standalone="no"?>
<svg
   xmlns:dc="http://purl.org/dc/elements/1.1/"
   xmlns:cc="http://creativecommons.org/ns#"
   xmlns:rdf="http://www.w3.org/1999/02/22-rdf-syntax-ns#"
   xmlns:svg="http://www.w3.org/2000/svg"
   xmlns="http://www.w3.org/2000/svg"
   xmlns:sodipodi="http://sodipodi.sourceforge.net/DTD/sodipodi-0.dtd"
   xmlns:inkscape="http://www.inkscape.org/namespaces/inkscape"
   width="98.608116"
   height="270.51627"
   viewBox="0 0 98.608116 270.51627"
   version="1.1"
   id="svg8"
   inkscape:version="1.0.1 (3bc2e813f5, 2020-09-07)"
   sodipodi:docname="Domovnik-.svg">
  <defs
     id="defs2" />
  <sodipodi:namedview
     id="base"
     pagecolor="#e6e6e6"
     bordercolor="#666666"
     borderopacity="1.0"
     inkscape:pageopacity="0"
     inkscape:pageshadow="2"
     inkscape:zoom="2.8284272"
     inkscape:cx="-16.807449"
     inkscape:cy="89.325415"
     inkscape:document-units="px"
     inkscape:current-layer="layer1"
     showgrid="false"
     units="px"
     width="2000px"
     inkscape:pagecheckerboard="false"
     showborder="true"
     borderlayer="true"
     inkscape:window-width="1920"
     inkscape:window-height="1017"
     inkscape:window-x="-8"
     inkscape:window-y="-8"
     inkscape:window-maximized="1"
     inkscape:document-rotation="0"
     fit-margin-top="5"
     lock-margins="true"
     fit-margin-left="5"
     fit-margin-right="5"
     fit-margin-bottom="5" />
  <metadata
     id="metadata5">
    <rdf:RDF>
      <cc:Work
         rdf:about="">
        <dc:format>image/svg+xml</dc:format>
        <dc:type
           rdf:resource="http://purl.org/dc/dcmitype/StillImage" />
        <dc:title></dc:title>
      </cc:Work>
    </rdf:RDF>
  </metadata>
  <g
     inkscape:label="Vrstva 1"
     inkscape:groupmode="layer"
     id="layer1"
     transform="translate(-312.67556,-141.08382)">
    <path
       style="font-variation-settings:normal;opacity:1;vector-effect:none;fill:#1a1a1a;fill-opacity:1;stroke:#000000;stroke-width:1.25;stroke-linecap:round;stroke-linejoin:round;stroke-miterlimit:4;stroke-dasharray:none;stroke-dashoffset:0;stroke-opacity:1;stop-color:#000000;stop-opacity:1"
       d="m 334.59655,384.05655 v 6.32741 c -3.59951,1.3253 -7.49595,3.37644 -9.67589,5.75704 -4.02711,4.39781 0.65343,9.63253 5.93383,9.63253 8.49789,0.40782 15.11633,0.2073 20.80048,-0.70175 2.17893,-0.34848 4.07507,-6.07568 3.89707,-8.53822 l -0.75601,-13.17048 c -6.62629,2.75457 -12.9734,2.08734 -20.19948,0.69347 z"
       id="path2766-8"
       sodipodi:nodetypes="ccscsccc" />
    <path
       style="font-variation-settings:normal;opacity:1;vector-effect:none;fill:#0f0f0f;fill-opacity:1;stroke:none;stroke-width:1.25;stroke-linecap:butt;stroke-linejoin:bevel;stroke-miterlimit:4;stroke-dasharray:none;stroke-dashoffset:0;stroke-opacity:1;stop-color:#000000;stop-opacity:1"
       d="m 351.55202,404.60594 c -4.08032,-5.1542 -2.64165,-8.67975 1.59374,-10.50236 z"
       id="path2774-2"
       sodipodi:nodetypes="ccc" />
    <path
       id="path2768-4"
       style="font-variation-settings:normal;opacity:1;vector-effect:none;fill:#0f0f0f;fill-opacity:1;stroke:none;stroke-width:1.25;stroke-linecap:butt;stroke-linejoin:bevel;stroke-miterlimit:4;stroke-dasharray:none;stroke-dashoffset:0;stroke-opacity:1;stop-color:#000000;stop-opacity:1"
       d="m 328.57526,393.29327 c 1.1e-4,2e-5 0.0166,0.004 0.0166,0.004 -2.83339,11.36475 9.66927,11.23463 17.88716,12.30975 0,0 -0.0129,0.056 -0.0129,0.0577 -4.48753,0.36305 -9.55848,0.39885 -15.61159,0.10837 -5.2804,0 -9.96084,-5.23542 -5.93372,-9.63324 0.94082,-1.02742 2.23638,-1.97344 3.65482,-2.84626 z" />
    <path
       id="path2770-4"
       style="font-variation-settings:normal;opacity:1;vector-effect:none;fill:#0f0f0f;fill-opacity:1;stroke:none;stroke-width:1.25;stroke-linecap:butt;stroke-linejoin:bevel;stroke-miterlimit:4;stroke-dasharray:none;stroke-dashoffset:0;stroke-opacity:1;stop-color:#000000;stop-opacity:1"
       d="m 354.79743,383.36384 0.75411,13.1694 c 0.17809,2.46255 -1.71734,8.19034 -3.89627,8.53882 -0.53733,0.086 -1.12873,0.13259 -1.68354,0.20588 1.18941,-3.87811 1.64276,-7.7562 0.74089,-11.63431 -4.45376,0.3354 -9.29483,-1.28654 -16.11763,-4.61615 v -1.58207 l 0.29436,0.0148 10.5246,-2.21778 c 3.14654,-0.0529 6.23512,-0.56945 9.38348,-1.87824 z"
       sodipodi:nodetypes="ccscccccccc" />
    <path
       style="font-variation-settings:normal;opacity:1;vector-effect:none;fill:none;fill-opacity:1;stroke:#000000;stroke-width:1.25;stroke-linecap:round;stroke-linejoin:round;stroke-miterlimit:4;stroke-dasharray:none;stroke-dashoffset:0;stroke-opacity:1;stop-color:#000000;stop-opacity:1"
       d="m 334.59655,384.05655 v 6.32741 c -3.59951,1.3253 -7.49595,3.37644 -9.67589,5.75704 -4.02711,4.39781 0.65343,9.63253 5.93383,9.63253 8.49789,0.40782 15.11633,0.2073 20.80048,-0.70175 2.17893,-0.34848 4.07507,-6.07568 3.89707,-8.53822 l -0.75601,-13.17048 c -6.62629,2.75457 -12.9734,2.08734 -20.19948,0.69347 z"
       id="path2772-4"
       sodipodi:nodetypes="ccscsccc" />
    <path
       style="font-variation-settings:normal;opacity:1;vector-effect:none;fill:#e7d4cb;fill-opacity:1;stroke:#997766;stroke-width:1.25;stroke-linecap:round;stroke-linejoin:round;stroke-miterlimit:4;stroke-dasharray:none;stroke-dashoffset:0;stroke-opacity:1;stop-color:#000000;stop-opacity:1"
       d="m 339.16495,269.18812 c -0.0166,14.58542 -0.37411,32.73631 -3.18977,47.11104 2.2497,4.74588 3.08611,12.74647 1.4258,13.74455 -1.31887,0.79284 -1.72097,-2.48381 -2.13798,-4.24456 -1.65791,3.64546 1.261,7.79388 0.4805,9.29307 -1.37951,2.64985 -3.04966,2.96862 -4.8606,3.01127 -5.45457,0.12834 -8.43518,-9.67785 -8.30402,-12.51265 0.12446,-2.69229 0.52518,-6.09391 2.038,-9.04234 -0.51066,-8.4019 -1.81698,-18.13917 -1.69863,-28.49724 0.0877,-7.67145 -3.07277,-15.21555 -3.26175,-21.58574 4.79544,1.19849 7.67342,3.00555 19.50845,2.7226 z"
       id="path880-7-8"
       sodipodi:nodetypes="ccscssscscc" />
    <path
       id="path2696-5"
       style="font-variation-settings:normal;opacity:1;vector-effect:none;fill:#d7b7a8;fill-opacity:1;stroke:none;stroke-width:1.25;stroke-linecap:butt;stroke-linejoin:bevel;stroke-miterlimit:4;stroke-dasharray:none;stroke-dashoffset:0;stroke-opacity:1;stop-color:#000000;stop-opacity:1"
       d="m 325.43446,268.07187 c 2.97092,0.72561 6.80009,1.28177 13.72928,1.1161 -0.0166,14.58542 -0.37375,32.73682 -3.18941,47.11154 2.2497,4.74588 3.08705,12.74564 1.42674,13.74374 -1.31887,0.79283 -1.7213,-2.48339 -2.13831,-4.24414 -1.65791,3.64547 1.2609,7.79453 0.4804,9.29372 -1.3795,2.64985 -3.07974,2.57134 -4.89068,2.61399 -1.73669,0.0409 -3.17593,-1.29804 -3.62285,-1.76935 -0.27281,-6.30441 -1.11303,-12.80261 -0.28173,-19.10699 -1.54158,-15.86493 -1.60376,-32.28177 -1.51344,-48.75861 z"
       sodipodi:nodetypes="cccscssccc" />
    <path
       style="font-variation-settings:normal;opacity:1;vector-effect:none;fill:#1a1a1a;fill-opacity:1;stroke:#000000;stroke-width:1.25;stroke-linecap:round;stroke-linejoin:round;stroke-miterlimit:4;stroke-dasharray:none;stroke-dashoffset:0;stroke-opacity:1;stop-color:#000000;stop-opacity:1"
       d="m 363.31538,384.05655 v 6.32741 c -3.93085,1.3253 -8.18599,3.37644 -10.56661,5.75704 -4.39783,4.39781 0.71359,9.63253 6.48008,9.63253 9.28016,0.40782 16.50788,0.2073 22.7153,-0.70175 2.37951,-0.34848 4.45019,-6.07568 4.25581,-8.53822 l -0.82561,-13.17048 c -7.23628,2.75457 -14.16767,2.08734 -22.05897,0.69347 z"
       id="path901-2"
       sodipodi:nodetypes="ccscsccc" />
    <path
       id="path2735-4"
       style="font-variation-settings:normal;opacity:1;vector-effect:none;fill:#0f0f0f;fill-opacity:1;stroke:none;stroke-width:1.25;stroke-linecap:butt;stroke-linejoin:bevel;stroke-miterlimit:4;stroke-dasharray:none;stroke-dashoffset:0;stroke-opacity:1;stop-color:#000000;stop-opacity:1"
       d="m 356.73981,393.29327 c 1.1e-4,2e-5 0.0185,0.004 0.0185,0.004 -3.09423,11.36475 10.55938,11.23463 19.53379,12.30975 0,0 -0.0148,0.056 -0.0148,0.0577 -4.90062,0.36305 -10.43837,0.39885 -17.04872,0.10837 -5.76648,0 -10.8778,-5.23542 -6.47996,-9.63324 1.02744,-1.02742 2.44227,-1.97344 3.99127,-2.84626 z" />
    <path
       id="path2729-7"
       style="font-variation-settings:normal;opacity:1;vector-effect:none;fill:#0f0f0f;fill-opacity:1;stroke:none;stroke-width:1.25;stroke-linecap:butt;stroke-linejoin:bevel;stroke-miterlimit:4;stroke-dasharray:none;stroke-dashoffset:0;stroke-opacity:1;stop-color:#000000;stop-opacity:1"
       d="m 385.37588,383.36384 0.82354,13.1694 c 0.19438,2.46255 -1.87545,8.19034 -4.25495,8.53882 -0.58679,0.086 -1.23263,0.13259 -1.83852,0.20588 1.29889,-3.87811 1.79398,-7.7562 0.80909,-11.63431 -4.86376,0.3354 -10.15047,-1.28654 -17.60136,-4.61615 v -1.58207 l 0.32147,0.0148 11.49343,-2.21778 c 3.43621,-0.0529 6.80912,-0.56945 10.2473,-1.87824 z"
       sodipodi:nodetypes="ccscccccccc" />
    <path
       style="font-variation-settings:normal;opacity:1;vector-effect:none;fill:none;fill-opacity:1;stroke:#000000;stroke-width:1.25;stroke-linecap:round;stroke-linejoin:round;stroke-miterlimit:4;stroke-dasharray:none;stroke-dashoffset:0;stroke-opacity:1;stop-color:#000000;stop-opacity:1"
       d="m 363.31538,384.05655 v 6.32741 c -3.93085,1.3253 -8.18599,3.37644 -10.56661,5.75704 -4.39783,4.39781 0.71359,9.63253 6.48008,9.63253 9.28016,0.40782 16.50788,0.2073 22.7153,-0.70175 2.37951,-0.34848 4.45019,-6.07568 4.25581,-8.53822 l -0.82561,-13.17048 c -7.23628,2.75457 -14.16767,2.08734 -22.05897,0.69347 z"
       id="path2740-0"
       sodipodi:nodetypes="ccscsccc" />
    <path
       style="font-variation-settings:normal;opacity:1;vector-effect:none;fill:#4d4d4d;fill-opacity:1;stroke:none;stroke-width:1.25;stroke-linecap:round;stroke-linejoin:round;stroke-miterlimit:4;stroke-dasharray:none;stroke-dashoffset:0;stroke-opacity:1;stop-color:#000000;stop-opacity:1"
       d="m 388.64267,317.95227 c 2.0573,14.26454 -8.3e-4,22.24531 -1.01675,35.29573 -0.76325,9.80434 -2.13486,23.91773 -0.93463,34.16862 -6.8213,2.15028 -17.81958,2.61419 -25.45865,-0.0584 0.4383,-3.65562 -0.0264,-13.3779 -0.28008,-17.02854 -0.80597,-11.59964 -2.37603,-20.94734 -4.67354,-32.39781 l -0.28905,-17.09 c 14.30012,-0.4309 23.68247,-3.24201 32.65261,-6.10946 z"
       id="path897-1"
       sodipodi:nodetypes="csccscccc" />
    <path
       style="font-variation-settings:normal;opacity:1;vector-effect:none;fill:#936710;fill-opacity:1;stroke:#2e2005;stroke-width:1.25;stroke-linecap:round;stroke-linejoin:round;stroke-miterlimit:4;stroke-dasharray:none;stroke-dashoffset:0;stroke-opacity:1;stop-color:#000000;stop-opacity:1"
       d="m 340.39504,269.87967 c 1.91375,-13.15709 3.00387,-25.30379 -1.72483,-38.5426 -7.39858,-0.79813 -20.47853,15.87172 -20.36896,34.43703 6.30864,4.09508 15.25596,3.83173 22.09379,4.10557 z"
       id="path878-3"
       sodipodi:nodetypes="cccc" />
    <path
       style="font-variation-settings:normal;opacity:1;vector-effect:none;fill:#5c400a;fill-opacity:1;stroke:none;stroke-width:1.25;stroke-linecap:butt;stroke-linejoin:bevel;stroke-miterlimit:4;stroke-dasharray:none;stroke-dashoffset:0;stroke-opacity:1;stop-color:#000000;stop-opacity:1"
       d="m 329.53772,268.85568 0.0631,-8.53227 -3.0295,8.07676 c 0.91181,0.19584 1.92041,0.33637 2.96644,0.45551 z"
       id="path2687-3"
       sodipodi:nodetypes="cccc" />
    <path
       style="font-variation-settings:normal;opacity:1;vector-effect:none;fill:#936710;fill-opacity:1;stroke:#481414;stroke-width:1.20397;stroke-linecap:round;stroke-linejoin:round;stroke-miterlimit:4;stroke-dasharray:none;stroke-dashoffset:0;stroke-opacity:1;stop-color:#000000;stop-opacity:1"
       d="m 318.30125,265.7741 c 10.58384,4.86971 18.98296,4.92383 26.12298,2.20257 1.11139,3.24759 0.284,7.32736 -1.98237,9.89078 -8.52401,2.62634 -17.32168,0.11608 -25.59806,-2.17872 -2.36437,-2.4494 -0.47027,-7.61815 1.45745,-9.91463 z"
       id="path3182"
       sodipodi:nodetypes="ccccc" />
    <path
       style="font-variation-settings:normal;opacity:1;vector-effect:none;fill:#5c400a;fill-opacity:1;stroke:none;stroke-width:0.5;stroke-linecap:butt;stroke-linejoin:bevel;stroke-miterlimit:4;stroke-dasharray:none;stroke-dashoffset:0;stroke-opacity:1;stop-color:#000000;stop-opacity:1"
       d="m 326.57132,268.40017 -1.02076,10.1524 4.59375,0.6875 -0.0625,-10 z"
       id="path3976"
       sodipodi:nodetypes="ccccc" />
    <path
       style="font-variation-settings:normal;opacity:1;vector-effect:none;fill:#e7d4cb;fill-opacity:1;stroke:#997766;stroke-width:1.25;stroke-linecap:round;stroke-linejoin:round;stroke-miterlimit:4;stroke-dasharray:none;stroke-dashoffset:0;stroke-opacity:1;stop-color:#000000;stop-opacity:1"
       d="m 379.87948,233.22792 -4.5964,-2.35789 c 0.28193,-2.95587 0.0836,-5.81569 0,-8.69846 -6.44083,3.46546 -8.82903,8.24624 -32.10846,6.24654 v 1.83894 c -2.57811,0.0919 -3.98879,0.68302 -5.89627,1.4011 0,20.04591 42.60113,18.44772 42.60113,1.56977 z"
       id="path872-4"
       sodipodi:nodetypes="ccccccc" />
    <path
       id="path2701-1"
       style="font-variation-settings:normal;opacity:1;vector-effect:none;fill:#d7b7a8;fill-opacity:1;stroke:none;stroke-width:1.25;stroke-linecap:butt;stroke-linejoin:bevel;stroke-miterlimit:4;stroke-dasharray:none;stroke-dashoffset:0;stroke-opacity:1;stop-color:#000000;stop-opacity:1"
       d="m 374.85048,222.17036 c 0.0836,2.88278 0.31082,5.90441 0.0288,8.86029 l 4.56559,2.19609 c 0,0.0359 -0.007,0.069 -0.007,0.10467 l -1.78795,1.67237 c -1.53693,-0.82292 -3.13479,-1.58493 -4.82565,-2.2539 0.33919,-1.92423 0.50473,-3.4434 0.37564,-4.97013 -5.107,1.46657 -8.93746,3.46078 -19.53378,2.65844 l 0.9644,-1.5893 c 12.50589,-0.35457 15.10358,-3.92569 20.22008,-6.6786 z"
       sodipodi:nodetypes="sccccccccss" />
    <path
       style="font-variation-settings:normal;opacity:1;vector-effect:none;fill:none;fill-opacity:1;stroke:#997766;stroke-width:1.25;stroke-linecap:round;stroke-linejoin:round;stroke-miterlimit:4;stroke-dasharray:none;stroke-dashoffset:0;stroke-opacity:1;stop-color:#000000;stop-opacity:1"
       d="m 379.87948,233.22792 -4.5964,-2.35789 c 0.28193,-2.95587 0.0836,-5.81569 0,-8.69846 -6.44083,3.46546 -8.82903,8.24624 -32.10846,6.24654 v 1.83894 c -2.57811,0.0919 -3.98879,0.68302 -5.89627,1.4011 0,20.04591 42.60113,18.44772 42.60113,1.56977 z"
       id="path4400"
       sodipodi:nodetypes="ccccccc" />
    <path
       style="font-variation-settings:normal;opacity:1;vector-effect:none;fill:#e7d4cb;fill-opacity:1;stroke:#997766;stroke-width:1.25;stroke-linecap:round;stroke-linejoin:round;stroke-miterlimit:4;stroke-dasharray:none;stroke-dashoffset:0;stroke-opacity:1;stop-color:#000000;stop-opacity:1"
       d="m 325.08795,186.3134 c -0.272,1.8907 0.18557,5.53087 0.63135,7.83622 1.05977,5.48047 0.26792,10.48034 0.23352,15.3537 -0.044,6.24382 9.24604,15.04883 13.95259,17.74722 8.31877,4.76938 23.46135,2.42968 27.66041,1.14218 6.8061,-2.08685 10.76325,-8.42046 15.073,-13.3434 7.30469,-8.34402 8.51243,-15.15413 8.5817,-25.8035 0.069,-10.6106 -8.21891,-21.80832 -20.89964,-29.07276 -17.76387,-10.1764 -40.79339,-4.71901 -45.23293,26.14034 z"
       id="path860-3"
       sodipodi:nodetypes="sssssssss" />
    <path
       style="font-variation-settings:normal;opacity:1;vector-effect:none;fill:none;fill-opacity:0.3;stroke:#997766;stroke-width:1.75;stroke-linecap:round;stroke-linejoin:round;stroke-miterlimit:4;stroke-dasharray:none;stroke-dashoffset:0;stroke-opacity:1;stop-color:#000000;stop-opacity:1"
       d="m 341.42767,216.86371 c 4.25912,2.11853 8.75268,0.50134 9.92444,0"
       id="path866-9"
       sodipodi:nodetypes="cc" />
    <path
       style="font-variation-settings:normal;opacity:1;vector-effect:none;fill:#5a9345;fill-opacity:1;stroke:#997766;stroke-width:1.25;stroke-linecap:round;stroke-linejoin:round;stroke-miterlimit:4;stroke-dasharray:none;stroke-dashoffset:0;stroke-opacity:1;stop-color:#000000;stop-opacity:1"
       d="m 343.17462,230.25705 c 0.006,1.42322 6.1e-4,2.86605 0.23352,3.91142"
       id="path874-7"
       sodipodi:nodetypes="cc" />
    <path
       style="font-variation-settings:normal;opacity:1;vector-effect:none;fill:#4d4d4d;fill-opacity:1;stroke:none;stroke-width:1.25;stroke-linecap:round;stroke-linejoin:round;stroke-miterlimit:4;stroke-dasharray:none;stroke-dashoffset:0;stroke-opacity:1;stop-color:#000000;stop-opacity:1"
       d="m 356.27902,324.06168 0.75892,13.87015 c 0,0 -1.60712,26.59754 -1.37396,40.05346 0.0525,3.02796 0.64593,9.69078 0.64593,9.69078 -7.28581,2.76746 -17.53497,2.34054 -23.35161,0 0.42733,-9.26696 -1.48838,-25.41789 -2.27101,-37.97737 -0.61465,-9.86361 -0.0383,-23.42292 0.0386,-33.12092 8.63273,2.45524 16.76565,3.81891 25.553,4.26405 z"
       id="path899-5"
       sodipodi:nodetypes="ccsccsccc" />
    <path
       style="font-variation-settings:normal;opacity:1;vector-effect:none;fill:#201a13;fill-opacity:1;stroke:none;stroke-width:1.25;stroke-linecap:round;stroke-linejoin:round;stroke-miterlimit:4;stroke-dasharray:none;stroke-dashoffset:0;stroke-opacity:1;stop-color:#000000;stop-opacity:1"
       d="m 332.79161,201.18554 c -0.50213,-1.92795 -0.4652,-5.89679 0.0362,-8.1994 0.85649,-3.93261 4.90778,-3.15982 5.38182,-1.50317 0.93775,3.27718 0.96544,7.06402 0.31313,9.88305 -1.08547,4.69099 -4.9086,2.97808 -5.73129,-0.1805 z"
       id="path1607-5"
       sodipodi:nodetypes="ssssss" />
    <path
       style="font-variation-settings:normal;opacity:1;vector-effect:none;fill:#201a13;fill-opacity:1;stroke:none;stroke-width:1.25;stroke-linecap:round;stroke-linejoin:round;stroke-miterlimit:4;stroke-dasharray:none;stroke-dashoffset:0;stroke-opacity:1;stop-color:#000000;stop-opacity:1"
       d="m 354.72409,201.96064 c -0.53735,-2.0631 -0.49783,-6.31019 0.0388,-8.77423 0.91654,-4.20832 5.25185,-3.38134 5.75913,-1.60855 1.00349,3.50692 1.03312,7.55926 0.33508,10.57591 -1.16158,5.01986 -5.25273,3.18688 -6.1331,-0.19315 z"
       id="path1613-7"
       sodipodi:nodetypes="ssssss" />
    <path
       id="path1625-8"
       style="font-variation-settings:normal;opacity:1;vector-effect:none;fill:#3b3b3b;fill-opacity:1;stroke:none;stroke-width:1.25;stroke-linecap:butt;stroke-linejoin:bevel;stroke-miterlimit:4;stroke-dasharray:none;stroke-dashoffset:0;stroke-opacity:1;stop-color:#000000;stop-opacity:1"
       d="m 356.30998,346.51765 0.14443,2.70901 c -0.44967,8.97522 -0.93629,20.37609 -0.79104,28.75887 0.0525,3.02797 0.64655,9.69105 0.64655,9.69105 -6.34052,1.60559 -9.67921,2.00561 -15.00794,1.9866 4.54649,-1.98527 6.2291,-3.19343 8.23541,-5.78284 z"
       sodipodi:nodetypes="ccscccc" />
    <path
       style="font-variation-settings:normal;opacity:1;vector-effect:none;fill:none;fill-opacity:1;stroke:#2e2005;stroke-width:1.20397;stroke-linecap:round;stroke-linejoin:round;stroke-miterlimit:4;stroke-dasharray:none;stroke-dashoffset:0;stroke-opacity:1;stop-color:#000000;stop-opacity:1"
       d="m 318.30125,265.7741 c 10.58384,4.86971 18.98296,4.92383 26.12298,2.20257 1.11139,3.24759 0.284,7.32736 -1.98237,9.89078 -8.52401,2.62634 -17.32168,0.11608 -25.59806,-2.17872 -2.36437,-2.4494 -0.47027,-7.61815 1.45745,-9.91463 z"
       id="path3978"
       sodipodi:nodetypes="ccccc" />
    <path
       style="font-variation-settings:normal;opacity:1;vector-effect:none;fill:#936710;fill-opacity:1;stroke:none;stroke-width:1.25;stroke-linecap:round;stroke-linejoin:round;stroke-miterlimit:4;stroke-dasharray:none;stroke-dashoffset:0;stroke-opacity:1;stop-color:#000000;stop-opacity:1"
       d="m 388.64267,315.06266 v -77.35908 c -2.317,-1.8073 -3.30692,-3.07918 -8.76319,-5.05944 -4.85156,6.78594 -14.17178,11.12849 -23.11571,11.27818 -7.76484,0.13001 -15.22572,-2.63601 -19.48542,-12.9939 -3.97347,1.34877 -8.80958,4.065 -8.19567,14.1953 1.51242,24.95671 -0.80565,46.77504 1.02491,71.90473 23.04103,6.66482 41.35713,3.71265 58.53508,-1.96579 z"
       id="path870-0"
       sodipodi:nodetypes="cccscscc" />
    <path
       style="font-variation-settings:normal;opacity:1;vector-effect:none;fill:none;fill-opacity:1;stroke:#2e2005;stroke-width:1.25;stroke-linecap:round;stroke-linejoin:round;stroke-miterlimit:4;stroke-dasharray:none;stroke-dashoffset:0;stroke-opacity:1;stop-color:#000000;stop-opacity:1"
       d="m 329.6007,260.32341 c 0.21044,18.96168 -0.94361,36.79393 0.5068,56.70504 23.04103,6.66482 41.35713,3.71265 58.53508,-1.96579 v -77.35908 c -2.317,-1.8073 -3.30692,-3.07918 -8.76319,-5.05944 -4.85156,6.78594 -14.17178,11.12849 -23.11571,11.27818 -7.76484,0.13001 -15.22572,-2.63601 -19.48542,-12.9939 -1.35549,0.4601 -4.84002,2.36369 -6.91919,4.57887"
       id="path1619-2"
       sodipodi:nodetypes="cccccscc" />
    <path
       style="font-variation-settings:normal;opacity:1;vector-effect:none;fill:#5c400a;fill-opacity:1;stroke:none;stroke-width:1.25;stroke-linecap:butt;stroke-linejoin:bevel;stroke-miterlimit:4;stroke-dasharray:none;stroke-dashoffset:0;stroke-opacity:1;stop-color:#000000;stop-opacity:1"
       d="m 378.78424,311.8915 c -2.59113,-17.68632 -3.57959,-38.88291 -3.18518,-52.68343 l 16.18091,47.74716 z"
       id="path2683-2"
       sodipodi:nodetypes="cccc" />
    <path
       style="font-variation-settings:normal;opacity:1;vector-effect:none;fill:#4d4d4d;fill-opacity:1;stroke:none;stroke-width:0.5;stroke-linecap:butt;stroke-linejoin:bevel;stroke-miterlimit:4;stroke-dasharray:none;stroke-dashoffset:0;stroke-opacity:1;stop-color:#000000;stop-opacity:1"
       d="m 330.17383,317.75765 c 13.14659,10.74561 55.15754,5.25901 58.46879,-3.02524 l -5.79229,-22.89928 c -4.11885,-1.61334 -10.72264,3.87655 -10.19062,-23.33834 -15.56067,5.14136 -29.63121,4.07995 -43.12195,0.36089 z"
       id="path3141"
       sodipodi:nodetypes="cccccc" />
    <path
       style="font-variation-settings:normal;opacity:1;vector-effect:none;fill:none;fill-opacity:0.3;stroke:#0d0d0d;stroke-width:2;stroke-linecap:round;stroke-linejoin:round;stroke-miterlimit:4;stroke-dasharray:none;stroke-dashoffset:0;stroke-opacity:1;stop-color:#000000;stop-opacity:1"
       d="m 373.55056,320.80257 0.75222,8.76294"
       id="path3161"
       sodipodi:nodetypes="cc" />
    <path
       id="path1623-4"
       style="font-variation-settings:normal;opacity:1;vector-effect:none;fill:#3b3b3b;fill-opacity:1;stroke:none;stroke-width:1.25;stroke-linecap:butt;stroke-linejoin:bevel;stroke-miterlimit:4;stroke-dasharray:none;stroke-dashoffset:0;stroke-opacity:1;stop-color:#000000;stop-opacity:1"
       d="m 388.64112,315.06421 v 2.88962 c 2.05729,14.26453 9.8e-4,22.24259 -1.01494,35.293 -0.76325,9.80435 -2.13575,23.91879 -0.93552,34.16968 -6.8213,2.15028 -9.38076,1.86354 -16.90424,1.61827 4.3967,-1.2383 6.29338,-2.0949 9.31899,-4.61254 z"
       sodipodi:nodetypes="ccscccc" />
    <path
       style="font-variation-settings:normal;opacity:1;vector-effect:none;fill:#3b3b3b;fill-opacity:1;stroke:none;stroke-width:1.25;stroke-linecap:butt;stroke-linejoin:bevel;stroke-miterlimit:4;stroke-dasharray:none;stroke-dashoffset:0;stroke-opacity:1;stop-color:#000000;stop-opacity:1"
       d="m 387.32172,338.59236 c -4.17555,-2.83736 -4.59717,-8.90179 -4.68573,-13.75782 -0.009,-0.49168 -6.20202,-34.72098 -6.20771,-35.18328 1.02594,1.60734 3.88962,1.76383 6.42201,2.18187 l 6.98951,30.7838 z"
       id="path1677-7"
       sodipodi:nodetypes="cscccc" />
    <path
       style="font-variation-settings:normal;opacity:1;vector-effect:none;fill:none;fill-opacity:1;stroke:#997766;stroke-width:1.25;stroke-linecap:round;stroke-linejoin:round;stroke-miterlimit:4;stroke-dasharray:none;stroke-dashoffset:0;stroke-opacity:1;stop-color:#000000;stop-opacity:1"
       d="m 325.08795,186.3134 c -0.272,1.8907 0.18557,5.53087 0.63135,7.83622 1.05977,5.48047 0.26792,10.48034 0.23352,15.3537 -0.044,6.24382 9.24604,15.04883 13.95259,17.74722 8.31877,4.76938 23.46135,2.42968 27.66041,1.14218 6.8061,-2.08685 10.76325,-8.42046 15.073,-13.3434 7.30469,-8.34402 8.51243,-15.15413 8.5817,-25.8035 0.069,-10.6106 -8.21891,-21.80832 -20.89964,-29.07276 -17.76387,-10.1764 -40.79339,-4.71901 -45.23293,26.14034 z"
       id="path2720-8"
       sodipodi:nodetypes="sssssssss" />
    <path
       style="font-variation-settings:normal;opacity:1;vector-effect:none;fill:none;fill-opacity:1;stroke:#262626;stroke-width:1.25;stroke-linecap:round;stroke-linejoin:round;stroke-miterlimit:4;stroke-dasharray:none;stroke-dashoffset:0;stroke-opacity:1;stop-color:#000000;stop-opacity:1"
       d="m 357.03794,333.44195 v 4.48988 c 0,0 -1.60712,26.59754 -1.37396,40.05346 0.0525,3.02796 0.64593,9.69078 0.64593,9.69078 -7.28581,2.76746 -17.06794,2.45729 -22.88458,0.11669 0.42733,-9.26696 -1.90117,-25.41789 -2.6838,-37.97736 -0.61465,-9.86362 0.41695,-22.78893 -0.63403,-32.78695 -1.37593,-13.08928 -0.72651,-42.07757 -0.56974,-48.17277 15.77786,3.77609 25.98804,4.653 43.12191,-0.36089"
       id="path1615-2"
       sodipodi:nodetypes="ccsccsscc" />
    <path
       style="font-variation-settings:normal;opacity:1;vector-effect:none;fill:none;fill-opacity:1;stroke:#262626;stroke-width:1.25;stroke-linecap:round;stroke-linejoin:round;stroke-miterlimit:4;stroke-dasharray:none;stroke-dashoffset:0;stroke-opacity:1;stop-color:#000000;stop-opacity:1"
       d="m 372.65967,268.49479 c 0,25.9232 5.72229,22.33417 10.19062,23.33834 1.46394,5.4635 3.33603,13.85113 5.79238,22.89929 2.0573,14.26454 -8.3e-4,25.46516 -1.01675,38.51558 -0.76325,9.80434 -2.13486,23.91773 -0.93463,34.16862 -6.8213,2.15028 -17.81958,2.61419 -25.45865,-0.0584 0.4383,-3.65562 -0.0264,-13.3779 -0.28008,-17.02854 -0.80597,-11.59964 -1.61711,-20.94734 -3.91462,-32.39781 v -4.95691"
       id="path1617-0"
       sodipodi:nodetypes="cccsccscc" />
    <path
       style="font-variation-settings:normal;opacity:1;vector-effect:none;fill:#4d4d4d;fill-opacity:1;stroke:#262626;stroke-width:1.25;stroke-linecap:round;stroke-linejoin:round;stroke-miterlimit:4;stroke-dasharray:none;stroke-dashoffset:0;stroke-opacity:1;stop-color:#000000;stop-opacity:1"
       d="m 340.2271,278.87713 c 1.11664,-17.49817 2.03829,-37.41634 1.26002,-48.87008 -4.3849,0.61591 -5.58885,1.45985 -6.89636,2.29637 -0.66151,11.42627 -0.0387,26.04368 -1.40256,46.12104 z"
       id="path3145"
       sodipodi:nodetypes="ccccc" />
    <path
       style="font-variation-settings:normal;opacity:1;vector-effect:none;fill:#503d16;fill-opacity:1;stroke:#281e0b;stroke-width:1.5;stroke-linecap:round;stroke-linejoin:round;stroke-miterlimit:4;stroke-dasharray:none;stroke-dashoffset:0;stroke-opacity:1;stop-color:#000000;stop-opacity:1"
       d="m 330.29345,318.49876 c 17.01729,3.0241 36.36388,2.17789 58.68068,-0.56859 l -2.37529,-6.55966 c -18.6018,2.68821 -37.81229,2.33856 -56.76677,0.44195 z"
       id="path3147"
       sodipodi:nodetypes="ccccc" />
    <path
       style="font-variation-settings:normal;opacity:1;vector-effect:none;fill:#e7d4cb;fill-opacity:1;stroke:#997766;stroke-width:1.25;stroke-linecap:round;stroke-linejoin:round;stroke-miterlimit:4;stroke-dasharray:none;stroke-dashoffset:0;stroke-opacity:1;stop-color:#000000;stop-opacity:1"
       d="m 377.66216,270.72772 c 2.2274,16.14683 5.6855,31.73508 10.98051,47.22455 -1.77201,5.59553 -1.48616,14.58065 0.50332,15.43424 1.58039,0.67806 1.52927,-3.01084 1.72427,-5.02353 2.38788,3.7852 -0.2156,8.82056 0.87568,10.36228 1.92882,2.72496 3.82631,2.82494 5.83791,2.59786 6.05887,-0.68401 8.56544,-12.04136 7.99083,-15.16024 -0.54571,-2.96211 -1.9578,-7.25763 -4.07945,-10.29301 0.25014,-16.584 -0.0666,-33.04204 -1.78947,-49.18759 -5.12807,2.05341 -7.07403,4.81884 -22.0436,4.04544 z"
       id="path880-73"
       sodipodi:nodetypes="ccscsssccc" />
    <path
       id="path2691-0"
       style="font-variation-settings:normal;opacity:1;vector-effect:none;fill:#d7b7a8;fill-opacity:1;stroke:none;stroke-width:1.25;stroke-linecap:round;stroke-linejoin:round;stroke-miterlimit:4;stroke-dasharray:none;stroke-dashoffset:0;stroke-opacity:1;stop-color:#000000;stop-opacity:1"
       d="m 399.70474,266.68125 c 1.7229,16.14555 2.04171,32.60444 1.79156,49.18843 2.12165,3.03538 3.53225,7.33215 4.07795,10.29426 0.57462,3.11887 -1.93091,14.47562 -7.98977,15.15962 -1.06366,0.12002 -2.09582,0.13519 -3.11718,-0.26729 5.2358,-1.86133 7.39292,-11.97602 6.85563,-14.89233 -0.54571,-2.96211 -1.95632,-7.25888 -4.07798,-10.29426 0.24059,-15.94978 -0.0562,-31.78103 -1.61097,-47.33187 1.34739,-0.61163 2.5834,-1.261 4.07076,-1.85656 z"
       sodipodi:nodetypes="ccsscsccc" />
    <path
       style="font-variation-settings:normal;opacity:1;vector-effect:none;fill:none;fill-opacity:1;stroke:#997766;stroke-width:1.25;stroke-linecap:round;stroke-linejoin:round;stroke-miterlimit:4;stroke-dasharray:none;stroke-dashoffset:0;stroke-opacity:1;stop-color:#000000;stop-opacity:1"
       d="m 377.66216,270.72772 c 2.2274,16.14683 5.6855,31.73508 10.98051,47.22455 -1.77201,5.59553 -1.48616,14.58065 0.50332,15.43424 1.58039,0.67806 1.52927,-3.01084 1.72427,-5.02353 2.38788,3.7852 -0.2156,8.82056 0.87568,10.36228 1.92882,2.72496 3.82631,2.82494 5.83791,2.59786 6.05887,-0.68401 8.56544,-12.04136 7.99083,-15.16024 -0.54571,-2.96211 -1.9578,-7.25763 -4.07945,-10.29301 0.25014,-16.584 -0.0666,-33.04204 -1.78947,-49.18759 -5.12807,2.05341 -7.07403,4.81884 -22.0436,4.04544 z"
       id="path2694-4"
       sodipodi:nodetypes="ccscsssccc" />
    <path
       style="font-variation-settings:normal;opacity:1;vector-effect:none;fill:#936710;fill-opacity:1;stroke:none;stroke-width:1.25;stroke-linecap:round;stroke-linejoin:round;stroke-miterlimit:4;stroke-dasharray:none;stroke-dashoffset:0;stroke-opacity:1;stop-color:#000000;stop-opacity:1"
       d="m 380.20574,232.79946 c 17.36233,6.88261 21.44794,24.00961 22.22452,32.14906 -7.35349,6.69304 -18.68256,6.59429 -25.75882,5.69665 -1.89627,-12.36022 -1.36036,-25.4036 3.5343,-37.84571 z"
       id="path876-7"
       sodipodi:nodetypes="cccc" />
    <path
       id="path1684-1"
       style="font-variation-settings:normal;opacity:1;vector-effect:none;fill:#5c400a;fill-opacity:1;stroke:none;stroke-width:1.25;stroke-linecap:butt;stroke-linejoin:bevel;stroke-miterlimit:4;stroke-dasharray:none;stroke-dashoffset:0;stroke-opacity:1;stop-color:#000000;stop-opacity:1"
       d="m 389.27323,238.17882 c 9.80454,8.16826 12.54129,20.29887 13.15859,26.76866 -5.47523,3.60115 -9.7926,5.27857 -15.62629,5.94132 6.19229,-3.1215 8.33074,-6.40786 9.00183,-9.1488 -0.58358,-7.85427 -2.49272,-15.64911 -6.53413,-23.56118 z"
       sodipodi:nodetypes="ccccc" />
    <path
       style="font-variation-settings:normal;opacity:1;vector-effect:none;fill:none;fill-opacity:1;stroke:#2e2005;stroke-width:1.25;stroke-linecap:round;stroke-linejoin:round;stroke-miterlimit:4;stroke-dasharray:none;stroke-dashoffset:0;stroke-opacity:1;stop-color:#000000;stop-opacity:1"
       d="m 379.87948,232.64414 c 17.36233,6.8826 21.7742,24.16493 22.55078,32.30438 -7.35349,6.69304 -18.68256,6.59429 -25.75882,5.69665 -0.57531,-3.75004 -0.9568,-7.57726 -1.07238,-11.4371"
       id="path1580-8"
       sodipodi:nodetypes="cccc" />
    <path
       style="font-variation-settings:normal;opacity:1;vector-effect:none;fill:#4d4d4d;fill-opacity:1;stroke:#262626;stroke-width:1.25;stroke-linecap:round;stroke-linejoin:round;stroke-miterlimit:4;stroke-dasharray:none;stroke-dashoffset:0;stroke-opacity:1;stop-color:#000000;stop-opacity:1"
       d="m 369.4146,279.56463 c -0.88336,-15.62317 2.1007,-37.88444 15.63493,-45.83818 l -8.40761,-3.11948 c -12.47401,8.36377 -15.58988,30.05263 -14.82872,49.31749 z"
       id="path3143"
       sodipodi:nodetypes="ccccc" />
    <rect
       style="font-variation-settings:normal;opacity:1;vector-effect:none;fill:#666666;fill-opacity:1;fill-rule:evenodd;stroke:#333333;stroke-width:1.5;stroke-linecap:butt;stroke-linejoin:bevel;stroke-miterlimit:4;stroke-dasharray:none;stroke-dashoffset:0;stroke-opacity:1;stop-color:#000000;stop-opacity:1"
       id="rect3149"
       width="12.993087"
       height="10.562407"
       x="348.06955"
       y="306.71939"
       ry="1.6415"
       transform="rotate(0.76323039)" />
    <circle
       style="font-variation-settings:normal;opacity:1;vector-effect:none;fill:#cca400;fill-opacity:1;fill-rule:evenodd;stroke:#1a1a1a;stroke-width:1.25;stroke-linecap:butt;stroke-linejoin:bevel;stroke-miterlimit:4;stroke-dasharray:none;stroke-dashoffset:0;stroke-opacity:1;stop-color:#000000;stop-opacity:1"
       id="path3153"
       cx="336.94464"
       cy="274.5567"
       r="1.8540459" />
    <circle
       style="font-variation-settings:normal;opacity:1;vector-effect:none;fill:#cca400;fill-opacity:1;fill-rule:evenodd;stroke:#1a1a1a;stroke-width:1.25;stroke-linecap:butt;stroke-linejoin:bevel;stroke-miterlimit:4;stroke-dasharray:none;stroke-dashoffset:0;stroke-opacity:1;stop-color:#000000;stop-opacity:1"
       id="circle3155"
       cx="365.56964"
       cy="275.7442"
       r="1.8540459" />
    <path
       style="font-variation-settings:normal;opacity:1;vector-effect:none;fill:#503d16;fill-opacity:1;stroke:#281e0b;stroke-width:1.25;stroke-linecap:butt;stroke-linejoin:bevel;stroke-miterlimit:4;stroke-dasharray:none;stroke-dashoffset:0;stroke-opacity:1;stop-color:#000000;stop-opacity:1"
       d="m 370.88246,313.14084 0.46722,6.85469 c 0.21427,1.04358 3.27374,1.43648 3.89137,-0.22934 l -0.6074,-7.21061 c -0.37043,1.32926 -2.57584,2.46255 -3.75119,0.58526 z"
       id="path3157"
       sodipodi:nodetypes="ccccc" />
    <path
       style="font-variation-settings:normal;opacity:1;vector-effect:none;fill:#503d16;fill-opacity:1;stroke:#281e0b;stroke-width:1.25;stroke-linecap:butt;stroke-linejoin:bevel;stroke-miterlimit:4;stroke-dasharray:none;stroke-dashoffset:0;stroke-opacity:1;stop-color:#000000;stop-opacity:1"
       d="m 376.9654,312.26071 0.34343,6.86201 c 0.1954,1.04727 3.24728,1.49533 3.89487,-0.15908 l -0.47716,-7.22039 c -0.39436,1.32235 -2.61987,2.41566 -3.76114,0.51746 z"
       id="path3159"
       sodipodi:nodetypes="ccccc" />
    <path
       style="font-variation-settings:normal;opacity:1;vector-effect:none;fill:none;fill-opacity:0.3;stroke:#0d0d0d;stroke-width:2;stroke-linecap:round;stroke-linejoin:round;stroke-miterlimit:4;stroke-dasharray:none;stroke-dashoffset:0;stroke-opacity:1;stop-color:#000000;stop-opacity:1"
       d="m 372.50649,311.28196 0.16312,1.90023"
       id="path3161-6"
       sodipodi:nodetypes="cc" />
    <rect
       style="font-variation-settings:normal;opacity:1;vector-effect:none;fill:#cc0000;fill-opacity:1;fill-rule:evenodd;stroke:#660000;stroke-width:1.25;stroke-linecap:butt;stroke-linejoin:bevel;stroke-miterlimit:4;stroke-dasharray:none;stroke-dashoffset:0;stroke-opacity:1;stop-color:#000000;stop-opacity:1"
       id="rect3178"
       width="3.5"
       height="14"
       x="348.18536"
       y="321.82227"
       ry="1.6415"
       transform="rotate(-3.9676957)" />
    <path
       style="font-variation-settings:normal;opacity:1;vector-effect:none;fill:#936710;fill-opacity:1;stroke:#481414;stroke-width:1.25;stroke-linecap:round;stroke-linejoin:round;stroke-miterlimit:4;stroke-dasharray:none;stroke-dashoffset:0;stroke-opacity:1;stop-color:#000000;stop-opacity:1"
       d="m 376.67144,270.64517 c 11.67329,1.10791 19.90023,-0.76886 25.76038,-5.69769 2.21653,2.95726 2.87482,7.34757 1.61874,10.63634 -7.21719,5.25279 -16.52108,5.3775 -25.25,5.5625 -3.13099,-1.76703 -3.1564,-7.58597 -2.12912,-10.50115 z"
       id="path3180"
       sodipodi:nodetypes="ccccc" />
    <path
       id="path3969"
       style="font-variation-settings:normal;opacity:1;vector-effect:none;fill:#5c400a;fill-opacity:1;stroke:none;stroke-width:0.5;stroke-linecap:butt;stroke-linejoin:bevel;stroke-miterlimit:4;stroke-dasharray:none;stroke-dashoffset:0;stroke-opacity:1;stop-color:#000000;stop-opacity:1"
       d="m 89.755859,123.86328 c -1.538415,1.29393 -3.244731,2.37163 -5.128906,3.2461 1.57977,2.93993 1.967222,6.38431 0.486328,10.61914 2.203668,-0.77301 4.3105,-1.80839 6.261719,-3.22852 1.25608,-3.28877 0.597389,-7.67946 -1.619141,-10.63672 z"
       transform="translate(312.67556,141.08382)"
       sodipodi:nodetypes="ccccc" />
    <path
       style="font-variation-settings:normal;opacity:1;vector-effect:none;fill:none;fill-opacity:1;stroke:#2e2005;stroke-width:1.25;stroke-linecap:round;stroke-linejoin:round;stroke-miterlimit:4;stroke-dasharray:none;stroke-dashoffset:0;stroke-opacity:1;stop-color:#000000;stop-opacity:1"
       d="m 376.67144,270.64517 c 11.67329,1.10791 19.90023,-0.76886 25.76038,-5.69769 2.21653,2.95726 2.87482,7.34757 1.61874,10.63634 -7.21719,5.25279 -16.52108,5.3775 -25.25,5.5625 -3.13099,-1.76703 -3.1564,-7.58597 -2.12912,-10.50115 z"
       id="path3974"
       sodipodi:nodetypes="ccccc" />
    <path
       style="font-variation-settings:normal;opacity:1;vector-effect:none;fill:#3b3b3b;fill-opacity:1;stroke:none;stroke-width:0.5;stroke-linecap:butt;stroke-linejoin:bevel;stroke-miterlimit:4;stroke-dasharray:none;stroke-dashoffset:0;stroke-opacity:1;stop-color:#000000;stop-opacity:1"
       d="m 364.22931,282.82152 c -1.61705,6.01307 -1.48749,11.95627 -5.74125,18.0748 -5.69163,3.46592 -13.38057,2.53774 -20.125,3.6875 10.66032,0.875 21.64478,1.05994 24.13957,-0.80237 2.52082,-1.88174 1.72668,-10.11311 1.72668,-20.95993 z"
       id="path3980"
       sodipodi:nodetypes="cccsc" />
    <path
       style="font-variation-settings:normal;opacity:1;vector-effect:none;fill:none;fill-opacity:0.3;stroke:#262626;stroke-width:1.25;stroke-linecap:round;stroke-linejoin:round;stroke-miterlimit:4;stroke-dasharray:none;stroke-dashoffset:0;stroke-opacity:1;stop-color:#000000;stop-opacity:1"
       d="m 335.33039,282.62013 c 8.30123,0.65903 17.02341,1.13095 28.89892,0.20139 l -0.16195,16.90337 c 0,2.37318 -1.59222,4.83051 -4.16709,4.83051 -6.81575,0.74092 -13.43218,0.64498 -19.93744,0.1161 -2.84339,-0.23117 -3.65483,-1.1108 -3.83597,-3.1795 z"
       id="path3151"
       sodipodi:nodetypes="ccccscc" />
    <path
       style="font-variation-settings:normal;opacity:1;vector-effect:none;fill:#c8b79b;fill-opacity:1;stroke:#846d48;stroke-width:1.25;stroke-linecap:round;stroke-linejoin:round;stroke-miterlimit:4;stroke-dasharray:none;stroke-dashoffset:0;stroke-opacity:1;stop-color:#000000;stop-opacity:1"
       d="m 346.43276,210.66691 c -1.73851,-1.00373 -3.48034,-0.6725 -4.19357,1.15861 -0.78897,2.02541 -5.36746,2.09335 -8.33292,1.028 0.99078,2.80059 6.60135,4.47156 11.19144,2.66112 2.17904,-0.85947 2.10314,-2.81966 1.33505,-4.84773 z"
       id="path3988"
       sodipodi:nodetypes="cscsc" />
    <path
       style="font-variation-settings:normal;opacity:1;vector-effect:none;fill:#c8b79b;fill-opacity:1;stroke:#846d48;stroke-width:1.25;stroke-linecap:round;stroke-linejoin:round;stroke-miterlimit:4;stroke-dasharray:none;stroke-dashoffset:0;stroke-opacity:1;stop-color:#000000;stop-opacity:1"
       d="m 346.43276,210.66691 c 1.12519,-1.12519 3.56881,-0.7799 4.3375,1.02863 0.8503,2.00044 5.42873,1.92886 8.36036,0.77366 -0.90499,2.82947 -6.46205,4.6706 -11.10517,3.00083 -2.20422,-0.79269 -2.29864,-2.75259 -1.59269,-4.80312 z"
       id="path3986"
       sodipodi:nodetypes="cscsc" />
    <path
       id="path1776"
       style="font-variation-settings:normal;opacity:1;vector-effect:none;fill:#d7b7a8;fill-opacity:1;stroke:none;stroke-width:1.25;stroke-linecap:round;stroke-linejoin:round;stroke-miterlimit:4;stroke-dasharray:none;stroke-dashoffset:0;stroke-opacity:1;stop-color:#000000;stop-opacity:1"
       d="m 350.65738,156.4349 c 12.94658,0.70645 18.53118,2.96426 24.4043,6.63672 7.40967,5.35047 12.73194,12.09523 14.9082,19.00781 0.68501,2.90603 0.87533,6.05314 0.21289,9.20312 -0.37035,3.6784 -0.059,6.40167 -0.16406,9.44141 -1.09906,4.87302 -3.27642,9.21093 -7.52539,14.06445 -2.31033,2.63905 -5.60928,7.78491 -11.33103,11.71476 -2.29584,1.57684 -8.04243,2.36153 -8.14268,2.42157 7.90301,-4.64942 12.8358,-11.21397 16.14949,-18.56992 5.30708,-1.35591 8.11958,-7.08824 6.51604,-13.01501 -1.44858,-5.35406 -6.94436,-2.55428 -10.64824,4.9179 -0.40394,-9.46801 -1.54006,-11.58635 -4.06311,-18.82867 -2.70147,1.2951 -5.48739,2.54797 -11.125,2.375 2.47851,-1.49426 4.22806,-2.92225 4.875,-4.25 -11.79476,2.6528 -20.80719,7.10455 -39.19141,1.11914 2.77896,-13.84557 9.59918,-21.96332 17.85938,-25.42774 1.53397,-0.0998 3.14869,-0.13354 4.89062,-0.0605 z"
       sodipodi:nodetypes="cccccssccscccccccc" />
    <path
       style="font-variation-settings:normal;opacity:1;vector-effect:none;fill:none;fill-opacity:1;stroke:#997766;stroke-width:1.25;stroke-linecap:round;stroke-linejoin:round;stroke-miterlimit:4;stroke-dasharray:none;stroke-dashoffset:0;stroke-opacity:1;stop-color:#000000;stop-opacity:1"
       d="m 325.08795,186.3134 c -0.272,1.8907 0.18557,5.53087 0.63135,7.83622 1.05977,5.48047 0.26792,10.48034 0.23352,15.3537 -0.044,6.24382 9.24604,15.04883 13.95259,17.74722 8.31877,4.76938 23.46135,2.42968 27.66041,1.14218 6.8061,-2.08685 10.76325,-8.42046 15.073,-13.3434 7.30469,-8.34402 8.51243,-15.15413 8.5817,-25.8035 0.069,-10.6106 -8.21891,-21.80832 -20.89964,-29.07276 -17.76387,-10.1764 -40.79339,-4.71901 -45.23293,26.14034 z"
       id="path8506"
       sodipodi:nodetypes="sssssssss" />
    <path
       style="font-variation-settings:normal;opacity:1;vector-effect:none;fill:#c8b79b;fill-opacity:1;stroke:#846d48;stroke-width:1.25;stroke-linecap:round;stroke-linejoin:round;stroke-miterlimit:4;stroke-dasharray:none;stroke-dashoffset:0;stroke-opacity:1;stop-color:#000000;stop-opacity:1"
       d="m 326.13785,198.07357 c -0.61809,-7.68608 1.27315,-14.15062 2.69584,-19.15143 18.42204,6.01279 27.43934,1.55065 39.2461,-1.10485 -0.64694,1.32775 -2.39649,2.75574 -4.875,4.25 5.63761,0.17297 8.42353,-1.0799 11.125,-2.375 2.1695,8.1262 2.53856,12.67409 0.70711,22.56542 3.888,-6.07607 3.94596,-7.88084 7.35314,-7.53582 3.17387,0.3214 3.36224,4.58307 3.12281,7.16418 -0.52748,5.68631 -3.35909,8.22315 -6.34375,8.46875 l -0.73494,9.13438 c 6.71647,-4.02266 11.43337,-7.66214 13.73313,-15.26346 2.11104,-6.97754 0.7427,-10.44248 1.37055,-16.67843 2.09133,-9.94451 -4.27772,-19.88775 -8.08565,-22.162 0.79305,-1.67417 2.25633,-2.9462 3.875,-4.125 -1.78459,-0.0614 -3.70613,0.17849 -5.90625,1.03125 0.43665,-3.0069 -0.41011,-4.3355 -1,-6 -0.10271,1.74661 0.11266,3.57997 -0.84375,5.09375 -7.29985,-4.90293 -12.34572,-7.85631 -27.56434,-8.68674 l -2.375,0.75 c -32.48715,-1.36148 -27.74186,28.54755 -25.5,44.625 z"
       id="path1721-4"
       sodipodi:nodetypes="ccccccssccsccccccccc" />
    <path
       id="path3447"
       style="font-variation-settings:normal;opacity:1;vector-effect:none;fill:#ae956b;fill-opacity:1;stroke:none;stroke-width:0.5;stroke-linecap:butt;stroke-linejoin:bevel;stroke-miterlimit:4;stroke-dasharray:none;stroke-dashoffset:0;stroke-opacity:1;stop-color:#000000;stop-opacity:1"
       d="m 385.62223,165.50326 c 3.82347,2.4566 9.9774,12.2428 7.91601,22.04492 -0.62785,6.23595 0.73995,9.70019 -1.37109,16.67773 -2.29976,7.60132 -7.01595,11.24102 -13.73242,15.26368 l 0.73437,-9.13477 c 0.7206,-0.0593 1.43103,-0.25526 2.10352,-0.59375 6.68506,-2.9976 7.98887,-15.77879 7.19336,-29.70117 -0.32919,-5.76118 -1.43335,-9.72625 -2.84375,-14.55664 z"
       sodipodi:nodetypes="ccscccsc" />
    <path
       style="font-variation-settings:normal;opacity:1;vector-effect:none;fill:none;fill-opacity:0.3;stroke:#846d48;stroke-width:2.5;stroke-linecap:round;stroke-linejoin:round;stroke-miterlimit:4;stroke-dasharray:none;stroke-dashoffset:0;stroke-opacity:1;stop-color:#000000;stop-opacity:1"
       d="m 368.10325,188.66409 c -3.15113,-3.36373 -6.28689,-4.51445 -14.7999,-3.48142"
       id="path1609-4"
       sodipodi:nodetypes="cc" />
    <path
       style="font-variation-settings:normal;opacity:1;vector-effect:none;fill:none;fill-opacity:0.3;stroke:#846d48;stroke-width:2.5;stroke-linecap:round;stroke-linejoin:round;stroke-miterlimit:4;stroke-dasharray:none;stroke-dashoffset:0;stroke-opacity:1;stop-color:#000000;stop-opacity:1"
       d="m 341.1079,185.14067 c -4.00875,-1.1653 -11.18972,0.40043 -12.93589,2.33896"
       id="path1611-7"
       sodipodi:nodetypes="cc" />
    <path
       style="font-variation-settings:normal;opacity:1;vector-effect:none;fill:none;fill-opacity:1;stroke:#846d48;stroke-width:1.25;stroke-linecap:round;stroke-linejoin:round;stroke-miterlimit:4;stroke-dasharray:none;stroke-dashoffset:0;stroke-opacity:1;stop-color:#000000;stop-opacity:1"
       d="m 326.13785,198.07357 c -0.61809,-7.68608 1.27315,-14.15062 2.69584,-19.15143 18.42204,6.01279 27.43934,1.55065 39.2461,-1.10485 -0.64694,1.32775 -2.39649,2.75574 -4.875,4.25 5.63761,0.17297 8.42353,-1.0799 11.125,-2.375 2.1695,8.1262 2.53856,12.67409 0.70711,22.56542 3.888,-6.07607 3.94596,-7.88084 7.35314,-7.53582 3.17387,0.3214 3.36224,4.58307 3.12281,7.16418 -0.52748,5.68631 -3.35909,8.22315 -6.34375,8.46875 l -0.73494,9.13438 c 6.71647,-4.02266 11.43337,-7.66214 13.73313,-15.26346 2.11104,-6.97754 0.7427,-10.44248 1.37055,-16.67843 2.09133,-9.94451 -4.27772,-19.88775 -8.08565,-22.162 0.79305,-1.67417 2.25633,-2.9462 3.875,-4.125 -1.78459,-0.0614 -3.70613,0.17849 -5.90625,1.03125 0.43665,-3.0069 -0.41011,-4.3355 -1,-6 -0.10271,1.74661 0.11266,3.57997 -0.84375,5.09375 -7.29985,-4.90293 -12.34572,-7.85631 -27.56434,-8.68674 l -2.375,0.75 c -32.48715,-1.36148 -27.74186,28.54755 -25.5,44.625 z"
       id="path8508"
       sodipodi:nodetypes="ccccccssccsccccccccc" />
    <path
       style="font-variation-settings:normal;opacity:1;vector-effect:none;fill:none;fill-opacity:0.3;stroke:#846d48;stroke-width:1.25;stroke-linecap:round;stroke-linejoin:round;stroke-miterlimit:4;stroke-dasharray:none;stroke-dashoffset:0;stroke-opacity:1;stop-color:#000000;stop-opacity:1"
       d="m 368.07979,177.81729 c 0.91439,-1.12298 1.7843,-3.01658 1.82369,-4.11872"
       id="path3454"
       sodipodi:nodetypes="cc" />
  </g>
</svg>
