<?xml version="1.0" encoding="UTF-8" standalone="no"?>
<svg
   xmlns:dc="http://purl.org/dc/elements/1.1/"
   xmlns:cc="http://creativecommons.org/ns#"
   xmlns:rdf="http://www.w3.org/1999/02/22-rdf-syntax-ns#"
   xmlns:svg="http://www.w3.org/2000/svg"
   xmlns="http://www.w3.org/2000/svg"
   xmlns:sodipodi="http://sodipodi.sourceforge.net/DTD/sodipodi-0.dtd"
   xmlns:inkscape="http://www.inkscape.org/namespaces/inkscape"
   width="53.046406"
   height="52.392853"
   viewBox="0 0 53.046406 52.392853"
   version="1.1"
   id="svg8"
   inkscape:version="1.0.1 (3bc2e813f5, 2020-09-07)"
   sodipodi:docname="Klic.svg">
  <defs
     id="defs2" />
  <sodipodi:namedview
     id="base"
     pagecolor="#e6e6e6"
     bordercolor="#666666"
     borderopacity="1.0"
     inkscape:pageopacity="0"
     inkscape:pageshadow="2"
     inkscape:zoom="7.9195959"
     inkscape:cx="35.544368"
     inkscape:cy="17.559866"
     inkscape:document-units="px"
     inkscape:current-layer="layer1"
     showgrid="false"
     units="px"
     width="2000px"
     inkscape:pagecheckerboard="false"
     showborder="true"
     borderlayer="true"
     inkscape:window-width="1920"
     inkscape:window-height="1017"
     inkscape:window-x="-8"
     inkscape:window-y="-8"
     inkscape:window-maximized="1"
     inkscape:document-rotation="0"
     fit-margin-top="5"
     fit-margin-left="5"
     fit-margin-right="5"
     fit-margin-bottom="5"
     lock-margins="true" />
  <metadata
     id="metadata5">
    <rdf:RDF>
      <cc:Work
         rdf:about="">
        <dc:format>image/svg+xml</dc:format>
        <dc:type
           rdf:resource="http://purl.org/dc/dcmitype/StillImage" />
        <dc:title></dc:title>
      </cc:Work>
    </rdf:RDF>
  </metadata>
  <g
     inkscape:label="Vrstva 1"
     inkscape:groupmode="layer"
     id="layer1"
     transform="translate(-1182.7797,-622.33371)">
    <g
       id="g1642">
      <g
         id="g1630"
         style="opacity:1">
        <path
           style="color:#000000;font-style:normal;font-variant:normal;font-weight:normal;font-stretch:normal;font-size:medium;line-height:normal;font-family:sans-serif;font-variant-ligatures:normal;font-variant-position:normal;font-variant-caps:normal;font-variant-numeric:normal;font-variant-alternates:normal;font-variant-east-asian:normal;font-feature-settings:normal;font-variation-settings:normal;text-indent:0;text-align:start;text-decoration:none;text-decoration-line:none;text-decoration-style:solid;text-decoration-color:#000000;letter-spacing:normal;word-spacing:normal;text-transform:none;writing-mode:lr-tb;direction:ltr;text-orientation:mixed;dominant-baseline:auto;baseline-shift:baseline;text-anchor:start;white-space:normal;shape-padding:0;shape-margin:0;inline-size:0;clip-rule:nonzero;display:inline;overflow:visible;visibility:visible;isolation:auto;mix-blend-mode:normal;color-interpolation:sRGB;color-interpolation-filters:linearRGB;solid-color:#000000;solid-opacity:1;vector-effect:none;fill:#8b5a0e;fill-opacity:1;fill-rule:evenodd;stroke:none;stroke-width:1.5;stroke-linecap:round;stroke-linejoin:round;stroke-miterlimit:4;stroke-dasharray:none;stroke-dashoffset:0;stroke-opacity:1;color-rendering:auto;image-rendering:auto;shape-rendering:auto;text-rendering:auto;enable-background:accumulate;stop-color:#000000;stop-opacity:1"
           d="m 1208.7733,632.85177 c -4.6307,-4.63041 -12.1382,-4.63041 -16.7689,10e-6 -4.6304,4.63068 -4.6304,12.13823 0,16.76891 3.497,3.49704 8.7972,4.45645 13.2982,2.40716 l 1.1284,4.21088 2.9292,-2.92924 2.5744,2.57436 -10e-5,3.15431 4.4443,1e-5 v 3.94436 l 1.3134,1.31338 4.2468,10e-4 v 2.64195 l 2.0371,2.0371 h 6.0988 v -4.70666 l -15.8382,-15.83813 2.1863,-2.18623 -4.7785,-1.28159 c 1.409,-4.25574 0.2975,-8.94223 -2.8726,-12.11196 z m -9.5307,3.40987 c 0.017,0.0164 0.034,0.0329 0.05,0.0497 1.1806,1.18076 1.1806,3.095 0,4.27576 -1.1808,1.18066 -3.095,1.18067 -4.2758,3e-5 -1.1807,-1.18077 -1.1807,-3.09507 0,-4.27584 1.1613,-1.16183 3.0378,-1.18389 4.2261,-0.0497 z"
           id="path1632" />
        <path
           style="color:#000000;font-style:normal;font-variant:normal;font-weight:normal;font-stretch:normal;font-size:medium;line-height:normal;font-family:sans-serif;font-variant-ligatures:normal;font-variant-position:normal;font-variant-caps:normal;font-variant-numeric:normal;font-variant-alternates:normal;font-variant-east-asian:normal;font-feature-settings:normal;font-variation-settings:normal;text-indent:0;text-align:start;text-decoration:none;text-decoration-line:none;text-decoration-style:solid;text-decoration-color:#000000;letter-spacing:normal;word-spacing:normal;text-transform:none;writing-mode:lr-tb;direction:ltr;text-orientation:mixed;dominant-baseline:auto;baseline-shift:baseline;text-anchor:start;white-space:normal;shape-padding:0;shape-margin:0;inline-size:0;clip-rule:nonzero;display:inline;overflow:visible;visibility:visible;isolation:auto;mix-blend-mode:normal;color-interpolation:sRGB;color-interpolation-filters:linearRGB;solid-color:#000000;solid-opacity:1;vector-effect:none;fill:#8b5a0e;fill-opacity:1;fill-rule:evenodd;stroke:none;stroke-width:1.5;stroke-linecap:round;stroke-linejoin:round;stroke-miterlimit:4;stroke-dasharray:none;stroke-dashoffset:0;stroke-opacity:1;color-rendering:auto;image-rendering:auto;shape-rendering:auto;text-rendering:auto;enable-background:accumulate;stop-color:#000000;stop-opacity:1"
           d="m 1200.3887,628.63281 c -3.2281,0 -6.4554,1.23095 -8.9141,3.68946 -4.917,4.91729 -4.917,12.91083 0,17.82812 3.5054,3.50538 8.7019,4.50987 13.2969,2.79688 l 0.9355,3.48632 c 0.15,0.55662 0.8457,0.74302 1.2539,0.33594 l 2.3985,-2.39844 1.8261,1.82422 v 2.84375 c 0,0.4142 0.3358,0.74996 0.75,0.75 h 3.6953 v 3.19336 c -5e-4,0.1991 0.078,0.39023 0.2188,0.53125 l 1.3144,1.3125 c 0.1402,0.14077 0.3306,0.22015 0.5293,0.22071 h 3.4981 v 1.89257 c 0,0.19841 0.079,0.38874 0.2187,0.5293 l 2.0371,2.03711 c 0.1407,0.14126 0.3319,0.22068 0.5313,0.2207 h 6.0976 c 0.4142,-4e-5 0.75,-0.3358 0.75,-0.75 v -4.70703 c 5e-4,-0.19909 -0.078,-0.39021 -0.2187,-0.53125 l -15.3086,-15.30859 1.6562,-1.6543 c 0.1587,-0.15916 0.2272,-0.36203 0.2187,-0.55923 -0.01,-0.12029 0.04,-1.25652 -0.02,-1.36138 -0.093,-0.16407 -0.3279,0.72254 -0.5351,0.6667 l -4.1172,-1.10546 c 1.1082,-4.23826 0,-8.74845 -3.0664,-11.91993 0,-0.003 0,-0.007 -0.01,-0.01 -0.032,-0.057 -0.072,-0.1095 -0.1172,-0.15625 0,-0.003 -0.01,-0.005 -0.01,-0.008 -2.4586,-2.45851 -5.686,-3.68946 -8.914,-3.68946 z m 0,1.49219 c 2.841,0 5.6815,1.0859 7.8535,3.25781 2.9698,2.97034 4.0096,7.35816 2.6894,11.34571 -0.1346,0.40958 0.103,0.84805 0.5196,0.95898 l 3.5234,0.94531 -1.2676,1.26758 c -0.2928,0.2929 -0.2928,0.76765 0,1.06055 l 15.6172,15.61914 v 3.64648 h -5.0371 l -1.5976,-1.59765 v -2.33203 c 0,-0.4142 -0.3358,-0.74996 -0.75,-0.75 h -3.9356 l -0.875,-0.875 v -3.63282 c 0,-0.4142 -0.3358,-0.74996 -0.75,-0.75 h -3.6953 v -2.40429 c 0,-0.19938 -0.08,-0.39054 -0.2207,-0.53125 l -2.5742,-2.57422 c -0.2929,-0.29275 -0.7676,-0.29275 -1.0605,0 l -2.0098,2.00976 -0.793,-2.95508 c -0.1201,-0.44756 -0.6133,-0.68021 -1.0351,-0.48828 -4.2186,1.9207 -9.1795,1.02175 -12.457,-2.25586 -4.3439,-4.34407 -4.3439,-11.36295 0,-15.70703 2.172,-2.17191 5.0124,-3.25781 7.8535,-3.25781 z m -3.2774,4.55469 c -0.9535,0.0112 -1.9032,0.37947 -2.625,1.10156 -1.4672,1.46738 -1.4672,3.86856 0,5.33594 1.4674,1.46722 3.8686,1.46724 5.336,0 1.4385,-1.43866 1.4466,-3.76449 0.064,-5.23828 0,-0.005 -0.01,-0.0105 -0.01,-0.0156 -0.013,-0.0134 -0.016,-0.0316 -0.029,-0.0449 0,-10e-4 0,-0.003 0,-0.004 -0.01,-0.01 -0.012,-0.0235 -0.022,-0.0332 -0.019,-0.0189 -0.038,-0.0381 -0.057,-0.0566 0,-0.002 0,-0.004 -0.01,-0.006 -0.7386,-0.70491 -1.695,-1.05028 -2.6485,-1.03906 z m 0.018,1.49219 c 0.5721,-0.007 1.1459,0.20353 1.5957,0.63281 0.011,0.0108 0.022,0.0222 0.033,0.0332 0,10e-4 0,0.003 0,0.004 0.8941,0.89415 0.8941,2.32069 0,3.21484 -0.8941,0.89408 -2.3207,0.89406 -3.2148,0 -0.8941,-0.89416 -0.8941,-2.32068 0,-3.21484 0.4395,-0.43974 1.0099,-0.6632 1.582,-0.66992 z"
           id="path1634"
           sodipodi:nodetypes="scscccccccccccccscccccccccssccccscssccccccccccscccccccccccscsssssssccsssscsssscssss" />
      </g>
      <path
         id="path846"
         style="font-variation-settings:normal;opacity:1;vector-effect:none;fill:#ebab47;fill-opacity:1;fill-rule:evenodd;stroke:#8b5a0e;stroke-width:1.5;stroke-linecap:round;stroke-linejoin:round;stroke-miterlimit:4;stroke-dasharray:none;stroke-dashoffset:0;stroke-opacity:1;stop-color:#000000;stop-opacity:1"
         d="m 1208.7667,631.5518 a 11.857742,11.857742 0 0 0 -16.7689,1e-5 11.857742,11.857742 0 0 0 0,16.76891 11.857742,11.857742 0 0 0 13.2982,2.40716 l 1.1284,4.21088 2.9292,-2.92924 2.5744,2.57436 -1e-4,3.15431 4.4443,10e-6 v 3.94436 l 1.3134,1.31338 4.2468,10e-4 v 2.64195 l 2.0371,2.0371 h 6.0988 v -4.70666 l -15.8382,-15.83813 2.1863,-2.18623 -4.7785,-1.28159 a 11.857742,11.857742 0 0 0 -2.8726,-12.11196 z m -9.5307,3.40987 a 3.0235927,3.0235927 0 0 1 0.05,0.0497 3.0235927,3.0235927 0 0 1 0,4.27576 3.0235927,3.0235927 0 0 1 -4.2758,3e-5 3.0235927,3.0235927 0 0 1 0,-4.27584 3.0235927,3.0235927 0 0 1 4.2261,-0.0497 z" />
      <circle
         style="font-variation-settings:normal;opacity:1;vector-effect:none;fill:none;fill-opacity:0.3;fill-rule:evenodd;stroke:#8b5a0e;stroke-width:1.36473;stroke-linecap:round;stroke-linejoin:round;stroke-miterlimit:4;stroke-dasharray:none;stroke-dashoffset:0;stroke-opacity:1;stop-color:#000000;stop-opacity:1"
         id="path858"
         cx="1301.271"
         cy="-396.40802"
         r="9.5093689"
         transform="rotate(45)" />
      <path
         style="font-variation-settings:normal;opacity:1;vector-effect:none;fill:none;fill-opacity:0.3;stroke:#8b5a0e;stroke-width:1.5;stroke-linecap:round;stroke-linejoin:round;stroke-miterlimit:4;stroke-dasharray:none;stroke-dashoffset:0;stroke-opacity:1;stop-color:#000000;stop-opacity:1"
         d="m 1226.9615,665.00419 -17.0668,-17.06687"
         id="path860" />
    </g>
  </g>
</svg>
