<?xml version="1.0" encoding="UTF-8" standalone="no"?>
<svg
   xmlns:dc="http://purl.org/dc/elements/1.1/"
   xmlns:cc="http://creativecommons.org/ns#"
   xmlns:rdf="http://www.w3.org/1999/02/22-rdf-syntax-ns#"
   xmlns:svg="http://www.w3.org/2000/svg"
   xmlns="http://www.w3.org/2000/svg"
   xmlns:sodipodi="http://sodipodi.sourceforge.net/DTD/sodipodi-0.dtd"
   xmlns:inkscape="http://www.inkscape.org/namespaces/inkscape"
   width="103.69706"
   height="271.07758"
   viewBox="0 0 103.69706 271.07758"
   version="1.1"
   id="svg8"
   inkscape:version="1.0.1 (3bc2e813f5, 2020-09-07)"
   sodipodi:docname="Elektrotechnik.svg"
   inkscape:export-filename="C:\Users\micha\Downloads\Architekt.png"
   inkscape:export-xdpi="300"
   inkscape:export-ydpi="300">
  <defs
     id="defs2">
    <marker
       style="overflow:visible"
       id="DotM"
       refX="0"
       refY="0"
       orient="auto"
       inkscape:stockid="DotM"
       inkscape:isstock="true">
      <path
         transform="matrix(0.4,0,0,0.4,2.96,0.4)"
         style="fill:#391313;fill-opacity:1;fill-rule:evenodd;stroke:#391313;stroke-width:1pt;stroke-opacity:1"
         d="m -2.5,-1 c 0,2.76 -2.24,5 -5,5 -2.76,0 -5,-2.24 -5,-5 0,-2.76 2.24,-5 5,-5 2.76,0 5,2.24 5,5 z"
         id="path7400" />
    </marker>
    <marker
       style="overflow:visible"
       id="Arrow2Send"
       refX="0"
       refY="0"
       orient="auto"
       inkscape:stockid="Arrow2Send"
       inkscape:isstock="true">
      <path
         transform="matrix(-0.3,0,0,-0.3,0.69,0)"
         d="M 8.7185878,4.0337352 -2.2072895,0.01601326 8.7185884,-4.0017078 c -1.7454984,2.3720609 -1.7354408,5.6174519 -6e-7,8.035443 z"
         style="fill:#391313;fill-opacity:1;fill-rule:evenodd;stroke:#391313;stroke-width:0.625;stroke-linejoin:round;stroke-opacity:1"
         id="path7369" />
    </marker>
    <marker
       style="overflow:visible"
       id="DotS"
       refX="0"
       refY="0"
       orient="auto"
       inkscape:stockid="DotS"
       inkscape:isstock="true">
      <path
         transform="matrix(0.2,0,0,0.2,1.48,0.2)"
         style="fill:#391313;fill-opacity:1;fill-rule:evenodd;stroke:#391313;stroke-width:1pt;stroke-opacity:1"
         d="m -2.5,-1 c 0,2.76 -2.24,5 -5,5 -2.76,0 -5,-2.24 -5,-5 0,-2.76 2.24,-5 5,-5 2.76,0 5,2.24 5,5 z"
         id="path7403" />
    </marker>
    <marker
       style="overflow:visible"
       id="SquareS"
       refX="0"
       refY="0"
       orient="auto"
       inkscape:stockid="SquareS"
       inkscape:isstock="true">
      <path
         transform="scale(0.2)"
         style="fill:#391313;fill-opacity:1;fill-rule:evenodd;stroke:#391313;stroke-width:1pt;stroke-opacity:1"
         d="M -5,-5 V 5 H 5 V -5 Z"
         id="path7412" />
    </marker>
  </defs>
  <sodipodi:namedview
     id="base"
     pagecolor="#e6e6e6"
     bordercolor="#666666"
     borderopacity="1.0"
     inkscape:pageopacity="0"
     inkscape:pageshadow="2"
     inkscape:zoom="2.8284271"
     inkscape:cx="1.9742575"
     inkscape:cy="115.72051"
     inkscape:document-units="px"
     inkscape:current-layer="layer1"
     showgrid="false"
     units="px"
     width="2000px"
     inkscape:pagecheckerboard="false"
     showborder="true"
     borderlayer="true"
     inkscape:window-width="1920"
     inkscape:window-height="1017"
     inkscape:window-x="-8"
     inkscape:window-y="-8"
     inkscape:window-maximized="1"
     inkscape:document-rotation="0"
     fit-margin-top="5"
     lock-margins="true"
     fit-margin-left="5"
     fit-margin-right="5"
     fit-margin-bottom="5" />
  <metadata
     id="metadata5">
    <rdf:RDF>
      <cc:Work
         rdf:about="">
        <dc:format>image/svg+xml</dc:format>
        <dc:type
           rdf:resource="http://purl.org/dc/dcmitype/StillImage" />
        <dc:title></dc:title>
      </cc:Work>
    </rdf:RDF>
  </metadata>
  <g
     inkscape:label="Vrstva 1"
     inkscape:groupmode="layer"
     id="layer1"
     transform="translate(-307.13584,-140.52249)">
    <path
       style="font-variation-settings:normal;opacity:1;vector-effect:none;fill:#402e26;fill-opacity:1;stroke:#000000;stroke-width:1.25;stroke-linecap:round;stroke-linejoin:round;stroke-miterlimit:4;stroke-dasharray:none;stroke-dashoffset:0;stroke-opacity:1;stop-color:#000000;stop-opacity:1"
       d="m 330.10675,384.05655 v 6.32741 c -3.59951,1.3253 -7.49595,3.37644 -9.67589,5.75704 -4.02711,4.39781 0.65343,9.63253 5.93383,9.63253 8.49789,0.40782 15.11633,0.2073 20.80048,-0.70175 2.17893,-0.34848 4.07507,-6.07568 3.89707,-8.53822 l -0.75601,-13.17048 c -6.62629,2.75457 -12.9734,2.08734 -20.19948,0.69347 z"
       id="path2766-8"
       sodipodi:nodetypes="ccscsccc" />
    <path
       style="font-variation-settings:normal;opacity:1;vector-effect:none;fill:#261c17;fill-opacity:1;stroke:none;stroke-width:1.25;stroke-linecap:butt;stroke-linejoin:bevel;stroke-miterlimit:4;stroke-dasharray:none;stroke-dashoffset:0;stroke-opacity:1;stop-color:#000000;stop-opacity:1"
       d="m 347.06222,404.60594 c -4.08032,-5.1542 -2.64165,-8.67975 1.59374,-10.50236 z"
       id="path2774-2"
       sodipodi:nodetypes="ccc" />
    <path
       id="path2768-4"
       style="font-variation-settings:normal;opacity:1;vector-effect:none;fill:#261c17;fill-opacity:1;stroke:none;stroke-width:1.25;stroke-linecap:butt;stroke-linejoin:bevel;stroke-miterlimit:4;stroke-dasharray:none;stroke-dashoffset:0;stroke-opacity:1;stop-color:#000000;stop-opacity:1"
       d="m 324.08546,393.29327 c 1.1e-4,2e-5 0.0166,0.004 0.0166,0.004 -2.83339,11.36475 9.66927,11.23463 17.88716,12.30975 0,0 -0.0129,0.056 -0.0129,0.0577 -4.48753,0.36305 -9.55848,0.39885 -15.61159,0.10837 -5.2804,0 -9.96084,-5.23542 -5.93372,-9.63324 0.94082,-1.02742 2.23638,-1.97344 3.65482,-2.84626 z" />
    <path
       id="path2770-4"
       style="font-variation-settings:normal;opacity:1;vector-effect:none;fill:#261c17;fill-opacity:1;stroke:none;stroke-width:1.25;stroke-linecap:butt;stroke-linejoin:bevel;stroke-miterlimit:4;stroke-dasharray:none;stroke-dashoffset:0;stroke-opacity:1;stop-color:#000000;stop-opacity:1"
       d="m 350.30763,383.36384 0.75411,13.1694 c 0.17809,2.46255 -1.71734,8.19034 -3.89627,8.53882 -0.53733,0.086 -1.12873,0.13259 -1.68354,0.20588 1.18941,-3.87811 1.64276,-7.7562 0.74089,-11.63431 -4.45376,0.3354 -9.29483,-1.28654 -16.11763,-4.61615 v -1.58207 l 0.29436,0.0148 10.5246,-2.21778 c 3.14654,-0.0529 6.23512,-0.56945 9.38348,-1.87824 z"
       sodipodi:nodetypes="ccscccccccc" />
    <path
       style="font-variation-settings:normal;opacity:1;vector-effect:none;fill:none;fill-opacity:1;stroke:#100c0a;stroke-width:1.25;stroke-linecap:round;stroke-linejoin:round;stroke-miterlimit:4;stroke-dasharray:none;stroke-dashoffset:0;stroke-opacity:1;stop-color:#000000;stop-opacity:1"
       d="m 330.10675,384.05655 v 6.32741 c -3.59951,1.3253 -7.49595,3.37644 -9.67589,5.75704 -4.02711,4.39781 0.65343,9.63253 5.93383,9.63253 8.49789,0.40782 15.11633,0.2073 20.80048,-0.70175 2.17893,-0.34848 4.07507,-6.07568 3.89707,-8.53822 l -0.75601,-13.17048 c -6.62629,2.75457 -12.9734,2.08734 -20.19948,0.69347 z"
       id="path2772-4"
       sodipodi:nodetypes="ccscsccc" />
    <path
       style="font-variation-settings:normal;opacity:1;vector-effect:none;fill:#e7d4cb;fill-opacity:1;stroke:#997766;stroke-width:1.25;stroke-linecap:round;stroke-linejoin:round;stroke-miterlimit:4;stroke-dasharray:none;stroke-dashoffset:0;stroke-opacity:1;stop-color:#000000;stop-opacity:1"
       d="m 334.67515,269.18812 c -0.0166,14.58542 -0.37411,32.73631 -3.18977,47.11104 2.2497,4.74588 3.08611,12.74647 1.4258,13.74455 -1.31887,0.79284 -1.72097,-2.48381 -2.13798,-4.24456 -1.65791,3.64546 1.261,7.79388 0.4805,9.29307 -1.37951,2.64985 -3.04966,2.96862 -4.8606,3.01127 -5.45457,0.12834 -8.43518,-9.67785 -8.30402,-12.51265 0.12446,-2.69229 0.52518,-6.09391 2.038,-9.04234 -0.51066,-8.4019 -1.81698,-18.13917 -1.69863,-28.49724 0.0877,-7.67145 -3.07277,-15.21555 -3.26175,-21.58574 4.79544,1.19849 7.67342,3.00555 19.50845,2.7226 z"
       id="path880-7-8"
       sodipodi:nodetypes="ccscssscscc" />
    <path
       id="path2696-5"
       style="font-variation-settings:normal;opacity:1;vector-effect:none;fill:#d7b7a8;fill-opacity:1;stroke:none;stroke-width:1.25;stroke-linecap:butt;stroke-linejoin:bevel;stroke-miterlimit:4;stroke-dasharray:none;stroke-dashoffset:0;stroke-opacity:1;stop-color:#000000;stop-opacity:1"
       d="m 320.94466,268.07187 c 2.97092,0.72561 6.80009,1.28177 13.72928,1.1161 -0.0166,14.58542 -0.37375,32.73682 -3.18941,47.11154 2.2497,4.74588 3.08705,12.74564 1.42674,13.74374 -1.31887,0.79283 -1.7213,-2.48339 -2.13831,-4.24414 -1.65791,3.64547 1.2609,7.79453 0.4804,9.29372 -1.3795,2.64985 -3.07974,2.57134 -4.89068,2.61399 -1.73669,0.0409 -3.17593,-1.29804 -3.62285,-1.76935 -0.27281,-6.30441 -1.11303,-12.80261 -0.28173,-19.10699 -1.54158,-15.86493 -1.60376,-32.28177 -1.51344,-48.75861 z"
       sodipodi:nodetypes="cccscssccc" />
    <path
       style="font-variation-settings:normal;opacity:1;vector-effect:none;fill:#5d2323;fill-opacity:1;stroke:#250e0e;stroke-width:1.25;stroke-linecap:round;stroke-linejoin:round;stroke-miterlimit:4;stroke-dasharray:none;stroke-dashoffset:0;stroke-opacity:1;stop-color:#000000;stop-opacity:1"
       d="m 335.26338,311.07575 c 1.91375,-13.15709 2.25387,-66.17879 -2.47483,-79.4176 -7.06226,-0.76185 -18.6382,14.39229 -19.641,31.91846 -0.0366,0.6396 0.88794,12.96141 1.63411,19.06479 0.13971,1.14275 0.61306,11.98982 1.2002,20.37189 0.12584,1.79651 0.85221,1.59918 1.24726,2.82274 0.7796,2.41461 0.80668,4.59153 1.00633,7.06928 5.8888,1.8362 10.1901,-2.1034 17.02793,-1.82956 z"
       id="path878-3-3"
       sodipodi:nodetypes="ccsssscc" />
    <path
       style="font-variation-settings:normal;opacity:1;vector-effect:none;fill:#402e26;fill-opacity:1;stroke:#000000;stroke-width:1.25;stroke-linecap:round;stroke-linejoin:round;stroke-miterlimit:4;stroke-dasharray:none;stroke-dashoffset:0;stroke-opacity:1;stop-color:#000000;stop-opacity:1"
       d="m 358.82558,384.05655 v 6.32741 c -3.93085,1.3253 -8.18599,3.37644 -10.56661,5.75704 -4.39783,4.39781 0.71359,9.63253 6.48008,9.63253 9.28016,0.40782 16.50788,0.2073 22.7153,-0.70175 2.37951,-0.34848 4.45019,-6.07568 4.25581,-8.53822 l -0.82561,-13.17048 c -7.23628,2.75457 -14.16767,2.08734 -22.05897,0.69347 z"
       id="path901-2"
       sodipodi:nodetypes="ccscsccc" />
    <path
       id="path2735-4"
       style="font-variation-settings:normal;opacity:1;vector-effect:none;fill:#261c17;fill-opacity:1;stroke:none;stroke-width:1.25;stroke-linecap:butt;stroke-linejoin:bevel;stroke-miterlimit:4;stroke-dasharray:none;stroke-dashoffset:0;stroke-opacity:1;stop-color:#000000;stop-opacity:1"
       d="m 352.25001,393.29327 c 1.1e-4,2e-5 0.0185,0.004 0.0185,0.004 -3.09423,11.36475 10.55938,11.23463 19.53379,12.30975 0,0 -0.0148,0.056 -0.0148,0.0577 -4.90062,0.36305 -10.43837,0.39885 -17.04872,0.10837 -5.76648,0 -10.8778,-5.23542 -6.47996,-9.63324 1.02744,-1.02742 2.44227,-1.97344 3.99127,-2.84626 z" />
    <path
       id="path2729-7"
       style="font-variation-settings:normal;opacity:1;vector-effect:none;fill:#261c17;fill-opacity:1;stroke:none;stroke-width:1.25;stroke-linecap:butt;stroke-linejoin:bevel;stroke-miterlimit:4;stroke-dasharray:none;stroke-dashoffset:0;stroke-opacity:1;stop-color:#000000;stop-opacity:1"
       d="m 380.88608,383.36384 0.82354,13.1694 c 0.19438,2.46255 -1.87545,8.19034 -4.25495,8.53882 -0.58679,0.086 -1.23263,0.13259 -1.83852,0.20588 1.29889,-3.87811 1.79398,-7.7562 0.80909,-11.63431 -4.86376,0.3354 -10.15047,-1.28654 -17.60136,-4.61615 v -1.58207 l 0.32147,0.0148 11.49343,-2.21778 c 3.43621,-0.0529 6.80912,-0.56945 10.2473,-1.87824 z"
       sodipodi:nodetypes="ccscccccccc" />
    <path
       style="font-variation-settings:normal;opacity:1;vector-effect:none;fill:none;fill-opacity:1;stroke:#100c0a;stroke-width:1.25;stroke-linecap:round;stroke-linejoin:round;stroke-miterlimit:4;stroke-dasharray:none;stroke-dashoffset:0;stroke-opacity:1;stop-color:#000000;stop-opacity:1"
       d="m 358.82558,384.05655 v 6.32741 c -3.93085,1.3253 -8.18599,3.37644 -10.56661,5.75704 -4.39783,4.39781 0.71359,9.63253 6.48008,9.63253 9.28016,0.40782 16.50788,0.2073 22.7153,-0.70175 2.37951,-0.34848 4.45019,-6.07568 4.25581,-8.53822 l -0.82561,-13.17048 c -7.23628,2.75457 -14.16767,2.08734 -22.05897,0.69347 z"
       id="path2740-0"
       sodipodi:nodetypes="ccscsccc" />
    <path
       style="font-variation-settings:normal;opacity:1;vector-effect:none;fill:#8b99c0;fill-opacity:1;stroke:none;stroke-width:1.25;stroke-linecap:round;stroke-linejoin:round;stroke-miterlimit:4;stroke-dasharray:none;stroke-dashoffset:0;stroke-opacity:1;stop-color:#000000;stop-opacity:1"
       d="m 384.15287,317.95227 c 2.0573,14.26454 -8.3e-4,22.24531 -1.01675,35.29573 -0.76325,9.80434 -2.13486,23.91773 -0.93463,34.16862 -6.8213,2.15028 -17.81958,2.61419 -25.45865,-0.0584 0.4383,-3.65562 -0.0264,-13.3779 -0.28008,-17.02854 -0.80597,-11.59964 -2.37603,-20.94734 -4.67354,-32.39781 l -0.28905,-17.09 c 14.30012,-0.4309 23.68247,-3.24201 32.65261,-6.10946 z"
       id="path897-1"
       sodipodi:nodetypes="csccscccc" />
    <path
       style="font-variation-settings:normal;opacity:1;vector-effect:none;fill:#431919;fill-opacity:1;stroke:none;stroke-width:1.25;stroke-linecap:butt;stroke-linejoin:bevel;stroke-miterlimit:4;stroke-dasharray:none;stroke-dashoffset:0;stroke-opacity:1;stop-color:#000000;stop-opacity:1"
       d="m 324.69462,268.82321 -0.13577,-8.44389 c -1.50688,11.07395 -1.92774,21.9669 -2.80567,32.93602 l 0.40595,19.43435 c 1.64808,-0.0583 3.96437,-0.62485 5.0104,-0.50569 z"
       id="path2687-3-3"
       sodipodi:nodetypes="cccccc" />
    <path
       style="font-variation-settings:normal;opacity:1;vector-effect:none;fill:#e7d4cb;fill-opacity:1;stroke:#997766;stroke-width:1.25;stroke-linecap:round;stroke-linejoin:round;stroke-miterlimit:4;stroke-dasharray:none;stroke-dashoffset:0;stroke-opacity:1;stop-color:#000000;stop-opacity:1"
       d="m 375.38968,233.22792 -4.5964,-2.35789 c 0.28193,-2.95587 -3.49613,-4.48986 -3.57973,-7.37263 -6.44083,3.46546 -5.2493,6.92041 -28.52873,4.92071 v 1.83894 c -2.57811,0.0919 -3.98879,0.68302 -5.89627,1.4011 0,20.04591 42.60113,18.44772 42.60113,1.56977 z"
       id="path872-4"
       sodipodi:nodetypes="ccccccc" />
    <path
       id="path2701-1"
       style="font-variation-settings:normal;opacity:1;vector-effect:none;fill:#d7b7a8;fill-opacity:1;stroke:none;stroke-width:1.25;stroke-linecap:butt;stroke-linejoin:bevel;stroke-miterlimit:4;stroke-dasharray:none;stroke-dashoffset:0;stroke-opacity:1;stop-color:#000000;stop-opacity:1"
       d="m 367.21342,223.49747 c 0.0836,2.88278 0.31082,5.90441 0.0288,8.86029 l 4.56559,2.19609 c 0,0.0359 -0.007,0.069 -0.007,0.10467 l -1.78795,1.67237 c -1.53693,-0.82292 -3.13479,-1.58493 -4.82565,-2.2539 0.33919,-1.92423 0.50473,-3.4434 0.37564,-4.97013 -5.107,1.46657 -8.93746,3.46078 -19.53378,2.65844 l 0.9644,-1.5893 c 12.50589,-0.35457 15.10358,-3.92569 20.22008,-6.6786 z"
       sodipodi:nodetypes="sccccccccss" />
    <path
       style="font-variation-settings:normal;opacity:1;vector-effect:none;fill:none;fill-opacity:1;stroke:#997766;stroke-width:1.25;stroke-linecap:round;stroke-linejoin:round;stroke-miterlimit:4;stroke-dasharray:none;stroke-dashoffset:0;stroke-opacity:1;stop-color:#000000;stop-opacity:1"
       d="m 375.38968,233.22792 -7.35854,0.006 c 0.28193,-2.95587 -1.26432,-7.53926 -1.34792,-10.42203 -6.44083,3.46546 -4.71897,7.60542 -27.9984,5.60572 v 1.83894 c -2.57811,0.0919 -3.98879,0.68302 -5.89627,1.4011 0,20.04591 42.60113,18.44772 42.60113,1.56977 z"
       id="path4400"
       sodipodi:nodetypes="ccccccc" />
    <path
       style="font-variation-settings:normal;opacity:1;vector-effect:none;fill:#8b99c0;fill-opacity:1;stroke:none;stroke-width:1.25;stroke-linecap:round;stroke-linejoin:round;stroke-miterlimit:4;stroke-dasharray:none;stroke-dashoffset:0;stroke-opacity:1;stop-color:#000000;stop-opacity:1"
       d="m 351.78922,324.06168 0.75892,13.87015 c 0,0 -1.60712,26.59754 -1.37396,40.05346 0.0525,3.02796 0.64593,9.69078 0.64593,9.69078 -7.28581,2.76746 -17.53497,2.34054 -23.35161,0 0.42733,-9.26696 -1.48838,-25.41789 -2.27101,-37.97737 -0.61465,-9.86361 0.16053,-22.8263 0.23751,-32.5243 8.63273,2.45524 16.56678,3.22229 25.35413,3.66743 z"
       id="path899-5"
       sodipodi:nodetypes="ccsccsccc" />
    <path
       id="path1625-8"
       style="font-variation-settings:normal;opacity:1;vector-effect:none;fill:#516395;fill-opacity:1;stroke:none;stroke-width:1.25;stroke-linecap:butt;stroke-linejoin:bevel;stroke-miterlimit:4;stroke-dasharray:none;stroke-dashoffset:0;stroke-opacity:1;stop-color:#000000;stop-opacity:1"
       d="m 351.82018,346.51765 0.14443,2.70901 c -0.44967,8.97522 -0.93629,20.37609 -0.79104,28.75887 0.0525,3.02797 0.64655,9.69105 0.64655,9.69105 -6.34052,1.60559 -9.67921,2.00561 -15.00794,1.9866 4.54649,-1.98527 6.2291,-3.19343 8.23541,-5.78284 z"
       sodipodi:nodetypes="ccscccc" />
    <path
       style="font-variation-settings:normal;opacity:1;vector-effect:none;fill:none;fill-opacity:1;stroke:#242c42;stroke-width:1.25;stroke-linecap:round;stroke-linejoin:round;stroke-miterlimit:4;stroke-dasharray:none;stroke-dashoffset:0;stroke-opacity:1;stop-color:#000000;stop-opacity:1"
       d="m 352.54814,333.44195 v 4.48988 c 0,0 -1.60712,26.59754 -1.37396,40.05346 0.0525,3.02796 0.64593,9.69078 0.64593,9.69078 -7.28581,2.76746 -17.06794,2.45729 -22.88458,0.11669 0.42733,-9.26696 -1.90117,-25.41789 -2.6838,-37.97736 -0.61465,-9.86362 -0.43443,-22.60695 0.18327,-32.64106 9.1319,2.34606 17.37617,3.31478 25.35422,3.66744"
       id="path1615-2"
       sodipodi:nodetypes="ccsccscc" />
    <path
       style="font-variation-settings:normal;opacity:1;vector-effect:none;fill:none;fill-opacity:0.3;stroke:#250e0e;stroke-width:1.25;stroke-linecap:round;stroke-linejoin:round;stroke-miterlimit:4;stroke-dasharray:none;stroke-dashoffset:0;stroke-opacity:1;stop-color:#000000;stop-opacity:1"
       d="m 317.42516,306.01363 c 3.58798,0.54141 6.53956,0.0487 9.1875,-0.9375"
       id="path1679"
       sodipodi:nodetypes="cc" />
    <path
       style="font-variation-settings:normal;opacity:1;vector-effect:none;fill:#5d2323;fill-opacity:1;stroke:none;stroke-width:1.25;stroke-linecap:round;stroke-linejoin:round;stroke-miterlimit:4;stroke-dasharray:none;stroke-dashoffset:0;stroke-opacity:1;stop-color:#000000;stop-opacity:1"
       d="m 384.15287,315.06266 v -77.35908 c -2.317,-1.8073 -7.90327,-4.85329 -13.35954,-6.83355 -4.85156,6.78594 -13.42859,13.93073 -20.64895,18.27887 -4.98061,-3.27294 -10.25287,-11.99724 -14.77774,-18.90798 -2.3096,0.78398 -7.23906,2.29793 -9.62135,5.3879 -1.71623,2.22606 -1.40948,5.25289 -1.15241,9.4949 1.51241,24.95671 -0.80565,46.77504 1.02491,71.90473 23.04103,6.66482 41.35713,3.71265 58.53508,-1.96579 z"
       id="path870-0"
       sodipodi:nodetypes="cccccsscc" />
    <path
       id="path1623-4"
       style="font-variation-settings:normal;opacity:1;vector-effect:none;fill:#516395;fill-opacity:1;stroke:none;stroke-width:1.25;stroke-linecap:butt;stroke-linejoin:bevel;stroke-miterlimit:4;stroke-dasharray:none;stroke-dashoffset:0;stroke-opacity:1;stop-color:#000000;stop-opacity:1"
       d="m 384.15132,315.06421 v 2.88962 c 2.05729,14.26453 9.8e-4,22.24259 -1.01494,35.293 -0.76325,9.80435 -2.13575,23.91879 -0.93552,34.16968 -6.8213,2.15028 -9.38076,1.86354 -16.90424,1.61827 4.3967,-1.2383 6.29338,-2.0949 9.31899,-4.61254 z"
       sodipodi:nodetypes="ccscccc" />
    <path
       style="font-variation-settings:normal;opacity:1;vector-effect:none;fill:none;fill-opacity:1;stroke:#242c42;stroke-width:1.25;stroke-linecap:round;stroke-linejoin:round;stroke-miterlimit:4;stroke-dasharray:none;stroke-dashoffset:0;stroke-opacity:1;stop-color:#000000;stop-opacity:1"
       d="m 351.78922,320.84183 c 10.84499,-0.20128 24.98753,-2.6907 32.36365,-6.10941 2.0573,14.26454 -8.3e-4,25.46516 -1.01675,38.51558 -0.76325,9.80434 -2.13486,23.91773 -0.93463,34.16862 -6.8213,2.15028 -17.81958,2.61419 -25.45865,-0.0584 0.4383,-3.65562 -0.0264,-13.3779 -0.28008,-17.02854 -0.80597,-11.59964 -1.61711,-20.94734 -3.91462,-32.39781 v -4.95691"
       id="path1617-0"
       sodipodi:nodetypes="ccsccscc" />
    <path
       id="path1627-3"
       style="font-variation-settings:normal;opacity:1;vector-effect:none;fill:#516395;fill-opacity:1;stroke:none;stroke-width:1.25;stroke-linecap:butt;stroke-linejoin:bevel;stroke-miterlimit:4;stroke-dasharray:none;stroke-dashoffset:0;stroke-opacity:1;stop-color:#000000;stop-opacity:1"
       d="m 384.28137,314.73912 v 3.22192 c 0.39829,2.76173 0.6059,5.23742 0.73323,7.61053 -19.94473,1.03318 -41.47917,-0.94195 -58.44964,-8.34376 1.1e-4,-0.013 -1.1e-4,-0.0298 0,-0.0433 8.58928,2.44287 16.48809,3.21283 25.22271,3.65898 14.20713,-0.4475 23.5582,-3.24794 32.4937,-6.10432 z" />
    <path
       id="path1679-9"
       style="font-variation-settings:normal;opacity:1;vector-effect:none;fill:#431919;fill-opacity:1;stroke:none;stroke-width:1.25;stroke-linecap:butt;stroke-linejoin:bevel;stroke-miterlimit:4;stroke-dasharray:none;stroke-dashoffset:0;stroke-opacity:1;stop-color:#000000;stop-opacity:1"
       d="m 384.15132,300.8148 v 14.24941 c -11.89385,3.93169 -24.33559,6.55011 -38.51129,5.58055 18.15069,-4.0994 30.35585,-11.4564 38.51129,-19.82996 z" />
    <path
       style="font-variation-settings:normal;opacity:1;vector-effect:none;fill:#5a9345;fill-opacity:1;stroke:#997766;stroke-width:1.25;stroke-linecap:round;stroke-linejoin:round;stroke-miterlimit:4;stroke-dasharray:none;stroke-dashoffset:0;stroke-opacity:1;stop-color:#000000;stop-opacity:1"
       d="m 338.68482,230.25655 c 0.006,1.42322 6.1e-4,2.86605 0.23352,3.91142"
       id="path874-7"
       sodipodi:nodetypes="cc" />
    <path
       style="font-variation-settings:normal;opacity:1;vector-effect:none;fill:none;fill-opacity:1;stroke:#250e0e;stroke-width:1.25;stroke-linecap:round;stroke-linejoin:round;stroke-miterlimit:4;stroke-dasharray:none;stroke-dashoffset:0;stroke-opacity:1;stop-color:#000000;stop-opacity:1"
       d="m 325.1109,260.32341 c 0.19198,17.29831 -1.07158,31.45228 -0.079,49.29013 0.0318,0.57125 0.59543,2.86794 0.8734,3.57562 0.42184,1.07396 -0.0519,2.72958 0.0329,3.89453 23.04103,6.66482 41.03663,3.65741 58.21458,-2.02103 l -0.0551,-76.91714 c -1.68724,-2.42602 -7.76995,-5.37336 -13.30435,-7.27549 -6.17739,6.43239 -19.02128,12.49785 -20.64846,18.02801 -2.35366,-6.7722 -9.63465,-9.44828 -14.77823,-18.65712 -3.19924,0.61635 -7.83074,2.61624 -9.90991,4.83142"
       id="path1619-2"
       sodipodi:nodetypes="cssccccccc" />
    <path
       style="font-variation-settings:normal;opacity:1;vector-effect:none;fill:#516395;fill-opacity:1;stroke:none;stroke-width:1.25;stroke-linecap:butt;stroke-linejoin:bevel;stroke-miterlimit:4;stroke-dasharray:none;stroke-dashoffset:0;stroke-opacity:1;stop-color:#000000;stop-opacity:1"
       d="m 382.83192,338.59236 c -4.59834,-3.12465 -4.64406,-10.16295 -4.70594,-15.1911 l 7.22402,-0.78433 z"
       id="path1677-7"
       sodipodi:nodetypes="cccc" />
    <path
       style="font-variation-settings:normal;opacity:1;vector-effect:none;fill:#431919;fill-opacity:1;stroke:none;stroke-width:1.25;stroke-linecap:butt;stroke-linejoin:bevel;stroke-miterlimit:4;stroke-dasharray:none;stroke-dashoffset:0;stroke-opacity:1;stop-color:#000000;stop-opacity:1"
       d="m 374.29444,311.8915 c -2.59113,-17.68632 -3.57959,-38.88291 -3.18518,-52.68343 l 16.18091,47.74716 z"
       id="path2683-2"
       sodipodi:nodetypes="cccc" />
    <path
       style="font-variation-settings:normal;opacity:1;vector-effect:none;fill:#e7d4cb;fill-opacity:1;stroke:#997766;stroke-width:1.25;stroke-linecap:round;stroke-linejoin:round;stroke-miterlimit:4;stroke-dasharray:none;stroke-dashoffset:0;stroke-opacity:1;stop-color:#000000;stop-opacity:1"
       d="m 373.17236,270.72772 c 2.2274,16.14683 5.6855,31.73508 10.98051,47.22455 -1.77201,5.59553 -1.48616,14.58065 0.50332,15.43424 1.58039,0.67806 1.52927,-3.01084 1.72427,-5.02353 2.38788,3.7852 -0.2156,8.82056 0.87568,10.36228 1.92882,2.72496 3.82631,2.82494 5.83791,2.59786 6.05887,-0.68401 8.56544,-12.04136 7.99083,-15.16024 -0.54571,-2.96211 -1.9578,-7.25763 -4.07945,-10.29301 0.25014,-16.584 -0.0666,-33.04204 -1.78947,-49.18759 -5.12807,2.05341 -7.07403,4.81884 -22.0436,4.04544 z"
       id="path880-73"
       sodipodi:nodetypes="ccscsssccc" />
    <path
       id="path2691-0"
       style="font-variation-settings:normal;opacity:1;vector-effect:none;fill:#d7b7a8;fill-opacity:1;stroke:none;stroke-width:1.25;stroke-linecap:round;stroke-linejoin:round;stroke-miterlimit:4;stroke-dasharray:none;stroke-dashoffset:0;stroke-opacity:1;stop-color:#000000;stop-opacity:1"
       d="m 395.21494,266.68125 c 1.7229,16.14555 2.04171,32.60444 1.79156,49.18843 2.12165,3.03538 3.53225,7.33215 4.07795,10.29426 0.57462,3.11887 -1.93091,14.47562 -7.98977,15.15962 -1.06366,0.12002 -2.09582,0.13519 -3.11718,-0.26729 5.2358,-1.86133 7.39292,-11.97602 6.85563,-14.89233 -0.54571,-2.96211 -1.95632,-7.25888 -4.07798,-10.29426 0.24059,-15.94978 -0.0562,-31.78103 -1.61097,-47.33187 1.34739,-0.61163 2.5834,-1.261 4.07076,-1.85656 z"
       sodipodi:nodetypes="ccsscsccc" />
    <path
       style="font-variation-settings:normal;opacity:1;vector-effect:none;fill:none;fill-opacity:1;stroke:#997766;stroke-width:1.25;stroke-linecap:round;stroke-linejoin:round;stroke-miterlimit:4;stroke-dasharray:none;stroke-dashoffset:0;stroke-opacity:1;stop-color:#000000;stop-opacity:1"
       d="m 373.17236,270.72772 c 2.2274,16.14683 5.6855,31.73508 10.98051,47.22455 -1.77201,5.59553 -1.48616,14.58065 0.50332,15.43424 1.58039,0.67806 1.52927,-3.01084 1.72427,-5.02353 2.38788,3.7852 -0.2156,8.82056 0.87568,10.36228 1.92882,2.72496 3.82631,2.82494 5.83791,2.59786 6.05887,-0.68401 8.56544,-12.04136 7.99083,-15.16024 -0.54571,-2.96211 -1.9578,-7.25763 -4.07945,-10.29301 0.25014,-16.584 -0.0666,-33.04204 -1.78947,-49.18759 -5.12807,2.05341 -7.07403,4.81884 -22.0436,4.04544 z"
       id="path2694-4"
       sodipodi:nodetypes="ccscsssccc" />
    <path
       style="font-variation-settings:normal;opacity:1;vector-effect:none;fill:#5d2323;fill-opacity:1;stroke:none;stroke-width:1.25;stroke-linecap:round;stroke-linejoin:round;stroke-miterlimit:4;stroke-dasharray:none;stroke-dashoffset:0;stroke-opacity:1;stop-color:#000000;stop-opacity:1"
       d="m 375.38968,232.64414 c 15.40273,6.1058 18.73161,20.39901 20.19579,29.20226 0.11211,0.67404 1.88946,20.18977 2.95527,33.6482 0.30201,3.81362 0.002,4.58213 -0.61635,7.47276 0.35356,3.78888 0.67668,7.63763 0.69663,7.84675 -5.54153,4.21817 -12.30411,4.59927 -16.72872,4.23196 -0.61043,-2.16338 -1.02748,-3.4723 -1.98283,-8.02865 -0.40948,-1.95295 -2.11173,-3.94566 -2.60663,-6.3014 -2.83366,-13.48851 -5.72541,-32.16431 -5.79081,-32.68384 -1.46313,-11.62291 -0.69373,-23.76771 3.87765,-35.38804 z"
       id="path876-7-4"
       sodipodi:nodetypes="csscccsssc" />
    <path
       style="font-variation-settings:normal;opacity:1;vector-effect:none;fill:#5d2323;fill-opacity:1;stroke:#0d0d0d;stroke-width:1.25;stroke-linecap:round;stroke-linejoin:round;stroke-miterlimit:4;stroke-dasharray:none;stroke-dashoffset:0;stroke-opacity:1;stop-color:#000000;stop-opacity:1"
       d="m 375.38968,232.64414 c 15.40273,6.1058 18.67723,20.18562 20.14141,28.98887 0.11211,0.67404 1.94384,20.40316 3.00965,33.86159 0.30201,3.81362 0.002,4.58213 -0.61635,7.47276 0.35356,3.78888 0.67668,7.63763 0.69663,7.84675 -5.54153,4.21817 -12.30411,4.59927 -16.72872,4.23196 -0.61043,-2.16338 -1.02748,-3.4723 -1.98283,-8.02865 -0.40948,-1.95295 -2.11173,-3.94566 -2.60663,-6.3014 -2.83366,-13.48851 -5.0183,-30.83848 -5.0837,-31.35801 -0.51077,-4.05746 -0.74947,-8.17852 -0.64933,-12.31867"
       id="path2471"
       sodipodi:nodetypes="csscccsssc" />
    <path
       style="font-variation-settings:normal;opacity:1;vector-effect:none;fill:none;fill-opacity:0.3;stroke:#250e0e;stroke-width:1.25;stroke-linecap:round;stroke-linejoin:round;stroke-miterlimit:4;stroke-dasharray:none;stroke-dashoffset:0;stroke-opacity:1;stop-color:#000000;stop-opacity:1"
       d="m 329.29388,314.02132 c 21.39579,4.88773 37.07692,1.40668 49.9375,-2.03125"
       id="path1683"
       sodipodi:nodetypes="cc" />
    <path
       style="font-variation-settings:normal;opacity:1;vector-effect:none;fill:#5d2323;fill-opacity:1;stroke:#250e0e;stroke-width:1.25;stroke-linecap:round;stroke-linejoin:round;stroke-miterlimit:4;stroke-dasharray:none;stroke-dashoffset:0;stroke-opacity:1;stop-color:#000000;stop-opacity:1"
       d="m 350.14435,249.1489 c -9.01686,-5.29996 -17.26862,-9.97398 -23.15934,-15.60887 0,0 0.21917,-2.74115 0.64747,-3.54005 1.16916,-2.18114 4.84988,-3.40709 4.84988,-3.40709 1.45254,0.91541 2.3025,1.85702 4.99663,2.71845 l 0.0974,3.41967 c 6.26894,4.03606 10.84331,10.27865 11.84571,12.50929 0.66105,1.47098 0.58679,2.64783 0.72231,3.9086 z"
       id="path19082"
       sodipodi:nodetypes="ccscccscc" />
    <path
       id="path19109"
       style="font-variation-settings:normal;opacity:1;vector-effect:none;fill:#431919;fill-opacity:1;stroke:none;stroke-width:0.5;stroke-linecap:butt;stroke-linejoin:bevel;stroke-miterlimit:4;stroke-dasharray:none;stroke-dashoffset:0;stroke-opacity:1;stop-color:#000000;stop-opacity:1"
       d="m 378.25011,233.93929 -0.10547,0.0195 c 0,0 6.50478,10.71544 8.28711,15.9668 5.55401,16.36396 6.64843,49.83398 6.64843,49.83398 l -1.10546,5.65625 1.09375,8.35742 c 1.89778,-0.6648 3.7877,-1.61545 5.55273,-2.95898 -0.0199,-0.20912 -0.34371,-4.05878 -0.69727,-7.84766 0.61835,-2.89063 0.9192,-3.65903 0.61719,-7.47265 -1.06581,-13.45843 -2.89765,-33.18729 -3.00976,-33.86133 -1.36865,-8.22888 -4.32177,-21.06602 -17.28125,-27.69336 z" />
    <path
       style="font-variation-settings:normal;opacity:1;vector-effect:none;fill:none;fill-opacity:1;stroke:#250e0e;stroke-width:1.25;stroke-linecap:round;stroke-linejoin:round;stroke-miterlimit:4;stroke-dasharray:none;stroke-dashoffset:0;stroke-opacity:1;stop-color:#000000;stop-opacity:1"
       d="m 375.38968,232.64414 c 15.40273,6.1058 18.67723,20.18562 20.14141,28.98887 0.11211,0.67404 1.94384,20.40316 3.00965,33.86159 0.30201,3.81362 0.002,4.58213 -0.61635,7.47276 0.35356,3.78888 0.67668,7.63763 0.69663,7.84675 -5.54153,4.21817 -12.30411,4.59927 -16.72872,4.23196 -0.61043,-2.16338 -1.02748,-3.4723 -1.98283,-8.02865 -0.40948,-1.95295 -2.11173,-3.94566 -2.60663,-6.3014 -2.83366,-13.48851 -5.0183,-30.83848 -5.0837,-31.35801 -0.51077,-4.05746 -0.74947,-8.17852 -0.64933,-12.31867"
       id="path19114"
       sodipodi:nodetypes="csscccsssc" />
    <path
       style="font-variation-settings:normal;opacity:1;vector-effect:none;fill:none;fill-opacity:0.3;stroke:#250e0e;stroke-width:1.25;stroke-linecap:round;stroke-linejoin:round;stroke-miterlimit:4;stroke-dasharray:none;stroke-dashoffset:0;stroke-opacity:1;stop-color:#000000;stop-opacity:1"
       d="m 397.92439,302.96736 c -4.87083,2.17884 -10.12388,4.04625 -18.13315,3.66784"
       id="path2473"
       sodipodi:nodetypes="cc" />
    <path
       style="font-variation-settings:normal;opacity:1;vector-effect:none;fill:#5d2323;fill-opacity:1;stroke:#000000;stroke-width:1.25;stroke-linecap:butt;stroke-linejoin:bevel;stroke-miterlimit:4;stroke-dasharray:none;stroke-dashoffset:0;stroke-opacity:1;stop-color:#000000;stop-opacity:1"
       d="m 350.14438,249.1489 c 11.22864,-3.88723 22.26876,-7.92525 31.26898,-13.59521 -1.14683,-7.76803 -6.61651,-10.16635 -14.16262,-9.61531 l 0.449,4.93165 0.3314,2.36389 c -6.90637,4.59254 -18.09205,8.02878 -17.88679,15.91498 z"
       id="path19078"
       sodipodi:nodetypes="ccccccc" />
    <path
       id="path19143"
       style="font-variation-settings:normal;opacity:1;vector-effect:none;fill:#431919;fill-opacity:1;stroke:none;stroke-width:0.5;stroke-linecap:butt;stroke-linejoin:bevel;stroke-miterlimit:4;stroke-dasharray:none;stroke-dashoffset:0;stroke-opacity:1;stop-color:#000000;stop-opacity:1"
       d="M 62.880859,78.566406 C 65.643484,80.890178 68.940071,82.145837 70.625,86.625 L 52.634766,98.224609 c 7.659461,-2.876401 14.963193,-6.03719 21.259765,-10.003906 -0.979914,-6.637431 -5.122979,-9.347752 -11.013672,-9.654297 z"
       transform="translate(307.51964,147.33382)" />
    <path
       style="font-variation-settings:normal;opacity:1;vector-effect:none;fill:none;fill-opacity:1;stroke:#250e0e;stroke-width:1.25;stroke-linecap:round;stroke-linejoin:round;stroke-miterlimit:4;stroke-dasharray:none;stroke-dashoffset:0;stroke-opacity:1;stop-color:#000000;stop-opacity:1"
       d="m 350.14438,249.1489 c 11.22864,-3.88723 22.26876,-7.92525 31.26898,-13.59521 -1.14683,-7.76803 -6.61651,-10.16635 -14.16262,-9.61531 l 0.449,4.93165 0.3314,2.36389 c -6.90637,4.59254 -18.09205,8.02878 -17.88679,15.91498 z"
       id="path19149"
       sodipodi:nodetypes="ccccccc" />
    <path
       style="font-variation-settings:normal;opacity:1;vector-effect:none;fill:#e7d4cb;fill-opacity:1;stroke:#997766;stroke-width:1.25;stroke-linecap:round;stroke-linejoin:round;stroke-miterlimit:4;stroke-dasharray:none;stroke-dashoffset:0;stroke-opacity:1;stop-color:#000000;stop-opacity:1"
       d="m 322.18914,187.72711 c -0.272,1.8907 0.18557,5.53087 0.63135,7.83622 1.05977,5.48047 0.26792,10.48034 0.23352,15.3537 -0.044,6.24382 9.24604,15.04883 13.95259,17.74722 8.31877,4.76938 22.53602,0.33298 26.41355,-1.72968 5.83383,-3.10332 10.25538,-5.88609 14.59629,-11.66478 6.5455,-8.7135 6.08175,-13.96089 6.15102,-24.61026 0.069,-10.6106 -4.06466,-21.80832 -16.74539,-29.07276 -17.76387,-10.1764 -40.79339,-4.71901 -45.23293,26.14034 z"
       id="path860-3"
       sodipodi:nodetypes="sssssssss" />
    <path
       id="path2715-2"
       style="font-variation-settings:normal;opacity:1;vector-effect:none;fill:#d7b7a8;fill-opacity:1;stroke:none;stroke-width:1.25;stroke-linecap:butt;stroke-linejoin:bevel;stroke-miterlimit:4;stroke-dasharray:none;stroke-dashoffset:0;stroke-opacity:1;stop-color:#000000;stop-opacity:1"
       d="m 349.95447,156.92431 c 5.85165,-0.17144 11.91651,1.48298 17.46771,4.6631 12.68073,7.26445 20.96811,18.46252 20.89913,29.07312 -0.0444,6.82554 -1.75147,11.38388 -4.03675,16.46982 l -0.36629,-13.36348 -6.61722,-3.43502 -6.94952,6.21266 c -9.18976,-19.70904 -41.2977,-31.06413 -47.82311,-2.72345 -0.32008,-2.13005 -0.55014,-4.62939 -0.33952,-6.09349 3.05219,-21.21579 14.89197,-30.42609 27.76557,-30.80326 z m 32.6813,48.77835 c -1.2192,2.32233 -2.47461,7.51577 -4.62018,9.96663 -4.30975,4.92294 -8.48077,9.89519 -14.78687,12.23203 -0.009,0.003 -0.0361,0.007 -0.0361,0.007 l -7.59247,1.34366 c 9.87584,-3.60527 19.9972,-12.45405 21.23482,-20.57312 z"
       sodipodi:nodetypes="ssscccccsscsscccc" />
    <path
       style="font-variation-settings:normal;opacity:1;vector-effect:none;fill:none;fill-opacity:0.3;stroke:#38312e;stroke-width:2;stroke-linecap:round;stroke-linejoin:round;stroke-miterlimit:4;stroke-dasharray:none;stroke-dashoffset:0;stroke-opacity:1;stop-color:#000000;stop-opacity:1"
       d="m 338.2457,185.36612 c -4.00875,-1.1653 -11.10133,0.75398 -12.8475,2.69251"
       id="path1611-7"
       sodipodi:nodetypes="cc" />
    <path
       style="font-variation-settings:normal;opacity:1;vector-effect:none;fill:none;fill-opacity:0.3;stroke:#997766;stroke-width:1.75;stroke-linecap:round;stroke-linejoin:round;stroke-miterlimit:4;stroke-dasharray:none;stroke-dashoffset:0;stroke-opacity:1;stop-color:#000000;stop-opacity:1"
       d="m 337.532,218.44792 c 4.00483,2.72882 8.41994,1.29991 9.92444,0"
       id="path866-9"
       sodipodi:nodetypes="cc" />
    <path
       style="font-variation-settings:normal;opacity:1;vector-effect:none;fill:none;fill-opacity:0.3;stroke:#38312e;stroke-width:2;stroke-linecap:round;stroke-linejoin:round;stroke-miterlimit:4;stroke-dasharray:none;stroke-dashoffset:0;stroke-opacity:1;stop-color:#000000;stop-opacity:1"
       d="m 365.39785,189.8508 c -3.38235,-3.13114 -6.66726,-6.35453 -15.08525,-4.71874"
       id="path1609-4"
       sodipodi:nodetypes="cc" />
    <path
       style="font-variation-settings:normal;opacity:1;vector-effect:none;fill:#201a13;fill-opacity:1;stroke:none;stroke-width:1.25;stroke-linecap:round;stroke-linejoin:round;stroke-miterlimit:4;stroke-dasharray:none;stroke-dashoffset:0;stroke-opacity:1;stop-color:#000000;stop-opacity:1"
       d="m 329.8928,202.59925 c -0.50213,-1.92795 -0.4652,-5.89679 0.0362,-8.1994 0.85649,-3.93261 4.90778,-3.15982 5.38182,-1.50317 0.93775,3.27718 0.96544,7.06402 0.31313,9.88305 -1.08547,4.69099 -4.9086,2.97808 -5.73129,-0.1805 z"
       id="path1607-5"
       sodipodi:nodetypes="ssssss" />
    <path
       style="font-variation-settings:normal;opacity:1;vector-effect:none;fill:#201a13;fill-opacity:1;stroke:none;stroke-width:1.25;stroke-linecap:round;stroke-linejoin:round;stroke-miterlimit:4;stroke-dasharray:none;stroke-dashoffset:0;stroke-opacity:1;stop-color:#000000;stop-opacity:1"
       d="m 351.82528,203.37435 c -0.53735,-2.0631 -0.49783,-6.31019 0.0388,-8.77423 0.91654,-4.20832 5.25185,-3.38134 5.75913,-1.60855 1.00349,3.50692 1.03312,7.55926 0.33508,10.57591 -1.16158,5.01986 -5.25273,3.18688 -6.1331,-0.19315 z"
       id="path1613-7"
       sodipodi:nodetypes="ssssss" />
    <path
       style="font-variation-settings:normal;opacity:1;vector-effect:none;fill:none;fill-opacity:1;stroke:#997766;stroke-width:1.25;stroke-linecap:round;stroke-linejoin:round;stroke-miterlimit:4;stroke-dasharray:none;stroke-dashoffset:0;stroke-opacity:1;stop-color:#000000;stop-opacity:1"
       d="m 322.18914,187.72711 c -0.272,1.8907 0.18557,5.53087 0.63135,7.83622 1.05977,5.48047 0.26792,10.48034 0.23352,15.3537 -0.044,6.24382 9.24604,15.04883 13.95259,17.74722 8.31877,4.76938 19.77385,0.80468 23.97291,-0.48282 6.8061,-2.08685 13.89524,-8.20254 17.5105,-13.6559 5.73141,-8.64541 5.07785,-13.21663 5.14712,-23.866 0.069,-10.6106 -8.21891,-21.80832 -20.89964,-29.07276 -17.76387,-10.1764 -36.10881,-4.71901 -40.54835,26.14034 z"
       id="path2720-8"
       sodipodi:nodetypes="sssssssss" />
    <path
       id="path894"
       style="font-variation-settings:normal;vector-effect:none;fill:#38312e;fill-opacity:1;stroke:#000000;stroke-width:1.25;stroke-linecap:round;stroke-linejoin:round;stroke-miterlimit:4;stroke-dasharray:none;stroke-dashoffset:0;stroke-opacity:1;stop-color:#000000"
       d="m 334.81444,148.32456 c -3.66221,0.66816 -9.29075,3.50042 -12.51874,7.28778 6.60834,-2.65193 11.35506,-3.24784 14.39376,-2.21004 -18.5911,6.22574 -19.85918,12.88238 -23.92906,18.78662 3.22236,-3.38718 5.43798,-5.13477 9.0133,-5.67797 -6.12071,7.28662 -4.70014,18.00209 -3.90088,25.01187 2.31613,-4.97043 5.2804,-9.23134 11.3939,-13.40344 8.09258,-5.52272 16.4725,-5.2852 19.74087,-4.67065 -2.46048,2.16 -3.04743,2.70487 -3.95273,5.88768 12.94096,-4.95451 15.40081,-3.03828 19.45867,1.38591 4.05786,4.42419 5.54387,10.90688 5.92916,17.21079 l 4.54537,0.84821 c 0,0 -0.74292,-2.03666 0.19711,-4.36859 -0.36835,1.43034 2.33186,-1.70602 3.62006,-1.95438 1.10506,-0.15351 -0.95926,12.69187 1.47185,15.03897 0.64737,0.625 0.53749,0.97135 2.60059,1.41405 7.83465,-4.65539 11.26541,-33.37522 4.88907,-41.02092 0.0694,-0.92892 0.75153,-1.66106 3.82685,-1.7162 -0.1964,-0.99667 -4.25832,-1.67277 -7.08308,-0.60785 -2.80396,-14.81994 -11.58155,-15.91737 -19.55558,-17.81541 -11.98559,-2.85293 -19.15387,-1.43089 -30.14049,0.57357 z"
       sodipodi:nodetypes="scccccscczccccscccccs" />
    <path
       style="font-variation-settings:normal;opacity:1;vector-effect:none;fill:none;fill-opacity:0.3;stroke:#38312e;stroke-width:1.25;stroke-linecap:round;stroke-linejoin:round;stroke-miterlimit:4;stroke-dasharray:none;stroke-dashoffset:0;stroke-opacity:1;stop-color:#000000;stop-opacity:1"
       d="m 375.62462,210.70523 c 2.88904,0.16905 4.27173,-0.20072 6.71751,0.7071"
       id="path1726"
       sodipodi:nodetypes="cc" />
    <path
       style="font-variation-settings:normal;opacity:1;vector-effect:none;fill:none;fill-opacity:0.3;stroke:#38312e;stroke-width:1.25;stroke-linecap:round;stroke-linejoin:round;stroke-miterlimit:4;stroke-dasharray:none;stroke-dashoffset:0;stroke-opacity:1;stop-color:#000000;stop-opacity:1"
       d="m 376.19913,213.40107 c 2.57244,0.26901 1.95051,-0.31566 4.37523,0.83969"
       id="path1728"
       sodipodi:nodetypes="cc" />
    <path
       id="path1730"
       style="font-variation-settings:normal;opacity:1;vector-effect:none;fill:#1c1917;fill-opacity:1;stroke:none;stroke-width:0.5;stroke-linecap:butt;stroke-linejoin:bevel;stroke-miterlimit:4;stroke-dasharray:none;stroke-dashoffset:0;stroke-opacity:1;stop-color:#000000;stop-opacity:1"
       d="m 349.22402,146.34519 c 5.12475,1.05779 22.38634,11.15347 15.5352,9.67318 -13.48536,-2.91373 18.95749,23.66828 11.2066,22.29139 -4.40968,-0.78335 1.26906,9.55099 0.49062,15.69168 0.77688,-0.62796 1.72633,-1.4228 2.34961,-1.54297 1.10506,-0.15351 -1.20524,12.97543 1.4707,15.03906 2.30598,1.77832 3.34956,1.03859 4.00781,-0.36718 6.58465,-10.34289 9.85876,-31.59454 3.48242,-39.24024 -1.69141,0.62427 -4.50078,-0.63645 -3.25585,-2.32422 -2.80396,-14.81994 -11.58262,-15.91641 -19.55665,-17.81445 -3.05045,-0.7261 -13.16173,-1.1731 -15.73046,-1.40625 z"
       sodipodi:nodetypes="cssccscccsc" />
    <path
       id="path1735"
       style="font-variation-settings:normal;vector-effect:none;fill:none;fill-opacity:1;stroke:#000000;stroke-width:1.25;stroke-linecap:round;stroke-linejoin:round;stroke-miterlimit:4;stroke-dasharray:none;stroke-dashoffset:0;stroke-opacity:1;stop-color:#000000"
       d="m 334.81444,148.32456 c -3.66221,0.66816 -9.29075,3.50042 -12.51874,7.28778 6.60834,-2.65193 11.35506,-3.24784 14.39376,-2.21004 -18.5911,6.22574 -19.85918,12.88238 -23.92906,18.78662 3.22236,-3.38718 5.43798,-5.13477 9.0133,-5.67797 -6.12071,7.28662 -4.70014,18.00209 -3.90088,25.01187 2.31613,-4.97043 5.2804,-9.23134 11.3939,-13.40344 8.09258,-5.52272 16.4725,-5.2852 19.74087,-4.67065 -2.46048,2.16 -3.04743,2.70487 -3.95273,5.88768 12.94096,-4.95451 15.40081,-3.03828 19.45867,1.38591 4.05786,4.42419 5.54387,10.90688 5.92916,17.21079 l 4.54537,0.84821 c 0,0 -0.74292,-2.03666 0.19711,-4.36859 -0.36835,1.43034 2.33186,-1.70602 3.62006,-1.95438 1.10506,-0.15351 -1.06621,12.80795 1.47185,15.03897 0.95987,0.84375 0.53749,0.97135 2.60059,1.41405 1.27852,-0.76311 4.30897,-4.8631 5.87268,-10.69895 3.17164,-11.83672 4.72962,-23.47139 -0.98361,-30.32197 0.0694,-0.92892 0.75153,-1.66106 3.82685,-1.7162 -0.1964,-0.99667 -4.25832,-1.67277 -7.08308,-0.60785 -2.80396,-14.81994 -11.58155,-15.91737 -19.55558,-17.81541 -11.98559,-2.85293 -19.15387,-1.43089 -30.14049,0.57357 z"
       sodipodi:nodetypes="scccccscczccccscsccccs" />
    <path
       style="font-variation-settings:normal;opacity:1;vector-effect:none;fill:#e7d4cb;fill-opacity:1;stroke:#997766;stroke-width:1.25;stroke-linecap:round;stroke-linejoin:round;stroke-miterlimit:4;stroke-dasharray:none;stroke-dashoffset:0;stroke-opacity:1;stop-color:#000000;stop-opacity:1"
       d="m 374.75432,195.46807 c 0.38265,-4.14035 6.62558,-3.98539 7.70631,-0.96907 1.01161,2.82342 0.8128,6.86663 -0.26682,9.69022 -0.95343,2.49355 -2.47346,4.55154 -5.35884,4.48964"
       id="path14516"
       sodipodi:nodetypes="cssc" />
    <path
       id="rect3448-3"
       style="font-variation-settings:normal;opacity:1;vector-effect:none;fill:#999999;fill-opacity:1;fill-rule:evenodd;stroke:#4d4d4d;stroke-width:1.5;stroke-linecap:round;stroke-linejoin:round;stroke-miterlimit:4;stroke-dasharray:none;stroke-dashoffset:0;stroke-opacity:1;stop-color:#000000;stop-opacity:1"
       d="m 380.48349,333.50975 0.28593,2.52011 -20.13225,2.28424 -1.57593,1.38134 -2.39943,0.24839 -0.56495,-4.97921 2.43201,-0.31218 1.77845,1.14654 z"
       sodipodi:nodetypes="ccccccccc" />
    <rect
       style="font-variation-settings:normal;opacity:1;vector-effect:none;fill:#4040bf;fill-opacity:1;fill-rule:evenodd;stroke:#1a1a4c;stroke-width:1.5;stroke-linecap:round;stroke-linejoin:round;stroke-miterlimit:4;stroke-dasharray:none;stroke-dashoffset:0;stroke-opacity:1;stop-color:#000000;stop-opacity:1"
       id="rect3448"
       width="6.0987959"
       height="24.395184"
       x="372.47861"
       y="-364.85516"
       rx="1.1875"
       ry="1.1875"
       transform="rotate(83.526797)" />
    <path
       id="path880-73-1"
       style="font-variation-settings:normal;opacity:1;vector-effect:none;fill:#e7d4cb;fill-opacity:1;stroke:none;stroke-width:1.25;stroke-linecap:round;stroke-linejoin:round;stroke-miterlimit:4;stroke-dasharray:none;stroke-dashoffset:0;stroke-opacity:1;stop-color:#000000;stop-opacity:1"
       d="m 400.45212,323.15765 c 0.38059,1.51313 0.6378,2.97251 0.76262,4.19604 0.32188,3.15499 -3.08949,14.27389 -9.18375,14.46834 -2.02334,0.0649 -3.90665,-0.18753 -5.61003,-3.05881 -0.96373,-1.62451 2.03513,-6.43523 -0.0405,-10.40024 1.26779,0.26921 1.39743,-2.49331 0.5975,-6.03541 z"
       sodipodi:nodetypes="csssccc"
       inkscape:transform-center-x="1.2781426"
       inkscape:transform-center-y="0.88068068" />
    <path
       id="path2691-0-3"
       style="font-variation-settings:normal;opacity:1;vector-effect:none;fill:#d7b7a8;fill-opacity:1;stroke:none;stroke-width:1.25;stroke-linecap:round;stroke-linejoin:round;stroke-miterlimit:4;stroke-dasharray:none;stroke-dashoffset:0;stroke-opacity:1;stop-color:#000000;stop-opacity:1"
       d="m 400.21774,323.04827 c 0.3803,1.51341 0.87217,3.08183 0.997,4.30542 0.32188,3.15498 -3.0895,14.2739 -9.18375,14.46834 -1.06987,0.0339 -2.09989,-0.0341 -3.08557,-0.51744 5.36855,-1.43416 8.09774,-11.45221 7.79676,-14.40229 -0.12479,-1.22359 -0.38232,-2.68262 -0.76262,-4.19603 z"
       inkscape:transform-center-x="-0.082506829"
       inkscape:transform-center-y="1.1242626"
       sodipodi:nodetypes="csccccc" />
    <path
       id="path2694-4-7"
       style="font-variation-settings:normal;opacity:1;vector-effect:none;fill:none;fill-opacity:1;stroke:#997766;stroke-width:1.25;stroke-linecap:round;stroke-linejoin:round;stroke-miterlimit:4;stroke-dasharray:none;stroke-dashoffset:0;stroke-opacity:1;stop-color:#000000;stop-opacity:1"
       d="m 400.13961,322.43889 c 0.46653,1.46626 0.95031,3.69127 1.07513,4.9148 0.32188,3.15499 -3.08949,14.27389 -9.18375,14.46834 -2.02334,0.0649 -3.90665,-0.18753 -5.61003,-3.05881 -0.96373,-1.62451 2.03513,-6.43523 -0.0405,-10.40024"
       sodipodi:nodetypes="csssc"
       inkscape:transform-center-x="1.2781426"
       inkscape:transform-center-y="1.2957207" />
  </g>
</svg>
