<?xml version="1.0" encoding="UTF-8" standalone="no"?>
<svg
   xmlns:dc="http://purl.org/dc/elements/1.1/"
   xmlns:cc="http://creativecommons.org/ns#"
   xmlns:rdf="http://www.w3.org/1999/02/22-rdf-syntax-ns#"
   xmlns:svg="http://www.w3.org/2000/svg"
   xmlns="http://www.w3.org/2000/svg"
   xmlns:sodipodi="http://sodipodi.sourceforge.net/DTD/sodipodi-0.dtd"
   xmlns:inkscape="http://www.inkscape.org/namespaces/inkscape"
   width="99.274239"
   height="270.15662"
   viewBox="0 0 99.274235 270.15662"
   version="1.1"
   id="svg8"
   inkscape:version="1.0.1 (3bc2e813f5, 2020-09-07)"
   sodipodi:docname="Informatik.svg"
   inkscape:export-filename="C:\Users\micha\Downloads\Architekt.png"
   inkscape:export-xdpi="300"
   inkscape:export-ydpi="300">
  <defs
     id="defs2">
    <marker
       style="overflow:visible"
       id="DotM"
       refX="0"
       refY="0"
       orient="auto"
       inkscape:stockid="DotM"
       inkscape:isstock="true">
      <path
         transform="matrix(0.4,0,0,0.4,2.96,0.4)"
         style="fill:#391313;fill-opacity:1;fill-rule:evenodd;stroke:#391313;stroke-width:1pt;stroke-opacity:1"
         d="m -2.5,-1 c 0,2.76 -2.24,5 -5,5 -2.76,0 -5,-2.24 -5,-5 0,-2.76 2.24,-5 5,-5 2.76,0 5,2.24 5,5 z"
         id="path7400" />
    </marker>
    <marker
       style="overflow:visible"
       id="Arrow2Send"
       refX="0"
       refY="0"
       orient="auto"
       inkscape:stockid="Arrow2Send"
       inkscape:isstock="true">
      <path
         transform="matrix(-0.3,0,0,-0.3,0.69,0)"
         d="M 8.7185878,4.0337352 -2.2072895,0.01601326 8.7185884,-4.0017078 c -1.7454984,2.3720609 -1.7354408,5.6174519 -6e-7,8.035443 z"
         style="fill:#391313;fill-opacity:1;fill-rule:evenodd;stroke:#391313;stroke-width:0.625;stroke-linejoin:round;stroke-opacity:1"
         id="path7369" />
    </marker>
    <marker
       style="overflow:visible"
       id="DotS"
       refX="0"
       refY="0"
       orient="auto"
       inkscape:stockid="DotS"
       inkscape:isstock="true">
      <path
         transform="matrix(0.2,0,0,0.2,1.48,0.2)"
         style="fill:#391313;fill-opacity:1;fill-rule:evenodd;stroke:#391313;stroke-width:1pt;stroke-opacity:1"
         d="m -2.5,-1 c 0,2.76 -2.24,5 -5,5 -2.76,0 -5,-2.24 -5,-5 0,-2.76 2.24,-5 5,-5 2.76,0 5,2.24 5,5 z"
         id="path7403" />
    </marker>
    <marker
       style="overflow:visible"
       id="SquareS"
       refX="0"
       refY="0"
       orient="auto"
       inkscape:stockid="SquareS"
       inkscape:isstock="true">
      <path
         transform="scale(0.2)"
         style="fill:#391313;fill-opacity:1;fill-rule:evenodd;stroke:#391313;stroke-width:1pt;stroke-opacity:1"
         d="M -5,-5 V 5 H 5 V -5 Z"
         id="path7412" />
    </marker>
  </defs>
  <sodipodi:namedview
     id="base"
     pagecolor="#e6e6e6"
     bordercolor="#666666"
     borderopacity="1.0"
     inkscape:pageopacity="0"
     inkscape:pageshadow="2"
     inkscape:zoom="2.8284271"
     inkscape:cx="-2.3881939"
     inkscape:cy="126.89879"
     inkscape:document-units="px"
     inkscape:current-layer="layer1"
     showgrid="false"
     units="px"
     width="2000px"
     inkscape:pagecheckerboard="false"
     showborder="true"
     borderlayer="true"
     inkscape:window-width="1920"
     inkscape:window-height="1017"
     inkscape:window-x="-8"
     inkscape:window-y="-8"
     inkscape:window-maximized="1"
     inkscape:document-rotation="0"
     fit-margin-top="5"
     lock-margins="true"
     fit-margin-left="5"
     fit-margin-right="5"
     fit-margin-bottom="5" />
  <metadata
     id="metadata5">
    <rdf:RDF>
      <cc:Work
         rdf:about="">
        <dc:format>image/svg+xml</dc:format>
        <dc:type
           rdf:resource="http://purl.org/dc/dcmitype/StillImage" />
        <dc:title></dc:title>
      </cc:Work>
    </rdf:RDF>
  </metadata>
  <g
     inkscape:label="Vrstva 1"
     inkscape:groupmode="layer"
     id="layer1"
     transform="translate(-307.51964,-141.44345)">
    <path
       style="font-variation-settings:normal;opacity:1;vector-effect:none;fill:#402e26;fill-opacity:1;stroke:#000000;stroke-width:1.25;stroke-linecap:round;stroke-linejoin:round;stroke-miterlimit:4;stroke-dasharray:none;stroke-dashoffset:0;stroke-opacity:1;stop-color:#000000;stop-opacity:1"
       d="m 330.10675,384.05655 v 6.32741 c -3.59951,1.3253 -7.49595,3.37644 -9.67589,5.75704 -4.02711,4.39781 0.65343,9.63253 5.93383,9.63253 8.49789,0.40782 15.11633,0.2073 20.80048,-0.70175 2.17893,-0.34848 4.07507,-6.07568 3.89707,-8.53822 l -0.75601,-13.17048 c -6.62629,2.75457 -12.9734,2.08734 -20.19948,0.69347 z"
       id="path2766-8"
       sodipodi:nodetypes="ccscsccc" />
    <path
       style="font-variation-settings:normal;opacity:1;vector-effect:none;fill:#261c17;fill-opacity:1;stroke:none;stroke-width:1.25;stroke-linecap:butt;stroke-linejoin:bevel;stroke-miterlimit:4;stroke-dasharray:none;stroke-dashoffset:0;stroke-opacity:1;stop-color:#000000;stop-opacity:1"
       d="m 347.06222,404.60594 c -4.08032,-5.1542 -2.64165,-8.67975 1.59374,-10.50236 z"
       id="path2774-2"
       sodipodi:nodetypes="ccc" />
    <path
       id="path2768-4"
       style="font-variation-settings:normal;opacity:1;vector-effect:none;fill:#261c17;fill-opacity:1;stroke:none;stroke-width:1.25;stroke-linecap:butt;stroke-linejoin:bevel;stroke-miterlimit:4;stroke-dasharray:none;stroke-dashoffset:0;stroke-opacity:1;stop-color:#000000;stop-opacity:1"
       d="m 324.08546,393.29327 c 1.1e-4,2e-5 0.0166,0.004 0.0166,0.004 -2.83339,11.36475 9.66927,11.23463 17.88716,12.30975 0,0 -0.0129,0.056 -0.0129,0.0577 -4.48753,0.36305 -9.55848,0.39885 -15.61159,0.10837 -5.2804,0 -9.96084,-5.23542 -5.93372,-9.63324 0.94082,-1.02742 2.23638,-1.97344 3.65482,-2.84626 z" />
    <path
       id="path2770-4"
       style="font-variation-settings:normal;opacity:1;vector-effect:none;fill:#261c17;fill-opacity:1;stroke:none;stroke-width:1.25;stroke-linecap:butt;stroke-linejoin:bevel;stroke-miterlimit:4;stroke-dasharray:none;stroke-dashoffset:0;stroke-opacity:1;stop-color:#000000;stop-opacity:1"
       d="m 350.30763,383.36384 0.75411,13.1694 c 0.17809,2.46255 -1.71734,8.19034 -3.89627,8.53882 -0.53733,0.086 -1.12873,0.13259 -1.68354,0.20588 1.18941,-3.87811 1.64276,-7.7562 0.74089,-11.63431 -4.45376,0.3354 -9.29483,-1.28654 -16.11763,-4.61615 v -1.58207 l 0.29436,0.0148 10.5246,-2.21778 c 3.14654,-0.0529 6.23512,-0.56945 9.38348,-1.87824 z"
       sodipodi:nodetypes="ccscccccccc" />
    <path
       style="font-variation-settings:normal;opacity:1;vector-effect:none;fill:none;fill-opacity:1;stroke:#100c0a;stroke-width:1.25;stroke-linecap:round;stroke-linejoin:round;stroke-miterlimit:4;stroke-dasharray:none;stroke-dashoffset:0;stroke-opacity:1;stop-color:#000000;stop-opacity:1"
       d="m 330.10675,384.05655 v 6.32741 c -3.59951,1.3253 -7.49595,3.37644 -9.67589,5.75704 -4.02711,4.39781 0.65343,9.63253 5.93383,9.63253 8.49789,0.40782 15.11633,0.2073 20.80048,-0.70175 2.17893,-0.34848 4.07507,-6.07568 3.89707,-8.53822 l -0.75601,-13.17048 c -6.62629,2.75457 -12.9734,2.08734 -20.19948,0.69347 z"
       id="path2772-4"
       sodipodi:nodetypes="ccscsccc" />
    <path
       style="font-variation-settings:normal;opacity:1;vector-effect:none;fill:#e7d4cb;fill-opacity:1;stroke:#997766;stroke-width:1.25;stroke-linecap:round;stroke-linejoin:round;stroke-miterlimit:4;stroke-dasharray:none;stroke-dashoffset:0;stroke-opacity:1;stop-color:#000000;stop-opacity:1"
       d="m 334.67515,269.18812 c -0.0166,14.58542 -0.37411,32.73631 -3.18977,47.11104 2.2497,4.74588 3.08611,12.74647 1.4258,13.74455 -1.31887,0.79284 -1.72097,-2.48381 -2.13798,-4.24456 -1.65791,3.64546 1.261,7.79388 0.4805,9.29307 -1.37951,2.64985 -3.04966,2.96862 -4.8606,3.01127 -5.45457,0.12834 -8.43518,-9.67785 -8.30402,-12.51265 0.12446,-2.69229 0.52518,-6.09391 2.038,-9.04234 -0.51066,-8.4019 -1.81698,-18.13917 -1.69863,-28.49724 0.0877,-7.67145 -3.07277,-15.21555 -3.26175,-21.58574 4.79544,1.19849 7.67342,3.00555 19.50845,2.7226 z"
       id="path880-7-8"
       sodipodi:nodetypes="ccscssscscc" />
    <path
       id="path2696-5"
       style="font-variation-settings:normal;opacity:1;vector-effect:none;fill:#d7b7a8;fill-opacity:1;stroke:none;stroke-width:1.25;stroke-linecap:butt;stroke-linejoin:bevel;stroke-miterlimit:4;stroke-dasharray:none;stroke-dashoffset:0;stroke-opacity:1;stop-color:#000000;stop-opacity:1"
       d="m 320.94466,268.07187 c 2.97092,0.72561 6.80009,1.28177 13.72928,1.1161 -0.0166,14.58542 -0.37375,32.73682 -3.18941,47.11154 2.2497,4.74588 3.08705,12.74564 1.42674,13.74374 -1.31887,0.79283 -1.7213,-2.48339 -2.13831,-4.24414 -1.65791,3.64547 1.2609,7.79453 0.4804,9.29372 -1.3795,2.64985 -3.07974,2.57134 -4.89068,2.61399 -1.73669,0.0409 -3.17593,-1.29804 -3.62285,-1.76935 -0.27281,-6.30441 -1.11303,-12.80261 -0.28173,-19.10699 -1.54158,-15.86493 -1.60376,-32.28177 -1.51344,-48.75861 z"
       sodipodi:nodetypes="cccscssccc" />
    <path
       style="font-variation-settings:normal;opacity:1;vector-effect:none;fill:#23235d;fill-opacity:1;stroke:#0e0e25;stroke-width:1.25;stroke-linecap:round;stroke-linejoin:round;stroke-miterlimit:4;stroke-dasharray:none;stroke-dashoffset:0;stroke-opacity:1;stop-color:#000000;stop-opacity:1"
       d="m 335.26338,311.07575 c 1.91375,-13.15709 2.25387,-66.17879 -2.47483,-79.4176 -7.06226,-0.76185 -18.6382,14.39229 -19.641,31.91846 -0.0366,0.6396 0.88794,12.96141 1.63411,19.06479 0.13971,1.14275 0.61306,11.98982 1.2002,20.37189 0.12584,1.79651 0.85221,1.59918 1.24726,2.82274 0.7796,2.41461 0.80668,4.59153 1.00633,7.06928 5.8888,1.8362 10.1901,-2.1034 17.02793,-1.82956 z"
       id="path878-3-3"
       sodipodi:nodetypes="ccsssscc" />
    <path
       style="font-variation-settings:normal;opacity:1;vector-effect:none;fill:#402e26;fill-opacity:1;stroke:#000000;stroke-width:1.25;stroke-linecap:round;stroke-linejoin:round;stroke-miterlimit:4;stroke-dasharray:none;stroke-dashoffset:0;stroke-opacity:1;stop-color:#000000;stop-opacity:1"
       d="m 358.82558,384.05655 v 6.32741 c -3.93085,1.3253 -8.18599,3.37644 -10.56661,5.75704 -4.39783,4.39781 0.71359,9.63253 6.48008,9.63253 9.28016,0.40782 16.50788,0.2073 22.7153,-0.70175 2.37951,-0.34848 4.45019,-6.07568 4.25581,-8.53822 l -0.82561,-13.17048 c -7.23628,2.75457 -14.16767,2.08734 -22.05897,0.69347 z"
       id="path901-2"
       sodipodi:nodetypes="ccscsccc" />
    <path
       id="path2735-4"
       style="font-variation-settings:normal;opacity:1;vector-effect:none;fill:#261c17;fill-opacity:1;stroke:none;stroke-width:1.25;stroke-linecap:butt;stroke-linejoin:bevel;stroke-miterlimit:4;stroke-dasharray:none;stroke-dashoffset:0;stroke-opacity:1;stop-color:#000000;stop-opacity:1"
       d="m 352.25001,393.29327 c 1.1e-4,2e-5 0.0185,0.004 0.0185,0.004 -3.09423,11.36475 10.55938,11.23463 19.53379,12.30975 0,0 -0.0148,0.056 -0.0148,0.0577 -4.90062,0.36305 -10.43837,0.39885 -17.04872,0.10837 -5.76648,0 -10.8778,-5.23542 -6.47996,-9.63324 1.02744,-1.02742 2.44227,-1.97344 3.99127,-2.84626 z" />
    <path
       id="path2729-7"
       style="font-variation-settings:normal;opacity:1;vector-effect:none;fill:#261c17;fill-opacity:1;stroke:none;stroke-width:1.25;stroke-linecap:butt;stroke-linejoin:bevel;stroke-miterlimit:4;stroke-dasharray:none;stroke-dashoffset:0;stroke-opacity:1;stop-color:#000000;stop-opacity:1"
       d="m 380.88608,383.36384 0.82354,13.1694 c 0.19438,2.46255 -1.87545,8.19034 -4.25495,8.53882 -0.58679,0.086 -1.23263,0.13259 -1.83852,0.20588 1.29889,-3.87811 1.79398,-7.7562 0.80909,-11.63431 -4.86376,0.3354 -10.15047,-1.28654 -17.60136,-4.61615 v -1.58207 l 0.32147,0.0148 11.49343,-2.21778 c 3.43621,-0.0529 6.80912,-0.56945 10.2473,-1.87824 z"
       sodipodi:nodetypes="ccscccccccc" />
    <path
       style="font-variation-settings:normal;opacity:1;vector-effect:none;fill:none;fill-opacity:1;stroke:#100c0a;stroke-width:1.25;stroke-linecap:round;stroke-linejoin:round;stroke-miterlimit:4;stroke-dasharray:none;stroke-dashoffset:0;stroke-opacity:1;stop-color:#000000;stop-opacity:1"
       d="m 358.82558,384.05655 v 6.32741 c -3.93085,1.3253 -8.18599,3.37644 -10.56661,5.75704 -4.39783,4.39781 0.71359,9.63253 6.48008,9.63253 9.28016,0.40782 16.50788,0.2073 22.7153,-0.70175 2.37951,-0.34848 4.45019,-6.07568 4.25581,-8.53822 l -0.82561,-13.17048 c -7.23628,2.75457 -14.16767,2.08734 -22.05897,0.69347 z"
       id="path2740-0"
       sodipodi:nodetypes="ccscsccc" />
    <path
       style="font-variation-settings:normal;opacity:1;vector-effect:none;fill:#344f96;fill-opacity:1;stroke:none;stroke-width:1.25;stroke-linecap:round;stroke-linejoin:round;stroke-miterlimit:4;stroke-dasharray:none;stroke-dashoffset:0;stroke-opacity:1;stop-color:#000000;stop-opacity:1"
       d="m 384.15287,317.95227 c 2.0573,14.26454 -8.3e-4,22.24531 -1.01675,35.29573 -0.76325,9.80434 -2.13486,23.91773 -0.93463,34.16862 -6.8213,2.15028 -17.81958,2.61419 -25.45865,-0.0584 0.4383,-3.65562 -0.0264,-13.3779 -0.28008,-17.02854 -0.80597,-11.59964 -2.37603,-20.94734 -4.67354,-32.39781 l -0.28905,-17.09 c 14.30012,-0.4309 23.68247,-3.24201 32.65261,-6.10946 z"
       id="path897-1"
       sodipodi:nodetypes="csccscccc" />
    <path
       style="font-variation-settings:normal;opacity:1;vector-effect:none;fill:#191943;fill-opacity:1;stroke:none;stroke-width:1.25;stroke-linecap:butt;stroke-linejoin:bevel;stroke-miterlimit:4;stroke-dasharray:none;stroke-dashoffset:0;stroke-opacity:1;stop-color:#000000;stop-opacity:1"
       d="m 324.69462,268.82321 -0.13577,-8.44389 c -1.50688,11.07395 -1.92774,21.9669 -2.80567,32.93602 l 0.40595,19.43435 c 1.64808,-0.0583 3.96437,-0.62485 5.0104,-0.50569 z"
       id="path2687-3-3"
       sodipodi:nodetypes="cccccc" />
    <path
       style="font-variation-settings:normal;opacity:1;vector-effect:none;fill:#e7d4cb;fill-opacity:1;stroke:#997766;stroke-width:1.25;stroke-linecap:round;stroke-linejoin:round;stroke-miterlimit:4;stroke-dasharray:none;stroke-dashoffset:0;stroke-opacity:1;stop-color:#000000;stop-opacity:1"
       d="m 375.38968,233.22792 -4.5964,-2.35789 c 0.28193,-2.95587 -3.49613,-4.48986 -3.57973,-7.37263 -6.44083,3.46546 -5.2493,6.92041 -28.52873,4.92071 v 1.83894 c -2.57811,0.0919 -3.98879,0.68302 -5.89627,1.4011 0,20.04591 42.60113,18.44772 42.60113,1.56977 z"
       id="path872-4"
       sodipodi:nodetypes="ccccccc" />
    <path
       id="path2701-1"
       style="font-variation-settings:normal;opacity:1;vector-effect:none;fill:#d7b7a8;fill-opacity:1;stroke:none;stroke-width:1.25;stroke-linecap:butt;stroke-linejoin:bevel;stroke-miterlimit:4;stroke-dasharray:none;stroke-dashoffset:0;stroke-opacity:1;stop-color:#000000;stop-opacity:1"
       d="m 367.07943,224.07661 c 1.72948,-2.30788 3.59207,3.99816 3.31005,6.95404 l 4.56559,2.19609 c 0,0.0359 -0.007,0.069 -0.007,0.10467 l -1.78795,1.67237 c -1.53693,-0.82292 -3.68812,-0.85089 -5.37898,-1.51986 -1.48894,-1.75235 -1.96989,-2.83913 -2.47398,-4.06899 -5.107,1.46657 -5.53451,1.8256 -16.13083,1.02326 l 0.9644,-1.5893 c 12.50589,-0.35457 13.36088,0.002 16.84508,-4.64735 z"
       sodipodi:nodetypes="sccccccccss" />
    <path
       style="font-variation-settings:normal;opacity:1;vector-effect:none;fill:none;fill-opacity:1;stroke:#997766;stroke-width:1.25;stroke-linecap:round;stroke-linejoin:round;stroke-miterlimit:4;stroke-dasharray:none;stroke-dashoffset:0;stroke-opacity:1;stop-color:#000000;stop-opacity:1"
       d="m 375.38968,233.22792 -7.35854,0.006 c 0.28193,-2.95587 -1.26432,-7.53926 -1.34792,-10.42203 -6.44083,3.46546 -4.71897,7.60542 -27.9984,5.60572 v 1.83894 c -2.57811,0.0919 -3.98879,0.68302 -5.89627,1.4011 0,20.04591 42.60113,18.44772 42.60113,1.56977 z"
       id="path4400"
       sodipodi:nodetypes="ccccccc" />
    <path
       style="font-variation-settings:normal;opacity:1;vector-effect:none;fill:#5a9345;fill-opacity:1;stroke:#997766;stroke-width:1.25;stroke-linecap:round;stroke-linejoin:round;stroke-miterlimit:4;stroke-dasharray:none;stroke-dashoffset:0;stroke-opacity:1;stop-color:#000000;stop-opacity:1"
       d="m 338.68482,230.25705 c 0.006,1.42322 6.1e-4,2.86605 0.23352,3.91142"
       id="path874-7"
       sodipodi:nodetypes="cc" />
    <path
       style="font-variation-settings:normal;opacity:1;vector-effect:none;fill:#344f96;fill-opacity:1;stroke:none;stroke-width:1.25;stroke-linecap:round;stroke-linejoin:round;stroke-miterlimit:4;stroke-dasharray:none;stroke-dashoffset:0;stroke-opacity:1;stop-color:#000000;stop-opacity:1"
       d="m 351.78922,324.06168 0.75892,13.87015 c 0,0 -1.60712,26.59754 -1.37396,40.05346 0.0525,3.02796 0.64593,9.69078 0.64593,9.69078 -7.28581,2.76746 -17.53497,2.34054 -23.35161,0 0.42733,-9.26696 -1.48838,-25.41789 -2.27101,-37.97737 -0.61465,-9.86361 0.16053,-22.8263 0.23751,-32.5243 8.63273,2.45524 16.56678,3.22229 25.35413,3.66743 z"
       id="path899-5"
       sodipodi:nodetypes="ccsccsccc" />
    <path
       id="path1625-8"
       style="font-variation-settings:normal;opacity:1;vector-effect:none;fill:#273c72;fill-opacity:1;stroke:none;stroke-width:1.25;stroke-linecap:butt;stroke-linejoin:bevel;stroke-miterlimit:4;stroke-dasharray:none;stroke-dashoffset:0;stroke-opacity:1;stop-color:#000000;stop-opacity:1"
       d="m 351.82018,346.51765 0.14443,2.70901 c -0.44967,8.97522 -0.93629,20.37609 -0.79104,28.75887 0.0525,3.02797 0.64655,9.69105 0.64655,9.69105 -6.34052,1.60559 -9.67921,2.00561 -15.00794,1.9866 4.54649,-1.98527 6.2291,-3.19343 8.23541,-5.78284 z"
       sodipodi:nodetypes="ccscccc" />
    <path
       style="font-variation-settings:normal;opacity:1;vector-effect:none;fill:none;fill-opacity:1;stroke:#141e39;stroke-width:1.25;stroke-linecap:round;stroke-linejoin:round;stroke-miterlimit:4;stroke-dasharray:none;stroke-dashoffset:0;stroke-opacity:1;stop-color:#000000;stop-opacity:1"
       d="m 352.54814,333.44195 v 4.48988 c 0,0 -1.60712,26.59754 -1.37396,40.05346 0.0525,3.02796 0.64593,9.69078 0.64593,9.69078 -7.28581,2.76746 -17.06794,2.45729 -22.88458,0.11669 0.42733,-9.26696 -1.90117,-25.41789 -2.6838,-37.97736 -0.61465,-9.86362 -0.43443,-22.60695 0.18327,-32.64106 9.1319,2.34606 17.37617,3.31478 25.35422,3.66744"
       id="path1615-2"
       sodipodi:nodetypes="ccsccscc" />
    <path
       style="font-variation-settings:normal;opacity:1;vector-effect:none;fill:none;fill-opacity:0.3;stroke:#0e0e25;stroke-width:1.25;stroke-linecap:round;stroke-linejoin:round;stroke-miterlimit:4;stroke-dasharray:none;stroke-dashoffset:0;stroke-opacity:1;stop-color:#000000;stop-opacity:1"
       d="m 317.42516,306.01363 c 3.58798,0.54141 6.53956,0.0487 9.1875,-0.9375"
       id="path1679"
       sodipodi:nodetypes="cc" />
    <path
       style="font-variation-settings:normal;opacity:1;vector-effect:none;fill:#23235d;fill-opacity:1;stroke:none;stroke-width:1.25;stroke-linecap:round;stroke-linejoin:round;stroke-miterlimit:4;stroke-dasharray:none;stroke-dashoffset:0;stroke-opacity:1;stop-color:#000000;stop-opacity:1"
       d="m 384.15287,315.06266 v -77.35908 c -2.317,-1.8073 -7.90327,-4.85329 -13.35954,-6.83355 -4.85156,6.78594 -13.42859,13.93073 -20.64895,18.27887 -4.98061,-3.27294 -10.25287,-11.99724 -14.77774,-18.90798 -2.3096,0.78398 -7.23906,2.29793 -9.62135,5.3879 -1.71623,2.22606 -1.40948,5.25289 -1.15241,9.4949 1.51241,24.95671 -0.80565,46.77504 1.02491,71.90473 23.04103,6.66482 41.35713,3.71265 58.53508,-1.96579 z"
       id="path870-0"
       sodipodi:nodetypes="cccccsscc" />
    <path
       id="path1623-4"
       style="font-variation-settings:normal;opacity:1;vector-effect:none;fill:#273c72;fill-opacity:1;stroke:none;stroke-width:1.25;stroke-linecap:butt;stroke-linejoin:bevel;stroke-miterlimit:4;stroke-dasharray:none;stroke-dashoffset:0;stroke-opacity:1;stop-color:#000000;stop-opacity:1"
       d="m 384.15132,315.06421 v 2.88962 c 2.05729,14.26453 9.8e-4,22.24259 -1.01494,35.293 -0.76325,9.80435 -2.13575,23.91879 -0.93552,34.16968 -6.8213,2.15028 -9.38076,1.86354 -16.90424,1.61827 4.3967,-1.2383 6.29338,-2.0949 9.31899,-4.61254 z"
       sodipodi:nodetypes="ccscccc" />
    <path
       style="font-variation-settings:normal;opacity:1;vector-effect:none;fill:none;fill-opacity:1;stroke:#141e39;stroke-width:1.25;stroke-linecap:round;stroke-linejoin:round;stroke-miterlimit:4;stroke-dasharray:none;stroke-dashoffset:0;stroke-opacity:1;stop-color:#000000;stop-opacity:1"
       d="m 351.78922,320.84183 c 10.84499,-0.20128 24.98753,-2.6907 32.36365,-6.10941 2.0573,14.26454 -8.3e-4,25.46516 -1.01675,38.51558 -0.76325,9.80434 -2.13486,23.91773 -0.93463,34.16862 -6.8213,2.15028 -17.81958,2.61419 -25.45865,-0.0584 0.4383,-3.65562 -0.0264,-13.3779 -0.28008,-17.02854 -0.80597,-11.59964 -1.61711,-20.94734 -3.91462,-32.39781 v -4.95691"
       id="path1617-0"
       sodipodi:nodetypes="ccsccscc" />
    <path
       id="path1627-3"
       style="font-variation-settings:normal;opacity:1;vector-effect:none;fill:#273c72;fill-opacity:1;stroke:none;stroke-width:1.25;stroke-linecap:butt;stroke-linejoin:bevel;stroke-miterlimit:4;stroke-dasharray:none;stroke-dashoffset:0;stroke-opacity:1;stop-color:#000000;stop-opacity:1"
       d="m 384.28137,314.73912 v 3.22192 c 0.39829,2.76173 0.6059,5.23742 0.73323,7.61053 -19.94473,1.03318 -41.47917,-0.94195 -58.44964,-8.34376 1.1e-4,-0.013 -1.1e-4,-0.0298 0,-0.0433 8.58928,2.44287 16.48809,3.21283 25.22271,3.65898 14.20713,-0.4475 23.5582,-3.24794 32.4937,-6.10432 z" />
    <path
       id="path1679-9"
       style="font-variation-settings:normal;opacity:1;vector-effect:none;fill:#191943;fill-opacity:1;stroke:none;stroke-width:1.25;stroke-linecap:butt;stroke-linejoin:bevel;stroke-miterlimit:4;stroke-dasharray:none;stroke-dashoffset:0;stroke-opacity:1;stop-color:#000000;stop-opacity:1"
       d="m 384.15132,300.8148 v 14.24941 c -11.89385,3.93169 -24.33559,6.55011 -38.51129,5.58055 18.15069,-4.0994 30.35585,-11.4564 38.51129,-19.82996 z" />
    <path
       style="font-variation-settings:normal;opacity:1;vector-effect:none;fill:none;fill-opacity:1;stroke:#0e0e25;stroke-width:1.25;stroke-linecap:round;stroke-linejoin:round;stroke-miterlimit:4;stroke-dasharray:none;stroke-dashoffset:0;stroke-opacity:1;stop-color:#000000;stop-opacity:1"
       d="m 325.1109,260.32341 c 0.19198,17.29831 -1.07158,31.45228 -0.079,49.29013 0.0318,0.57125 0.59543,2.86794 0.8734,3.57562 0.42184,1.07396 -0.0519,2.72958 0.0329,3.89453 23.04103,6.66482 41.03663,3.65741 58.21458,-2.02103 l -0.0551,-76.91714 c -1.68724,-2.42602 -7.76995,-5.37336 -13.30435,-7.27549 -6.17739,6.43239 -19.02128,12.49785 -20.64846,18.02801 -2.35366,-6.7722 -9.63465,-9.44828 -14.77823,-18.65712 -3.19924,0.61635 -7.83074,2.61624 -9.90991,4.83142"
       id="path1619-2"
       sodipodi:nodetypes="cssccccccc" />
    <path
       style="font-variation-settings:normal;opacity:1;vector-effect:none;fill:#273c72;fill-opacity:1;stroke:none;stroke-width:1.25;stroke-linecap:butt;stroke-linejoin:bevel;stroke-miterlimit:4;stroke-dasharray:none;stroke-dashoffset:0;stroke-opacity:1;stop-color:#000000;stop-opacity:1"
       d="m 382.83192,338.59236 c -4.59834,-3.12465 -4.64406,-10.16295 -4.70594,-15.1911 l 7.22402,-0.78433 z"
       id="path1677-7"
       sodipodi:nodetypes="cccc" />
    <path
       style="font-variation-settings:normal;opacity:1;vector-effect:none;fill:#191943;fill-opacity:1;stroke:none;stroke-width:1.25;stroke-linecap:butt;stroke-linejoin:bevel;stroke-miterlimit:4;stroke-dasharray:none;stroke-dashoffset:0;stroke-opacity:1;stop-color:#000000;stop-opacity:1"
       d="m 374.29444,311.8915 c -2.59113,-17.68632 -3.57959,-38.88291 -3.18518,-52.68343 l 16.18091,47.74716 z"
       id="path2683-2"
       sodipodi:nodetypes="cccc" />
    <path
       style="font-variation-settings:normal;opacity:1;vector-effect:none;fill:#e7d4cb;fill-opacity:1;stroke:#997766;stroke-width:1.25;stroke-linecap:round;stroke-linejoin:round;stroke-miterlimit:4;stroke-dasharray:none;stroke-dashoffset:0;stroke-opacity:1;stop-color:#000000;stop-opacity:1"
       d="m 373.17236,270.72772 c 2.2274,16.14683 5.6855,31.73508 10.98051,47.22455 -1.77201,5.59553 -1.48616,14.58065 0.50332,15.43424 1.58039,0.67806 1.52927,-3.01084 1.72427,-5.02353 2.38788,3.7852 -0.2156,8.82056 0.87568,10.36228 1.92882,2.72496 3.82631,2.82494 5.83791,2.59786 6.05887,-0.68401 8.56544,-12.04136 7.99083,-15.16024 -0.54571,-2.96211 -1.9578,-7.25763 -4.07945,-10.29301 0.25014,-16.584 -0.0666,-33.04204 -1.78947,-49.18759 -5.12807,2.05341 -7.07403,4.81884 -22.0436,4.04544 z"
       id="path880-73"
       sodipodi:nodetypes="ccscsssccc" />
    <path
       id="path2691-0"
       style="font-variation-settings:normal;opacity:1;vector-effect:none;fill:#d7b7a8;fill-opacity:1;stroke:none;stroke-width:1.25;stroke-linecap:round;stroke-linejoin:round;stroke-miterlimit:4;stroke-dasharray:none;stroke-dashoffset:0;stroke-opacity:1;stop-color:#000000;stop-opacity:1"
       d="m 395.21494,266.68125 c 1.7229,16.14555 2.04171,32.60444 1.79156,49.18843 2.12165,3.03538 3.53225,7.33215 4.07795,10.29426 0.57462,3.11887 -1.93091,14.47562 -7.98977,15.15962 -1.06366,0.12002 -2.09582,0.13519 -3.11718,-0.26729 5.2358,-1.86133 7.39292,-11.97602 6.85563,-14.89233 -0.54571,-2.96211 -1.95632,-7.25888 -4.07798,-10.29426 0.24059,-15.94978 -0.0562,-31.78103 -1.61097,-47.33187 1.34739,-0.61163 2.5834,-1.261 4.07076,-1.85656 z"
       sodipodi:nodetypes="ccsscsccc" />
    <path
       style="font-variation-settings:normal;opacity:1;vector-effect:none;fill:none;fill-opacity:1;stroke:#997766;stroke-width:1.25;stroke-linecap:round;stroke-linejoin:round;stroke-miterlimit:4;stroke-dasharray:none;stroke-dashoffset:0;stroke-opacity:1;stop-color:#000000;stop-opacity:1"
       d="m 373.17236,270.72772 c 2.2274,16.14683 5.6855,31.73508 10.98051,47.22455 -1.77201,5.59553 -1.48616,14.58065 0.50332,15.43424 1.58039,0.67806 1.52927,-3.01084 1.72427,-5.02353 2.38788,3.7852 -0.2156,8.82056 0.87568,10.36228 1.92882,2.72496 3.82631,2.82494 5.83791,2.59786 6.05887,-0.68401 8.56544,-12.04136 7.99083,-15.16024 -0.54571,-2.96211 -1.9578,-7.25763 -4.07945,-10.29301 0.25014,-16.584 -0.0666,-33.04204 -1.78947,-49.18759 -5.12807,2.05341 -7.07403,4.81884 -22.0436,4.04544 z"
       id="path2694-4"
       sodipodi:nodetypes="ccscsssccc" />
    <path
       style="font-variation-settings:normal;opacity:1;vector-effect:none;fill:#23235d;fill-opacity:1;stroke:none;stroke-width:1.25;stroke-linecap:round;stroke-linejoin:round;stroke-miterlimit:4;stroke-dasharray:none;stroke-dashoffset:0;stroke-opacity:1;stop-color:#000000;stop-opacity:1"
       d="m 375.38968,232.64414 c 15.40273,6.1058 18.73161,20.39901 20.19579,29.20226 0.11211,0.67404 1.88946,20.18977 2.95527,33.6482 0.30201,3.81362 0.002,4.58213 -0.61635,7.47276 0.35356,3.78888 0.67668,7.63763 0.69663,7.84675 -5.54153,4.21817 -12.30411,4.59927 -16.72872,4.23196 -0.61043,-2.16338 -1.02748,-3.4723 -1.98283,-8.02865 -0.40948,-1.95295 -2.11173,-3.94566 -2.60663,-6.3014 -2.83366,-13.48851 -5.72541,-32.16431 -5.79081,-32.68384 -1.46313,-11.62291 -0.69373,-23.76771 3.87765,-35.38804 z"
       id="path876-7-4"
       sodipodi:nodetypes="csscccsssc" />
    <path
       style="font-variation-settings:normal;opacity:1;vector-effect:none;fill:#23235d;fill-opacity:1;stroke:#0d0d0d;stroke-width:1.25;stroke-linecap:round;stroke-linejoin:round;stroke-miterlimit:4;stroke-dasharray:none;stroke-dashoffset:0;stroke-opacity:1;stop-color:#000000;stop-opacity:1"
       d="m 375.38968,232.64414 c 15.40273,6.1058 18.67723,20.18562 20.14141,28.98887 0.11211,0.67404 1.94384,20.40316 3.00965,33.86159 0.30201,3.81362 0.002,4.58213 -0.61635,7.47276 0.35356,3.78888 0.67668,7.63763 0.69663,7.84675 -5.54153,4.21817 -12.30411,4.59927 -16.72872,4.23196 -0.61043,-2.16338 -1.02748,-3.4723 -1.98283,-8.02865 -0.40948,-1.95295 -2.11173,-3.94566 -2.60663,-6.3014 -2.83366,-13.48851 -5.0183,-30.83848 -5.0837,-31.35801 -0.51077,-4.05746 -0.74947,-8.17852 -0.64933,-12.31867"
       id="path2471"
       sodipodi:nodetypes="csscccsssc" />
    <path
       style="font-variation-settings:normal;opacity:1;vector-effect:none;fill:none;fill-opacity:0.3;stroke:#0e0e25;stroke-width:1.25;stroke-linecap:round;stroke-linejoin:round;stroke-miterlimit:4;stroke-dasharray:none;stroke-dashoffset:0;stroke-opacity:1;stop-color:#000000;stop-opacity:1"
       d="m 329.29388,314.02132 c 21.39579,4.88773 37.07692,1.40668 49.9375,-2.03125"
       id="path1683"
       sodipodi:nodetypes="cc" />
    <path
       style="font-variation-settings:normal;opacity:1;vector-effect:none;fill:#23235d;fill-opacity:1;stroke:#0e0e25;stroke-width:1.25;stroke-linecap:round;stroke-linejoin:round;stroke-miterlimit:4;stroke-dasharray:none;stroke-dashoffset:0;stroke-opacity:1;stop-color:#000000;stop-opacity:1"
       d="m 350.14435,249.1489 c -9.01686,-5.29996 -17.26862,-9.97398 -23.15934,-15.60887 0,0 0.21917,-2.74115 0.64747,-3.54005 1.16916,-2.18114 4.84988,-3.40709 4.84988,-3.40709 1.45254,0.91541 2.3025,1.85702 4.99663,2.71845 l 0.0974,3.41967 c 6.26894,4.03606 10.84331,10.27865 11.84571,12.50929 0.66105,1.47098 0.58679,2.64783 0.72231,3.9086 z"
       id="path19082"
       sodipodi:nodetypes="ccscccscc" />
    <path
       style="font-variation-settings:normal;opacity:1;vector-effect:none;fill:none;fill-opacity:0.3;stroke:#0e0e25;stroke-width:1.25;stroke-linecap:round;stroke-linejoin:round;stroke-miterlimit:4;stroke-dasharray:none;stroke-dashoffset:0;stroke-opacity:1;stop-color:#000000;stop-opacity:1"
       d="m 337.42009,232.6607 c -0.5537,-0.266 -1.13766,-0.61488 -1.45106,-1.08563"
       id="path19084"
       sodipodi:nodetypes="cc" />
    <path
       style="font-variation-settings:normal;opacity:1;vector-effect:none;fill:#191943;fill-opacity:1;stroke:none;stroke-width:0.5;stroke-linecap:butt;stroke-linejoin:bevel;stroke-miterlimit:4;stroke-dasharray:none;stroke-dashoffset:0;stroke-opacity:1;stop-color:#000000;stop-opacity:1"
       d="m 367.56987,300.47986 c -0.93999,1.50156 -1.27957,2.86969 -3.17233,4.58297 -10.20623,1.92739 -22.10377,1.77317 -33.78076,1.89039 14.34142,1.87003 26.66294,1.65895 37.11541,-0.47782 z"
       id="path19151"
       sodipodi:nodetypes="ccccc" />
    <path
       style="font-variation-settings:normal;opacity:1;vector-effect:none;fill:none;fill-opacity:0.3;stroke:#0e0e25;stroke-width:1.25;stroke-linecap:round;stroke-linejoin:round;stroke-miterlimit:4;stroke-dasharray:none;stroke-dashoffset:0;stroke-opacity:1;stop-color:#000000;stop-opacity:1"
       d="m 347.4909,290.08156 c 3.65511,0.24115 7.54105,0.0945 12.00427,-1.02196 1.50834,5.90584 4.03235,10.00988 8.0747,11.42026 l 0.16232,5.99554 c -2.47305,0.52248 -4.86992,0.91479 -7.2039,1.19965 m -3.78475,0.3754 c -4.28802,0.32855 -8.37753,0.31785 -12.35827,0.12128 m -6.96471,-0.51184 c -2.28108,-0.21307 -4.54295,-0.45899 -6.80378,-0.70667 l -0.0728,-5.8052 c 2.87569,-2.843 5.72512,-4.98301 8.75857,-12.04718 1.69504,0.23856 3.38171,0.49119 5.09917,0.69209"
       id="path19086"
       sodipodi:nodetypes="cccccccccccc" />
    <path
       style="font-variation-settings:normal;opacity:1;vector-effect:none;fill:none;fill-opacity:0.3;stroke:#0e0e25;stroke-width:1.25;stroke-linecap:round;stroke-linejoin:round;stroke-miterlimit:4;stroke-dasharray:none;stroke-dashoffset:0;stroke-opacity:1;stop-color:#000000;stop-opacity:1"
       d="m 344.37758,243.72131 c -2.93383,5.6217 -0.085,16.83915 -2.03293,23.86485"
       id="path19088"
       sodipodi:nodetypes="cc" />
    <path
       style="font-variation-settings:normal;opacity:1;vector-effect:none;fill:none;fill-opacity:0.3;stroke:#0e0e25;stroke-width:2;stroke-linecap:round;stroke-linejoin:round;stroke-miterlimit:4;stroke-dasharray:none;stroke-dashoffset:0;stroke-opacity:1;stop-color:#000000;stop-opacity:1"
       d="m 342.34465,267.58616 -1.29376,4.09141"
       id="path19090" />
    <path
       style="font-variation-settings:normal;opacity:1;vector-effect:none;fill:none;fill-opacity:0.3;stroke:#0e0e25;stroke-width:2;stroke-linecap:round;stroke-linejoin:round;stroke-miterlimit:4;stroke-dasharray:none;stroke-dashoffset:0;stroke-opacity:1;stop-color:#000000;stop-opacity:1"
       d="m 356.84661,264.50069 0.62136,4.24587"
       id="path19090-6" />
    <path
       id="path19109"
       style="font-variation-settings:normal;opacity:1;vector-effect:none;fill:#191943;fill-opacity:1;stroke:none;stroke-width:0.5;stroke-linecap:butt;stroke-linejoin:bevel;stroke-miterlimit:4;stroke-dasharray:none;stroke-dashoffset:0;stroke-opacity:1;stop-color:#000000;stop-opacity:1"
       d="m 378.25011,233.93929 -0.10547,0.0195 c 0,0 6.50478,10.71544 8.28711,15.9668 5.55401,16.36396 6.64843,49.83398 6.64843,49.83398 l -1.10546,5.65625 1.09375,8.35742 c 1.89778,-0.6648 3.7877,-1.61545 5.55273,-2.95898 -0.0199,-0.20912 -0.34371,-4.05878 -0.69727,-7.84766 0.61835,-2.89063 0.9192,-3.65903 0.61719,-7.47265 -1.06581,-13.45843 -2.89765,-33.18729 -3.00976,-33.86133 -1.36865,-8.22888 -4.32177,-21.06602 -17.28125,-27.69336 z" />
    <path
       style="font-variation-settings:normal;opacity:1;vector-effect:none;fill:none;fill-opacity:1;stroke:#0e0e25;stroke-width:1.25;stroke-linecap:round;stroke-linejoin:round;stroke-miterlimit:4;stroke-dasharray:none;stroke-dashoffset:0;stroke-opacity:1;stop-color:#000000;stop-opacity:1"
       d="m 375.38968,232.64414 c 15.40273,6.1058 18.67723,20.18562 20.14141,28.98887 0.11211,0.67404 1.94384,20.40316 3.00965,33.86159 0.30201,3.81362 0.002,4.58213 -0.61635,7.47276 0.35356,3.78888 0.67668,7.63763 0.69663,7.84675 -5.54153,4.21817 -12.30411,4.59927 -16.72872,4.23196 -0.61043,-2.16338 -1.02748,-3.4723 -1.98283,-8.02865 -0.40948,-1.95295 -2.11173,-3.94566 -2.60663,-6.3014 -2.83366,-13.48851 -5.0183,-30.83848 -5.0837,-31.35801 -0.51077,-4.05746 -0.74947,-8.17852 -0.64933,-12.31867"
       id="path19114"
       sodipodi:nodetypes="csscccsssc" />
    <path
       style="font-variation-settings:normal;opacity:1;vector-effect:none;fill:none;fill-opacity:0.3;stroke:#0e0e25;stroke-width:1.25;stroke-linecap:round;stroke-linejoin:round;stroke-miterlimit:4;stroke-dasharray:none;stroke-dashoffset:0;stroke-opacity:1;stop-color:#000000;stop-opacity:1"
       d="m 397.92439,302.96736 c -4.87083,2.17884 -10.12388,4.04625 -18.13315,3.66784"
       id="path2473"
       sodipodi:nodetypes="cc" />
    <path
       style="font-variation-settings:normal;opacity:1;vector-effect:none;fill:#23235d;fill-opacity:1;stroke:#000000;stroke-width:1.25;stroke-linecap:butt;stroke-linejoin:bevel;stroke-miterlimit:4;stroke-dasharray:none;stroke-dashoffset:0;stroke-opacity:1;stop-color:#000000;stop-opacity:1"
       d="m 350.14438,249.1489 c 11.22864,-3.88723 22.26876,-7.92525 31.26898,-13.59521 -1.14683,-7.76803 -6.61651,-10.16635 -14.16262,-9.61531 l 0.449,4.93165 0.3314,2.36389 c -6.90637,4.59254 -18.09205,8.02878 -17.88679,15.91498 z"
       id="path19078"
       sodipodi:nodetypes="ccccccc" />
    <path
       id="path19143"
       style="font-variation-settings:normal;opacity:1;vector-effect:none;fill:#191943;fill-opacity:1;stroke:none;stroke-width:0.5;stroke-linecap:butt;stroke-linejoin:bevel;stroke-miterlimit:4;stroke-dasharray:none;stroke-dashoffset:0;stroke-opacity:1;stop-color:#000000;stop-opacity:1"
       d="M 62.880859,78.566406 C 65.643484,80.890178 68.940071,82.145837 70.625,86.625 L 52.634766,98.224609 c 7.659461,-2.876401 14.963193,-6.03719 21.259765,-10.003906 -0.979914,-6.637431 -5.122979,-9.347752 -11.013672,-9.654297 z"
       transform="translate(307.51964,147.33382)" />
    <path
       style="font-variation-settings:normal;opacity:1;vector-effect:none;fill:none;fill-opacity:1;stroke:#0e0e25;stroke-width:1.25;stroke-linecap:round;stroke-linejoin:round;stroke-miterlimit:4;stroke-dasharray:none;stroke-dashoffset:0;stroke-opacity:1;stop-color:#000000;stop-opacity:1"
       d="m 350.14438,249.1489 c 11.22864,-3.88723 22.26876,-7.92525 31.26898,-13.59521 -1.14683,-7.76803 -6.61651,-10.16635 -14.16262,-9.61531 l 0.449,4.93165 0.3314,2.36389 c -6.90637,4.59254 -18.09205,8.02878 -17.88679,15.91498 z"
       id="path19149"
       sodipodi:nodetypes="ccccccc" />
    <path
       style="font-variation-settings:normal;opacity:1;vector-effect:none;fill:none;fill-opacity:0.3;stroke:#0e0e25;stroke-width:1.25;stroke-linecap:round;stroke-linejoin:round;stroke-miterlimit:4;stroke-dasharray:none;stroke-dashoffset:0;stroke-opacity:1;stop-color:#000000;stop-opacity:1"
       d="m 355.60918,245.40881 c 2.93383,5.6217 -0.7105,12.06618 1.23743,19.09188"
       id="path19092"
       sodipodi:nodetypes="cc" />
    <path
       style="font-variation-settings:normal;opacity:1;vector-effect:none;fill:none;fill-opacity:0.3;stroke:#0e0e25;stroke-width:1.25;stroke-linecap:round;stroke-linejoin:round;stroke-miterlimit:4;stroke-dasharray:none;stroke-dashoffset:0;stroke-opacity:1;stop-color:#000000;stop-opacity:1"
       d="m 368.03114,233.23392 c 1.09322,-0.64411 1.9643,-1.3784 2.48361,-2.25554"
       id="path19080"
       sodipodi:nodetypes="cc" />
    <path
       style="font-variation-settings:normal;opacity:1;vector-effect:none;fill:#e7d4cb;fill-opacity:1;stroke:#997766;stroke-width:1.25;stroke-linecap:round;stroke-linejoin:round;stroke-miterlimit:4;stroke-dasharray:none;stroke-dashoffset:0;stroke-opacity:1;stop-color:#000000;stop-opacity:1"
       d="m 320.59815,186.3134 c -0.272,1.8907 0.18557,5.53087 0.63135,7.83622 1.05977,5.48047 0.26792,10.48034 0.23352,15.3537 -0.044,6.24382 9.24604,15.04883 13.95259,17.74722 8.31877,4.76938 23.46135,2.42968 27.66041,1.14218 6.8061,-2.08685 10.76325,-8.42046 15.073,-13.3434 7.30469,-8.34402 8.51243,-15.15413 8.5817,-25.8035 0.069,-10.6106 -8.21891,-21.80832 -20.89964,-29.07276 -17.76387,-10.1764 -40.79339,-4.71901 -45.23293,26.14034 z"
       id="path860-3"
       sodipodi:nodetypes="sssssssss" />
    <path
       style="font-variation-settings:normal;opacity:1;vector-effect:none;fill:#d7b7a8;fill-opacity:1;stroke:none;stroke-width:0.5;stroke-linecap:butt;stroke-linejoin:bevel;stroke-miterlimit:4;stroke-dasharray:none;stroke-dashoffset:0;stroke-opacity:1;stop-color:#000000;stop-opacity:1"
       d="m 321.7544,190.07337 c 15.85879,-7.99714 34.89605,-10.33638 41.99007,-3.24236 4.98528,4.98528 8.35507,26.5578 5.65603,38.00672 l 4.39219,-5.6561 14.33712,-23.14583 -21.2132,-29.52171 -42.5148,4.33103 -5.56846,18.47317 z"
       id="path6180"
       sodipodi:nodetypes="csccccccc" />
    <path
       style="font-variation-settings:normal;opacity:1;vector-effect:none;fill:none;fill-opacity:0.3;stroke:#30241c;stroke-width:2;stroke-linecap:round;stroke-linejoin:round;stroke-miterlimit:4;stroke-dasharray:none;stroke-dashoffset:0;stroke-opacity:1;stop-color:#000000;stop-opacity:1"
       d="m 337.25019,185.21975 c -4.67134,-0.14267 -11.12579,-0.15816 -13.02491,1.63078"
       id="path1611-7"
       sodipodi:nodetypes="cc" />
    <path
       style="font-variation-settings:normal;opacity:1;vector-effect:none;fill:none;fill-opacity:0.3;stroke:#997766;stroke-width:1.75;stroke-linecap:round;stroke-linejoin:round;stroke-miterlimit:4;stroke-dasharray:none;stroke-dashoffset:0;stroke-opacity:1;stop-color:#000000;stop-opacity:1"
       d="m 350.26212,216.44322 c -4.00483,2.72882 -9.08285,2.05121 -10.58735,0.7513"
       id="path866-9"
       sodipodi:nodetypes="cc" />
    <path
       style="font-variation-settings:normal;opacity:1;vector-effect:none;fill:none;fill-opacity:0.3;stroke:#30241c;stroke-width:2;stroke-linecap:round;stroke-linejoin:round;stroke-miterlimit:4;stroke-dasharray:none;stroke-dashoffset:0;stroke-opacity:1;stop-color:#000000;stop-opacity:1"
       d="m 363.74447,186.83101 c -3.91435,-2.43354 -8.31301,-3.10113 -15.70607,-1.77497"
       id="path1609-4"
       sodipodi:nodetypes="cc" />
    <path
       style="font-variation-settings:normal;opacity:1;vector-effect:none;fill:#201a13;fill-opacity:1;stroke:none;stroke-width:1.25;stroke-linecap:round;stroke-linejoin:round;stroke-miterlimit:4;stroke-dasharray:none;stroke-dashoffset:0;stroke-opacity:1;stop-color:#000000;stop-opacity:1"
       d="m 328.54293,201.81054 c -0.50213,-1.92795 -0.4652,-5.89679 0.0362,-8.1994 0.85649,-3.93261 4.90778,-3.15982 5.38182,-1.50317 0.93775,3.27718 0.96544,7.06402 0.31313,9.88305 -1.08547,4.69099 -4.9086,2.97808 -5.73129,-0.1805 z"
       id="path1607-5"
       sodipodi:nodetypes="ssssss" />
    <path
       style="font-variation-settings:normal;opacity:1;vector-effect:none;fill:#201a13;fill-opacity:1;stroke:none;stroke-width:1.25;stroke-linecap:round;stroke-linejoin:round;stroke-miterlimit:4;stroke-dasharray:none;stroke-dashoffset:0;stroke-opacity:1;stop-color:#000000;stop-opacity:1"
       d="m 351.88962,202.58564 c -0.53735,-2.0631 -0.49783,-6.31019 0.0388,-8.77423 0.91654,-4.20832 5.25185,-3.38134 5.75913,-1.60855 1.00349,3.50692 1.03312,7.55926 0.33508,10.57591 -1.16158,5.01986 -5.25273,3.18688 -6.1331,-0.19315 z"
       id="path1613-7"
       sodipodi:nodetypes="ssssss" />
    <path
       style="font-variation-settings:normal;opacity:1;vector-effect:none;fill:none;fill-opacity:1;stroke:#997766;stroke-width:1.25;stroke-linecap:round;stroke-linejoin:round;stroke-miterlimit:4;stroke-dasharray:none;stroke-dashoffset:0;stroke-opacity:1;stop-color:#000000;stop-opacity:1"
       d="m 320.59815,186.3134 c -0.272,1.8907 0.18557,5.53087 0.63135,7.83622 1.05977,5.48047 0.26792,10.48034 0.23352,15.3537 -0.044,6.24382 9.24604,15.04883 13.95259,17.74722 8.31877,4.76938 23.46135,2.42968 27.66041,1.14218 6.8061,-2.08685 10.76325,-8.42046 15.073,-13.3434 7.30469,-8.34402 8.51243,-15.15413 8.5817,-25.8035 0.069,-10.6106 -8.21891,-21.80832 -20.89964,-29.07276 -17.76387,-10.1764 -40.79339,-4.71901 -45.23293,26.14034 z"
       id="path2720-8"
       sodipodi:nodetypes="sssssssss" />
    <path
       style="fill:#604839;fill-opacity:1;stroke:#30241c;stroke-width:1.25;stroke-linecap:round;stroke-linejoin:round;stroke-miterlimit:4;stroke-dasharray:none;stroke-opacity:1"
       d="m 374.72689,215.50212 c -0.20807,2.8255 -0.0163,3.63802 -1.55126,5.08116 -0.127,0.11939 -3.97955,4.16894 -3.60026,4.39732 0.31535,0.18988 4.89017,-2.14512 6.52992,-2.62349 2.55786,-0.74621 2.44356,-4.08007 5.07781,-5.0598 6.07666,-2.26003 -0.14743,-7.24771 6.53,-9.04842 3.96526,-1.06931 -1.65364,-10.99674 0.59171,-11.98424 7.20934,-3.17067 3.35544,-10.21725 1.85752,-12.64059 0,0 5.59614,-11.4302 -5.72441,-14.46166 -3.05138,-0.81712 1.24569,-11.1457 -4.77679,-11.06554 -5.73156,0.0763 -8.49532,-9.23718 -14.0323,-7.53297 -4.33876,1.3354 -7.59183,-2.16055 -11.402,-2.69233 -5.02621,-0.7015 -13.72071,-2.18734 -14.39406,2.35577 -0.49842,3.3631 -6.13369,4.43045 -6.5103,4.42025 -0.73757,-0.02 -2.98271,-1.94832 -6.5092,-0.75272 -1.62587,0.55124 -5.69116,3.44051 -5.10585,5.23165 0.84008,2.5708 -3.66402,4.66324 -3.66402,4.66324 -4.47866,5.90055 5.12161,3.67433 -2.91061,10.74932 -2.54839,2.24468 3.08515,11.09605 1.103,13.72576 -3.2317,4.28753 0.16551,6.89707 2.20459,7.88135 2.41295,1.16475 2.88766,6.25649 3.43028,5.70542 0.59933,-0.60871 0.43214,-10.62525 -0.11626,-11.77823 0,0 1.54719,-4.3886 6.9853,-5.36264 3.20535,-0.57411 3.13413,-4.68187 5.10888,-5.62824 2.41845,-1.15899 4.47029,-0.70873 6.93162,0.39618 3.82514,1.71714 5.11022,-3.437 7.50679,-3.11375 6.16743,0.83185 17.63459,-0.10041 18.4436,5.4719 0.6275,4.32201 7.03398,8.33104 4.69609,12.74592 -1.23561,2.33334 -0.55828,5.89903 0.17484,8.15405 1.87679,2.26167 2.64611,3.57577 1.71294,7.62428 -0.73869,2.2275 1.39632,2.79431 1.41243,5.14105 z"
       id="path3040"
       inkscape:connector-curvature="0"
       sodipodi:nodetypes="csssssscssssssssssssscssssssccc" />
    <path
       style="font-variation-settings:normal;opacity:1;vector-effect:none;fill:none;fill-opacity:0.3;stroke:#354664;stroke-width:0.999697;stroke-linecap:butt;stroke-linejoin:bevel;stroke-miterlimit:4;stroke-dasharray:none;stroke-dashoffset:0;stroke-opacity:1;stop-color:#000000;stop-opacity:1"
       d="m 348.17359,191.04564 c 0,4.86877 -0.94344,13.49445 1.49588,15.05163 3.23023,2.06209 11.39093,2.09296 16.70318,0.51912 3.26753,-0.96808 2.53846,-10.45125 2.53846,-15.57075 -9.61794,-3.47463 -16.4985,-1.64726 -20.73752,0 z"
       id="path5338"
       sodipodi:nodetypes="csscc" />
    <path
       style="font-variation-settings:normal;opacity:1;vector-effect:none;fill:none;fill-opacity:0.3;stroke:#354664;stroke-width:0.999697;stroke-linecap:butt;stroke-linejoin:bevel;stroke-miterlimit:4;stroke-dasharray:none;stroke-dashoffset:0;stroke-opacity:1;stop-color:#000000;stop-opacity:1"
       d="m 322.68248,191.04564 c 0,4.86877 -0.94344,13.49445 1.49588,15.05163 3.23024,2.06209 11.39094,2.09296 16.70318,0.51912 3.26754,-0.96808 2.53846,-10.45125 2.53846,-15.57075 -9.74934,-3.80313 -16.4985,-1.64726 -20.73752,0 z"
       id="path5340"
       sodipodi:nodetypes="csscc" />
    <path
       style="font-variation-settings:normal;opacity:1;vector-effect:none;fill:none;fill-opacity:0.3;stroke:#30241c;stroke-width:1.5;stroke-linecap:round;stroke-linejoin:round;stroke-miterlimit:4;stroke-dasharray:none;stroke-dashoffset:0;stroke-opacity:1;stop-color:#000000;stop-opacity:1"
       d="m 341.37238,225.42493 c -0.0954,1.98983 0.86219,3.927 2.43068,5.83363"
       id="path5344"
       sodipodi:nodetypes="cc" />
    <path
       style="font-variation-settings:normal;opacity:1;vector-effect:none;fill:none;fill-opacity:0.3;stroke:#30241c;stroke-width:1.5;stroke-linecap:round;stroke-linejoin:round;stroke-miterlimit:4;stroke-dasharray:none;stroke-dashoffset:0;stroke-opacity:1;stop-color:#000000;stop-opacity:1"
       d="m 345.88018,225.55751 c -0.74638,1.96882 -0.0579,3.85793 0.66292,5.74524"
       id="path5346"
       sodipodi:nodetypes="cc" />
    <path
       style="font-variation-settings:normal;opacity:1;vector-effect:none;fill:none;fill-opacity:0.3;stroke:#30241c;stroke-width:1.5;stroke-linecap:round;stroke-linejoin:round;stroke-miterlimit:4;stroke-dasharray:none;stroke-dashoffset:0;stroke-opacity:1;stop-color:#000000;stop-opacity:1"
       d="m 349.59249,226.3972 c 0.0669,2.22113 0.72666,3.50537 0.97228,4.64039"
       id="path5348"
       sodipodi:nodetypes="cc" />
    <path
       style="font-variation-settings:normal;opacity:1;vector-effect:none;fill:none;fill-opacity:0.3;stroke:#ffffff;stroke-width:1;stroke-linecap:round;stroke-linejoin:round;stroke-miterlimit:4;stroke-dasharray:none;stroke-dashoffset:0;stroke-opacity:1;stop-color:#000000;stop-opacity:1"
       d="m 334.83034,190.78428 c -0.96102,0.0151 -1.92293,0.0271 -2.87642,0.0678 m -1.42004,0.0862 c -1.96733,0.16082 -3.87786,0.51474 -5.64723,1.34861 -0.12496,0.92977 -0.19379,1.90417 -0.22204,2.88947 m -0.0145,1.40786 c 0.008,1.15695 0.0613,2.30687 0.13519,3.39559"
       id="path6165"
       sodipodi:nodetypes="ccccccc" />
    <path
       style="font-variation-settings:normal;opacity:1;vector-effect:none;fill:none;fill-opacity:0.3;stroke:#ffffff;stroke-width:1;stroke-linecap:round;stroke-linejoin:round;stroke-miterlimit:4;stroke-dasharray:none;stroke-dashoffset:0;stroke-opacity:1;stop-color:#000000;stop-opacity:1"
       d="m 360.06521,191.13783 c -3.44599,0.054 -6.90326,0.0697 -9.94369,1.5026 -0.0626,0.46551 -0.11106,0.9422 -0.14743,1.42585 m -0.0666,1.21605 c -0.0608,1.70081 0.004,3.4427 0.11274,5.05102"
       id="path6167"
       sodipodi:nodetypes="ccccc" />
    <path
       id="path6169"
       style="fill:#46352a;fill-opacity:1;stroke:none;stroke-width:1.5;stroke-linecap:round;stroke-linejoin:round;stroke-miterlimit:4;stroke-dasharray:none;stroke-opacity:1"
       d="m 346.50218,147.06938 c -1.15074,-0.0161 -2.24524,0.0524 -3.20704,0.24609 1.49842,0.16578 2.95136,0.38298 4.18164,0.55469 3.81017,0.53178 7.06359,4.02876 11.40235,2.69336 5.53698,-1.70421 8.29969,7.6095 14.03125,7.5332 6.02248,-0.0802 1.72596,10.24733 4.77734,11.06445 11.32055,3.03146 5.72461,14.46289 5.72461,14.46289 1.49792,2.42334 5.35192,9.46996 -1.85742,12.64063 -2.24535,0.9875 3.37346,10.91506 -0.5918,11.98437 -6.60068,1.78002 -0.61509,6.66763 -6.3457,8.96289 -0.10536,1.52929 -0.27464,2.27413 -1.44141,3.3711 -0.127,0.11939 -3.9789,4.1681 -3.59961,4.39648 0.31535,0.18988 4.88955,-2.14467 6.5293,-2.62304 2.55786,-0.74621 2.44388,-4.08082 5.07813,-5.06055 6.07666,-2.26003 -0.14814,-7.24617 6.52929,-9.04688 3.96526,-1.06931 -1.65355,-10.99687 0.5918,-11.98437 7.20934,-3.17067 3.35534,-10.21729 1.85742,-12.64063 0,0 5.59594,-11.43143 -5.72461,-14.46289 -3.05138,-0.81712 1.24514,-11.14461 -4.77734,-11.06445 -5.73156,0.0763 -8.49427,-9.23741 -14.03125,-7.5332 -4.33876,1.3354 -7.59218,-2.16158 -11.40235,-2.69336 -2.19896,-0.30691 -5.10025,-0.76417 -7.7246,-0.80078 z"
       sodipodi:nodetypes="ccsssccsscsssssscssssc" />
    <path
       style="fill:none;fill-opacity:1;stroke:#30241c;stroke-width:1.25;stroke-linecap:round;stroke-linejoin:round;stroke-miterlimit:4;stroke-dasharray:none;stroke-opacity:1"
       d="m 374.72689,215.50212 c -0.20807,2.8255 -0.0163,3.63802 -1.55126,5.08116 -0.127,0.11939 -3.97955,4.16894 -3.60026,4.39732 0.31535,0.18988 4.89017,-2.14512 6.52992,-2.62349 2.55786,-0.74621 2.44356,-4.08007 5.07781,-5.0598 6.07666,-2.26003 -0.14743,-7.24771 6.53,-9.04842 3.96526,-1.06931 -1.65364,-10.99674 0.59171,-11.98424 7.20934,-3.17067 3.35544,-10.21725 1.85752,-12.64059 0,0 5.59614,-11.4302 -5.72441,-14.46166 -3.05138,-0.81712 1.24569,-11.1457 -4.77679,-11.06554 -5.73156,0.0763 -8.49532,-9.23718 -14.0323,-7.53297 -4.33876,1.3354 -7.59183,-2.16055 -11.402,-2.69233 -5.02621,-0.7015 -13.72071,-2.18734 -14.39406,2.35577 -0.49842,3.3631 -6.13369,4.43045 -6.5103,4.42025 -0.73757,-0.02 -2.98271,-1.94832 -6.5092,-0.75272 -1.62587,0.55124 -5.69116,3.44051 -5.10585,5.23165 0.84008,2.5708 -3.66402,4.66324 -3.66402,4.66324 -4.47866,5.90055 5.12161,3.67433 -2.91061,10.74932 -2.54839,2.24468 3.08515,11.09605 1.103,13.72576 -3.2317,4.28753 0.16551,6.89707 2.20459,7.88135 2.41295,1.16475 2.88766,6.25649 3.43028,5.70542 0.59933,-0.60871 0.43214,-10.62525 -0.11626,-11.77823 0,0 1.54719,-4.3886 6.9853,-5.36264 3.20535,-0.57411 3.13413,-4.68187 5.10888,-5.62824 2.41845,-1.15899 4.47029,-0.70873 6.93162,0.39618 3.82514,1.71714 5.11022,-3.437 7.50679,-3.11375 6.16743,0.83185 17.63459,-0.10041 18.4436,5.4719 0.6275,4.32201 7.03398,8.33104 4.69609,12.74592 -1.23561,2.33334 -0.55828,5.89903 0.17484,8.15405 1.87679,2.26167 2.64611,3.57577 1.71294,7.62428 -0.73869,2.2275 1.39632,2.79431 1.41243,5.14105 z"
       id="path6176"
       inkscape:connector-curvature="0"
       sodipodi:nodetypes="csssssscssssssssssssscssssssccc" />
    <path
       style="font-variation-settings:normal;opacity:1;vector-effect:none;fill:none;fill-opacity:0.3;stroke:#660000;stroke-width:1.5;stroke-linecap:round;stroke-linejoin:round;stroke-miterlimit:4;stroke-dasharray:none;stroke-dashoffset:0;stroke-opacity:1;stop-color:#000000;stop-opacity:1"
       d="m 322.68248,191.04564 c 6.17583,-3.21311 13.2154,-2.64167 20.73752,0 2.30921,-1.69092 3.46507,-0.69069 4.75359,0 6.13447,-1.99372 12.729,-2.80853 20.73752,0 l 6.09303,-3.31835"
       id="path5342"
       sodipodi:nodetypes="ccccc" />
    <path
       style="fill:none;stroke:#30241c;stroke-width:1.25;stroke-linecap:round;stroke-linejoin:round;stroke-miterlimit:4;stroke-dasharray:none;stroke-opacity:1"
       d="m 345.28846,160.45632 c 0,0 -1.0987,-2.25925 -5.08438,-0.33076 -3.98536,1.92834 -4.2928,5.34651 -4.97655,6.68035 -3.10033,6.04818 -7.85555,5.4548 -7.85555,5.4548"
       id="path4506"
       inkscape:connector-curvature="0"
       sodipodi:nodetypes="cssc" />
    <path
       style="fill:none;stroke:#30241c;stroke-width:1.25;stroke-linecap:round;stroke-linejoin:round;stroke-miterlimit:4;stroke-dasharray:none;stroke-opacity:1"
       d="m 375.15392,176.18462 c 0,0 0.0606,-5.96866 -4.90766,-7.00062 -4.96832,-1.03198 -6.06001,3.73373 -10.16524,0.32029 -4.10527,-3.41347 -4.48119,-7.84561 -4.48119,-7.84561"
       id="path4508"
       inkscape:connector-curvature="0"
       sodipodi:nodetypes="ccsc" />
    <path
       style="font-variation-settings:normal;opacity:1;vector-effect:none;fill:none;fill-opacity:0.3;stroke:#30241c;stroke-width:1.25;stroke-linecap:round;stroke-linejoin:round;stroke-miterlimit:4;stroke-dasharray:none;stroke-dashoffset:0;stroke-opacity:1;stop-color:#000000;stop-opacity:1"
       d="m 373.23638,184.36855 c 1.99558,1.0652 2.81073,3.54962 2.72096,4.48475 -0.42222,4.39827 -0.33228,6.78629 1.3449,10.9832"
       id="path6200"
       sodipodi:nodetypes="csc" />
    <path
       style="font-variation-settings:normal;opacity:1;vector-effect:none;fill:none;fill-opacity:0.3;stroke:#30241c;stroke-width:1.25;stroke-linecap:round;stroke-linejoin:round;stroke-miterlimit:4;stroke-dasharray:none;stroke-dashoffset:0;stroke-opacity:1;stop-color:#000000;stop-opacity:1"
       d="m 316.34777,188.22445 c 2.99305,-2.11279 3.55468,-6.46732 2.76562,-8.79688"
       id="path6202"
       sodipodi:nodetypes="cc" />
  </g>
</svg>
