<?xml version="1.0" encoding="UTF-8" standalone="no"?>
<svg
   xmlns:dc="http://purl.org/dc/elements/1.1/"
   xmlns:cc="http://creativecommons.org/ns#"
   xmlns:rdf="http://www.w3.org/1999/02/22-rdf-syntax-ns#"
   xmlns:svg="http://www.w3.org/2000/svg"
   xmlns="http://www.w3.org/2000/svg"
   xmlns:sodipodi="http://sodipodi.sourceforge.net/DTD/sodipodi-0.dtd"
   xmlns:inkscape="http://www.inkscape.org/namespaces/inkscape"
   width="133.58095"
   height="267.70151"
   viewBox="0 0 133.58095 267.70151"
   version="1.1"
   id="svg8"
   inkscape:version="1.0.1 (3bc2e813f5, 2020-09-07)"
   sodipodi:docname="Uklizecka.svg"
   inkscape:export-filename="C:\Users\micha\Downloads\Uklizecka.png"
   inkscape:export-xdpi="300"
   inkscape:export-ydpi="300">
  <defs
     id="defs2">
    <filter
       inkscape:collect="always"
       style="color-interpolation-filters:sRGB"
       id="filter1044"
       x="-0.16428"
       width="1.32856"
       y="-0.16428"
       height="1.32856">
      <feGaussianBlur
         inkscape:collect="always"
         stdDeviation="0.87122629"
         id="feGaussianBlur1046" />
    </filter>
  </defs>
  <sodipodi:namedview
     id="base"
     pagecolor="#e6e6e6"
     bordercolor="#666666"
     borderopacity="1.0"
     inkscape:pageopacity="0"
     inkscape:pageshadow="2"
     inkscape:zoom="2"
     inkscape:cx="108.87979"
     inkscape:cy="142.65563"
     inkscape:document-units="px"
     inkscape:current-layer="layer1"
     showgrid="false"
     units="px"
     width="2000px"
     inkscape:pagecheckerboard="false"
     showborder="true"
     borderlayer="true"
     inkscape:window-width="1920"
     inkscape:window-height="1017"
     inkscape:window-x="-8"
     inkscape:window-y="-8"
     inkscape:window-maximized="1"
     inkscape:document-rotation="0"
     fit-margin-top="5"
     lock-margins="true"
     fit-margin-left="5"
     fit-margin-right="5"
     fit-margin-bottom="5" />
  <metadata
     id="metadata5">
    <rdf:RDF>
      <cc:Work
         rdf:about="">
        <dc:format>image/svg+xml</dc:format>
        <dc:type
           rdf:resource="http://purl.org/dc/dcmitype/StillImage" />
        <dc:title></dc:title>
      </cc:Work>
    </rdf:RDF>
  </metadata>
  <g
     inkscape:label="Vrstva 1"
     inkscape:groupmode="layer"
     id="layer1"
     transform="translate(-279.34779,-143.87198)">
    <path
       style="font-variation-settings:normal;opacity:1;vector-effect:none;fill:#cccccc;fill-opacity:1;stroke:#808080;stroke-width:1.25;stroke-linecap:round;stroke-linejoin:round;stroke-miterlimit:4;stroke-dasharray:none;stroke-dashoffset:0;stroke-opacity:1;stop-color:#000000;stop-opacity:1"
       d="m 307.02884,248.24541 c -3.17521,-0.44153 -8.13731,-3.46911 -10.74214,-7.51556 -3.95486,-6.14369 -7.09185,-10.07009 -10.16631,-8.60118 l -1.14761,-5.31767 c 2.68423,-1.12485 5.33026,-0.7474 7.94112,1.01366 -2.03209,-2.03651 -3.14644,-4.48058 -7.69115,-5.40119 1.48362,-4.24273 3.32835,-10.94404 13.07489,-15.41895 5.2905,2.74912 7.56951,6.75785 10.37237,10.54748 -0.0815,-3.18607 -2.47026,-7.29566 -6.118,-11.90911 4.49148,-0.7373 13.74709,-2.23908 17.92337,0.13273 -3.19259,7.82989 6.8859,20.57797 3.28219,33.77512 -6.19132,-0.29831 -11.30405,3.01375 -16.72873,8.69467 z"
       id="path13551"
       sodipodi:nodetypes="cscccccccccc" />
    <path
       style="font-variation-settings:normal;opacity:1;vector-effect:none;fill:#1a1a1a;fill-opacity:1;stroke:#000000;stroke-width:1.19678;stroke-linecap:round;stroke-linejoin:round;stroke-miterlimit:4;stroke-dasharray:none;stroke-dashoffset:0;stroke-opacity:1;stop-color:#000000;stop-opacity:1"
       d="m 336.8785,384.05655 v 6.32741 c -3.29954,1.3253 -6.87128,3.37644 -8.86955,5.75704 -3.69152,4.39781 0.59897,9.63253 5.43934,9.63253 7.78972,0.40782 13.85661,0.2073 19.06708,-0.70175 1.99735,-0.34848 3.73548,-6.07568 3.57231,-8.53822 l -0.69301,-13.17048 c -6.07409,2.75457 -11.89227,2.08734 -18.51617,0.69347 z"
       id="path2766-8"
       sodipodi:nodetypes="ccscsccc" />
    <path
       style="font-variation-settings:normal;opacity:1;vector-effect:none;fill:#0f0f0f;fill-opacity:1;stroke:none;stroke-width:1.19678;stroke-linecap:butt;stroke-linejoin:bevel;stroke-miterlimit:4;stroke-dasharray:none;stroke-dashoffset:0;stroke-opacity:1;stop-color:#000000;stop-opacity:1"
       d="m 352.421,404.60594 c -3.74029,-5.1542 -2.42151,-8.67975 1.46092,-10.50236 z"
       id="path2774-2"
       sodipodi:nodetypes="ccc" />
    <path
       id="path2768-4"
       style="font-variation-settings:normal;opacity:1;vector-effect:none;fill:#0f0f0f;fill-opacity:1;stroke:none;stroke-width:1.19678;stroke-linecap:butt;stroke-linejoin:bevel;stroke-miterlimit:4;stroke-dasharray:none;stroke-dashoffset:0;stroke-opacity:1;stop-color:#000000;stop-opacity:1"
       d="m 331.35899,393.29327 c 10e-5,2e-5 0.0152,0.004 0.0152,0.004 -2.59727,11.36475 8.86349,11.23463 16.39654,12.30975 0,0 -0.0118,0.056 -0.0118,0.0577 -4.11357,0.36305 -8.76193,0.39885 -14.31061,0.10837 -4.84036,0 -9.13076,-5.23542 -5.43923,-9.63324 0.86241,-1.02742 2.05001,-1.97344 3.35024,-2.84626 z" />
    <path
       id="path2770-4"
       style="font-variation-settings:normal;opacity:1;vector-effect:none;fill:#0f0f0f;fill-opacity:1;stroke:none;stroke-width:1.19678;stroke-linecap:butt;stroke-linejoin:bevel;stroke-miterlimit:4;stroke-dasharray:none;stroke-dashoffset:0;stroke-opacity:1;stop-color:#000000;stop-opacity:1"
       d="m 355.39595,383.36384 0.69127,13.1694 c 0.16325,2.46255 -1.57423,8.19034 -3.57158,8.53882 -0.49255,0.086 -1.03466,0.13259 -1.54324,0.20588 1.09029,-3.87811 1.50586,-7.7562 0.67915,-11.63431 -4.08261,0.3354 -8.52025,-1.28654 -14.77448,-4.61615 v -1.58207 l 0.26983,0.0148 9.64754,-2.21778 c 2.88433,-0.0529 5.71552,-0.56945 8.60151,-1.87824 z"
       sodipodi:nodetypes="ccscccccccc" />
    <path
       style="font-variation-settings:normal;opacity:1;vector-effect:none;fill:none;fill-opacity:1;stroke:#000000;stroke-width:1.19678;stroke-linecap:round;stroke-linejoin:round;stroke-miterlimit:4;stroke-dasharray:none;stroke-dashoffset:0;stroke-opacity:1;stop-color:#000000;stop-opacity:1"
       d="m 336.8785,384.05655 v 6.32741 c -3.29954,1.3253 -6.87128,3.37644 -8.86955,5.75704 -3.69152,4.39781 0.59897,9.63253 5.43934,9.63253 7.78972,0.40782 13.85661,0.2073 19.06708,-0.70175 1.99735,-0.34848 3.73548,-6.07568 3.57231,-8.53822 l -0.69301,-13.17048 c -6.07409,2.75457 -11.89227,2.08734 -18.51617,0.69347 z"
       id="path2772-4"
       sodipodi:nodetypes="ccscsccc" />
    <path
       style="font-variation-settings:normal;opacity:1;vector-effect:none;fill:#e7d4cb;fill-opacity:1;stroke:#997766;stroke-width:1.19678;stroke-linecap:round;stroke-linejoin:round;stroke-miterlimit:4;stroke-dasharray:none;stroke-dashoffset:0;stroke-opacity:1;stop-color:#000000;stop-opacity:1"
       d="m 341.0662,269.18812 c -0.0152,14.58542 -0.34294,32.73631 -2.92395,47.11104 2.06222,4.74588 2.82893,12.74647 1.30698,13.74455 -1.20897,0.79284 -1.57756,-2.48381 -1.95982,-4.24456 -1.51974,3.64546 1.15592,7.79388 0.44046,9.29307 -1.26455,2.64985 -2.79552,2.96862 -4.45554,3.01127 -5.00002,0.12834 -7.73224,-9.67785 -7.61201,-12.51265 0.11409,-2.69229 0.48141,-6.09391 1.86816,-9.04234 -0.4681,-8.4019 -1.66556,-18.13917 -1.55707,-28.49724 0.0804,-7.67145 -2.8167,-15.21555 -2.98994,-21.58574 4.39582,1.19849 7.03396,3.00555 17.88273,2.7226 z"
       id="path880-7-8"
       sodipodi:nodetypes="ccscssscscc" />
    <path
       id="path2696-5"
       style="font-variation-settings:normal;opacity:1;vector-effect:none;fill:#d7b7a8;fill-opacity:1;stroke:none;stroke-width:1.19678;stroke-linecap:butt;stroke-linejoin:bevel;stroke-miterlimit:4;stroke-dasharray:none;stroke-dashoffset:0;stroke-opacity:1;stop-color:#000000;stop-opacity:1"
       d="m 328.47993,268.07187 c 2.72334,0.72561 6.23341,1.28177 12.58516,1.1161 -0.0152,14.58542 -0.34261,32.73682 -2.92362,47.11154 2.06222,4.74588 2.82979,12.74564 1.30784,13.74374 -1.20896,0.79283 -1.57786,-2.48339 -1.96012,-4.24414 -1.51974,3.64547 1.15583,7.79453 0.44037,9.29372 -1.26454,2.64985 -2.82309,2.57134 -4.48312,2.61399 -1.59196,0.0409 -2.98402,-1.50998 -3.32741,-2.03653 -0.25007,-6.30441 -1.01381,-12.53543 -0.25178,-18.83981 0.89997,-6.94246 2.47887,-12.69424 2.27516,-19.62252 -0.1511,-5.13912 -3.20859,-11.08378 -4.16848,-16.53158 -0.78052,-4.42981 0.0428,-9.29446 0.506,-12.60451 z"
       sodipodi:nodetypes="cccscssccssc" />
    <path
       style="font-variation-settings:normal;opacity:1;vector-effect:none;fill:#1a1a1a;fill-opacity:1;stroke:#000000;stroke-width:1.19678;stroke-linecap:round;stroke-linejoin:round;stroke-miterlimit:4;stroke-dasharray:none;stroke-dashoffset:0;stroke-opacity:1;stop-color:#000000;stop-opacity:1"
       d="m 364.92764,384.05655 v 6.32741 c -3.60328,1.3253 -9.22739,3.37644 -11.40962,5.75704 -4.03134,4.39781 0.65412,9.63253 5.94006,9.63253 8.50681,0.40782 15.13221,0.2073 20.82234,-0.70175 2.18121,-0.34848 4.07933,-6.07568 3.90115,-8.53822 l -0.75681,-13.17048 c -6.63325,2.75457 -11.26344,2.08734 -18.49712,0.69347 z"
       id="path901-2"
       sodipodi:nodetypes="ccscsccc" />
    <path
       id="path2735-4"
       style="font-variation-settings:normal;opacity:1;vector-effect:none;fill:#0f0f0f;fill-opacity:1;stroke:none;stroke-width:1.19678;stroke-linecap:butt;stroke-linejoin:bevel;stroke-miterlimit:4;stroke-dasharray:none;stroke-dashoffset:0;stroke-opacity:1;stop-color:#000000;stop-opacity:1"
       d="m 357.17647,393.29327 c 1e-4,2e-5 0.017,0.004 0.017,0.004 -2.83637,11.36475 9.67942,11.23463 17.90596,12.30975 0,0 -0.0136,0.056 -0.0136,0.0577 -4.49223,0.36305 -9.56849,0.39885 -15.62797,0.10837 -5.28594,0 -9.97131,-5.23542 -5.93996,-9.63324 0.94182,-1.02742 2.23875,-1.97344 3.65866,-2.84626 z" />
    <path
       id="path2729-7"
       style="font-variation-settings:normal;opacity:1;vector-effect:none;fill:#0f0f0f;fill-opacity:1;stroke:none;stroke-width:1.19678;stroke-linecap:butt;stroke-linejoin:bevel;stroke-miterlimit:4;stroke-dasharray:none;stroke-dashoffset:0;stroke-opacity:1;stop-color:#000000;stop-opacity:1"
       d="m 383.42617,383.36384 0.75491,13.1694 c 0.17818,2.46255 -1.71916,8.19034 -3.90037,8.53882 -0.53789,0.086 -1.12991,0.13259 -1.68531,0.20588 1.19065,-3.87811 1.64448,-7.7562 0.74167,-11.63431 -4.45844,0.3354 -7.62521,-1.28654 -14.45518,-4.61615 v -1.58207 l 0.29468,0.0148 8.85625,-2.21778 c 3.14985,-0.0529 6.24168,-0.56945 9.39335,-1.87824 z"
       sodipodi:nodetypes="ccscccccccc" />
    <path
       style="font-variation-settings:normal;opacity:1;vector-effect:none;fill:none;fill-opacity:1;stroke:#000000;stroke-width:1.19678;stroke-linecap:round;stroke-linejoin:round;stroke-miterlimit:4;stroke-dasharray:none;stroke-dashoffset:0;stroke-opacity:1;stop-color:#000000;stop-opacity:1"
       d="m 364.92764,384.05655 v 6.32741 c -3.60328,1.3253 -9.22739,3.37644 -11.40962,5.75704 -4.03134,4.39781 0.65412,9.63253 5.94006,9.63253 8.50681,0.40782 15.13221,0.2073 20.82234,-0.70175 2.18121,-0.34848 4.07933,-6.07568 3.90115,-8.53822 l -0.75681,-13.17048 c -6.63325,2.75457 -11.26344,2.08734 -18.49712,0.69347 z"
       id="path2740-0"
       sodipodi:nodetypes="ccscsccc" />
    <path
       style="font-variation-settings:normal;opacity:1;vector-effect:none;fill:#515462;fill-opacity:1;stroke:none;stroke-width:1.19678;stroke-linecap:round;stroke-linejoin:round;stroke-miterlimit:4;stroke-dasharray:none;stroke-dashoffset:0;stroke-opacity:1;stop-color:#000000;stop-opacity:1"
       d="m 386.42072,317.95227 c 1.88586,14.26454 -7.6e-4,22.24531 -0.93202,35.29573 -0.69965,9.80434 -1.95695,23.91773 -0.85674,34.16862 -6.25285,2.15028 -15.6275,2.61419 -22.62997,-0.0584 1.15307,-6.57244 1.21324,-13.3779 0.9807,-17.02854 -0.73881,-11.59964 -1.9243,-20.94734 -4.03034,-32.39781 l -2.73888,-8.4807 0.27564,-8.6093 c 13.10843,-0.4309 21.70891,-3.24201 29.93153,-6.10946 z"
       id="path897-1"
       sodipodi:nodetypes="csccsccccc" />
    <path
       style="font-variation-settings:normal;opacity:1;vector-effect:none;fill:#8c3661;fill-opacity:1;stroke:#371527;stroke-width:1.19678;stroke-linecap:round;stroke-linejoin:round;stroke-miterlimit:4;stroke-dasharray:none;stroke-dashoffset:0;stroke-opacity:1;stop-color:#000000;stop-opacity:1"
       d="m 342.19378,269.87967 c 1.75427,-13.15709 2.75354,-25.30379 -1.58109,-38.5426 -6.78203,-0.79813 -18.77197,15.87172 -18.67153,34.43703 5.78292,4.09508 13.98462,3.83173 20.25262,4.10557 z"
       id="path878-3"
       sodipodi:nodetypes="cccc" />
    <path
       style="font-variation-settings:normal;opacity:1;vector-effect:none;fill:#5d2340;fill-opacity:1;stroke:none;stroke-width:1.19678;stroke-linecap:butt;stroke-linejoin:bevel;stroke-miterlimit:4;stroke-dasharray:none;stroke-dashoffset:0;stroke-opacity:1;stop-color:#000000;stop-opacity:1"
       d="m 332.29594,268.79318 0.0578,-8.53227 -3.81912,7.74846 c 0.41243,0.26598 2.84903,0.56519 3.76131,0.63465 z"
       id="path2687-3"
       sodipodi:nodetypes="ccccc" />
    <path
       style="font-variation-settings:normal;opacity:1;vector-effect:none;fill:#e7d4cb;fill-opacity:1;stroke:#997766;stroke-width:1.25;stroke-linecap:round;stroke-linejoin:round;stroke-miterlimit:4;stroke-dasharray:none;stroke-dashoffset:0;stroke-opacity:1;stop-color:#000000;stop-opacity:1"
       d="m 379.87948,233.22792 -4.5964,-2.35789 c 0.28193,-2.95587 0.0836,-5.81569 0,-8.69846 -6.44083,3.46546 -8.82903,8.24624 -32.10846,6.24654 v 1.83894 c -1.73842,0.29077 -5.62397,2.71595 -6.86854,4.36211 0,22.10841 43.5734,19.04921 43.5734,-1.39124 z"
       id="path872-4"
       sodipodi:nodetypes="ccccccc" />
    <path
       id="path2701-1"
       style="font-variation-settings:normal;opacity:1;vector-effect:none;fill:#d7b7a8;fill-opacity:1;stroke:none;stroke-width:1.25;stroke-linecap:butt;stroke-linejoin:bevel;stroke-miterlimit:4;stroke-dasharray:none;stroke-dashoffset:0;stroke-opacity:1;stop-color:#000000;stop-opacity:1"
       d="m 374.85048,222.17036 c 0.0836,2.88278 0.31082,5.90441 0.0288,8.86029 l 4.56559,2.19609 c 0,0.0359 -0.007,0.069 -0.007,0.10467 l -1.78795,1.67237 c -1.53693,-0.82292 -3.13479,-1.58493 -4.82565,-2.2539 0.33919,-1.92423 0.50473,-3.4434 0.37564,-4.97013 -5.107,1.46657 -8.93746,3.46078 -19.53378,2.65844 l 0.9644,-1.5893 c 12.50589,-0.35457 15.10358,-3.92569 20.22008,-6.6786 z"
       sodipodi:nodetypes="sccccccccss" />
    <path
       style="font-variation-settings:normal;opacity:1;vector-effect:none;fill:none;fill-opacity:1;stroke:#997766;stroke-width:1.25;stroke-linecap:round;stroke-linejoin:round;stroke-miterlimit:4;stroke-dasharray:none;stroke-dashoffset:0;stroke-opacity:1;stop-color:#000000;stop-opacity:1"
       d="m 379.87948,233.22792 -4.5964,-2.35789 c 0.28193,-2.95587 0.0836,-5.81569 0,-8.69846 -6.44083,3.46546 -8.82903,8.24624 -32.10846,6.24654 v 1.83894 c -1.9152,0.26868 -5.18203,2.76015 -6.86854,4.36211 0,23.42091 43.5734,19.92421 43.5734,-1.39124 z"
       id="path4400"
       sodipodi:nodetypes="ccccccc" />
    <path
       style="font-variation-settings:normal;opacity:1;vector-effect:none;fill:#5a9345;fill-opacity:1;stroke:#997766;stroke-width:1.19678;stroke-linecap:round;stroke-linejoin:round;stroke-miterlimit:4;stroke-dasharray:none;stroke-dashoffset:0;stroke-opacity:1;stop-color:#000000;stop-opacity:1"
       d="m 343.17462,230.25705 c 0.006,1.42322 5.6e-4,2.86605 0.21406,3.91142"
       id="path874-7"
       sodipodi:nodetypes="cc" />
    <path
       style="font-variation-settings:normal;opacity:1;vector-effect:none;fill:#515462;fill-opacity:1;stroke:none;stroke-width:1.19678;stroke-linecap:round;stroke-linejoin:round;stroke-miterlimit:4;stroke-dasharray:none;stroke-dashoffset:0;stroke-opacity:1;stop-color:#000000;stop-opacity:1"
       d="m 356.75408,324.06168 2.06568,13.87015 c 0,0 -2.8432,26.59754 -2.62947,40.05346 0.0481,3.02796 0.5921,9.69078 0.5921,9.69078 -6.67865,2.76746 -16.0737,2.34054 -21.40561,0 0.39171,-9.26696 0.66584,-25.45336 -0.51926,-37.97737 -0.95264,-10.06748 -2.14704,-22.61691 0.15522,-32.52436 7.91332,2.45524 13.68619,3.22235 21.74125,3.66749 z"
       id="path899-5"
       sodipodi:nodetypes="ccsccsccc" />
    <path
       id="path1625-8"
       style="font-variation-settings:normal;opacity:1;vector-effect:none;fill:#393c46;fill-opacity:1;stroke:none;stroke-width:1.19678;stroke-linecap:butt;stroke-linejoin:bevel;stroke-miterlimit:4;stroke-dasharray:none;stroke-dashoffset:0;stroke-opacity:1;stop-color:#000000;stop-opacity:1"
       d="m 357.71054,346.51765 -0.13278,2.70901 c -0.4122,8.97522 -1.52117,20.37609 -1.38803,28.75887 0.0481,3.02797 1.69751,9.69054 1.69751,9.69054 -5.81213,1.60559 -9.97744,2.00612 -14.8621,1.98711 4.16761,-1.98527 5.71,-3.19343 7.54912,-5.78284 z"
       sodipodi:nodetypes="ccscccc" />
    <path
       style="font-variation-settings:normal;opacity:1;vector-effect:none;fill:none;fill-opacity:1;stroke:#17181c;stroke-width:1.19678;stroke-linecap:round;stroke-linejoin:round;stroke-miterlimit:4;stroke-dasharray:none;stroke-dashoffset:0;stroke-opacity:1;stop-color:#000000;stop-opacity:1"
       d="m 358.86396,333.61873 -0.0442,4.3131 c 0,0 -2.84321,26.59754 -2.62948,40.05346 0.0481,3.02796 1.69695,9.69078 1.69695,9.69078 -6.67865,2.76746 -17.50174,2.45729 -22.83365,0.11669 1.71753,-8.86921 1.48699,-25.51225 -0.20885,-37.97736 -1.37593,-10.11362 -2.02323,-24.41945 0.168,-32.64106 8.37089,2.34606 14.42813,3.31478 21.74134,3.66744"
       id="path1615-2"
       sodipodi:nodetypes="ccsccscc" />
    <path
       style="font-variation-settings:normal;opacity:1;vector-effect:none;fill:#8c3661;fill-opacity:1;stroke:none;stroke-width:1.19678;stroke-linecap:round;stroke-linejoin:round;stroke-miterlimit:4;stroke-dasharray:none;stroke-dashoffset:0;stroke-opacity:1;stop-color:#000000;stop-opacity:1"
       d="m 386.42072,315.06266 v -77.35908 c -2.12391,-1.8073 -4.31351,-4.84028 -8.75258,-7.35179 -3.38476,6.47344 -13.33443,17.56385 -23.96971,17.75803 -7.11776,0.12996 -12.91907,-5.934 -13.69879,-17.29189 -3.64235,1.34877 -9.23698,4.21554 -8.17551,14.30579 1.09026,10.36389 -0.65229,17.18493 -1.79133,30.81601 -0.66856,8.00075 4.44586,11.53846 5.47777,18.71904 1.16315,8.09384 -0.54314,13.89086 -2.74694,22.36968 21.12092,6.66482 37.91065,3.71265 53.65709,-1.96579 z"
       id="path870-0"
       sodipodi:nodetypes="cccscssscc" />
    <path
       id="path1623-4"
       style="font-variation-settings:normal;opacity:1;vector-effect:none;fill:#393c46;fill-opacity:1;stroke:none;stroke-width:1.19678;stroke-linecap:butt;stroke-linejoin:bevel;stroke-miterlimit:4;stroke-dasharray:none;stroke-dashoffset:0;stroke-opacity:1;stop-color:#000000;stop-opacity:1"
       d="m 381.4193,321.00171 5,-3.04788 c 1.88585,14.26453 9e-4,22.24259 -0.93036,35.293 -0.69965,9.80435 -0.71976,27.18927 0.7782,34.16979 -6.25285,2.15028 -10.23478,1.86343 -17.1313,1.61816 4.03031,-1.2383 5.76893,-2.0949 8.5424,-4.61254 z"
       sodipodi:nodetypes="ccscccc" />
    <path
       style="font-variation-settings:normal;opacity:1;vector-effect:none;fill:none;fill-opacity:1;stroke:#17181c;stroke-width:1.19678;stroke-linecap:round;stroke-linejoin:round;stroke-miterlimit:4;stroke-dasharray:none;stroke-dashoffset:0;stroke-opacity:1;stop-color:#000000;stop-opacity:1"
       d="m 356.75408,320.84183 c 9.94123,-0.20128 22.9052,-2.6907 29.66664,-6.10941 1.88586,14.26454 -7.6e-4,25.46516 -0.93202,38.51558 -0.69965,9.80434 -1.92153,24.09218 0.77844,34.16862 -6.25285,2.15028 -17.26268,2.61419 -24.26515,-0.0584 1.17341,-4.37922 1.21324,-13.3779 0.9807,-17.02854 -0.73881,-11.59964 -1.92429,-20.94734 -4.03034,-32.39781 l -0.13258,-4.95691"
       id="path1617-0"
       sodipodi:nodetypes="ccsccscc" />
    <path
       id="path1627-3"
       style="font-variation-settings:normal;opacity:1;vector-effect:none;fill:#393c46;fill-opacity:1;stroke:none;stroke-width:1.19678;stroke-linecap:butt;stroke-linejoin:bevel;stroke-miterlimit:4;stroke-dasharray:none;stroke-dashoffset:0;stroke-opacity:1;stop-color:#000000;stop-opacity:1"
       d="m 385.86663,315.3485 c 0.2353,0.88595 0.39377,3.64993 0.46875,4.39379 0.27381,2.71605 0.0293,4.80409 -0.1633,7.42027 -18.28265,1.03318 -36.98397,-2.53294 -52.54021,-9.93475 1e-4,-0.013 -10e-5,-0.0298 0,-0.0433 7.87349,2.44287 15.11406,3.21283 23.12079,3.65898 13.02318,-0.4475 18.93874,-1.84169 27.1296,-4.69807 z"
       sodipodi:nodetypes="cscccccc" />
    <path
       id="path1679-9"
       style="font-variation-settings:normal;opacity:1;vector-effect:none;fill:#5d2340;fill-opacity:1;stroke:none;stroke-width:1.19678;stroke-linecap:butt;stroke-linejoin:bevel;stroke-miterlimit:4;stroke-dasharray:none;stroke-dashoffset:0;stroke-opacity:1;stop-color:#000000;stop-opacity:1"
       d="m 386.4193,300.8148 2.12634,13.84161 c -10.90268,3.93169 -24.43394,6.95791 -37.42831,5.98835 16.63811,-4.0994 27.82616,-11.4564 35.30197,-19.82996 z"
       sodipodi:nodetypes="cccc" />
    <path
       style="font-variation-settings:normal;opacity:1;vector-effect:none;fill:none;fill-opacity:1;stroke:#371527;stroke-width:1.19678;stroke-linecap:round;stroke-linejoin:round;stroke-miterlimit:4;stroke-dasharray:none;stroke-dashoffset:0;stroke-opacity:1;stop-color:#000000;stop-opacity:1"
       d="m 332.29898,260.32341 c -0.29673,2.8699 -4.64774,15.97022 -0.15192,23.75721 5.35118,9.26851 3.26709,23.05597 0.61657,32.94783 21.12091,6.66482 40.03557,3.3064 55.78201,-2.37204 0,0 -0.99598,-4.55559 -1.19059,-6.73885 -2.08556,-23.39788 -0.93441,-70.21398 -0.93441,-70.21398 -2.12392,-1.8073 -3.75092,-5.37153 -8.7525,-7.35179 -3.38476,9.41094 -15.2712,17.54584 -23.46979,17.69553 -7.11776,0.13001 -13.85649,-5.934 -14.19871,-17.22939 -1.88334,0.37172 -5.09959,2.47418 -7.00549,4.68936"
       id="path1619-2"
       sodipodi:nodetypes="csccsccscc" />
    <path
       style="font-variation-settings:normal;opacity:1;vector-effect:none;fill:#5d2340;fill-opacity:1;stroke:none;stroke-width:1.19678;stroke-linecap:butt;stroke-linejoin:bevel;stroke-miterlimit:4;stroke-dasharray:none;stroke-dashoffset:0;stroke-opacity:1;stop-color:#000000;stop-opacity:1"
       d="m 377.38384,311.8915 c -2.3752,-17.68632 -3.28129,-38.88291 -2.91975,-52.68343 l 10.86373,50.62216 z"
       id="path2683-2"
       sodipodi:nodetypes="cccc" />
    <path
       id="path880-73-3"
       style="font-variation-settings:normal;opacity:1;vector-effect:none;fill:#e7d4cb;fill-opacity:1;stroke:#997766;stroke-width:1.25;stroke-linecap:round;stroke-linejoin:round;stroke-miterlimit:4;stroke-dasharray:none;stroke-dashoffset:0;stroke-opacity:1;stop-color:#000000;stop-opacity:1"
       d="m 395.80939,263.81073 c -5.21743,1.81435 -4.53866,4.19049 -19.45653,2.72646 0.74846,8.214 1.78923,15.82965 3.25624,23.85018 -3.42696,4.53814 -8.42215,10.06918 -12.07585,15.28107 -5.48899,2.07869 -12.84,7.41342 -12.27631,9.50362 0.44777,1.66039 3.31039,-0.66589 5.0105,-1.76066 -1.48954,4.2203 -7.05538,5.29811 -7.58848,7.11017 -0.94225,3.2028 0.15564,4.75341 1.58095,6.19097 4.29303,4.32986 14.75913,-0.74481 16.85003,-3.12929 1.98582,-2.26461 4.47992,-6.03563 5.54618,-9.58218 3.37125,-3.51046 16.5556,-11.80844 19.38591,-15.51758 4.55583,-5.76316 0.54053,-17.74432 0.007,-29.83815 -0.0697,-1.6129 -0.14307,-3.22643 -0.23984,-4.83461 z"
       sodipodi:nodetypes="ccccscscscccc" />
    <path
       style="font-variation-settings:normal;opacity:1;vector-effect:none;fill:#e7d4cb;fill-opacity:1;stroke:#997766;stroke-width:1.25;stroke-linecap:round;stroke-linejoin:round;stroke-miterlimit:4;stroke-dasharray:none;stroke-dashoffset:0;stroke-opacity:1;stop-color:#000000;stop-opacity:1"
       d="m 326.86201,187.33595 c -0.272,1.8907 0.18557,5.53087 0.63135,7.83622 1.05977,5.48047 0.26792,10.48034 0.23352,15.3537 -0.044,6.24382 9.24604,15.04883 13.95259,17.74722 8.31877,4.76938 20.72131,1.89935 24.92037,0.61185 6.8061,-2.08685 13.50329,-7.89013 17.81304,-12.81307 7.30469,-8.34402 8.51243,-15.15413 8.5817,-25.8035 0.069,-10.6106 -8.21891,-21.80832 -20.89964,-29.07276 -17.76387,-10.1764 -40.79339,-4.71901 -45.23293,26.14034 z"
       id="path860-3-4"
       sodipodi:nodetypes="sssssssss" />
    <path
       id="path2715-2-2"
       style="font-variation-settings:normal;opacity:1;vector-effect:none;fill:#d7b7a8;fill-opacity:1;stroke:none;stroke-width:1.25;stroke-linecap:butt;stroke-linejoin:bevel;stroke-miterlimit:4;stroke-dasharray:none;stroke-dashoffset:0;stroke-opacity:1;stop-color:#000000;stop-opacity:1"
       d="m 354.62734,156.53315 c 5.85165,-0.17144 11.91651,1.48298 17.46771,4.6631 12.68073,7.26445 20.96811,18.46252 20.89913,29.07312 -0.0444,6.82554 -0.56461,12.07115 -2.84989,17.15709 l -1.55315,-14.05075 -6.61722,-3.43502 -6.94952,6.21266 c -9.18976,-19.70904 -41.2977,-31.06413 -47.82311,-2.72345 -0.32008,-2.13005 -0.55014,-4.62939 -0.33952,-6.09349 3.05219,-21.21579 14.89197,-30.42609 27.76557,-30.80326 z m 34.75843,52.44647 c -1.2192,2.32233 -2.82817,4.64315 -4.97374,7.09401 -4.30975,4.92294 -8.13426,9.48817 -14.94036,11.57501 -0.009,0.004 -3.7833,1.68338 -9.0959,2.70285 8.34109,-4.57934 18.83465,-11.71487 20.82014,-20.60085 z"
       sodipodi:nodetypes="ssscccccsscssccc" />
    <path
       style="font-variation-settings:normal;opacity:1;vector-effect:none;fill:none;fill-opacity:0.3;stroke:#5c3c0a;stroke-width:1.25;stroke-linecap:round;stroke-linejoin:round;stroke-miterlimit:4;stroke-dasharray:none;stroke-dashoffset:0;stroke-opacity:1;stop-color:#000000;stop-opacity:1"
       d="m 342.97035,185.27934 c -4.00875,-1.1653 -11.10133,0.75398 -12.8475,2.69251"
       id="path1611-7-7"
       sodipodi:nodetypes="cc" />
    <path
       style="font-variation-settings:normal;opacity:1;vector-effect:none;fill:none;fill-opacity:0.3;stroke:#a67359;stroke-width:1.75;stroke-linecap:round;stroke-linejoin:round;stroke-miterlimit:4;stroke-dasharray:none;stroke-dashoffset:0;stroke-opacity:1;stop-color:#000000;stop-opacity:1"
       d="m 344.3628,218.4987 c 4.00483,2.72882 8.41994,1.29991 9.92444,0"
       id="path866-9-6"
       sodipodi:nodetypes="cc" />
    <path
       style="font-variation-settings:normal;opacity:1;vector-effect:none;fill:none;fill-opacity:0.3;stroke:#5c3c0a;stroke-width:1.25;stroke-linecap:round;stroke-linejoin:round;stroke-miterlimit:4;stroke-dasharray:none;stroke-dashoffset:0;stroke-opacity:1;stop-color:#000000;stop-opacity:1"
       d="m 370.3985,186.79734 c -3.91435,-2.43354 -7.75051,-4.97613 -15.70607,-1.77497"
       id="path1609-4-6"
       sodipodi:nodetypes="cc" />
    <path
       style="font-variation-settings:normal;opacity:1;vector-effect:none;fill:#201a13;fill-opacity:1;stroke:none;stroke-width:1.25;stroke-linecap:round;stroke-linejoin:round;stroke-miterlimit:4;stroke-dasharray:none;stroke-dashoffset:0;stroke-opacity:1;stop-color:#000000;stop-opacity:1"
       d="m 334.56567,202.20809 c -0.50213,-1.92795 -0.4652,-5.89679 0.0362,-8.1994 0.85649,-3.93261 4.90778,-3.15982 5.38182,-1.50317 0.93775,3.27718 0.96544,7.06402 0.31313,9.88305 -1.08547,4.69099 -4.9086,2.97808 -5.73129,-0.1805 z"
       id="path1607-5-2"
       sodipodi:nodetypes="ssssss" />
    <path
       style="font-variation-settings:normal;opacity:1;vector-effect:none;fill:#201a13;fill-opacity:1;stroke:none;stroke-width:1.25;stroke-linecap:round;stroke-linejoin:round;stroke-miterlimit:4;stroke-dasharray:none;stroke-dashoffset:0;stroke-opacity:1;stop-color:#000000;stop-opacity:1"
       d="m 356.49815,202.98319 c -0.53735,-2.0631 -0.49783,-6.31019 0.0388,-8.77423 0.91654,-4.20832 5.25185,-3.38134 5.75913,-1.60855 1.00349,3.50692 1.03312,7.55926 0.33508,10.57591 -1.16158,5.01986 -5.25273,3.18688 -6.1331,-0.19315 z"
       id="path1613-7-5"
       sodipodi:nodetypes="ssssss" />
    <path
       style="font-variation-settings:normal;opacity:1;vector-effect:none;fill:none;fill-opacity:1;stroke:#997766;stroke-width:1.25;stroke-linecap:round;stroke-linejoin:round;stroke-miterlimit:4;stroke-dasharray:none;stroke-dashoffset:0;stroke-opacity:1;stop-color:#000000;stop-opacity:1"
       d="m 326.86201,187.33595 c -0.272,1.8907 0.18557,5.53087 0.63135,7.83622 1.05977,5.48047 0.26792,10.48034 0.23352,15.3537 -0.044,6.24382 9.24604,15.04883 13.95259,17.74722 8.31877,4.76938 20.98648,1.63418 25.18554,0.34668 6.8061,-2.08685 13.23812,-7.62496 17.54787,-12.5479 7.30469,-8.34402 8.51243,-15.15413 8.5817,-25.8035 0.069,-10.6106 -8.21891,-21.80832 -20.89964,-29.07276 -17.76387,-10.1764 -40.79339,-4.71901 -45.23293,26.14034 z"
       id="path2720-8-1"
       sodipodi:nodetypes="sssssssss" />
    <path
       style="font-variation-settings:normal;opacity:1;vector-effect:none;fill:#ebab47;fill-opacity:1;stroke:#8b5a0e;stroke-width:1.25;stroke-linecap:round;stroke-linejoin:round;stroke-miterlimit:4;stroke-dasharray:none;stroke-dashoffset:0;stroke-opacity:1;stop-color:#000000;stop-opacity:1"
       d="m 326.57629,198.1799 c 2.1962,-7.60937 15.84745,-21.93317 22.04451,-22.35276 0.72307,-0.0489 -0.66688,2.49055 -2.55579,4.44517 10.12882,-1.60816 14.19439,-2.95605 20.57363,-5.54094 6.32197,7.6181 9.06741,13.99229 10.39823,21.72522 3.15254,-4.36292 11.7731,8.73854 4.06529,12.80967 1.5154,2.27179 0.35991,6.54039 -0.87643,11.07494 8.30398,-5.83478 13.62585,-19.25648 13.29475,-27.63221 2.2174,-10.32174 0.55302,-30.65093 -15.13923,-32.65505 -1.6811,-3.94131 -6.3256,-5.84604 -9.04562,-6.81169 -6.60321,-2.34423 -18.77126,-1.41472 -25.18811,0.39561 10.76174,0.54172 -1.92334,3.33955 -3.80829,3.98649 -6.40711,2.19899 -10.7847,5.602 -13.39368,9.8439 6.64521,-1.55581 -0.82067,1.67463 -2.33748,7.75053 -1.71192,6.85746 -1.57476,14.37668 1.96822,22.96112 z"
       id="path918"
       sodipodi:nodetypes="cscccccccscscsc" />
    <path
       style="font-variation-settings:normal;opacity:1;vector-effect:none;fill:#201a13;fill-opacity:1;stroke:none;stroke-width:1;stroke-linecap:butt;stroke-linejoin:bevel;stroke-miterlimit:4;stroke-dasharray:none;stroke-dashoffset:0;stroke-opacity:1;stop-color:#000000;stop-opacity:1"
       d="m 335.76678,191.89677 c -1.55388,1.35221 -2.85294,0.79049 -4.46463,0.0902 0.94622,1.32271 2.10346,2.29615 3.89899,2.21312 -0.78598,0.76453 -1.43965,1.17179 -2.66632,0.67299 0.46913,1.02384 1.52716,1.06079 2.72882,1.29576 0.56613,-1.58333 1.33574,-2.76302 0.50314,-4.2721 z"
       id="path930"
       sodipodi:nodetypes="cccccc" />
    <path
       style="font-variation-settings:normal;opacity:1;vector-effect:none;fill:#201a13;fill-opacity:1;stroke:none;stroke-width:1;stroke-linecap:butt;stroke-linejoin:bevel;stroke-miterlimit:4;stroke-dasharray:none;stroke-dashoffset:0;stroke-opacity:1;stop-color:#000000;stop-opacity:1"
       d="m 361.72925,191.89677 c 1.55388,1.35221 2.85294,0.79049 4.46463,0.0902 -0.94622,1.32271 -2.10346,2.29615 -3.89899,2.21312 0.78598,0.76453 1.43965,1.17179 2.66632,0.67299 -0.46913,1.02384 -1.52716,1.06079 -2.72882,1.29576 -0.56613,-1.58333 -1.33574,-2.76302 -0.50314,-4.2721 z"
       id="path932"
       sodipodi:nodetypes="cccccc" />
    <ellipse
       style="font-variation-settings:normal;opacity:1;vector-effect:none;fill:#e4b29b;fill-opacity:1;fill-rule:evenodd;stroke:none;stroke-width:1.5;stroke-linecap:butt;stroke-linejoin:bevel;stroke-miterlimit:4;stroke-dasharray:none;stroke-dashoffset:0;stroke-opacity:1;filter:url(#filter1044);stop-color:#000000;stop-opacity:1"
       id="path934"
       cx="362.64594"
       cy="209.4964"
       rx="6.3639612"
       ry="3.6764612"
       transform="rotate(-16.46333,368.02167,194.22908)" />
    <ellipse
       style="font-variation-settings:normal;opacity:1;vector-effect:none;fill:#e4b29b;fill-opacity:1;fill-rule:evenodd;stroke:none;stroke-width:1.5;stroke-linecap:butt;stroke-linejoin:bevel;stroke-miterlimit:4;stroke-dasharray:none;stroke-dashoffset:0;stroke-opacity:1;filter:url(#filter1044);stop-color:#000000;stop-opacity:1"
       id="ellipse1048"
       cx="362.64594"
       cy="209.4964"
       rx="6.3639612"
       ry="3.6764612"
       transform="rotate(8.7656809,341.11794,37.564424)" />
    <path
       style="font-variation-settings:normal;opacity:1;vector-effect:none;fill:none;fill-opacity:0.3;stroke:#8b5a0e;stroke-width:1.25;stroke-linecap:round;stroke-linejoin:round;stroke-miterlimit:4;stroke-dasharray:none;stroke-dashoffset:0;stroke-opacity:1;stop-color:#000000;stop-opacity:1"
       d="m 326.57629,198.1799 c -0.42939,-12.55759 9.78692,-26.41326 16.31,-29.11508"
       id="path1056"
       sodipodi:nodetypes="cc" />
    <path
       style="font-variation-settings:normal;opacity:1;vector-effect:none;fill:none;fill-opacity:1;stroke:#8b5a0e;stroke-width:1.25;stroke-linecap:round;stroke-linejoin:round;stroke-miterlimit:4;stroke-dasharray:none;stroke-dashoffset:0;stroke-opacity:1;stop-color:#000000;stop-opacity:1"
       d="m 326.57629,198.1799 c 2.1962,-7.60937 15.84745,-21.93317 22.04451,-22.35276 0.72307,-0.0489 -0.66688,2.49055 -2.55579,4.44517 10.12882,-1.60816 14.19439,-2.95605 20.57363,-5.54094 6.32197,7.6181 9.06741,13.99229 10.39823,21.72522 3.15254,-4.36292 11.7731,8.73854 4.06529,12.80967 1.5154,2.27179 0.35991,6.54039 -0.87643,11.07494 8.30398,-5.83478 13.62585,-19.25648 13.29475,-27.63221 2.2174,-10.32174 0.55302,-30.65093 -15.13923,-32.65505 -1.6811,-3.94131 -6.3256,-5.84604 -9.04562,-6.81169 -6.60321,-2.34423 -18.77126,-1.41472 -25.18811,0.39561 10.76174,0.54172 -1.92334,3.33955 -3.80829,3.98649 -6.40711,2.19899 -10.7847,5.602 -13.39368,9.8439 6.64521,-1.55581 -0.82067,1.67463 -2.33748,7.75053 -1.71192,6.85746 -1.57476,14.37668 1.96822,22.96112 z"
       id="path1075"
       sodipodi:nodetypes="cscccccccscscsc" />
    <path
       style="font-variation-settings:normal;opacity:1;vector-effect:none;fill:none;fill-opacity:0.3;stroke:#8b5a0e;stroke-width:1.25;stroke-linecap:round;stroke-linejoin:round;stroke-miterlimit:4;stroke-dasharray:none;stroke-dashoffset:0;stroke-opacity:1;stop-color:#000000;stop-opacity:1"
       d="m 347.88864,177.98137 c 2.41406,-3.26471 3.61937,-6.58987 4.375,-9.9375"
       id="path1050"
       sodipodi:nodetypes="cc" />
    <path
       style="font-variation-settings:normal;opacity:1;vector-effect:none;fill:none;fill-opacity:0.3;stroke:#8b5a0e;stroke-width:1.25;stroke-linecap:round;stroke-linejoin:round;stroke-miterlimit:4;stroke-dasharray:none;stroke-dashoffset:0;stroke-opacity:1;stop-color:#000000;stop-opacity:1"
       d="m 378.38125,160.05394 c -3.12226,1.54686 -5.55722,3.50215 -7.2698,6.41541"
       id="path1052"
       sodipodi:nodetypes="cc" />
    <path
       style="font-variation-settings:normal;opacity:1;vector-effect:none;fill:none;fill-opacity:0.3;stroke:#8b5a0e;stroke-width:1.25;stroke-linecap:round;stroke-linejoin:round;stroke-miterlimit:4;stroke-dasharray:none;stroke-dashoffset:0;stroke-opacity:1;stop-color:#000000;stop-opacity:1"
       d="m 375.94355,171.00936 c 2.3837,4.78079 3.83783,10.04743 4.33103,14.84924"
       id="path1054"
       sodipodi:nodetypes="cc" />
    <path
       style="font-variation-settings:normal;opacity:1;vector-effect:none;fill:none;fill-opacity:0.3;stroke:#8b5a0e;stroke-width:1.25;stroke-linecap:round;stroke-linejoin:round;stroke-miterlimit:4;stroke-dasharray:none;stroke-dashoffset:0;stroke-opacity:1;stop-color:#000000;stop-opacity:1"
       d="m 391.08713,191.98727 c 0.62753,5.30511 0.21597,10.75328 -0.94284,15.43919"
       id="path1064"
       sodipodi:nodetypes="cc" />
    <path
       style="font-variation-settings:normal;opacity:1;vector-effect:none;fill:#e7d4cb;fill-opacity:1;stroke:#997766;stroke-width:1.25;stroke-linecap:round;stroke-linejoin:round;stroke-miterlimit:4;stroke-dasharray:none;stroke-dashoffset:0;stroke-opacity:1;stop-color:#000000;stop-opacity:1"
       d="m 377.03687,196.45659 c 0.38265,-4.14035 6.62558,-3.98539 7.70631,-0.96907 1.01161,2.82342 0.8128,6.86663 -0.26682,9.69022 -0.95343,2.49355 -2.47346,4.55154 -5.35884,4.48964"
       id="path14516"
       sodipodi:nodetypes="cssc" />
    <path
       id="path13706"
       style="font-variation-settings:normal;opacity:1;vector-effect:none;fill:#000000;fill-opacity:0.3;stroke:none;stroke-width:1.25;stroke-linecap:round;stroke-linejoin:round;stroke-miterlimit:4;stroke-dasharray:none;stroke-dashoffset:0;stroke-opacity:1;stop-color:#000000;stop-opacity:1"
       d="m 75.279297,12.662109 c -12.764593,0.373997 -24.504394,9.442597 -27.677735,30.277344 1.398248,-2.202934 3.054266,-4.007228 5.207032,-5.023437 4.24435,-2.00354 7.186553,-6.17183 10.964844,-7.96875 7.591239,-4.51332 10.385968,-0.990444 16.205078,-1.089844 11.696286,-0.199752 15.990015,9.387778 19.202387,21.099032 0.06392,0.233032 0.816869,-0.471411 0.883697,-0.238305 1.24136,4.330029 2.27101,9.614222 3.50146,14.12463 0.0535,0.195912 -0.64275,0.704102 -0.58856,0.899539 0.68422,2.467951 1.09791,4.784959 1.95666,7.108135 6.83099,-8.433625 8.64372,-14.907295 8.71232,-25.453969 0.069,-10.6106 -8.2177,-21.807825 -20.898433,-29.072265 -5.551209,-3.180125 -11.61711,-4.83356 -17.46875,-4.66211 z"
       transform="translate(279.34779,143.87198)"
       sodipodi:nodetypes="scsccsssscsss" />
    <path
       style="font-variation-settings:normal;opacity:1;vector-effect:none;fill:none;fill-opacity:1;stroke:#997766;stroke-width:1.25;stroke-linecap:round;stroke-linejoin:round;stroke-miterlimit:4;stroke-dasharray:none;stroke-dashoffset:0;stroke-opacity:1;stop-color:#000000;stop-opacity:1"
       d="m 377.03687,196.45659 c 0.38265,-4.14035 6.62558,-3.98539 7.70631,-0.96907 1.01161,2.82342 0.8128,6.86663 -0.26682,9.69022 -0.95343,2.49355 -2.47346,4.55154 -5.35884,4.48964"
       id="path13711"
       sodipodi:nodetypes="cssc" />
    <path
       style="font-variation-settings:normal;opacity:1;vector-effect:none;fill:#3a76ee;fill-opacity:1;stroke:#0a2e76;stroke-width:1.25;stroke-linecap:round;stroke-linejoin:round;stroke-miterlimit:4;stroke-dasharray:none;stroke-dashoffset:0;stroke-opacity:1;stop-color:#000000;stop-opacity:1"
       d="m 387.21324,213.82932 c -7.32068,-18.52752 -6.5217,-44.69818 -25.76607,-44.36952 -5.81911,0.0994 -16.67498,-8.04853 -16.20372,1.08979 -3.77829,1.79692 -6.72169,5.9654 -10.96604,7.96894 -5.00828,2.36415 -7.33766,8.97768 -9.95227,15.01131 -0.64518,-3.19869 -1.87184,-6.7586 -2.02654,-10.38755 -0.0182,-0.42673 0.78013,-1.25851 0.77013,-1.68185 -0.12231,-5.17597 0.34719,-9.77468 1.74131,-12.49905 5.28373,-10.32536 11.7545,-8.3575 19.60153,-16.85379 4.04201,-4.37645 12.77836,-2.07549 20.98127,-1.41691 5.60518,0.66938 14.4244,1.36485 16.84483,5.19731 3.75602,5.94721 8.68707,8.87921 12.60447,16.44393 2.98557,5.76531 -1.31654,13.62733 0.96654,21.12992 0.9941,3.2668 -2.20355,7.7222 -3.02404,11.62179 -0.14393,0.68403 0.68653,1.21991 0.003,2.70134 -0.94394,2.03337 -1.03245,2.16525 -1.73222,3.38203 -1.72441,2.99843 -3.38178,2.59651 -3.84241,2.66231 z"
       id="path12871"
       sodipodi:nodetypes="cscscsssscsssscscc" />
    <path
       id="ellipse12947-8"
       style="font-variation-settings:normal;opacity:1;vector-effect:none;fill:#b9cef9;fill-opacity:1;fill-rule:evenodd;stroke:none;stroke-width:1.5;stroke-linecap:butt;stroke-linejoin:bevel;stroke-miterlimit:4;stroke-dasharray:none;stroke-dashoffset:0;stroke-opacity:1;stop-color:#000000;stop-opacity:1"
       d="m 328.29482,184.6278 c 1.20854,-1.34048 2.16004,-2.70453 2.70554,-4.12174 a 2.1213202,3.800699 83.76486 0 0 -2.13809,-0.12721 2.1213202,3.800699 83.76486 0 0 -3.54709,2.52169 2.1213202,3.800699 83.76486 0 0 2.97964,1.72726 z" />
    <path
       id="ellipse12947"
       style="font-variation-settings:normal;opacity:1;vector-effect:none;fill:#b9cef9;fill-opacity:1;fill-rule:evenodd;stroke:none;stroke-width:1.5;stroke-linecap:butt;stroke-linejoin:bevel;stroke-miterlimit:4;stroke-dasharray:none;stroke-dashoffset:0;stroke-opacity:1;stop-color:#000000;stop-opacity:1"
       d="m 35.480469,11.802734 c -1.804315,0.04331 -3.44912,0.289511 -4.853516,0.867188 a 3.800699,2.1213202 40.353436 0 0 1.376953,1.640625 3.800699,2.1213202 40.353436 0 0 4.269532,0.84375 3.800699,2.1213202 40.353436 0 0 -0.792969,-3.351563 z"
       transform="translate(316.34214,137.70693)" />
    <path
       id="path13570"
       style="font-variation-settings:normal;opacity:1;vector-effect:none;fill:#a6a6a6;fill-opacity:1;stroke:none;stroke-width:0.5;stroke-linecap:butt;stroke-linejoin:bevel;stroke-miterlimit:4;stroke-dasharray:none;stroke-dashoffset:0;stroke-opacity:1;stop-color:#000000;stop-opacity:1"
       d="M -29.787109,81.316406 -30.144531,82 c -0.36754,0.968516 -0.688221,1.897806 -0.97461,2.716797 4.54471,0.92061 5.659317,3.363881 7.691407,5.400391 -2.61086,-1.76106 -5.257177,-2.138522 -7.941407,-1.013672 l 1.146485,5.318359 c 3.07446,-1.46891 6.213109,2.457873 10.167968,8.601565 2.60483,4.04645 7.566978,7.07409 10.742188,7.51562 2.0296828,-2.12555 4.0512294,-4.18671 6.0664062,-5.58398 l 6.9384854,-3.27037 c -7.7511722,1.40974 -10.925989,2.56476 -12.354501,0.40318 l -7.7675786,-9.822265 c -6.53702,-7.417959 -9.773353,-8.869289 -13.357421,-10.949219 z"
       transform="translate(316.34214,137.70693)"
       sodipodi:nodetypes="ccccccscccccc" />
    <path
       id="path13577"
       style="font-variation-settings:normal;opacity:1;vector-effect:none;fill:#1049bc;fill-opacity:1;stroke:none;stroke-width:0.5;stroke-linecap:butt;stroke-linejoin:bevel;stroke-miterlimit:4;stroke-dasharray:none;stroke-dashoffset:0;stroke-opacity:1;stop-color:#000000;stop-opacity:1"
       d="m 108.53478,18.814266 c 2.22887,5.665153 1.63971,15.66432 -0.75606,22.764465 -0.17309,0.512971 0.82941,1.882843 0.7382,2.418831 -0.86245,5.068228 -2.08786,10.186551 -3.97981,15.396969 0.95668,3.635373 2.0089,7.223733 3.32812,10.5625 0.46063,-0.0658 2.11739,0.336321 3.8418,-2.662109 0.69977,-1.21678 0.78848,-1.349443 1.73242,-3.382813 0.68353,-1.48143 -0.14588,-2.017141 -0.002,-2.701171 0.82049,-3.899591 4.01754,-8.354294 3.02344,-11.621094 -2.28308,-7.50259 2.01877,-15.36555 -0.9668,-21.13086 -1.41861,-2.73942 -5.37883,-7.757161 -6.95936,-9.644718 z"
       transform="translate(279.34779,143.87198)"
       sodipodi:nodetypes="cssccsccssc" />
    <ellipse
       style="font-variation-settings:normal;opacity:1;vector-effect:none;fill:#b9cef9;fill-opacity:1;fill-rule:evenodd;stroke:none;stroke-width:1.67782;stroke-linecap:butt;stroke-linejoin:bevel;stroke-miterlimit:4;stroke-dasharray:none;stroke-dashoffset:0;stroke-opacity:1;stop-color:#000000;stop-opacity:1"
       id="ellipse12909"
       cx="243.53053"
       cy="268.6312"
       rx="3.2133603"
       ry="3.1391952"
       transform="matrix(0.99063011,-0.13657225,0.54113981,0.84093264,0,0)" />
    <path
       style="font-variation-settings:normal;opacity:1;vector-effect:none;fill:#1049bc;fill-opacity:1;stroke:none;stroke-width:0.5;stroke-linecap:butt;stroke-linejoin:bevel;stroke-miterlimit:4;stroke-dasharray:none;stroke-dashoffset:0;stroke-opacity:1;stop-color:#000000;stop-opacity:1"
       d="m 342.45772,167.72079 -5.92243,7.46369 -13.3125,-0.5 1.5625,-7.25 8.6875,-1.9375 z"
       id="path13602" />
    <path
       style="font-variation-settings:normal;opacity:1;vector-effect:none;fill:#1049bc;fill-opacity:1;stroke:none;stroke-width:0.5;stroke-linecap:butt;stroke-linejoin:bevel;stroke-miterlimit:4;stroke-dasharray:none;stroke-dashoffset:0;stroke-opacity:1;stop-color:#000000;stop-opacity:1"
       d="m 383.01633,165.98356 -16.66854,4.26342 -9.75,-2.1875 15.3125,-3.9375 z"
       id="path13604" />
    <path
       style="font-variation-settings:normal;opacity:1;vector-effect:none;fill:none;fill-opacity:1;stroke:#0a2e76;stroke-width:1.25;stroke-linecap:round;stroke-linejoin:round;stroke-miterlimit:4;stroke-dasharray:none;stroke-dashoffset:0;stroke-opacity:1;stop-color:#000000;stop-opacity:1"
       d="m 387.21324,213.82932 c -7.32068,-18.52752 -6.5217,-44.69818 -25.76607,-44.36952 -5.81911,0.0994 -16.67498,-8.04853 -16.20372,1.08979 -3.77829,1.79692 -6.72169,5.9654 -10.96604,7.96894 -5.00828,2.36415 -7.33766,8.97768 -9.95227,15.01131 -0.64518,-3.19869 -1.87184,-6.7586 -2.02654,-10.38755 -0.0182,-0.42673 0.78013,-1.25851 0.77013,-1.68185 -0.12231,-5.17597 0.34719,-9.77468 1.74131,-12.49905 5.28373,-10.32536 11.7545,-8.3575 19.60153,-16.85379 4.04201,-4.37645 12.77836,-2.07549 20.98127,-1.41691 5.60518,0.66938 14.4244,1.36485 16.84483,5.19731 3.75602,5.94721 8.68707,8.87921 12.60447,16.44393 2.98557,5.76531 -1.31654,13.62733 0.96654,21.12992 0.9941,3.2668 -2.20355,7.7222 -3.02404,11.62179 -0.14393,0.68403 0.68653,1.21991 0.003,2.70134 -0.94394,2.03337 -1.03245,2.16525 -1.73222,3.38203 -1.72441,2.99843 -3.38178,2.59651 -3.84241,2.66231 z"
       id="path12953"
       sodipodi:nodetypes="cscscsssscsssscscc" />
    <path
       style="font-variation-settings:normal;opacity:1;vector-effect:none;fill:#3a76ee;fill-opacity:1;stroke:#0a2e76;stroke-width:1.25;stroke-linecap:round;stroke-linejoin:round;stroke-miterlimit:4;stroke-dasharray:none;stroke-dashoffset:0;stroke-opacity:1;stop-color:#000000;stop-opacity:1"
       d="m 342.45772,167.72079 -6.5625,5.125 c -7.0324,-1.61498 -14.10257,-1.82424 -23.125,0.375 0,0 4.53744,-4.61735 7.35837,-6.28686 4.11603,-2.43599 13.07913,-5.90064 13.07913,-5.90064 l 8.3125,1.375 z"
       id="path12875"
       sodipodi:nodetypes="cccsccc" />
    <path
       id="path12873"
       style="font-variation-settings:normal;opacity:1;vector-effect:none;fill:#3a76ee;fill-opacity:1;fill-rule:evenodd;stroke:#0a2e76;stroke-width:1.25;stroke-linecap:round;stroke-linejoin:round;stroke-miterlimit:4;stroke-dasharray:none;stroke-dashoffset:0;stroke-opacity:1;stop-color:#000000;stop-opacity:1"
       d="m 353.30505,163.75858 c 0,3.77769 -2.52024,5.44867 -6.12136,6.59011 -3.74644,1.1875 -5.77761,-1.90617 -5.77761,-5.68386 0,-3.77769 3.06242,-6.84011 6.84011,-6.84011 3.77769,0 5.05886,2.15617 5.05886,5.93386 z"
       sodipodi:nodetypes="sssss" />
    <ellipse
       style="font-variation-settings:normal;opacity:1;vector-effect:none;fill:#b9cef9;fill-opacity:1;fill-rule:evenodd;stroke:none;stroke-width:1.5;stroke-linecap:butt;stroke-linejoin:bevel;stroke-miterlimit:4;stroke-dasharray:none;stroke-dashoffset:0;stroke-opacity:1;stop-color:#000000;stop-opacity:1"
       id="ellipse12907-1"
       cx="25.525213"
       cy="-383.57587"
       rx="2.1213202"
       ry="3.800699"
       transform="rotate(111.8326)" />
    <path
       style="font-variation-settings:normal;opacity:1;vector-effect:none;fill:none;fill-opacity:0.3;stroke:#0a2e76;stroke-width:1.25;stroke-linecap:round;stroke-linejoin:round;stroke-miterlimit:4;stroke-dasharray:none;stroke-dashoffset:0;stroke-opacity:1;stop-color:#000000;stop-opacity:1"
       d="m 350.21134,159.95713 c -0.66531,2.30126 -0.91609,4.76372 -0.0884,7.64559"
       id="path12892"
       sodipodi:nodetypes="cc" />
    <path
       style="font-variation-settings:normal;opacity:1;vector-effect:none;fill:#3a76ee;fill-opacity:1;stroke:#0a2e76;stroke-width:1.25;stroke-linecap:round;stroke-linejoin:round;stroke-miterlimit:4;stroke-dasharray:none;stroke-dashoffset:0;stroke-opacity:1;stop-color:#000000;stop-opacity:1"
       d="m 352.26382,160.97869 c 2.44559,-1.52203 4.98428,-2.67169 7.66534,-3.25187 8.67544,0.43656 15.60217,5.00642 23.08717,8.25674 -8.5914,0.59406 -18.06912,0.36509 -23.54855,3.84883 -3.18328,-0.70812 -6.54207,-1.28948 -7.67338,-3.47958 -0.35384,-2.02952 -0.41829,-3.92399 0.46942,-5.37412 z"
       id="path12875-0"
       sodipodi:nodetypes="cccccc" />
    <path
       style="font-variation-settings:normal;opacity:1;vector-effect:none;fill:none;fill-opacity:0.3;stroke:#0a2e76;stroke-width:1.25;stroke-linecap:round;stroke-linejoin:round;stroke-miterlimit:4;stroke-dasharray:none;stroke-dashoffset:0;stroke-opacity:1;stop-color:#000000;stop-opacity:1"
       d="m 322.15464,183.08193 c 2.27839,-3.35642 4.44389,-6.76414 8.5,-9.3125"
       id="path12897"
       sodipodi:nodetypes="cc" />
    <path
       style="font-variation-settings:normal;opacity:1;vector-effect:none;fill:none;fill-opacity:0.3;stroke:#0a2e76;stroke-width:1.25;stroke-linecap:round;stroke-linejoin:round;stroke-miterlimit:4;stroke-dasharray:none;stroke-dashoffset:0;stroke-opacity:1;stop-color:#000000;stop-opacity:1"
       d="m 352.40464,159.51943 c 1.81062,-2.26256 3.91708,-4.33686 8.4375,-4.875"
       id="path12899"
       sodipodi:nodetypes="cc" />
    <path
       style="font-variation-settings:normal;opacity:1;vector-effect:none;fill:none;fill-opacity:0.3;stroke:#0a2e76;stroke-width:1.25;stroke-linecap:round;stroke-linejoin:round;stroke-miterlimit:4;stroke-dasharray:none;stroke-dashoffset:0;stroke-opacity:1;stop-color:#000000;stop-opacity:1"
       d="m 347.52964,157.89443 c -0.0352,-1.07711 -0.36144,-2.10946 0.625,-3.34375"
       id="path12901"
       sodipodi:nodetypes="cc" />
    <ellipse
       style="font-variation-settings:normal;opacity:1;vector-effect:none;fill:#5b8cf1;fill-opacity:1;fill-rule:evenodd;stroke:none;stroke-width:1.5;stroke-linecap:butt;stroke-linejoin:bevel;stroke-miterlimit:4;stroke-dasharray:none;stroke-dashoffset:0;stroke-opacity:1;stop-color:#000000;stop-opacity:1"
       id="path12903"
       cx="391.51639"
       cy="177.3933"
       rx="2.1213202"
       ry="3.800699" />
    <ellipse
       style="font-variation-settings:normal;opacity:1;vector-effect:none;fill:#b9cef9;fill-opacity:1;fill-rule:evenodd;stroke:none;stroke-width:1.5;stroke-linecap:butt;stroke-linejoin:bevel;stroke-miterlimit:4;stroke-dasharray:none;stroke-dashoffset:0;stroke-opacity:1;stop-color:#000000;stop-opacity:1"
       id="ellipse12907"
       cx="312.56039"
       cy="272.60577"
       rx="2.1213202"
       ry="3.800699"
       transform="rotate(-16.586235)" />
    <path
       id="ellipse13596"
       style="font-variation-settings:normal;opacity:1;vector-effect:none;fill:#5b8cf1;fill-opacity:1;fill-rule:evenodd;stroke:none;stroke-width:1.59786;stroke-linecap:butt;stroke-linejoin:bevel;stroke-miterlimit:4;stroke-dasharray:none;stroke-dashoffset:0;stroke-opacity:1;stop-color:#000000;stop-opacity:1"
       d="M 108.04883 46.478516 C 107.74159 48.05902 107.40187 49.643566 107.00586 51.236328 A 3.7875657 2.4154869 23.255711 0 0 108.9668 51.408203 A 3.7875657 2.4154869 23.255711 0 0 110.45117 48.330078 A 3.7875657 2.4154869 23.255711 0 0 108.04883 46.478516 z "
       transform="translate(279.34779,143.87198)" />
    <path
       style="font-variation-settings:normal;opacity:1;vector-effect:none;fill:none;fill-opacity:0.3;stroke:#0a2e76;stroke-width:1.25;stroke-linecap:round;stroke-linejoin:round;stroke-miterlimit:4;stroke-dasharray:none;stroke-dashoffset:0;stroke-opacity:1;stop-color:#000000;stop-opacity:1"
       d="m 381.98879,175.83264 c 4.62625,8.59932 8.97687,17.72486 11.04855,31.20108"
       id="path12895"
       sodipodi:nodetypes="cc" />
    <ellipse
       style="font-variation-settings:normal;opacity:1;vector-effect:none;fill:#b9cef9;fill-opacity:1;fill-rule:evenodd;stroke:none;stroke-width:1.5;stroke-linecap:butt;stroke-linejoin:bevel;stroke-miterlimit:4;stroke-dasharray:none;stroke-dashoffset:0;stroke-opacity:1;stop-color:#000000;stop-opacity:1"
       id="ellipse12911"
       cx="207.69649"
       cy="-350.41516"
       rx="2.1213202"
       ry="3.800699"
       transform="rotate(82.037003)" />
    <ellipse
       style="font-variation-settings:normal;opacity:1;vector-effect:none;fill:#b9cef9;fill-opacity:1;fill-rule:evenodd;stroke:none;stroke-width:1.5;stroke-linecap:butt;stroke-linejoin:bevel;stroke-miterlimit:4;stroke-dasharray:none;stroke-dashoffset:0;stroke-opacity:1;stop-color:#000000;stop-opacity:1"
       id="ellipse12913"
       cx="301.01407"
       cy="257.92111"
       rx="2.1213202"
       ry="3.800699"
       transform="rotate(-16.586235)" />
    <path
       style="font-variation-settings:normal;opacity:1;vector-effect:none;fill:none;fill-opacity:1;stroke:#0a2e76;stroke-width:1.25;stroke-linecap:round;stroke-linejoin:round;stroke-miterlimit:4;stroke-dasharray:none;stroke-dashoffset:0;stroke-opacity:1;stop-color:#000000;stop-opacity:1"
       d="m 352.26382,160.97869 c 2.44559,-1.52203 4.98428,-2.67169 7.66534,-3.25187 8.67544,0.43656 15.60217,5.00642 23.08717,8.25674 -8.5914,0.59406 -18.06912,0.36509 -23.54855,3.84883 -3.18328,-0.70812 -6.54207,-1.28948 -7.67338,-3.47958 -0.35384,-2.02952 -0.41829,-3.92399 0.46942,-5.37412 z"
       id="path12915"
       sodipodi:nodetypes="cccccc" />
    <ellipse
       style="font-variation-settings:normal;opacity:1;vector-effect:none;fill:#b9cef9;fill-opacity:1;fill-rule:evenodd;stroke:none;stroke-width:1.5;stroke-linecap:butt;stroke-linejoin:bevel;stroke-miterlimit:4;stroke-dasharray:none;stroke-dashoffset:0;stroke-opacity:1;stop-color:#000000;stop-opacity:1"
       id="ellipse12907-1-0"
       cx="344.33267"
       cy="-144.40062"
       rx="2.1213202"
       ry="3.800699"
       transform="rotate(49.297955)" />
    <path
       id="path17445"
       style="font-variation-settings:normal;opacity:1;vector-effect:none;fill:#d7b7a8;fill-opacity:1;stroke:none;stroke-width:0.5;stroke-linecap:butt;stroke-linejoin:bevel;stroke-miterlimit:4;stroke-dasharray:none;stroke-dashoffset:0;stroke-opacity:1;stop-color:#000000;stop-opacity:1"
       d="m 395.55867,264.9273 c -2.27109,1.19818 -4.20222,1.77291 -6.69442,2.42858 1.37256,8.88315 3.09563,22.8719 2.20989,25.49758 -0.72089,2.13702 -11.10116,13.29605 -17.69382,19.09371 l -2.51601,5.36218 2.23823,3.68934 c 1.43852,-2.07636 2.82769,-4.5832 3.55358,-6.99762 3.37125,-3.51046 16.5556,-11.80844 19.38591,-15.51758 4.55583,-5.76316 0.20394,-17.16261 -0.3294,-29.25646 -0.0696,-1.61289 -0.0572,-2.69156 -0.15396,-4.29973 z"
       sodipodi:nodetypes="ccsccccccc" />
    <path
       id="path17450"
       style="font-variation-settings:normal;opacity:1;vector-effect:none;fill:none;fill-opacity:1;stroke:#997766;stroke-width:1.25;stroke-linecap:round;stroke-linejoin:round;stroke-miterlimit:4;stroke-dasharray:none;stroke-dashoffset:0;stroke-opacity:1;stop-color:#000000;stop-opacity:1"
       d="m 395.80939,263.81073 c -5.21743,1.81435 -4.53866,4.19049 -19.45653,2.72646 0.74846,8.214 1.78923,15.82965 3.25624,23.85018 -3.42696,4.53814 -8.42215,10.06918 -12.07585,15.28107 -5.48899,2.07869 -12.84,7.41342 -12.27631,9.50362 0.44777,1.66039 3.31039,-0.66589 5.0105,-1.76066 -1.48954,4.2203 -7.05538,5.29811 -7.58848,7.11017 -0.94225,3.2028 0.15564,4.75341 1.58095,6.19097 4.29303,4.32986 14.75913,-0.74481 16.85003,-3.12929 1.98582,-2.26461 4.47992,-6.03563 5.54618,-9.58218 3.37125,-3.51046 16.5556,-11.80844 19.38591,-15.51758 4.55583,-5.76316 0.54053,-17.74432 0.007,-29.83815 -0.0697,-1.6129 -0.14307,-3.22643 -0.23984,-4.83461 z"
       sodipodi:nodetypes="ccccscscscccc" />
    <path
       style="font-variation-settings:normal;opacity:1;vector-effect:none;fill:#8c3661;fill-opacity:1;stroke:none;stroke-width:1.20272;stroke-linecap:round;stroke-linejoin:round;stroke-miterlimit:4;stroke-dasharray:none;stroke-dashoffset:0;stroke-opacity:1;stop-color:#000000;stop-opacity:1"
       d="m 379.33328,231.90254 c 15.24942,7.25468 17.99162,26.24946 18.6737,34.82893 -6.45862,7.05487 -16.409,6.95078 -22.62412,6.00461 -1.59339,-12.46433 -1.29696,-24.96768 2.54874,-37.65332 0.35398,-0.50422 1.33707,-2.66765 1.40168,-3.18022 z"
       id="path876-7"
       sodipodi:nodetypes="ccccc" />
    <path
       id="path1684-1"
       style="font-variation-settings:normal;opacity:1;vector-effect:none;fill:#5d2340;fill-opacity:1;stroke:none;stroke-width:1.20272;stroke-linecap:butt;stroke-linejoin:bevel;stroke-miterlimit:4;stroke-dasharray:none;stroke-dashoffset:0;stroke-opacity:1;stop-color:#000000;stop-opacity:1"
       d="m 386.81101,237.3966 c 8.61139,8.60983 10.65516,22.51423 11.19734,29.33378 -4.80893,3.79583 -8.6009,5.56393 -13.72466,6.26251 5.43872,-3.29026 7.31694,-6.75428 7.90635,-9.64339 -0.51255,-8.27888 -1.82943,-17.61311 -5.37903,-25.9529 z"
       sodipodi:nodetypes="ccccc" />
    <path
       style="font-variation-settings:normal;opacity:1;vector-effect:none;fill:none;fill-opacity:1;stroke:#371527;stroke-width:1.20272;stroke-linecap:round;stroke-linejoin:round;stroke-miterlimit:4;stroke-dasharray:none;stroke-dashoffset:0;stroke-opacity:1;stop-color:#000000;stop-opacity:1"
       d="m 377.66814,230.35179 c 15.24943,7.25467 19.65676,27.80021 20.33884,36.37968 -6.45862,7.05487 -16.409,6.95078 -22.62412,6.00461 -0.50529,-3.95276 -0.84036,-7.98688 -0.94188,-12.05538"
       id="path1580-8"
       sodipodi:nodetypes="cccc" />
    <path
       id="rect13457"
       style="font-variation-settings:normal;opacity:1;vector-effect:none;fill:#54883a;fill-opacity:1;fill-rule:evenodd;stroke:#2c481e;stroke-width:1.5;stroke-linecap:butt;stroke-linejoin:bevel;stroke-miterlimit:4;stroke-dasharray:none;stroke-dashoffset:0;stroke-opacity:1;stop-color:#000000;stop-opacity:1"
       d="m 320.10148,257.07059 4.28661,-2.47487 82.73149,143.29514 c 0.65373,1.1323 -3.76568,3.37715 -4.28661,2.47488 z"
       sodipodi:nodetypes="ccccc" />
    <path
       style="font-variation-settings:normal;opacity:1;vector-effect:none;fill:none;fill-opacity:1;stroke:#808080;stroke-width:1.25;stroke-linecap:round;stroke-linejoin:round;stroke-miterlimit:4;stroke-dasharray:none;stroke-dashoffset:0;stroke-opacity:1;stop-color:#000000;stop-opacity:1"
       d="m 307.02884,248.24541 c -3.17521,-0.44153 -8.13731,-3.46911 -10.74214,-7.51556 -3.95486,-6.14369 -7.09185,-10.07009 -10.16631,-8.60118 l -1.14761,-5.31767 c 2.68423,-1.12485 5.33026,-0.7474 7.94112,1.01366 -2.03209,-2.03651 -3.14644,-4.48058 -7.69115,-5.40119 1.48362,-4.24273 3.32835,-10.94404 13.07489,-15.41895 5.2905,2.74912 7.56951,6.75785 10.37237,10.54748 -0.0815,-3.18607 -2.47026,-7.29566 -6.118,-11.90911 4.49148,-0.7373 13.74709,-2.23908 17.92337,0.13273 -3.19259,7.82989 6.8859,20.57797 3.28219,33.77512 -6.19132,-0.29831 -11.30405,3.01375 -16.72873,8.69467 z"
       id="path13575"
       sodipodi:nodetypes="cscccccccccc" />
    <path
       id="rect13460"
       style="font-variation-settings:normal;opacity:1;vector-effect:none;fill:#515462;fill-opacity:1;fill-rule:evenodd;stroke:#17181c;stroke-width:1.5;stroke-linecap:butt;stroke-linejoin:bevel;stroke-miterlimit:4;stroke-dasharray:none;stroke-dashoffset:0;stroke-opacity:1;stop-color:#000000;stop-opacity:1"
       d="m 307.40692,248.24541 c 3.50034,-3.90093 6.50087,-8.03254 15.92992,-9.19714 l 6.08874,17.97063 c 0.57545,2.14757 -8.43099,7.27829 -9.95929,5.75 z"
       sodipodi:nodetypes="ccccc" />
    <path
       id="path880-73-1"
       style="font-variation-settings:normal;opacity:1;vector-effect:none;fill:#e7d4cb;fill-opacity:1;stroke:none;stroke-width:1.25;stroke-linecap:round;stroke-linejoin:round;stroke-miterlimit:4;stroke-dasharray:none;stroke-dashoffset:0;stroke-opacity:1;stop-color:#000000;stop-opacity:1"
       d="m 373.34922,320.75962 c -0.90619,1.27013 -1.85135,2.41143 -2.70261,3.29913 -2.19502,2.28898 -12.87546,6.89283 -16.97139,2.37607 -1.35988,-1.49962 -2.38783,-3.09764 -1.30385,-6.2553 0.61328,-1.78652 6.22082,-2.61827 7.89684,-6.76805 0.61617,1.14022 2.80468,-0.55054 4.98494,-3.45449 z"
       sodipodi:nodetypes="csssccc" />
    <path
       id="path2691-0-3"
       style="font-variation-settings:normal;opacity:1;vector-effect:none;fill:#d7b7a8;fill-opacity:1;stroke:none;stroke-width:1.25;stroke-linecap:round;stroke-linejoin:round;stroke-miterlimit:4;stroke-dasharray:none;stroke-dashoffset:0;stroke-opacity:1;stop-color:#000000;stop-opacity:1"
       d="m 373.34922,320.75962 c -0.9066,1.27009 -1.85131,2.4114 -2.70261,3.29913 -2.19501,2.28898 -12.87548,6.89283 -16.97139,2.37607 -0.71901,-0.79296 -1.33431,-1.62184 -1.60461,-2.68584 4.57027,3.16083 14.03864,-1.0002 16.0911,-3.14052 0.8513,-0.88771 1.79601,-2.02902 2.7026,-3.29911 z" />
    <path
       id="path2694-4-7"
       style="font-variation-settings:normal;opacity:1;vector-effect:none;fill:none;fill-opacity:1;stroke:#997766;stroke-width:1.25;stroke-linecap:round;stroke-linejoin:round;stroke-miterlimit:4;stroke-dasharray:none;stroke-dashoffset:0;stroke-opacity:1;stop-color:#000000;stop-opacity:1"
       d="m 373.34922,320.75962 c -0.90619,1.27013 -1.85135,2.41143 -2.70261,3.29913 -2.19502,2.28898 -12.87546,6.89283 -16.97139,2.37607 -1.35988,-1.49962 -2.38783,-3.09764 -1.30385,-6.2553 0.61328,-1.78652 6.22082,-2.61827 7.89684,-6.76805"
       sodipodi:nodetypes="csssc" />
    <path
       style="font-variation-settings:normal;opacity:1;vector-effect:none;fill:none;fill-opacity:0.3;stroke:#808080;stroke-width:1.25;stroke-linecap:round;stroke-linejoin:round;stroke-miterlimit:4;stroke-dasharray:none;stroke-dashoffset:0;stroke-opacity:1;stop-color:#000000;stop-opacity:1"
       d="m 286.55527,219.02421 c 2.74152,1.36557 5.43442,2.96582 8.00227,5.88206 m 5.35398,5.06665 c 2.69338,2.8439 5.29169,6.0817 7.76856,9.82255"
       id="path13553"
       sodipodi:nodetypes="cccc" />
    <path
       style="font-variation-settings:normal;opacity:1;vector-effect:none;fill:none;fill-opacity:0.3;stroke:#808080;stroke-width:1.25;stroke-linecap:round;stroke-linejoin:round;stroke-miterlimit:4;stroke-dasharray:none;stroke-dashoffset:0;stroke-opacity:1;stop-color:#000000;stop-opacity:1"
       d="m 307.72428,205.36821 c 4.91562,9.60642 6.07488,20.46496 7.07106,31.37786"
       id="path13555"
       sodipodi:nodetypes="cc" />
    <path
       style="font-variation-settings:normal;opacity:1;vector-effect:none;fill:none;fill-opacity:0.3;stroke:#808080;stroke-width:1.25;stroke-linecap:round;stroke-linejoin:round;stroke-miterlimit:4;stroke-dasharray:none;stroke-dashoffset:0;stroke-opacity:1;stop-color:#000000;stop-opacity:1"
       d="m 316.87247,204.97046 c -1.61628,4.6548 -0.40988,11.0077 0.57851,17.17503 m 0.56177,3.81269 c 0.26585,2.0862 0.42905,4.10273 0.36232,5.97073"
       id="path13557"
       sodipodi:nodetypes="cccc" />
    <path
       style="font-variation-settings:normal;opacity:1;vector-effect:none;fill:none;fill-opacity:0.3;stroke:#808080;stroke-width:1.25;stroke-linecap:round;stroke-linejoin:round;stroke-miterlimit:4;stroke-dasharray:none;stroke-dashoffset:0;stroke-opacity:1;stop-color:#000000;stop-opacity:1"
       d="m 294.65464,209.45693 c 4.25761,2.62518 11.19236,9.80917 13.32973,14.319"
       id="path13561"
       sodipodi:nodetypes="cc" />
    <path
       id="path13563"
       style="font-variation-settings:normal;opacity:1;vector-effect:none;fill:#3a3c46;fill-opacity:1;fill-rule:evenodd;stroke:none;stroke-width:1.5;stroke-linecap:butt;stroke-linejoin:bevel;stroke-miterlimit:4;stroke-dasharray:none;stroke-dashoffset:0;stroke-opacity:1;stop-color:#000000;stop-opacity:1"
       d="m -3.2460938,104.95508 c -2.336339,1.65834 -3.9529764,3.64878 -5.6894531,5.58398 L 3.125,125.0625 c 0.7591573,0.75915 3.362153,-0.12747 5.7207031,-1.47266 z"
       transform="translate(316.34214,137.70693)" />
    <path
       id="path13568"
       style="font-variation-settings:normal;opacity:1;vector-effect:none;fill:none;fill-opacity:1;fill-rule:evenodd;stroke:#17181c;stroke-width:1.5;stroke-linecap:butt;stroke-linejoin:bevel;stroke-miterlimit:4;stroke-dasharray:none;stroke-dashoffset:0;stroke-opacity:1;stop-color:#000000;stop-opacity:1"
       d="m 307.40692,248.24541 c 3.50034,-3.90093 6.50087,-8.03254 15.92992,-9.19714 l 6.08874,17.97063 c 0.57545,2.14757 -8.43099,7.27829 -9.95929,5.75 z"
       sodipodi:nodetypes="ccccc" />
  </g>
</svg>
