<?xml version="1.0" encoding="UTF-8" standalone="no"?>
<svg
   xmlns:dc="http://purl.org/dc/elements/1.1/"
   xmlns:cc="http://creativecommons.org/ns#"
   xmlns:rdf="http://www.w3.org/1999/02/22-rdf-syntax-ns#"
   xmlns:svg="http://www.w3.org/2000/svg"
   xmlns="http://www.w3.org/2000/svg"
   xmlns:xlink="http://www.w3.org/1999/xlink"
   xmlns:sodipodi="http://sodipodi.sourceforge.net/DTD/sodipodi-0.dtd"
   xmlns:inkscape="http://www.inkscape.org/namespaces/inkscape"
   width="609.01587"
   height="104.84997"
   viewBox="0 0 609.01586 104.84997"
   version="1.1"
   id="svg8"
   inkscape:version="1.0.1 (3bc2e813f5, 2020-09-07)"
   sodipodi:docname="Logo.svg">
  <defs
     id="defs2">
    <linearGradient
       inkscape:collect="always"
       xlink:href="#linearGradient1297"
       id="linearGradient1071"
       x1="961.30713"
       y1="550.51215"
       x2="964.76434"
       y2="550.51215"
       gradientUnits="userSpaceOnUse"
       gradientTransform="matrix(-6.6087495,0,0,5.0156178,7199.7922,-2087.8389)" />
    <linearGradient
       inkscape:collect="always"
       id="linearGradient1297">
      <stop
         style="stop-color:#80eaff;stop-opacity:0"
         offset="0"
         id="stop1289" />
      <stop
         style="stop-color:#80eaff;stop-opacity:0.75"
         offset="0.18264192"
         id="stop1291" />
      <stop
         style="stop-color:#80eaff;stop-opacity:0.75"
         offset="0.83652836"
         id="stop1293" />
      <stop
         style="stop-color:#80eaff;stop-opacity:0;"
         offset="1"
         id="stop1295" />
    </linearGradient>
    <linearGradient
       inkscape:collect="always"
       xlink:href="#linearGradient1297"
       id="linearGradient1099"
       gradientUnits="userSpaceOnUse"
       gradientTransform="matrix(-7.1623812,0,0,5.0156178,7732.9594,-2084.7434)"
       x1="961.30713"
       y1="550.51215"
       x2="964.76434"
       y2="550.51215" />
    <linearGradient
       inkscape:collect="always"
       xlink:href="#linearGradient1297"
       id="linearGradient1103"
       gradientUnits="userSpaceOnUse"
       gradientTransform="matrix(-7.1623812,0,0,5.0156178,7732.9594,-2081.6478)"
       x1="961.30713"
       y1="550.51215"
       x2="964.76434"
       y2="550.51215" />
    <linearGradient
       inkscape:collect="always"
       xlink:href="#linearGradient1297"
       id="linearGradient1107"
       gradientUnits="userSpaceOnUse"
       gradientTransform="matrix(-7.1623812,0,0,5.0156178,7732.9594,-2078.5521)"
       x1="961.30713"
       y1="550.51215"
       x2="964.76434"
       y2="550.51215" />
    <linearGradient
       inkscape:collect="always"
       xlink:href="#linearGradient1297"
       id="linearGradient1111"
       gradientUnits="userSpaceOnUse"
       gradientTransform="matrix(-6.8302021,0,0,5.0156178,7413.0592,-2075.4567)"
       x1="961.30713"
       y1="550.51215"
       x2="964.76434"
       y2="550.51215" />
    <linearGradient
       inkscape:collect="always"
       xlink:href="#linearGradient1297"
       id="linearGradient1115"
       gradientUnits="userSpaceOnUse"
       gradientTransform="matrix(-6.5257052,0,0,5.0156178,7119.8172,-2072.4003)"
       x1="961.30713"
       y1="550.51215"
       x2="964.76434"
       y2="550.51215" />
    <linearGradient
       inkscape:collect="always"
       xlink:href="#linearGradient1297"
       id="linearGradient1119"
       gradientUnits="userSpaceOnUse"
       gradientTransform="matrix(-5.4523318,0,0,5.0156178,6086.1204,-2069.3047)"
       x1="961.30713"
       y1="550.51215"
       x2="964.76434"
       y2="550.51215" />
    <linearGradient
       inkscape:collect="always"
       xlink:href="#linearGradient1297"
       id="linearGradient1123"
       gradientUnits="userSpaceOnUse"
       gradientTransform="matrix(-3.8963753,0,0,5.0156178,4587.679,-2066.2483)"
       x1="961.30713"
       y1="550.51215"
       x2="964.76434"
       y2="550.51215" />
    <linearGradient
       inkscape:collect="always"
       xlink:href="#linearGradient1297"
       id="linearGradient1127"
       gradientUnits="userSpaceOnUse"
       gradientTransform="matrix(-5.6900854,0,0,5.0156178,6315.0859,-2090.8953)"
       x1="961.30713"
       y1="550.51215"
       x2="964.76434"
       y2="550.51215" />
    <linearGradient
       inkscape:collect="always"
       xlink:href="#linearGradient1297"
       id="linearGradient1131"
       gradientUnits="userSpaceOnUse"
       gradientTransform="matrix(-4.1901067,0,0,5.0156178,4870.5528,-2093.991)"
       x1="961.30713"
       y1="550.51215"
       x2="964.76434"
       y2="550.51215" />
    <linearGradient
       inkscape:collect="always"
       xlink:href="#linearGradient1297"
       id="linearGradient1349"
       gradientUnits="userSpaceOnUse"
       gradientTransform="matrix(-5.3358856,0,0,5.0156178,5973.9789,-2101.4794)"
       x1="961.30713"
       y1="550.51215"
       x2="964.76434"
       y2="550.51215" />
    <linearGradient
       inkscape:collect="always"
       xlink:href="#linearGradient1297"
       id="linearGradient1407"
       gradientUnits="userSpaceOnUse"
       gradientTransform="matrix(-6.6087495,0,0,5.0156178,7171.5526,-2087.8389)"
       x1="961.30713"
       y1="550.51215"
       x2="964.76434"
       y2="550.51215" />
    <linearGradient
       inkscape:collect="always"
       xlink:href="#linearGradient1297"
       id="linearGradient1405"
       gradientUnits="userSpaceOnUse"
       gradientTransform="matrix(-7.1623812,0,0,5.0156178,7704.7197,-2084.7434)"
       x1="961.30713"
       y1="550.51215"
       x2="964.76434"
       y2="550.51215" />
    <linearGradient
       inkscape:collect="always"
       xlink:href="#linearGradient1297"
       id="linearGradient1403"
       gradientUnits="userSpaceOnUse"
       gradientTransform="matrix(-7.1623812,0,0,5.0156178,7704.7197,-2081.6478)"
       x1="961.30713"
       y1="550.51215"
       x2="964.76434"
       y2="550.51215" />
    <linearGradient
       inkscape:collect="always"
       xlink:href="#linearGradient1297"
       id="linearGradient1401"
       gradientUnits="userSpaceOnUse"
       gradientTransform="matrix(-7.1623812,0,0,5.0156178,7704.7197,-2078.5521)"
       x1="961.30713"
       y1="550.51215"
       x2="964.76434"
       y2="550.51215" />
    <linearGradient
       inkscape:collect="always"
       xlink:href="#linearGradient1297"
       id="linearGradient1399"
       gradientUnits="userSpaceOnUse"
       gradientTransform="matrix(-6.8302021,0,0,5.0156178,7384.8194,-2075.4567)"
       x1="961.30713"
       y1="550.51215"
       x2="964.76434"
       y2="550.51215" />
    <linearGradient
       inkscape:collect="always"
       xlink:href="#linearGradient1297"
       id="linearGradient1397"
       gradientUnits="userSpaceOnUse"
       gradientTransform="matrix(-6.5257052,0,0,5.0156178,7091.5775,-2072.4003)"
       x1="961.30713"
       y1="550.51215"
       x2="964.76434"
       y2="550.51215" />
    <linearGradient
       inkscape:collect="always"
       xlink:href="#linearGradient1297"
       id="linearGradient1395"
       gradientUnits="userSpaceOnUse"
       gradientTransform="matrix(-5.4523318,0,0,5.0156178,6057.8809,-2069.3047)"
       x1="961.30713"
       y1="550.51215"
       x2="964.76434"
       y2="550.51215" />
    <linearGradient
       inkscape:collect="always"
       xlink:href="#linearGradient1297"
       id="linearGradient1393"
       gradientUnits="userSpaceOnUse"
       gradientTransform="matrix(-3.8963753,0,0,5.0156178,4559.4393,-2066.2483)"
       x1="961.30713"
       y1="550.51215"
       x2="964.76434"
       y2="550.51215" />
    <linearGradient
       inkscape:collect="always"
       xlink:href="#linearGradient1297"
       id="linearGradient1391"
       gradientUnits="userSpaceOnUse"
       gradientTransform="matrix(-5.6900854,0,0,5.0156178,6286.8464,-2090.8953)"
       x1="961.30713"
       y1="550.51215"
       x2="964.76434"
       y2="550.51215" />
    <linearGradient
       inkscape:collect="always"
       xlink:href="#linearGradient1297"
       id="linearGradient1389"
       gradientUnits="userSpaceOnUse"
       gradientTransform="matrix(-4.1901067,0,0,5.0156178,4842.3134,-2093.991)"
       x1="961.30713"
       y1="550.51215"
       x2="964.76434"
       y2="550.51215" />
    <linearGradient
       inkscape:collect="always"
       xlink:href="#linearGradient1297"
       id="linearGradient1387"
       gradientUnits="userSpaceOnUse"
       gradientTransform="matrix(-5.3358856,0,0,5.0156178,5945.7392,-2101.4794)"
       x1="961.30713"
       y1="550.51215"
       x2="964.76434"
       y2="550.51215" />
  </defs>
  <sodipodi:namedview
     id="base"
     pagecolor="#e6e6e6"
     bordercolor="#666666"
     borderopacity="1.0"
     inkscape:pageopacity="0"
     inkscape:pageshadow="2"
     inkscape:zoom="1.4"
     inkscape:cx="254.16026"
     inkscape:cy="57.091138"
     inkscape:document-units="px"
     inkscape:current-layer="layer1"
     showgrid="false"
     units="px"
     width="2000px"
     inkscape:pagecheckerboard="false"
     showborder="true"
     borderlayer="true"
     inkscape:window-width="1920"
     inkscape:window-height="1017"
     inkscape:window-x="-8"
     inkscape:window-y="-8"
     inkscape:window-maximized="1"
     inkscape:document-rotation="0"
     fit-margin-top="5"
     fit-margin-left="5"
     fit-margin-right="5"
     fit-margin-bottom="5"
     lock-margins="true" />
  <metadata
     id="metadata5">
    <rdf:RDF>
      <cc:Work
         rdf:about="">
        <dc:format>image/svg+xml</dc:format>
        <dc:type
           rdf:resource="http://purl.org/dc/dcmitype/StillImage" />
        <dc:title></dc:title>
      </cc:Work>
    </rdf:RDF>
  </metadata>
  <g
     inkscape:label="Vrstva 1"
     inkscape:groupmode="layer"
     id="layer1"
     transform="translate(-745.16439,-614.58036)">
    <g
       aria-label="LÍNÝ ROBOT"
       id="text832"
       style="font-weight:bold;font-size:16px;font-family:sans-serif;-inkscape-font-specification:'sans-serif Bold';fill:#ffbb33;fill-opacity:1;stroke:#996600;stroke-width:1.24595;stroke-linecap:round;stroke-linejoin:round;stroke-miterlimit:4;stroke-dasharray:none;stroke-opacity:1;stop-color:#000000"
       transform="matrix(1.6051947,0,0,1.6051947,-525.17987,-405.15012)">
      <path
         d="m 888.70098,656.03525 h 7.62666 0.48 v 0.58667 q -0.26666,0.32 -0.37333,0.69333 -0.0533,0.37334 -0.0533,1.28 v 24.53332 h 16.69332 v 6.13333 h -24.37332 z"
         style="font-style:normal;font-variant:normal;font-weight:900;font-stretch:semi-expanded;font-size:53.3333px;font-family:Inconsolata;-inkscape-font-specification:'Inconsolata Heavy Semi-Expanded';fill:#ffbb33;fill-opacity:1;stroke:#996600;stroke-width:1.24595;stroke-linecap:round;stroke-linejoin:round;stroke-miterlimit:4;stroke-dasharray:none;stroke-opacity:1"
         id="path2087" />
      <path
         d="m 916.25504,689.2619 v -6.07999 h 7.19999 v -21.06666 h -6.82666 v -6.08 h 21.11999 v 6.08 h -7.14666 v 21.06666 h 7.41332 v 6.07999 z m 6.29333,-34.55998 -1.70667,-3.52 9.86666,-5.22666 2.45333,5.33333 z"
         style="font-style:normal;font-variant:normal;font-weight:900;font-stretch:semi-expanded;font-size:53.3333px;font-family:Inconsolata;-inkscape-font-specification:'Inconsolata Heavy Semi-Expanded';fill:#ffbb33;fill-opacity:1;stroke:#996600;stroke-width:1.24595;stroke-linecap:round;stroke-linejoin:round;stroke-miterlimit:4;stroke-dasharray:none;stroke-opacity:1"
         id="path2089" />
      <path
         d="m 940.83706,656.03525 h 8.05333 l 11.30666,20.31999 -0.48,-20.31999 h 6.77333 0.48 v 0.58667 q -0.26667,0.32 -0.37334,0.69333 -0.0533,0.37334 -0.0533,1.28 v 30.66665 h -7.30666 l -11.62666,-21.65332 v 21.65332 h -6.77333 z"
         style="font-style:normal;font-variant:normal;font-weight:900;font-stretch:semi-expanded;font-size:53.3333px;font-family:Inconsolata;-inkscape-font-specification:'Inconsolata Heavy Semi-Expanded';fill:#ffbb33;fill-opacity:1;stroke:#996600;stroke-width:1.24595;stroke-linecap:round;stroke-linejoin:round;stroke-miterlimit:4;stroke-dasharray:none;stroke-opacity:1"
         id="path2091" />
      <path
         d="m 979.877,689.2619 v -13.01332 l -10.88,-20.21333 h 7.73333 l 6.98666,12.58666 6.13333,-12.58666 h 7.52 l -10.08,20.26666 v 12.95999 z m -1.33334,-34.55998 -1.70666,-3.52 9.86666,-5.22666 2.45333,5.33333 z"
         style="font-style:normal;font-variant:normal;font-weight:900;font-stretch:semi-expanded;font-size:53.3333px;font-family:Inconsolata;-inkscape-font-specification:'Inconsolata Heavy Semi-Expanded';fill:#ffbb33;fill-opacity:1;stroke:#996600;stroke-width:1.24595;stroke-linecap:round;stroke-linejoin:round;stroke-miterlimit:4;stroke-dasharray:none;stroke-opacity:1"
         id="path2093" />
      <path
         d="m 1023.7546,689.2619 v -33.22665 h 12.4267 q 4.3199,0 7.1466,1.22667 2.8267,1.22667 4.2133,3.46667 1.3867,2.23999 1.3867,5.22666 0,1.97333 -0.8533,3.78666 -0.8,1.81334 -2.3467,3.25333 -1.4933,1.38667 -3.52,2.18667 l 7.7333,14.07999 h -8 l -7.2533,-13.22666 h -3.2 v 13.22666 z m 7.7333,-19.35999 h 5.0134 q 2.2399,0 3.4133,-0.96 1.2266,-1.01333 1.2266,-2.71999 0,-1.06667 -0.5333,-1.92 -0.5333,-0.85334 -1.6,-1.38667 -1.0133,-0.53333 -2.56,-0.53333 h -4.96 z"
         style="font-style:normal;font-variant:normal;font-weight:900;font-stretch:semi-expanded;font-size:53.3333px;font-family:Inconsolata;-inkscape-font-specification:'Inconsolata Heavy Semi-Expanded';fill:#ffbb33;fill-opacity:1;stroke:#996600;stroke-width:1.24595;stroke-linecap:round;stroke-linejoin:round;stroke-miterlimit:4;stroke-dasharray:none;stroke-opacity:1"
         id="path2095" />
      <path
         d="m 1065.6212,689.9019 q -4.5867,0 -7.68,-2.02666 -3.0933,-2.02667 -4.6933,-5.86667 -1.5467,-3.89333 -1.5467,-9.43999 0,-5.44 1.5467,-9.22666 1.6,-3.84 4.6933,-5.86667 3.0933,-2.02666 7.68,-2.02666 4.5333,0 7.5733,2.02666 3.0933,2.02667 4.6933,5.86667 1.6,3.78666 1.6,9.22666 0,5.54666 -1.6,9.43999 -1.6,3.89333 -4.6933,5.92 -3.04,1.97333 -7.5733,1.97333 z m 0,-6.02666 q 2.0267,0 3.4133,-1.17333 1.44,-1.22667 2.1867,-3.73334 0.8,-2.50666 0.8,-6.45332 0,-3.62667 -0.8,-6.08 -0.7467,-2.50667 -2.1867,-3.73333 -1.3866,-1.22667 -3.4133,-1.22667 -2.08,0 -3.52,1.22667 -1.44,1.22666 -2.1867,3.73333 -0.7466,2.45333 -0.7466,6.08 0,3.94666 0.7466,6.45332 0.7467,2.50667 2.1867,3.73334 1.44,1.17333 3.52,1.17333 z"
         style="font-style:normal;font-variant:normal;font-weight:900;font-stretch:semi-expanded;font-size:53.3333px;font-family:Inconsolata;-inkscape-font-specification:'Inconsolata Heavy Semi-Expanded';fill:#ffbb33;fill-opacity:1;stroke:#996600;stroke-width:1.24595;stroke-linecap:round;stroke-linejoin:round;stroke-miterlimit:4;stroke-dasharray:none;stroke-opacity:1"
         id="path2097" />
      <path
         d="m 1082.0478,689.2619 v -33.22665 h 11.4667 q 3.4133,0 5.8666,0.64 2.5067,0.58667 4.1067,1.76 1.6533,1.12 2.4533,2.66667 0.8,1.54666 0.8,3.46666 0,1.33334 -0.5867,2.77333 -0.5333,1.38667 -1.6,2.56 -1.0666,1.17334 -2.6666,1.81334 1.44,0.58666 2.56,1.43999 1.1733,0.85334 1.9733,1.86667 0.8533,0.96 1.28,2.13333 0.4267,1.12 0.4267,2.4 0,2.18667 -0.9067,4 -0.8533,1.81333 -2.72,3.09333 -1.8133,1.28 -4.5867,1.97333 -2.7199,0.64 -6.4533,0.64 z m 7.6267,-6.13333 h 4.4266 q 2.0267,0 3.36,-0.48 1.3867,-0.48 2.08,-1.33333 0.7467,-0.85333 0.7467,-1.92 0,-1.38666 -0.7467,-2.34666 -0.6933,-1.01334 -2.2933,-1.54667 -1.5467,-0.58667 -4.0533,-0.58667 h -3.52 z m 0,-14.13332 h 3.3066 q 2.3467,0 3.6267,-0.42667 1.3333,-0.48 1.8666,-1.28 0.5867,-0.85333 0.5867,-2.02666 0,-0.8 -0.3733,-1.38667 -0.32,-0.58667 -1.0133,-0.96 -0.64,-0.42667 -1.7067,-0.64 -1.0133,-0.21333 -2.4,-0.21333 h -3.8933 z"
         style="font-style:normal;font-variant:normal;font-weight:900;font-stretch:semi-expanded;font-size:53.3333px;font-family:Inconsolata;-inkscape-font-specification:'Inconsolata Heavy Semi-Expanded';fill:#ffbb33;fill-opacity:1;stroke:#996600;stroke-width:1.24595;stroke-linecap:round;stroke-linejoin:round;stroke-miterlimit:4;stroke-dasharray:none;stroke-opacity:1"
         id="path2099" />
      <path
         d="m 1124.2877,689.9019 q -4.5866,0 -7.68,-2.02666 -3.0933,-2.02667 -4.6933,-5.86667 -1.5467,-3.89333 -1.5467,-9.43999 0,-5.44 1.5467,-9.22666 1.6,-3.84 4.6933,-5.86667 3.0934,-2.02666 7.68,-2.02666 4.5334,0 7.5734,2.02666 3.0933,2.02667 4.6933,5.86667 1.6,3.78666 1.6,9.22666 0,5.54666 -1.6,9.43999 -1.6,3.89333 -4.6933,5.92 -3.04,1.97333 -7.5734,1.97333 z m 0,-6.02666 q 2.0267,0 3.4134,-1.17333 1.44,-1.22667 2.1866,-3.73334 0.8,-2.50666 0.8,-6.45332 0,-3.62667 -0.8,-6.08 -0.7466,-2.50667 -2.1866,-3.73333 -1.3867,-1.22667 -3.4134,-1.22667 -2.08,0 -3.52,1.22667 -1.44,1.22666 -2.1866,3.73333 -0.7467,2.45333 -0.7467,6.08 0,3.94666 0.7467,6.45332 0.7466,2.50667 2.1866,3.73334 1.44,1.17333 3.52,1.17333 z"
         style="font-style:normal;font-variant:normal;font-weight:900;font-stretch:semi-expanded;font-size:53.3333px;font-family:Inconsolata;-inkscape-font-specification:'Inconsolata Heavy Semi-Expanded';fill:#ffbb33;fill-opacity:1;stroke:#996600;stroke-width:1.24595;stroke-linecap:round;stroke-linejoin:round;stroke-miterlimit:4;stroke-dasharray:none;stroke-opacity:1"
         id="path2101" />
      <path
         d="m 1149.5677,689.2619 v -26.98665 h -9.6533 v -6.24 h 27.1466 v 6.24 h -10.24 v 26.98665 z"
         style="font-style:normal;font-variant:normal;font-weight:900;font-stretch:semi-expanded;font-size:53.3333px;font-family:Inconsolata;-inkscape-font-specification:'Inconsolata Heavy Semi-Expanded';fill:#ffbb33;fill-opacity:1;stroke:#996600;stroke-width:1.24595;stroke-linecap:round;stroke-linejoin:round;stroke-miterlimit:4;stroke-dasharray:none;stroke-opacity:1"
         id="path2103" />
    </g>
    <g
       id="g2153"
       transform="translate(-11.111678)">
      <path
         id="path1064"
         style="font-variation-settings:normal;opacity:1;vector-effect:none;fill:#73788c;fill-opacity:1;fill-rule:evenodd;stroke:#2e3038;stroke-width:1.55805;stroke-linecap:butt;stroke-linejoin:bevel;stroke-miterlimit:4;stroke-dasharray:none;stroke-dashoffset:0;stroke-opacity:1;stop-color:#000000;stop-opacity:1"
         d="m 862.26753,673.5435 c 0.68287,14.976 -4.30766,27.99586 -8.43905,28.18412 -4.13141,0.18822 -8.03377,-11.79931 -8.71661,-26.77531 -0.68276,-14.97592 2.11285,-27.2691 6.24415,-27.45737 4.13139,-0.18822 10.22887,11.07263 10.91151,26.04856 z"
         sodipodi:nodetypes="sssss" />
      <path
         id="path988"
         style="font-variation-settings:normal;opacity:1;vector-effect:none;fill:#73788c;fill-opacity:1;fill-rule:evenodd;stroke:#2e3038;stroke-width:1.55805;stroke-linecap:round;stroke-linejoin:round;stroke-miterlimit:4;stroke-dasharray:none;stroke-dashoffset:0;stroke-opacity:1;stop-color:#000000;stop-opacity:1"
         d="m 859.08843,623.0338 v 33.02882 c 1.79917,0 2.20313,4.23111 2.20313,5.22005 v 22.47172 c 2.28923,0 2.51973,-2.27049 2.51973,-4.32815 v -56.49085 c 0,-3.43774 -4.72286,-3.46429 -4.72286,0.0985 z"
         sodipodi:nodetypes="cccccccc" />
      <ellipse
         style="font-variation-settings:normal;opacity:1;vector-effect:none;fill:#555968;fill-opacity:1;fill-rule:evenodd;stroke:#2e3038;stroke-width:1.55805;stroke-linecap:butt;stroke-linejoin:bevel;stroke-miterlimit:4;stroke-dasharray:none;stroke-dashoffset:0;stroke-opacity:1;stop-color:#000000;stop-opacity:1"
         id="ellipse986"
         ry="20.171125"
         rx="7.5317779"
         cy="674.00427"
         cx="-856.38605"
         transform="scale(-1,1)" />
      <path
         style="font-variation-settings:normal;opacity:1;vector-effect:none;fill:#e3e4e8;fill-opacity:1;stroke:#73788c;stroke-width:1.55805;stroke-linecap:butt;stroke-linejoin:bevel;stroke-miterlimit:4;stroke-dasharray:none;stroke-dashoffset:0;stroke-opacity:1;stop-color:#000000;stop-opacity:1"
         d="m 837.24886,713.65115 c -4.9202,0 -24.3222,-0.0642 -43.12562,0 -9.733,0.0312 -15.76192,-4.76148 -19.37853,-8.37803 -3.9838,-3.98387 -6.19171,-7.20242 -6.47497,-10.37417 -1.19577,-13.39498 -2.09104,-24.04776 0.7534,-37.44877 2.6641,-12.55119 9.45222,-24.23209 24.44467,-26.25305 10.99639,-1.48224 23.86207,-1.54114 34.04329,0.27858 32.20597,5.75529 40.87978,45.4068 26.09103,74.89966 -2.60448,5.19413 -11.28588,7.27578 -16.35327,7.27578 z"
         id="path907"
         sodipodi:nodetypes="sssssssss" />
      <path
         id="path1022"
         style="font-variation-settings:normal;opacity:1;vector-effect:none;fill:#c7c9d1;fill-opacity:1;stroke:none;stroke-width:1.55805;stroke-linecap:butt;stroke-linejoin:bevel;stroke-miterlimit:4;stroke-dasharray:none;stroke-dashoffset:0;stroke-opacity:1;stop-color:#000000;stop-opacity:1"
         d="m 799.1361,630.63359 c -8.0104,4.44802 -14.66422,11.03887 -18.56263,20.19383 4.51729,22.63575 2.98476,30.29949 -0.60889,49.68697 3.64277,4.93555 12.85175,10.65512 24.36873,13.13384 -4.31961,0.003 -5.75978,-0.0125 -10.21246,0 -9.73289,0.0312 -15.76162,-4.75794 -19.37822,-8.37447 -3.9838,-3.98388 -6.19243,-7.19901 -6.47569,-10.37075 -1.19577,-13.39499 -2.08969,-24.05293 0.75474,-37.45396 2.66399,-12.55124 9.44933,-24.23458 24.44187,-26.25555 1.82751,-0.24616 3.76233,-0.39449 5.67223,-0.55965 z" />
      <path
         style="font-variation-settings:normal;opacity:1;vector-effect:none;fill:none;fill-opacity:1;stroke:#73788c;stroke-width:1.55805;stroke-linecap:butt;stroke-linejoin:bevel;stroke-miterlimit:4;stroke-dasharray:none;stroke-dashoffset:0;stroke-opacity:1;stop-color:#000000;stop-opacity:1"
         d="m 837.24886,713.65115 c -4.9202,0 -24.3222,-0.0642 -43.12562,0 -9.733,0.0312 -15.76192,-4.76148 -19.37853,-8.37803 -3.9838,-3.98387 -6.19171,-7.20242 -6.47497,-10.37417 -1.19577,-13.39498 -2.09104,-24.04776 0.7534,-37.44877 2.6641,-12.55119 9.45222,-24.23209 24.44467,-26.25305 10.99639,-1.48224 23.86207,-1.54114 34.04329,0.27858 32.20597,5.75529 40.87978,45.4068 26.09103,74.89966 -2.60448,5.19413 -11.28588,7.27578 -16.35327,7.27578 z"
         id="path1033"
         sodipodi:nodetypes="sssssssss" />
      <path
         id="ellipse929"
         style="font-variation-settings:normal;opacity:1;vector-effect:none;fill:#5c6070;fill-opacity:1;fill-rule:evenodd;stroke:#2e3038;stroke-width:1.55805;stroke-linecap:butt;stroke-linejoin:bevel;stroke-miterlimit:4;stroke-dasharray:none;stroke-dashoffset:0;stroke-opacity:1;stop-color:#000000;stop-opacity:1"
         d="m 762.05509,673.93458 c 0,14.99158 5.57823,27.77062 9.71378,27.77055 4.13566,7e-5 7.48824,-12.15301 7.48824,-27.14452 0,-14.99151 -3.35258,-27.14457 -7.48824,-27.14452 -4.13555,-5e-5 -9.71378,11.52697 -9.71378,26.51849 z"
         sodipodi:nodetypes="sssss" />
      <path
         id="rect846"
         style="font-variation-settings:normal;opacity:1;vector-effect:none;fill:#17181c;fill-opacity:1;fill-rule:evenodd;stroke:#000000;stroke-width:1.55805;stroke-linecap:butt;stroke-linejoin:bevel;stroke-miterlimit:4;stroke-dasharray:none;stroke-dashoffset:0;stroke-opacity:1;stop-color:#000000;stop-opacity:1"
         d="m 838.18734,649.4914 c 3.76464,0 7.30261,1.73999 9.51497,5.57206 3.58576,6.21054 5.38784,14.06026 5.44216,22.06386 0,0 0,0.0125 0,0.0125 0.0883,8.33622 -1.71201,16.57116 -5.44216,23.03182 -2.21236,3.83213 -5.75023,5.572 -9.51497,5.572 h -12.47801 -10.87248 -12.47813 c -3.76474,0 -7.30251,-1.73987 -9.51498,-5.572 -3.73004,-6.46066 -5.5425,-14.6956 -5.454,-23.03182 0,0 0,-0.0125 0,-0.0125 0.0561,-8.00359 1.86835,-15.85332 5.454,-22.06386 2.21247,-3.83207 5.75034,-5.57206 9.51498,-5.57206 h 12.47813 10.87248 z" />
      <ellipse
         style="font-variation-settings:normal;opacity:1;vector-effect:none;fill:#5c6070;fill-opacity:1;fill-rule:evenodd;stroke:#2e3038;stroke-width:1.55805;stroke-linecap:butt;stroke-linejoin:bevel;stroke-miterlimit:4;stroke-dasharray:none;stroke-dashoffset:0;stroke-opacity:1;stop-color:#000000;stop-opacity:1"
         id="path927"
         cx="-767.6936"
         cy="674.00427"
         rx="5.5644479"
         ry="20.171125"
         transform="scale(-1,1)" />
      <path
         id="rect932"
         style="font-variation-settings:normal;opacity:1;vector-effect:none;fill:#73788c;fill-opacity:1;fill-rule:evenodd;stroke:#2e3038;stroke-width:1.55805;stroke-linecap:round;stroke-linejoin:round;stroke-miterlimit:4;stroke-dasharray:none;stroke-dashoffset:0;stroke-opacity:1;stop-color:#000000;stop-opacity:1"
         d="m 768.14687,623.03374 v 30.78911 c -1.79917,0 -2.20312,0.9933 -2.20312,1.9823 v 27.94924 c -2.28923,0 -2.51962,-2.2705 -2.51962,-4.32816 v -56.49084 c 0,-3.43774 4.72274,-3.46429 4.72274,0.0985 z"
         sodipodi:nodetypes="cccccccc" />
      <g
         id="g1351"
         style="opacity:1;stroke-width:0.909552;stroke-miterlimit:4;stroke-dasharray:none"
         transform="matrix(-6.8519239,0,0,6.8519239,7403.3336,-3100.3815)">
        <path
           style="color:#000000;font-style:normal;font-variant:normal;font-weight:normal;font-stretch:normal;font-size:medium;line-height:normal;font-family:sans-serif;font-variant-ligatures:normal;font-variant-position:normal;font-variant-caps:normal;font-variant-numeric:normal;font-variant-alternates:normal;font-variant-east-asian:normal;font-feature-settings:normal;font-variation-settings:normal;text-indent:0;text-align:start;text-decoration:none;text-decoration-line:none;text-decoration-style:solid;text-decoration-color:#000000;letter-spacing:normal;word-spacing:normal;text-transform:none;writing-mode:lr-tb;direction:ltr;text-orientation:mixed;dominant-baseline:auto;baseline-shift:baseline;text-anchor:start;white-space:normal;shape-padding:0;shape-margin:0;inline-size:0;clip-rule:nonzero;display:inline;overflow:visible;visibility:visible;isolation:auto;mix-blend-mode:normal;color-interpolation:sRGB;color-interpolation-filters:linearRGB;solid-color:#000000;solid-opacity:1;vector-effect:none;fill:#00bfe5;fill-opacity:1;fill-rule:nonzero;stroke:none;stroke-width:0.909552;stroke-linecap:round;stroke-linejoin:round;stroke-miterlimit:4;stroke-dasharray:none;stroke-dashoffset:0;stroke-opacity:1;color-rendering:auto;image-rendering:auto;shape-rendering:auto;text-rendering:auto;enable-background:accumulate;stop-color:#000000;stop-opacity:1"
           d="m 957.63213,548.81802 c 0.53277,-0.1398 1.28838,-0.13656 1.78718,-1.3e-4"
           id="path1353" />
        <path
           style="color:#000000;font-style:normal;font-variant:normal;font-weight:normal;font-stretch:normal;font-size:medium;line-height:normal;font-family:sans-serif;font-variant-ligatures:normal;font-variant-position:normal;font-variant-caps:normal;font-variant-numeric:normal;font-variant-alternates:normal;font-variant-east-asian:normal;font-feature-settings:normal;font-variation-settings:normal;text-indent:0;text-align:start;text-decoration:none;text-decoration-line:none;text-decoration-style:solid;text-decoration-color:#000000;letter-spacing:normal;word-spacing:normal;text-transform:none;writing-mode:lr-tb;direction:ltr;text-orientation:mixed;dominant-baseline:auto;baseline-shift:baseline;text-anchor:start;white-space:normal;shape-padding:0;shape-margin:0;inline-size:0;clip-rule:nonzero;display:inline;overflow:visible;visibility:visible;isolation:auto;mix-blend-mode:normal;color-interpolation:sRGB;color-interpolation-filters:linearRGB;solid-color:#000000;solid-opacity:1;vector-effect:none;fill:#00bfe5;fill-opacity:1;fill-rule:nonzero;stroke:none;stroke-width:0.909552;stroke-linecap:round;stroke-linejoin:round;stroke-miterlimit:4;stroke-dasharray:none;stroke-dashoffset:0;stroke-opacity:1;color-rendering:auto;image-rendering:auto;shape-rendering:auto;text-rendering:auto;enable-background:accumulate;stop-color:#000000;stop-opacity:1"
           d="m 957.57617,548.60156 a 0.2235,0.2235 0 0 0 -0.16015,0.27344 0.2235,0.2235 0 0 0 0.27343,0.16016 c 0.48177,-0.12642 1.22566,-0.12347 1.66993,-0.002 a 0.2235,0.2235 0 0 0 0.27539,-0.15625 0.2235,0.2235 0 0 0 -0.15625,-0.27539 c -0.55334,-0.15134 -1.31858,-0.15318 -1.90235,0 z"
           id="path1355" />
      </g>
      <path
         id="path964"
         style="font-variation-settings:normal;opacity:1;vector-effect:none;fill:#ffbb33;fill-opacity:1;stroke:#996600;stroke-width:1.55805;stroke-linecap:round;stroke-linejoin:round;stroke-miterlimit:4;stroke-dasharray:none;stroke-dashoffset:0;stroke-opacity:1;stop-color:#000000;stop-opacity:1"
         d="m 810.79686,630.09749 c 2.94487,0.0125 5.85744,0.12402 8.67882,0.35276 5.26442,3.92698 7.63644,9.1114 9.26307,14.98398 H 809.7623 c -2.22475,-7.6003 -5.39345,-11.49961 -10.43166,-14.8136 3.77461,-0.32158 7.61858,-0.54158 11.46622,-0.5235 z" />
      <ellipse
         style="font-variation-settings:normal;opacity:1;mix-blend-mode:normal;vector-effect:none;fill:#00bfe5;fill-opacity:1;fill-rule:evenodd;stroke:#33dcff;stroke-width:1.55805;stroke-linecap:butt;stroke-linejoin:bevel;stroke-miterlimit:4;stroke-dasharray:none;stroke-dashoffset:0;stroke-opacity:1;stop-color:#000000;stop-opacity:1"
         id="ellipse1026"
         cx="-835.33069"
         cy="680.96277"
         rx="9.1148882"
         ry="14.620252"
         transform="scale(-1,1)" />
      <path
         style="font-variation-settings:normal;opacity:1;vector-effect:none;fill:none;fill-opacity:0.3;stroke:url(#linearGradient1071);stroke-width:1.55805;stroke-linecap:butt;stroke-linejoin:bevel;stroke-miterlimit:4;stroke-dasharray:none;stroke-dashoffset:0;stroke-opacity:1;stop-color:#000000;stop-opacity:1"
         d="M 846.75459,673.31945 H 823.90632"
         id="path1032"
         sodipodi:nodetypes="cc" />
      <path
         style="font-variation-settings:normal;opacity:1;vector-effect:none;fill:none;fill-opacity:0.3;stroke:url(#linearGradient1099);stroke-width:1.55805;stroke-linecap:butt;stroke-linejoin:bevel;stroke-miterlimit:4;stroke-dasharray:none;stroke-dashoffset:0;stroke-opacity:1;stop-color:#000000;stop-opacity:1"
         d="m 847.71166,676.41503 h -24.7623"
         id="path1097"
         sodipodi:nodetypes="cc" />
      <path
         style="font-variation-settings:normal;opacity:1;vector-effect:none;fill:none;fill-opacity:0.3;stroke:url(#linearGradient1103);stroke-width:1.55805;stroke-linecap:butt;stroke-linejoin:bevel;stroke-miterlimit:4;stroke-dasharray:none;stroke-dashoffset:0;stroke-opacity:1;stop-color:#000000;stop-opacity:1"
         d="m 847.71166,679.51056 h -24.7623"
         id="path1101"
         sodipodi:nodetypes="cc" />
      <path
         style="font-variation-settings:normal;opacity:1;vector-effect:none;fill:none;fill-opacity:0.3;stroke:url(#linearGradient1107);stroke-width:1.55805;stroke-linecap:butt;stroke-linejoin:bevel;stroke-miterlimit:4;stroke-dasharray:none;stroke-dashoffset:0;stroke-opacity:1;stop-color:#000000;stop-opacity:1"
         d="m 847.71166,682.6062 h -24.7623"
         id="path1105"
         sodipodi:nodetypes="cc" />
      <path
         style="font-variation-settings:normal;opacity:1;vector-effect:none;fill:none;fill-opacity:0.3;stroke:url(#linearGradient1111);stroke-width:1.55805;stroke-linecap:butt;stroke-linejoin:bevel;stroke-miterlimit:4;stroke-dasharray:none;stroke-dashoffset:0;stroke-opacity:1;stop-color:#000000;stop-opacity:1"
         d="M 847.13746,685.7018 H 823.52355"
         id="path1109"
         sodipodi:nodetypes="cc" />
      <path
         style="font-variation-settings:normal;opacity:1;vector-effect:none;fill:none;fill-opacity:0.3;stroke:url(#linearGradient1115);stroke-width:1.55805;stroke-linecap:butt;stroke-linejoin:bevel;stroke-miterlimit:4;stroke-dasharray:none;stroke-dashoffset:0;stroke-opacity:1;stop-color:#000000;stop-opacity:1"
         d="M 846.61104,688.75813 H 824.04997"
         id="path1113"
         sodipodi:nodetypes="cc" />
      <path
         style="font-variation-settings:normal;opacity:1;vector-effect:none;fill:none;fill-opacity:0.3;stroke:url(#linearGradient1119);stroke-width:1.55805;stroke-linecap:butt;stroke-linejoin:bevel;stroke-miterlimit:4;stroke-dasharray:none;stroke-dashoffset:0;stroke-opacity:1;stop-color:#000000;stop-opacity:1"
         d="M 844.75568,691.85379 H 825.90545"
         id="path1117"
         sodipodi:nodetypes="cc" />
      <path
         style="font-variation-settings:normal;opacity:1;vector-effect:none;fill:none;fill-opacity:0.3;stroke:url(#linearGradient1123);stroke-width:1.55805;stroke-linecap:butt;stroke-linejoin:bevel;stroke-miterlimit:4;stroke-dasharray:none;stroke-dashoffset:0;stroke-opacity:1;stop-color:#000000;stop-opacity:1"
         d="M 842.06593,694.91017 H 828.5951"
         id="path1121"
         sodipodi:nodetypes="cc" />
      <path
         style="font-variation-settings:normal;opacity:1;vector-effect:none;fill:none;fill-opacity:0.3;stroke:url(#linearGradient1127);stroke-width:1.55805;stroke-linecap:butt;stroke-linejoin:bevel;stroke-miterlimit:4;stroke-dasharray:none;stroke-dashoffset:0;stroke-opacity:1;stop-color:#000000;stop-opacity:1"
         d="M 845.1667,670.26306 H 825.49443"
         id="path1125"
         sodipodi:nodetypes="cc" />
      <path
         style="font-variation-settings:normal;opacity:1;vector-effect:none;fill:none;fill-opacity:0.3;stroke:url(#linearGradient1131);stroke-width:1.55805;stroke-linecap:butt;stroke-linejoin:bevel;stroke-miterlimit:4;stroke-dasharray:none;stroke-dashoffset:0;stroke-opacity:1;stop-color:#000000;stop-opacity:1"
         d="M 842.57375,667.16746 H 828.08738"
         id="path1129"
         sodipodi:nodetypes="cc" />
      <path
         style="font-variation-settings:normal;opacity:1;vector-effect:none;fill:none;fill-opacity:0.3;stroke:url(#linearGradient1349);stroke-width:1.55805;stroke-linecap:butt;stroke-linejoin:bevel;stroke-miterlimit:4;stroke-dasharray:none;stroke-dashoffset:0;stroke-opacity:1;stop-color:#000000;stop-opacity:1"
         d="M 844.55439,659.67909 H 826.10674"
         id="path1347"
         sodipodi:nodetypes="cc" />
      <g
         id="g1361"
         style="opacity:1;stroke-width:0.909552;stroke-miterlimit:4;stroke-dasharray:none"
         transform="matrix(-6.8519239,0,0,6.8519239,7375.0941,-3100.3815)">
        <path
           style="color:#000000;font-style:normal;font-variant:normal;font-weight:normal;font-stretch:normal;font-size:medium;line-height:normal;font-family:sans-serif;font-variant-ligatures:normal;font-variant-position:normal;font-variant-caps:normal;font-variant-numeric:normal;font-variant-alternates:normal;font-variant-east-asian:normal;font-feature-settings:normal;font-variation-settings:normal;text-indent:0;text-align:start;text-decoration:none;text-decoration-line:none;text-decoration-style:solid;text-decoration-color:#000000;letter-spacing:normal;word-spacing:normal;text-transform:none;writing-mode:lr-tb;direction:ltr;text-orientation:mixed;dominant-baseline:auto;baseline-shift:baseline;text-anchor:start;white-space:normal;shape-padding:0;shape-margin:0;inline-size:0;clip-rule:nonzero;display:inline;overflow:visible;visibility:visible;isolation:auto;mix-blend-mode:normal;color-interpolation:sRGB;color-interpolation-filters:linearRGB;solid-color:#000000;solid-opacity:1;vector-effect:none;fill:#00bfe5;fill-opacity:1;fill-rule:nonzero;stroke:none;stroke-width:0.909552;stroke-linecap:round;stroke-linejoin:round;stroke-miterlimit:4;stroke-dasharray:none;stroke-dashoffset:0;stroke-opacity:1;color-rendering:auto;image-rendering:auto;shape-rendering:auto;text-rendering:auto;enable-background:accumulate;stop-color:#000000;stop-opacity:1"
           d="m 957.63213,548.81802 c 0.53277,-0.1398 1.28838,-0.13656 1.78718,-1.3e-4"
           id="path1357" />
        <path
           style="color:#000000;font-style:normal;font-variant:normal;font-weight:normal;font-stretch:normal;font-size:medium;line-height:normal;font-family:sans-serif;font-variant-ligatures:normal;font-variant-position:normal;font-variant-caps:normal;font-variant-numeric:normal;font-variant-alternates:normal;font-variant-east-asian:normal;font-feature-settings:normal;font-variation-settings:normal;text-indent:0;text-align:start;text-decoration:none;text-decoration-line:none;text-decoration-style:solid;text-decoration-color:#000000;letter-spacing:normal;word-spacing:normal;text-transform:none;writing-mode:lr-tb;direction:ltr;text-orientation:mixed;dominant-baseline:auto;baseline-shift:baseline;text-anchor:start;white-space:normal;shape-padding:0;shape-margin:0;inline-size:0;clip-rule:nonzero;display:inline;overflow:visible;visibility:visible;isolation:auto;mix-blend-mode:normal;color-interpolation:sRGB;color-interpolation-filters:linearRGB;solid-color:#000000;solid-opacity:1;vector-effect:none;fill:#00bfe5;fill-opacity:1;fill-rule:nonzero;stroke:none;stroke-width:0.909552;stroke-linecap:round;stroke-linejoin:round;stroke-miterlimit:4;stroke-dasharray:none;stroke-dashoffset:0;stroke-opacity:1;color-rendering:auto;image-rendering:auto;shape-rendering:auto;text-rendering:auto;enable-background:accumulate;stop-color:#000000;stop-opacity:1"
           d="m 957.57617,548.60156 a 0.2235,0.2235 0 0 0 -0.16015,0.27344 0.2235,0.2235 0 0 0 0.27343,0.16016 c 0.48177,-0.12642 1.22566,-0.12347 1.66993,-0.002 a 0.2235,0.2235 0 0 0 0.27539,-0.15625 0.2235,0.2235 0 0 0 -0.15625,-0.27539 c -0.55334,-0.15134 -1.31858,-0.15318 -1.90235,0 z"
           id="path1359" />
      </g>
      <ellipse
         style="font-variation-settings:normal;opacity:1;mix-blend-mode:normal;vector-effect:none;fill:#00bfe5;fill-opacity:1;fill-rule:evenodd;stroke:#33dcff;stroke-width:1.55805;stroke-linecap:butt;stroke-linejoin:bevel;stroke-miterlimit:4;stroke-dasharray:none;stroke-dashoffset:0;stroke-opacity:1;stop-color:#000000;stop-opacity:1"
         id="ellipse1363"
         cx="-807.091"
         cy="680.96277"
         rx="9.1148882"
         ry="14.620252"
         transform="scale(-1,1)" />
      <path
         style="font-variation-settings:normal;opacity:1;vector-effect:none;fill:none;fill-opacity:0.3;stroke:url(#linearGradient1407);stroke-width:1.55805;stroke-linecap:butt;stroke-linejoin:bevel;stroke-miterlimit:4;stroke-dasharray:none;stroke-dashoffset:0;stroke-opacity:1;stop-color:#000000;stop-opacity:1"
         d="M 818.51507,673.31945 H 795.66678"
         id="path1365"
         sodipodi:nodetypes="cc" />
      <path
         style="font-variation-settings:normal;opacity:1;vector-effect:none;fill:none;fill-opacity:0.3;stroke:url(#linearGradient1405);stroke-width:1.55805;stroke-linecap:butt;stroke-linejoin:bevel;stroke-miterlimit:4;stroke-dasharray:none;stroke-dashoffset:0;stroke-opacity:1;stop-color:#000000;stop-opacity:1"
         d="M 819.47203,676.41503 H 794.70991"
         id="path1367"
         sodipodi:nodetypes="cc" />
      <path
         style="font-variation-settings:normal;opacity:1;vector-effect:none;fill:none;fill-opacity:0.3;stroke:url(#linearGradient1403);stroke-width:1.55805;stroke-linecap:butt;stroke-linejoin:bevel;stroke-miterlimit:4;stroke-dasharray:none;stroke-dashoffset:0;stroke-opacity:1;stop-color:#000000;stop-opacity:1"
         d="M 819.47203,679.51056 H 794.70991"
         id="path1369"
         sodipodi:nodetypes="cc" />
      <path
         style="font-variation-settings:normal;opacity:1;vector-effect:none;fill:none;fill-opacity:0.3;stroke:url(#linearGradient1401);stroke-width:1.55805;stroke-linecap:butt;stroke-linejoin:bevel;stroke-miterlimit:4;stroke-dasharray:none;stroke-dashoffset:0;stroke-opacity:1;stop-color:#000000;stop-opacity:1"
         d="M 819.47203,682.6062 H 794.70991"
         id="path1371"
         sodipodi:nodetypes="cc" />
      <path
         style="font-variation-settings:normal;opacity:1;vector-effect:none;fill:none;fill-opacity:0.3;stroke:url(#linearGradient1399);stroke-width:1.55805;stroke-linecap:butt;stroke-linejoin:bevel;stroke-miterlimit:4;stroke-dasharray:none;stroke-dashoffset:0;stroke-opacity:1;stop-color:#000000;stop-opacity:1"
         d="M 818.89794,685.7018 H 795.284"
         id="path1373"
         sodipodi:nodetypes="cc" />
      <path
         style="font-variation-settings:normal;opacity:1;vector-effect:none;fill:none;fill-opacity:0.3;stroke:url(#linearGradient1397);stroke-width:1.55805;stroke-linecap:butt;stroke-linejoin:bevel;stroke-miterlimit:4;stroke-dasharray:none;stroke-dashoffset:0;stroke-opacity:1;stop-color:#000000;stop-opacity:1"
         d="m 818.37152,688.75813 h -22.5611"
         id="path1375"
         sodipodi:nodetypes="cc" />
      <path
         style="font-variation-settings:normal;opacity:1;vector-effect:none;fill:none;fill-opacity:0.3;stroke:url(#linearGradient1395);stroke-width:1.55805;stroke-linecap:butt;stroke-linejoin:bevel;stroke-miterlimit:4;stroke-dasharray:none;stroke-dashoffset:0;stroke-opacity:1;stop-color:#000000;stop-opacity:1"
         d="M 816.51606,691.85379 H 797.66589"
         id="path1377"
         sodipodi:nodetypes="cc" />
      <path
         style="font-variation-settings:normal;opacity:1;vector-effect:none;fill:none;fill-opacity:0.3;stroke:url(#linearGradient1393);stroke-width:1.55805;stroke-linecap:butt;stroke-linejoin:bevel;stroke-miterlimit:4;stroke-dasharray:none;stroke-dashoffset:0;stroke-opacity:1;stop-color:#000000;stop-opacity:1"
         d="M 813.8263,694.91017 H 800.35555"
         id="path1379"
         sodipodi:nodetypes="cc" />
      <path
         style="font-variation-settings:normal;opacity:1;vector-effect:none;fill:none;fill-opacity:0.3;stroke:url(#linearGradient1391);stroke-width:1.55805;stroke-linecap:butt;stroke-linejoin:bevel;stroke-miterlimit:4;stroke-dasharray:none;stroke-dashoffset:0;stroke-opacity:1;stop-color:#000000;stop-opacity:1"
         d="M 816.92717,670.26306 H 797.25488"
         id="path1381"
         sodipodi:nodetypes="cc" />
      <path
         style="font-variation-settings:normal;opacity:1;vector-effect:none;fill:none;fill-opacity:0.3;stroke:url(#linearGradient1389);stroke-width:1.55805;stroke-linecap:butt;stroke-linejoin:bevel;stroke-miterlimit:4;stroke-dasharray:none;stroke-dashoffset:0;stroke-opacity:1;stop-color:#000000;stop-opacity:1"
         d="M 814.33411,667.16746 H 799.84783"
         id="path1383"
         sodipodi:nodetypes="cc" />
      <path
         style="font-variation-settings:normal;opacity:1;vector-effect:none;fill:none;fill-opacity:0.3;stroke:url(#linearGradient1387);stroke-width:1.55805;stroke-linecap:butt;stroke-linejoin:bevel;stroke-miterlimit:4;stroke-dasharray:none;stroke-dashoffset:0;stroke-opacity:1;stop-color:#000000;stop-opacity:1"
         d="M 816.31486,659.67909 H 797.86719"
         id="path1385"
         sodipodi:nodetypes="cc" />
      <ellipse
         style="font-variation-settings:normal;opacity:1;mix-blend-mode:normal;vector-effect:none;fill:#ffffff;fill-opacity:0.4;fill-rule:evenodd;stroke:none;stroke-width:0.692958;stroke-linecap:butt;stroke-linejoin:bevel;stroke-miterlimit:4;stroke-dasharray:none;stroke-dashoffset:0;stroke-opacity:1;stop-color:#000000;stop-opacity:1"
         id="ellipse1026-8"
         cx="-837.8736"
         cy="677.05084"
         rx="4.0539327"
         ry="6.5024948"
         transform="scale(-1,1)" />
      <ellipse
         style="font-variation-settings:normal;opacity:1;mix-blend-mode:normal;vector-effect:none;fill:#ffffff;fill-opacity:0.4;fill-rule:evenodd;stroke:none;stroke-width:0.692958;stroke-linecap:butt;stroke-linejoin:bevel;stroke-miterlimit:4;stroke-dasharray:none;stroke-dashoffset:0;stroke-opacity:1;stop-color:#000000;stop-opacity:1"
         id="ellipse1083"
         cx="-809.29303"
         cy="677.05084"
         rx="4.0539327"
         ry="6.5024948"
         transform="scale(-1,1)" />
    </g>
  </g>
</svg>
