<?xml version="1.0" encoding="UTF-8" standalone="no"?>
<svg xmlns:dc="http://purl.org/dc/elements/1.1/" xmlns:cc="http://creativecommons.org/ns#" xmlns:rdf="http://www.w3.org/1999/02/22-rdf-syntax-ns#" xmlns:svg="http://www.w3.org/2000/svg" xmlns="http://www.w3.org/2000/svg" xmlns:sodipodi="http://sodipodi.sourceforge.net/DTD/sodipodi-0.dtd" xmlns:inkscape="http://www.inkscape.org/namespaces/inkscape" viewBox="0 0 53 52" height="52" width="53" xml:space="preserve" id="svg2" version="1.1" sodipodi:docname="nocvedcu-hero.svg" inkscape:version="0.92.3 (2405546, 2018-03-11)"><sodipodi:namedview pagecolor="#ffffff" bordercolor="#666666" borderopacity="1" objecttolerance="10" gridtolerance="10" guidetolerance="10" inkscape:pageopacity="0" inkscape:pageshadow="2" inkscape:window-width="1369" inkscape:window-height="832" id="namedview36" showgrid="false" inkscape:zoom="6.7280601" inkscape:cx="20.55503" inkscape:cy="18.950292" inkscape:window-x="2030" inkscape:window-y="180" inkscape:window-maximized="0" inkscape:current-layer="g16"/><metadata id="metadata8"><rdf:RDF><cc:Work rdf:about=""><dc:format>image/svg+xml</dc:format><dc:type rdf:resource="http://purl.org/dc/dcmitype/StillImage"/><dc:title/></cc:Work></rdf:RDF></metadata><defs id="defs6"><clipPath id="clipPath20" clipPathUnits="userSpaceOnUse"><path id="path18" d="M 0,0 H 595.276 V 595.276 H 0 Z" inkscape:connector-curvature="0"/></clipPath><clipPath id="clipPath60" clipPathUnits="userSpaceOnUse"><path id="path58" d="M 0,0 H 595.276 V 595.276 H 0 Z" inkscape:connector-curvature="0"/></clipPath></defs><g transform="matrix(0.24380952,0,0,-0.24380952,-40.221461,92.48048)" id="g10"><g id="g899"><g id="g14" transform="matrix(1.1889595,0,0,1.1889595,-78.532346,-80.783837)"><g id="g16" clip-path="url(#clipPath20)"><g id="g22" transform="translate(288.4252,255.1173)" style="fill:#fdbd0f;fill-opacity:1"><path d="m 0,0 c 0,-4.697 3.808,-8.503 8.504,-8.503 4.696,0 8.504,3.806 8.504,8.503 0,4.697 -3.808,8.505 -8.504,8.505 C 3.808,8.505 0,4.697 0,0 m 12.089,0.002 c 0,-1.983 -1.605,-3.586 -3.584,-3.586 -1.982,0 -3.583,1.603 -3.583,3.586 0,1.979 1.601,3.58 3.583,3.58 1.979,0 3.584,-1.601 3.584,-3.58" style="fill:#fdbd0f;fill-opacity:1;fill-rule:nonzero;stroke:none" id="path24" inkscape:connector-curvature="0"/></g><g id="g26" transform="translate(387.6378,290.2956)" style="fill:#fdbd0f;fill-opacity:1"><path d="m 0,0 v 11.845 c 0,9.64 -3.757,13.568 -14.463,13.568 h -32.309 v -38.976 h 32.309 C -3.757,-13.563 0,-9.633 0,0 M -36.068,-3.555 V 15.72 h 18.999 c 4.584,0 6.367,-1.453 6.367,-6.997 V 3.447 c 0,-5.543 -1.783,-7.002 -6.367,-7.002 z" style="fill:#fdbd0f;fill-opacity:1;fill-rule:nonzero;stroke:none" id="path28" inkscape:connector-curvature="0"/></g><g id="g30" transform="translate(351.8471,366.3779)"><path d="m 0,0 v 2.758 c 0,4.547 1.059,7.332 6.692,7.332 h 5.713 v 0.002 h 6.44 c 4.811,0 6.259,-0.51 6.259,-5.057 h 10.687 v 3.444 c 0,6.159 -2.117,11.009 -12.856,11.009 H 12.405 4.381 c -9.631,0 -15.362,-2.532 -15.362,-13.24 V 0 -6.248 c 0,-10.708 5.731,-13.24 15.362,-13.24 h 8.024 10.53 c 10.739,0 12.856,4.85 12.856,11.009 v 3.444 H 25.104 c 0,-4.547 -1.448,-5.057 -6.259,-5.057 h -6.44 v 0.002 H 6.692 C 1.059,-10.09 0,-7.305 0,-2.758 Z" style="fill:#000000;fill-opacity:1;fill-rule:nonzero;stroke:none" id="path32" inkscape:connector-curvature="0"/></g><g id="g34" transform="translate(218.4308,228.189)" style="fill:#fdbd0f;fill-opacity:1"><path d="m 0,0 v 2.808 c 0,4.63 1.075,7.466 6.793,7.466 h 5.8 v 0.001 h 6.538 c 4.883,0 6.354,-0.519 6.354,-5.148 h 10.848 v 3.506 c 0,6.272 -2.149,11.21 -13.051,11.21 H 12.593 4.448 c -9.777,0 -15.595,-2.579 -15.595,-13.482 V 0 -6.361 c 0,-10.903 5.818,-13.482 15.595,-13.482 h 8.145 10.689 c 10.902,0 13.051,4.938 13.051,11.21 v 3.506 H 25.485 c 0,-4.629 -1.471,-5.148 -6.354,-5.148 h -6.538 v 0.001 h -5.8 C 1.075,-10.274 0,-7.438 0,-2.808 Z" style="fill:#fdbd0f;fill-opacity:1;fill-rule:nonzero;stroke:none" id="path36" inkscape:connector-curvature="0"/></g><g id="g38" transform="translate(289.0107,346.5354)"><path d="m 0,0 h 17.255 c 9.695,0 15.467,2.675 15.467,14.052 v 11.579 c 0,11.365 -5.772,14.054 -15.467,14.054 H 0 c -9.697,0 -15.467,-2.689 -15.467,-14.054 V 14.052 C -15.467,2.675 -9.697,0 0,0 m -4.412,21.928 c 0,4.829 1.068,7.782 6.738,7.782 h 12.603 c 5.672,0 6.738,-2.953 6.738,-7.782 v -4.179 c 0,-5.634 -1.066,-7.777 -6.154,-7.777 H 1.744 c -5.088,0 -6.156,2.143 -6.156,7.777 z" style="fill:#000000;fill-opacity:1;fill-rule:nonzero;stroke:none" id="path40" inkscape:connector-curvature="0"/></g></g></g><g id="g42" transform="matrix(1.1889595,0,0,1.1889595,301.4666,283.82748)" style="fill:#fdbd0f;fill-opacity:1"><path d="m 0,0 v 9.044 h -43.937 v -38.976 h 43.695 v 9.366 h -34.491 v 6.243 h 25.192 v 8.08 H -34.733 V 0 Z" style="fill:#fdbd0f;fill-opacity:1;fill-rule:nonzero;stroke:none" id="path44" inkscape:connector-curvature="0"/></g><g id="g46" transform="matrix(1.1889595,0,0,1.1889595,204.26595,247.81841)" style="fill:#fdbd0f;fill-opacity:1"><path d="M 0,0 19.39,39.685 H 7.277 L -6.832,10.191 -20.937,39.685 H -33.05 L -13.656,0 Z" style="fill:#fdbd0f;fill-opacity:1;fill-rule:nonzero;stroke:none" id="path48" inkscape:connector-curvature="0"/></g><g id="g50" transform="matrix(1.1889595,0,0,1.1889595,289.67141,307.64079)" style="fill:#fdbd0f;fill-opacity:1"><path d="M 0,0 H -8.239 L -12.048,-3.485 -15.853,0 h -8.243 l 6.358,-7.087 h 11.382 z" style="fill:#fdbd0f;fill-opacity:1;fill-rule:nonzero;stroke:none" id="path52" inkscape:connector-curvature="0"/></g><g id="g54" transform="matrix(1.1889595,0,0,1.1889595,-78.532346,-80.783837)" style="fill:#fdbd0f;fill-opacity:1"><g id="g56" clip-path="url(#clipPath60)" style="fill:#fdbd0f;fill-opacity:1"><g id="g62" transform="translate(287.6499,208.7008)" style="fill:#fdbd0f;fill-opacity:1"><path d="m 0,0 h 18.561 c 9.683,0 14.104,4.577 14.104,14.164 V 38.976 H 22.12 V 16.716 C 22.12,11.812 20.553,9.9 16.233,9.9 H 2.326 c -4.322,0 -5.889,1.912 -5.889,6.816 v 22.26 H -14.107 V 14.164 C -14.107,4.577 -9.69,0 0,0" style="fill:#fdbd0f;fill-opacity:1;fill-rule:nonzero;stroke:none" id="path64" inkscape:connector-curvature="0"/></g></g></g><g id="g66" transform="matrix(1.1889595,0,0,1.1889595,180.65298,331.65409)"><path d="M 0,0 V 28.288 H 0.096 L 20.121,0 H 36.77 V 38.976 H 25.982 V 10.584 H 25.887 L 5.859,38.976 H -10.71 V 0 Z" style="fill:#000000;fill-opacity:1;fill-rule:nonzero;stroke:none" id="path68" inkscape:connector-curvature="0"/></g></g></g></svg>