<?xml version="1.0" encoding="UTF-8" standalone="no"?>
<svg
   xmlns:dc="http://purl.org/dc/elements/1.1/"
   xmlns:cc="http://creativecommons.org/ns#"
   xmlns:rdf="http://www.w3.org/1999/02/22-rdf-syntax-ns#"
   xmlns:svg="http://www.w3.org/2000/svg"
   xmlns="http://www.w3.org/2000/svg"
   xmlns:sodipodi="http://sodipodi.sourceforge.net/DTD/sodipodi-0.dtd"
   xmlns:inkscape="http://www.inkscape.org/namespaces/inkscape"
   width="188.73784"
   height="285.35355"
   viewBox="0 0 188.73784 285.35355"
   version="1.1"
   id="svg8"
   inkscape:version="1.0.1 (3bc2e813f5, 2020-09-07)"
   sodipodi:docname="Dvere_WC.svg"
   inkscape:export-filename="C:\Users\micha\Downloads\Archetyp_muz.png"
   inkscape:export-xdpi="300"
   inkscape:export-ydpi="300">
  <defs
     id="defs2" />
  <sodipodi:namedview
     id="base"
     pagecolor="#e6e6e6"
     bordercolor="#666666"
     borderopacity="1.0"
     inkscape:pageopacity="0"
     inkscape:pageshadow="2"
     inkscape:zoom="4"
     inkscape:cx="105.93499"
     inkscape:cy="118.56333"
     inkscape:document-units="px"
     inkscape:current-layer="layer1"
     showgrid="false"
     units="px"
     width="2000px"
     inkscape:pagecheckerboard="false"
     showborder="true"
     borderlayer="true"
     inkscape:window-width="1920"
     inkscape:window-height="1017"
     inkscape:window-x="-8"
     inkscape:window-y="-8"
     inkscape:window-maximized="1"
     inkscape:document-rotation="0"
     fit-margin-top="5"
     lock-margins="true"
     fit-margin-left="5"
     fit-margin-right="5"
     fit-margin-bottom="5" />
  <metadata
     id="metadata5">
    <rdf:RDF>
      <cc:Work
         rdf:about="">
        <dc:format>image/svg+xml</dc:format>
        <dc:type
           rdf:resource="http://purl.org/dc/dcmitype/StillImage" />
        <dc:title></dc:title>
      </cc:Work>
    </rdf:RDF>
  </metadata>
  <g
     inkscape:label="Vrstva 1"
     inkscape:groupmode="layer"
     id="layer1"
     transform="translate(-433.22791,-133.54476)">
    <rect
       style="font-variation-settings:normal;opacity:1;vector-effect:none;fill:#e8e8e3;fill-opacity:1;fill-rule:evenodd;stroke:#545445;stroke-width:1.5;stroke-linecap:butt;stroke-linejoin:bevel;stroke-miterlimit:4;stroke-dasharray:none;stroke-dashoffset:0;stroke-opacity:1;stop-color:#000000;stop-opacity:1"
       id="rect851"
       width="141.22456"
       height="255.84604"
       x="457.20078"
       y="157.30228" />
    <rect
       style="font-variation-settings:normal;opacity:1;vector-effect:none;fill:#babaab;fill-opacity:1;fill-rule:evenodd;stroke:#babaab;stroke-width:1.5;stroke-linecap:butt;stroke-linejoin:bevel;stroke-miterlimit:4;stroke-dasharray:none;stroke-dashoffset:0;stroke-opacity:1;stop-color:#000000;stop-opacity:1"
       id="rect4897"
       width="65.145355"
       height="32.572678"
       x="496.67789"
       y="197.75616"
       ry="5.4702206" />
    <path
       id="rect4865"
       style="font-variation-settings:normal;opacity:1;vector-effect:none;fill:#babaab;fill-opacity:1;fill-rule:evenodd;stroke:#babaab;stroke-width:1.5;stroke-linecap:round;stroke-linejoin:round;stroke-miterlimit:4;stroke-dasharray:none;stroke-dashoffset:0;stroke-opacity:1;stop-color:#000000;stop-opacity:1"
       d="m 165.25195,135.98047 c -0.97935,0 -1.76757,0.78824 -1.76757,1.76758 v 32.46289 c 0,0.97934 0.78822,1.76758 1.76757,1.76758 h 8.14063 c 0.97934,0 1.76758,-0.78824 1.76758,-1.76758 v -18.66992 h 19.72851 v -6.5 h -19.72851 v -7.29297 c 0,-0.97934 -0.78824,-1.76758 -1.76758,-1.76758 z"
       transform="translate(312.67556,141.08382)" />
    <rect
       style="font-variation-settings:normal;opacity:1;vector-effect:none;fill:#8f96a3;fill-opacity:1;fill-rule:evenodd;stroke:#454a54;stroke-width:1.5;stroke-linecap:round;stroke-linejoin:round;stroke-miterlimit:4;stroke-dasharray:none;stroke-dashoffset:0;stroke-opacity:1;stop-color:#000000;stop-opacity:1"
       id="rect853"
       width="11.676941"
       height="35.997589"
       x="474.65909"
       y="276.00256"
       ry="1.767767" />
    <rect
       style="font-variation-settings:normal;opacity:1;vector-effect:none;fill:#8f96a3;fill-opacity:1;fill-rule:evenodd;stroke:#454a54;stroke-width:1.5;stroke-linecap:round;stroke-linejoin:round;stroke-miterlimit:4;stroke-dasharray:none;stroke-dashoffset:0;stroke-opacity:1;stop-color:#000000;stop-opacity:1"
       id="rect4845"
       width="26"
       height="6.5"
       x="477.40964"
       y="283.82755" />
    <circle
       style="font-variation-settings:normal;opacity:1;vector-effect:none;fill:#737b8c;fill-opacity:1;fill-rule:evenodd;stroke:#454a54;stroke-width:1.5;stroke-linecap:butt;stroke-linejoin:bevel;stroke-miterlimit:4;stroke-dasharray:none;stroke-dashoffset:0;stroke-opacity:1;stop-color:#000000;stop-opacity:1"
       id="path4847"
       cx="480.49756"
       cy="301.77133"
       r="3.2692308" />
    <path
       style="font-variation-settings:normal;opacity:1;vector-effect:none;fill:none;fill-opacity:0.3;stroke:#454a54;stroke-width:1.5;stroke-linecap:round;stroke-linejoin:round;stroke-miterlimit:4;stroke-dasharray:none;stroke-dashoffset:0;stroke-opacity:1;stop-color:#000000;stop-opacity:1"
       d="m 480.49756,298.55257 v 3.15625"
       id="path4849" />
    <path
       id="rect4872"
       style="font-variation-settings:normal;opacity:1;vector-effect:none;fill:#babaab;fill-opacity:1;fill-rule:evenodd;stroke:#babaab;stroke-width:1.5;stroke-linecap:round;stroke-linejoin:miter;stroke-miterlimit:4;stroke-dasharray:none;stroke-dashoffset:0;stroke-opacity:1;stop-color:#000000;stop-opacity:1"
       d="m 144.52539,16.21875 v 254.3431 h 10 V 24.71875 H 285.75 v -8.5 z"
       transform="translate(312.67556,141.08382)"
       sodipodi:nodetypes="ccccccc" />
    <path
       id="rect844"
       style="font-variation-settings:normal;opacity:1;vector-effect:none;fill:#d1d1c7;fill-opacity:1;fill-rule:evenodd;stroke:#545445;stroke-width:1.5;stroke-linecap:round;stroke-linejoin:round;stroke-miterlimit:4;stroke-dasharray:none;stroke-dashoffset:0;stroke-opacity:1;stop-color:#000000;stop-opacity:1"
       d="M 438.97791,139.29476 V 413.14805 H 457.2009 V 157.30201 h 141.22456 v 255.84604 h 17.79029 V 139.29476 Z" />
    <rect
       style="font-variation-settings:normal;opacity:1;vector-effect:none;fill:#8f96a3;fill-opacity:1;fill-rule:evenodd;stroke:#454a54;stroke-width:1.5;stroke-linecap:butt;stroke-linejoin:bevel;stroke-miterlimit:4;stroke-dasharray:none;stroke-dashoffset:0;stroke-opacity:1;stop-color:#000000;stop-opacity:1"
       id="rect4887"
       width="65.145355"
       height="32.572678"
       x="495.24039"
       y="196.63116"
       ry="5.4702206" />
    <g
       aria-label="WC"
       id="text4891"
       style="font-weight:bold;font-size:26.2557px;font-family:sans-serif;-inkscape-font-specification:'sans-serif Bold';fill:#5c6370;fill-opacity:1;stroke:#454a54;stroke-width:1.5;stroke-linecap:round;stroke-linejoin:round;stroke-miterlimit:4;stroke-dasharray:none;stroke-opacity:1;stop-color:#000000">
      <path
         d="m 528.42893,221.63144 q -0.0769,0.30768 -0.21795,0.49998 -0.1282,0.17948 -0.39742,0.28205 -0.26923,0.0897 -0.69229,0.11538 -0.42307,0.0385 -1.07689,0.0385 -0.73075,0 -1.17946,-0.0385 -0.43589,-0.0256 -0.69229,-0.11538 -0.2564,-0.10257 -0.37178,-0.28205 -0.11539,-0.1923 -0.17949,-0.49998 l -2.65377,-10.51254 h -0.0256 l -2.51275,10.51254 q -0.0641,0.29486 -0.17949,0.48716 -0.11538,0.17948 -0.37178,0.28205 -0.24358,0.10256 -0.67947,0.1282 -0.42306,0.0385 -1.12817,0.0385 -0.74357,0 -1.19228,-0.0385 -0.43588,-0.0256 -0.69229,-0.11538 -0.2564,-0.10257 -0.37178,-0.28205 -0.11538,-0.1923 -0.19231,-0.49998 l -3.76912,-14.47397 q -0.11539,-0.46153 -0.12821,-0.71793 -0.0128,-0.26922 0.14103,-0.41025 0.16666,-0.14102 0.52562,-0.16666 0.37179,-0.0385 1.02562,-0.0385 0.60254,0 0.94869,0.0256 0.35896,0.0128 0.53845,0.0897 0.17948,0.0641 0.24358,0.20513 0.0641,0.1282 0.10256,0.37178 l 2.91018,12.70478 h 0.0128 l 3.02556,-12.61504 q 0.0513,-0.24358 0.1282,-0.39742 0.0897,-0.15385 0.28204,-0.23077 0.20512,-0.0897 0.55127,-0.11538 0.34614,-0.0385 0.92305,-0.0385 0.61537,0 0.97433,0.0256 0.37179,0.0256 0.56409,0.11538 0.20512,0.0769 0.29486,0.23077 0.0897,0.15384 0.14103,0.41024 l 3.12812,12.61504 h 0.0256 l 2.91018,-12.66632 q 0.0385,-0.20512 0.10256,-0.34614 0.0641,-0.15385 0.24358,-0.23077 0.17948,-0.0897 0.51281,-0.11538 0.33332,-0.0385 0.93587,-0.0385 0.56409,0 0.87177,0.0385 0.3205,0.0256 0.46153,0.16666 0.14102,0.14103 0.11538,0.42307 -0.0128,0.26922 -0.1282,0.74357 z"
         style="font-style:normal;font-variant:normal;font-weight:bold;font-stretch:normal;font-size:26.2557px;font-family:Calibri;-inkscape-font-specification:'Calibri Bold';fill:#5c6370;fill-opacity:1;stroke:#454a54;stroke-width:1.5;stroke-linecap:round;stroke-linejoin:round;stroke-miterlimit:4;stroke-dasharray:none;stroke-opacity:1"
         id="path11905" />
      <path
         d="m 545.90281,219.97763 q 0,0.32051 -0.0256,0.55127 -0.0128,0.21794 -0.0513,0.38461 -0.0385,0.15384 -0.10256,0.26922 -0.0641,0.11538 -0.20512,0.26922 -0.14102,0.14103 -0.55127,0.37179 -0.39743,0.23076 -0.98715,0.4487 -0.57691,0.20513 -1.3333,0.34615 -0.74357,0.14102 -1.61534,0.14102 -1.70508,0 -3.07684,-0.52563 -1.37176,-0.52562 -2.33327,-1.56406 -0.96151,-1.05125 -1.47432,-2.61531 -0.51281,-1.56406 -0.51281,-3.64093 0,-2.11532 0.56409,-3.75631 0.56409,-1.64098 1.57688,-2.75633 1.01279,-1.11536 2.42301,-1.69226 1.42304,-0.57691 3.12812,-0.57691 0.69229,0 1.3333,0.11538 0.64101,0.11538 1.17946,0.30768 0.55126,0.17949 0.98715,0.42307 0.43588,0.24358 0.60255,0.42307 0.17948,0.16666 0.24358,0.28204 0.0641,0.11538 0.10256,0.29486 0.0385,0.17949 0.0513,0.42307 0.0256,0.24358 0.0256,0.60255 0,0.3846 -0.0256,0.65382 -0.0256,0.26923 -0.0897,0.43589 -0.0641,0.16666 -0.15384,0.24358 -0.0897,0.0769 -0.20512,0.0769 -0.19231,0 -0.48717,-0.21794 -0.29486,-0.23076 -0.76921,-0.49998 -0.46153,-0.28205 -1.11536,-0.49999 -0.641,-0.23076 -1.53842,-0.23076 -0.98715,0 -1.76918,0.41024 -0.76921,0.39743 -1.32048,1.15382 -0.53844,0.74357 -0.82049,1.80764 -0.28204,1.06407 -0.28204,2.39737 0,1.4615 0.29486,2.53839 0.30769,1.06408 0.85896,1.75637 0.56408,0.69228 1.34611,1.03843 0.79485,0.33332 1.78201,0.33332 0.89741,0 1.55124,-0.20512 0.65382,-0.21794 1.11535,-0.47435 0.47435,-0.2564 0.76921,-0.46152 0.30768,-0.20512 0.47435,-0.20512 0.1282,0 0.20512,0.0513 0.0769,0.0513 0.1282,0.20512 0.0513,0.15384 0.0769,0.43589 0.0256,0.26922 0.0256,0.73074 z"
         style="font-style:normal;font-variant:normal;font-weight:bold;font-stretch:normal;font-size:26.2557px;font-family:Calibri;-inkscape-font-specification:'Calibri Bold';fill:#5c6370;fill-opacity:1;stroke:#454a54;stroke-width:1.5;stroke-linecap:round;stroke-linejoin:round;stroke-miterlimit:4;stroke-dasharray:none;stroke-opacity:1"
         id="path11907" />
    </g>
    <circle
       style="font-variation-settings:normal;opacity:1;vector-effect:none;fill:#5c6370;fill-opacity:1;fill-rule:evenodd;stroke:#454a54;stroke-width:1.5;stroke-linecap:butt;stroke-linejoin:bevel;stroke-miterlimit:4;stroke-dasharray:none;stroke-dashoffset:0;stroke-opacity:1;stop-color:#000000;stop-opacity:1"
       id="path4893"
       cx="500.7662"
       cy="212.9175"
       r="1.8959286" />
    <circle
       style="font-variation-settings:normal;opacity:1;vector-effect:none;fill:#5c6370;fill-opacity:1;fill-rule:evenodd;stroke:#454a54;stroke-width:1.5;stroke-linecap:butt;stroke-linejoin:bevel;stroke-miterlimit:4;stroke-dasharray:none;stroke-dashoffset:0;stroke-opacity:1;stop-color:#000000;stop-opacity:1"
       id="circle4895"
       cx="554.85986"
       cy="212.9175"
       r="1.8959286" />
  </g>
</svg>
