<?xml version="1.0" encoding="UTF-8" standalone="no"?>
<svg
   xmlns:dc="http://purl.org/dc/elements/1.1/"
   xmlns:cc="http://creativecommons.org/ns#"
   xmlns:rdf="http://www.w3.org/1999/02/22-rdf-syntax-ns#"
   xmlns:svg="http://www.w3.org/2000/svg"
   xmlns="http://www.w3.org/2000/svg"
   xmlns:sodipodi="http://sodipodi.sourceforge.net/DTD/sodipodi-0.dtd"
   xmlns:inkscape="http://www.inkscape.org/namespaces/inkscape"
   width="180"
   height="282.12909"
   viewBox="0 0 180 282.12909"
   version="1.1"
   id="svg8"
   inkscape:version="1.0.1 (3bc2e813f5, 2020-09-07)"
   sodipodi:docname="Cedule_roboticka_laborator.svg">
  <defs
     id="defs2" />
  <sodipodi:namedview
     id="base"
     pagecolor="#e6e6e6"
     bordercolor="#666666"
     borderopacity="1.0"
     inkscape:pageopacity="0"
     inkscape:pageshadow="2"
     inkscape:zoom="2.8284271"
     inkscape:cx="98.890935"
     inkscape:cy="110.69876"
     inkscape:document-units="px"
     inkscape:current-layer="layer1"
     showgrid="false"
     units="px"
     width="2000px"
     inkscape:pagecheckerboard="false"
     showborder="true"
     borderlayer="true"
     inkscape:window-width="1920"
     inkscape:window-height="1017"
     inkscape:window-x="-8"
     inkscape:window-y="-8"
     inkscape:window-maximized="1"
     inkscape:document-rotation="0"
     fit-margin-top="5"
     lock-margins="true"
     fit-margin-left="5"
     fit-margin-right="5"
     fit-margin-bottom="5"
     showguides="false" />
  <metadata
     id="metadata5">
    <rdf:RDF>
      <cc:Work
         rdf:about="">
        <dc:format>image/svg+xml</dc:format>
        <dc:type
           rdf:resource="http://purl.org/dc/dcmitype/StillImage" />
        <dc:title></dc:title>
      </cc:Work>
    </rdf:RDF>
  </metadata>
  <g
     inkscape:label="Vrstva 1"
     inkscape:groupmode="layer"
     id="layer1"
     transform="translate(-145.85525,-140.97054)">
    <rect
       style="font-variation-settings:normal;opacity:1;vector-effect:none;fill:#d1cfc7;fill-opacity:1;fill-rule:evenodd;stroke:#625f51;stroke-width:1.61139;stroke-linecap:butt;stroke-linejoin:bevel;stroke-miterlimit:4;stroke-dasharray:none;stroke-dashoffset:0;stroke-opacity:1;stop-color:#000000;stop-opacity:1"
       id="rect1899"
       width="147.46352"
       height="83.730179"
       x="166.18901"
       y="227.90163"
       ry="1.3821502"
       transform="rotate(0.95540923)" />
    <g
       aria-label="ZDE JE
ROBOTICKÁ
LABORATOŘ"
       transform="rotate(0.95540923,-92.366117,-11078.114)"
       id="text1903"
       style="font-weight:bold;font-size:16px;line-height:0;font-family:sans-serif;-inkscape-font-specification:'sans-serif Bold';fill:#000000;stroke-width:0.5;stroke-linejoin:bevel;stop-color:#000000">
      <path
         d="m 401.457,248.69585 q 0,0.33984 -0.0352,0.57422 -0.0234,0.23437 -0.082,0.38671 -0.0586,0.14063 -0.15234,0.19922 -0.082,0.0586 -0.1875,0.0586 h -8.94141 q -0.46875,0 -0.72656,-0.26953 -0.24609,-0.26954 -0.24609,-0.78516 v -0.51563 q 0,-0.23437 0.0234,-0.42187 0.0352,-0.19922 0.10547,-0.39844 0.0703,-0.19922 0.19922,-0.43359 0.14063,-0.23438 0.33985,-0.5625 l 5.88281,-9.32813 h -5.83594 q -0.14062,0 -0.24609,-0.0586 -0.0937,-0.0703 -0.16407,-0.21094 -0.0586,-0.14062 -0.0937,-0.375 -0.0234,-0.23437 -0.0234,-0.5625 0,-0.35156 0.0234,-0.58594 0.0352,-0.24609 0.0937,-0.38671 0.0703,-0.15235 0.16407,-0.21094 0.10547,-0.0586 0.24609,-0.0586 h 8.37891 q 0.48047,0 0.70312,0.2461 0.23438,0.24609 0.23438,0.6914 v 0.57422 q 0,0.31641 -0.0352,0.55078 -0.0234,0.22266 -0.10547,0.44532 -0.0703,0.21093 -0.19922,0.44531 -0.1289,0.22266 -0.32812,0.53906 l -5.78906,9.19922 h 6.33984 q 0.22266,0 0.33984,0.28125 0.11719,0.28125 0.11719,0.97266 z"
         style="font-style:normal;font-variant:normal;font-weight:bold;font-stretch:normal;font-size:24px;line-height:1;font-family:Calibri;-inkscape-font-specification:'Calibri Bold';text-align:center;text-anchor:middle"
         id="path3628" />
      <path
         d="m 416.21091,242.10991 q 0,2.08594 -0.55078,3.57422 -0.53907,1.47656 -1.5586,2.41406 -1.01953,0.9375 -2.48437,1.38281 -1.45313,0.4336 -3.46875,0.4336 h -3.6211 q -0.38672,0 -0.65625,-0.22266 -0.25781,-0.23437 -0.25781,-0.75 v -13.21875 q 0,-0.51562 0.25781,-0.73828 0.26953,-0.23438 0.65625,-0.23438 h 3.89063 q 2.02734,0 3.43359,0.48047 1.41797,0.46875 2.37891,1.40625 0.97265,0.92578 1.47656,2.29688 0.50391,1.37109 0.50391,3.17578 z m -3.1875,0.10547 q 0,-1.07813 -0.25782,-2.00391 -0.24609,-0.92578 -0.80859,-1.60547 -0.55078,-0.67968 -1.42969,-1.05468 -0.86718,-0.38672 -2.28515,-0.38672 h -1.5586 v 10.3125 h 1.60547 q 1.26563,0 2.13281,-0.32813 0.86719,-0.32812 1.44141,-0.98437 0.58594,-0.66797 0.86719,-1.65235 0.29297,-0.98437 0.29297,-2.29687 z"
         style="font-style:normal;font-variant:normal;font-weight:bold;font-stretch:normal;font-size:24px;line-height:1;font-family:Calibri;-inkscape-font-specification:'Calibri Bold';text-align:center;text-anchor:middle"
         id="path3630" />
      <path
         d="m 427.73044,248.70757 q 0,0.33984 -0.0352,0.57421 -0.0234,0.22266 -0.082,0.36329 -0.0586,0.14062 -0.15234,0.21093 -0.082,0.0586 -0.1875,0.0586 h -7.61719 q -0.38672,0 -0.65625,-0.22266 -0.25781,-0.23437 -0.25781,-0.75 v -13.21875 q 0,-0.51562 0.25781,-0.73828 0.26953,-0.23438 0.65625,-0.23438 h 7.57031 q 0.10547,0 0.1875,0.0586 0.082,0.0586 0.14063,0.21094 0.0586,0.14062 0.082,0.375 0.0351,0.22265 0.0351,0.57421 0,0.32813 -0.0351,0.5625 -0.0234,0.22266 -0.082,0.36329 -0.0586,0.14062 -0.14063,0.21093 -0.082,0.0586 -0.1875,0.0586 h -5.41406 v 3.70312 h 4.58203 q 0.10547,0 0.1875,0.0703 0.0937,0.0586 0.15234,0.19922 0.0586,0.12891 0.082,0.36328 0.0352,0.22266 0.0352,0.55079 0,0.33984 -0.0352,0.5625 -0.0234,0.22265 -0.082,0.36328 -0.0586,0.1289 -0.15234,0.1875 -0.082,0.0586 -0.1875,0.0586 h -4.58203 v 4.27734 h 5.46094 q 0.10547,0 0.1875,0.0703 0.0937,0.0586 0.15234,0.19922 0.0586,0.14062 0.082,0.375 0.0352,0.22265 0.0352,0.5625 z"
         style="font-style:normal;font-variant:normal;font-weight:bold;font-stretch:normal;font-size:24px;line-height:1;font-family:Calibri;-inkscape-font-specification:'Calibri Bold';text-align:center;text-anchor:middle"
         id="path3632" />
      <path
         d="m 440.53903,245.69585 q 0,1.03125 -0.19922,1.86328 -0.1875,0.82031 -0.65625,1.40625 -0.45703,0.57422 -1.20703,0.8789 -0.75,0.30469 -1.85156,0.30469 -0.35156,0 -0.70313,-0.0586 -0.33984,-0.0469 -0.63281,-0.12891 -0.28125,-0.082 -0.49219,-0.17578 -0.21093,-0.0937 -0.28125,-0.16406 -0.0703,-0.082 -0.11718,-0.16406 -0.0469,-0.082 -0.082,-0.21094 -0.0352,-0.14063 -0.0469,-0.33985 -0.0117,-0.19921 -0.0117,-0.5039 0,-0.39844 0.0117,-0.66797 0.0234,-0.28125 0.0586,-0.43359 0.0469,-0.16407 0.11719,-0.22266 0.082,-0.0703 0.19922,-0.0703 0.10547,0 0.24609,0.082 0.14063,0.0703 0.31641,0.15234 0.17578,0.082 0.41016,0.16406 0.23437,0.0703 0.55078,0.0703 0.3164,0 0.55078,-0.082 0.24609,-0.0937 0.39844,-0.30469 0.16406,-0.22266 0.24609,-0.58594 0.082,-0.36328 0.082,-0.9375 v -10.41797 q 0,-0.11719 0.0703,-0.19922 0.082,-0.0937 0.2461,-0.15234 0.17578,-0.0586 0.48047,-0.082 0.30468,-0.0352 0.75,-0.0352 0.44531,0 0.73828,0.0352 0.29297,0.0234 0.46875,0.082 0.1875,0.0586 0.25781,0.15234 0.082,0.082 0.082,0.19922 z"
         style="font-style:normal;font-variant:normal;font-weight:bold;font-stretch:normal;font-size:24px;line-height:1;font-family:Calibri;-inkscape-font-specification:'Calibri Bold';text-align:center;text-anchor:middle"
         id="path3634" />
      <path
         d="m 452.80856,248.70757 q 0,0.33984 -0.0351,0.57421 -0.0234,0.22266 -0.082,0.36329 -0.0586,0.14062 -0.15235,0.21093 -0.082,0.0586 -0.1875,0.0586 h -7.61719 q -0.38671,0 -0.65625,-0.22266 -0.25781,-0.23437 -0.25781,-0.75 v -13.21875 q 0,-0.51562 0.25781,-0.73828 0.26954,-0.23438 0.65625,-0.23438 h 7.57032 q 0.10547,0 0.1875,0.0586 0.082,0.0586 0.14062,0.21094 0.0586,0.14062 0.082,0.375 0.0352,0.22265 0.0352,0.57421 0,0.32813 -0.0352,0.5625 -0.0234,0.22266 -0.082,0.36329 -0.0586,0.14062 -0.14062,0.21093 -0.082,0.0586 -0.1875,0.0586 h -5.41407 v 3.70312 h 4.58204 q 0.10546,0 0.1875,0.0703 0.0937,0.0586 0.15234,0.19922 0.0586,0.12891 0.082,0.36328 0.0352,0.22266 0.0352,0.55079 0,0.33984 -0.0352,0.5625 -0.0234,0.22265 -0.082,0.36328 -0.0586,0.1289 -0.15234,0.1875 -0.082,0.0586 -0.1875,0.0586 h -4.58204 v 4.27734 h 5.46094 q 0.10547,0 0.1875,0.0703 0.0937,0.0586 0.15235,0.19922 0.0586,0.14062 0.082,0.375 0.0351,0.22265 0.0351,0.5625 z"
         style="font-style:normal;font-variant:normal;font-weight:bold;font-stretch:normal;font-size:24px;line-height:1;font-family:Calibri;-inkscape-font-specification:'Calibri Bold';text-align:center;text-anchor:middle"
         id="path3636" />
      <path
         d="m 376.42575,273.51616 q 0,0.12891 -0.0469,0.22266 -0.0469,0.082 -0.22266,0.14062 -0.17578,0.0586 -0.51563,0.082 -0.33984,0.0234 -0.92578,0.0234 -0.49218,0 -0.78515,-0.0234 -0.29297,-0.0234 -0.46875,-0.082 -0.16407,-0.0703 -0.23438,-0.16406 -0.0703,-0.10547 -0.11719,-0.2461 l -1.35937,-3.38671 q -0.24609,-0.57422 -0.48047,-1.01954 -0.23437,-0.44531 -0.52734,-0.73828 -0.28125,-0.30468 -0.65625,-0.45703 -0.375,-0.15234 -0.86719,-0.15234 h -0.96094 v 5.77734 q 0,0.11719 -0.082,0.21094 -0.0703,0.0937 -0.24609,0.15234 -0.17578,0.0586 -0.46875,0.0937 -0.29297,0.0352 -0.75,0.0352 -0.44532,0 -0.75,-0.0352 -0.29297,-0.0351 -0.46875,-0.0937 -0.17578,-0.0586 -0.2461,-0.15234 -0.0703,-0.0937 -0.0703,-0.21094 v -13.76953 q 0,-0.51562 0.25781,-0.73828 0.26953,-0.23438 0.65625,-0.23438 h 3.92578 q 0.59766,0 0.98438,0.0234 0.38672,0.0234 0.70312,0.0586 0.91407,0.1289 1.64063,0.44531 0.73828,0.3164 1.24219,0.83203 0.51562,0.50391 0.78515,1.20703 0.26953,0.69141 0.26953,1.59375 0,0.76172 -0.19921,1.39453 -0.1875,0.6211 -0.5625,1.11328 -0.375,0.49219 -0.92579,0.85547 -0.55078,0.36328 -1.2539,0.58594 0.33984,0.16406 0.63281,0.39844 0.30469,0.23437 0.5625,0.57422 0.26953,0.32812 0.50391,0.76171 0.23437,0.42188 0.45703,0.96094 l 1.27734,2.98828 q 0.17578,0.44532 0.23438,0.65625 0.0586,0.19922 0.0586,0.31641 z m -3.97266,-10.28906 q 0,-0.75 -0.33984,-1.26563 -0.33984,-0.51562 -1.11328,-0.72656 -0.23438,-0.0586 -0.53906,-0.0937 -0.29297,-0.0352 -0.82032,-0.0352 h -1.38281 v 4.30078 h 1.57031 q 0.65625,0 1.14844,-0.15234 0.49219,-0.16406 0.82031,-0.44531 0.32813,-0.29297 0.49219,-0.69141 0.16406,-0.39844 0.16406,-0.89062 z"
         style="font-style:normal;font-variant:normal;font-weight:bold;font-stretch:normal;font-size:24px;line-height:1;font-family:Calibri;-inkscape-font-specification:'Calibri Bold';text-align:center;text-anchor:middle"
         id="path3638" />
      <path
         d="m 392.09372,266.15678 q 0,1.88672 -0.46875,3.375 -0.46875,1.48829 -1.39453,2.53125 -0.92578,1.03125 -2.29688,1.58204 -1.35937,0.53906 -3.15234,0.53906 -1.76953,0 -3.09375,-0.45703 -1.3125,-0.46875 -2.19141,-1.41797 -0.8789,-0.94922 -1.32422,-2.41406 -0.43359,-1.46485 -0.43359,-3.46875 0,-1.83985 0.46875,-3.30469 0.46875,-1.47656 1.39453,-2.50781 0.92578,-1.03125 2.28516,-1.58204 1.37109,-0.55078 3.17578,-0.55078 1.72266,0 3.03516,0.45703 1.32421,0.45704 2.20312,1.40625 0.89063,0.94922 1.33594,2.40235 0.45703,1.4414 0.45703,3.41015 z m -3.23438,0.16407 q 0,-1.19532 -0.1875,-2.16797 -0.1875,-0.98438 -0.64453,-1.67578 -0.44531,-0.70313 -1.19531,-1.07813 -0.75,-0.38672 -1.875,-0.38672 -1.13672,0 -1.89844,0.4336 -0.76172,0.42187 -1.23047,1.13672 -0.46875,0.71484 -0.66796,1.67578 -0.1875,0.94922 -0.1875,2.01562 0,1.24219 0.1875,2.23828 0.1875,0.98438 0.63281,1.6875 0.44531,0.70313 1.19531,1.07813 0.75,0.36328 1.88672,0.36328 1.13672,0 1.89844,-0.42188 0.76172,-0.42187 1.23047,-1.14843 0.46875,-0.72657 0.65625,-1.6875 0.19921,-0.97266 0.19921,-2.0625 z"
         style="font-style:normal;font-variant:normal;font-weight:bold;font-stretch:normal;font-size:24px;line-height:1;font-family:Calibri;-inkscape-font-specification:'Calibri Bold';text-align:center;text-anchor:middle"
         id="path3640" />
      <path
         d="m 405.66403,269.36772 q 0,0.8086 -0.22265,1.46485 -0.22266,0.65625 -0.6211,1.16015 -0.38672,0.50391 -0.9375,0.86719 -0.53906,0.36328 -1.19531,0.59766 -0.65625,0.23437 -1.40625,0.35156 -0.73828,0.10547 -1.65234,0.10547 h -4.03125 q -0.38672,0 -0.65625,-0.22266 -0.25782,-0.23437 -0.25782,-0.75 v -13.21875 q 0,-0.51562 0.25782,-0.73828 0.26953,-0.23438 0.65625,-0.23438 h 3.80859 q 1.39453,0 2.35547,0.23438 0.97265,0.23437 1.6289,0.71484 0.66797,0.46875 1.01954,1.19532 0.35156,0.72656 0.35156,1.71093 0,0.55078 -0.14063,1.04297 -0.14062,0.48047 -0.41015,0.87891 -0.26953,0.39844 -0.66797,0.70312 -0.38672,0.30469 -0.89063,0.49219 0.64453,0.11719 1.1836,0.41016 0.55078,0.29297 0.94922,0.76172 0.41015,0.45703 0.64453,1.07812 0.23437,0.62109 0.23437,1.39453 z m -3.98437,-6.38672 q 0,-0.45703 -0.14063,-0.82031 -0.14062,-0.36328 -0.42187,-0.59766 -0.28125,-0.24609 -0.71485,-0.375 -0.42187,-0.1289 -1.13672,-0.1289 H 397.707 v 3.9375 h 1.72266 q 0.66797,0 1.0664,-0.15235 0.39844,-0.16406 0.65625,-0.43359 0.26953,-0.28125 0.39844,-0.64453 0.12891,-0.375 0.12891,-0.78516 z m 0.78515,6.49219 q 0,-0.52734 -0.17578,-0.9375 -0.17578,-0.42187 -0.51562,-0.70312 -0.33985,-0.28125 -0.86719,-0.4336 -0.52734,-0.15234 -1.37109,-0.15234 H 397.707 v 4.3125 h 2.22656 q 0.64453,0 1.07813,-0.12891 0.44531,-0.14062 0.76172,-0.39844 0.32812,-0.26953 0.5039,-0.65625 0.1875,-0.39843 0.1875,-0.90234 z"
         style="font-style:normal;font-variant:normal;font-weight:bold;font-stretch:normal;font-size:24px;line-height:1;font-family:Calibri;-inkscape-font-specification:'Calibri Bold';text-align:center;text-anchor:middle"
         id="path3642" />
      <path
         d="m 421.77731,266.15678 q 0,1.88672 -0.46875,3.375 -0.46875,1.48829 -1.39453,2.53125 -0.92578,1.03125 -2.29687,1.58204 -1.35938,0.53906 -3.15235,0.53906 -1.76953,0 -3.09375,-0.45703 -1.3125,-0.46875 -2.1914,-1.41797 -0.87891,-0.94922 -1.32422,-2.41406 -0.4336,-1.46485 -0.4336,-3.46875 0,-1.83985 0.46875,-3.30469 0.46875,-1.47656 1.39454,-2.50781 0.92578,-1.03125 2.28515,-1.58204 1.3711,-0.55078 3.17578,-0.55078 1.72266,0 3.03516,0.45703 1.32422,0.45704 2.20312,1.40625 0.89063,0.94922 1.33594,2.40235 0.45703,1.4414 0.45703,3.41015 z m -3.23437,0.16407 q 0,-1.19532 -0.1875,-2.16797 -0.1875,-0.98438 -0.64453,-1.67578 -0.44532,-0.70313 -1.19532,-1.07813 -0.75,-0.38672 -1.875,-0.38672 -1.13671,0 -1.89843,0.4336 -0.76172,0.42187 -1.23047,1.13672 -0.46875,0.71484 -0.66797,1.67578 -0.1875,0.94922 -0.1875,2.01562 0,1.24219 0.1875,2.23828 0.1875,0.98438 0.63281,1.6875 0.44531,0.70313 1.19531,1.07813 0.75,0.36328 1.88672,0.36328 1.13672,0 1.89844,-0.42188 0.76172,-0.42187 1.23047,-1.14843 0.46875,-0.72657 0.65625,-1.6875 0.19922,-0.97266 0.19922,-2.0625 z"
         style="font-style:normal;font-variant:normal;font-weight:bold;font-stretch:normal;font-size:24px;line-height:1;font-family:Calibri;-inkscape-font-specification:'Calibri Bold';text-align:center;text-anchor:middle"
         id="path3644" />
      <path
         d="m 433.92966,260.01616 q 0,0.33984 -0.0352,0.58594 -0.0234,0.23437 -0.082,0.38672 -0.0586,0.14062 -0.15234,0.21093 -0.082,0.0703 -0.1875,0.0703 h -3.79688 v 12.22265 q 0,0.11719 -0.082,0.21094 -0.0703,0.0937 -0.24609,0.15234 -0.17579,0.0586 -0.48047,0.0937 -0.29297,0.0352 -0.73828,0.0352 -0.44532,0 -0.75,-0.0352 -0.29297,-0.0351 -0.46875,-0.0937 -0.17579,-0.0586 -0.25782,-0.15234 -0.0703,-0.0937 -0.0703,-0.21094 v -12.22265 h -3.79687 q -0.11719,0 -0.19922,-0.0703 -0.082,-0.0703 -0.14063,-0.21093 -0.0586,-0.15235 -0.0937,-0.38672 -0.0234,-0.2461 -0.0234,-0.58594 0,-0.35156 0.0234,-0.59766 0.0352,-0.24609 0.0937,-0.38672 0.0586,-0.15234 0.14063,-0.21093 0.082,-0.0703 0.19922,-0.0703 h 10.6875 q 0.10546,0 0.1875,0.0703 0.0937,0.0586 0.15234,0.21093 0.0586,0.14063 0.082,0.38672 0.0352,0.2461 0.0352,0.59766 z"
         style="font-style:normal;font-variant:normal;font-weight:bold;font-stretch:normal;font-size:24px;line-height:1;font-family:Calibri;-inkscape-font-specification:'Calibri Bold';text-align:center;text-anchor:middle"
         id="path3646" />
      <path
         d="m 438.81638,273.49272 q 0,0.11719 -0.082,0.21094 -0.0703,0.0937 -0.24609,0.15234 -0.17578,0.0586 -0.46875,0.0937 -0.29297,0.0352 -0.75,0.0352 -0.44531,0 -0.75,-0.0352 -0.29297,-0.0351 -0.46875,-0.0937 -0.17578,-0.0586 -0.25781,-0.15234 -0.0703,-0.0937 -0.0703,-0.21094 v -14.32031 q 0,-0.11719 0.0703,-0.21094 0.082,-0.0937 0.25781,-0.15234 0.1875,-0.0586 0.48047,-0.0937 0.29297,-0.0352 0.73828,-0.0352 0.45703,0 0.75,0.0352 0.29297,0.0352 0.46875,0.0937 0.17578,0.0586 0.24609,0.15234 0.082,0.0937 0.082,0.21094 z"
         style="font-style:normal;font-variant:normal;font-weight:bold;font-stretch:normal;font-size:24px;line-height:1;font-family:Calibri;-inkscape-font-specification:'Calibri Bold';text-align:center;text-anchor:middle"
         id="path3648" />
      <path
         d="m 452.60934,271.61772 q 0,0.29297 -0.0234,0.50391 -0.0117,0.19922 -0.0469,0.35156 -0.0352,0.14063 -0.0937,0.24609 -0.0586,0.10547 -0.1875,0.2461 -0.1289,0.1289 -0.5039,0.33984 -0.36329,0.21094 -0.90235,0.41016 -0.52734,0.1875 -1.21875,0.3164 -0.67969,0.12891 -1.47656,0.12891 -1.55859,0 -2.8125,-0.48047 -1.25391,-0.48047 -2.13281,-1.42969 -0.87891,-0.96093 -1.34766,-2.39062 -0.46875,-1.42969 -0.46875,-3.32813 0,-1.93359 0.51563,-3.43359 0.51562,-1.5 1.4414,-2.51953 0.92578,-1.01953 2.21485,-1.54688 1.30078,-0.52734 2.85937,-0.52734 0.63281,0 1.21875,0.10547 0.58594,0.10547 1.07813,0.28125 0.5039,0.16406 0.90234,0.38672 0.39844,0.22265 0.55078,0.38672 0.16406,0.15234 0.22266,0.25781 0.0586,0.10547 0.0937,0.26953 0.0351,0.16406 0.0469,0.38672 0.0234,0.22266 0.0234,0.55078 0,0.35156 -0.0234,0.59766 -0.0234,0.24609 -0.082,0.39843 -0.0586,0.15235 -0.14062,0.22266 -0.082,0.0703 -0.1875,0.0703 -0.17579,0 -0.44532,-0.19922 -0.26953,-0.21093 -0.70312,-0.45703 -0.42188,-0.25781 -1.01953,-0.45703 -0.58594,-0.21094 -1.40625,-0.21094 -0.90235,0 -1.61719,0.375 -0.70313,0.36329 -1.20703,1.05469 -0.49219,0.67969 -0.75,1.65235 -0.25781,0.97265 -0.25781,2.1914 0,1.33594 0.26953,2.32031 0.28125,0.97266 0.78515,1.60547 0.51563,0.63282 1.23047,0.94922 0.72656,0.30469 1.62891,0.30469 0.82031,0 1.41797,-0.1875 0.59765,-0.19922 1.01953,-0.43359 0.43359,-0.23438 0.70312,-0.42188 0.28125,-0.1875 0.4336,-0.1875 0.11718,0 0.1875,0.0469 0.0703,0.0469 0.11718,0.1875 0.0469,0.14062 0.0703,0.39843 0.0234,0.2461 0.0234,0.66797 z"
         style="font-style:normal;font-variant:normal;font-weight:bold;font-stretch:normal;font-size:24px;line-height:1;font-family:Calibri;-inkscape-font-specification:'Calibri Bold';text-align:center;text-anchor:middle"
         id="path3650" />
      <path
         d="m 465.89841,273.45757 q 0,0.1289 -0.0703,0.23437 -0.0586,0.0937 -0.24609,0.16406 -0.17578,0.0586 -0.49219,0.0937 -0.3164,0.0352 -0.79687,0.0352 -0.76172,0 -1.10156,-0.0586 -0.32813,-0.0586 -0.48047,-0.17579 -0.14063,-0.11718 -0.22266,-0.28125 l -4.58203,-7.19531 v 7.19531 q 0,0.12891 -0.0703,0.22266 -0.0703,0.0937 -0.2461,0.16406 -0.17578,0.0586 -0.46875,0.0937 -0.29297,0.0352 -0.75,0.0352 -0.44531,0 -0.75,-0.0352 -0.29297,-0.0351 -0.46875,-0.0937 -0.17578,-0.0703 -0.25781,-0.16406 -0.0703,-0.0937 -0.0703,-0.22266 v -14.28515 q 0,-0.12891 0.0703,-0.22266 0.082,-0.0937 0.25781,-0.15234 0.17578,-0.0586 0.46875,-0.0937 0.30469,-0.0352 0.75,-0.0352 0.45703,0 0.75,0.0352 0.29297,0.0352 0.46875,0.0937 0.17578,0.0586 0.2461,0.15234 0.0703,0.0937 0.0703,0.22266 v 6.45703 l 4.44141,-6.44531 q 0.082,-0.15235 0.19921,-0.2461 0.11719,-0.10547 0.30469,-0.16406 0.1875,-0.0586 0.48047,-0.082 0.29297,-0.0234 0.75,-0.0234 0.46875,0 0.77344,0.0352 0.30469,0.0352 0.48047,0.10547 0.1875,0.0586 0.25781,0.15234 0.0703,0.0937 0.0703,0.21094 0,0.19922 -0.10547,0.41015 -0.10547,0.21094 -0.39843,0.66797 l -4.16016,5.44922 4.53516,6.85547 q 0.25781,0.48047 0.30468,0.64453 0.0586,0.15235 0.0586,0.2461 z"
         style="font-style:normal;font-variant:normal;font-weight:bold;font-stretch:normal;font-size:24px;line-height:1;font-family:Calibri;-inkscape-font-specification:'Calibri Bold';text-align:center;text-anchor:middle"
         id="path3652" />
      <path
         d="m 480.37106,272.76616 q 0.14063,0.42187 0.17578,0.66797 0.0352,0.24609 -0.0937,0.375 -0.1289,0.11719 -0.45703,0.14062 -0.32812,0.0352 -0.90234,0.0352 -0.59766,0 -0.9375,-0.0234 -0.32813,-0.0117 -0.50391,-0.0586 -0.17578,-0.0586 -0.24609,-0.15235 -0.0703,-0.0937 -0.11719,-0.24609 l -1.01953,-3.04687 h -5.69531 l -0.96094,2.96484 q -0.0469,0.16406 -0.12891,0.28125 -0.0703,0.10547 -0.24609,0.17578 -0.16406,0.0586 -0.48047,0.082 -0.30469,0.0234 -0.80859,0.0234 -0.53906,0 -0.84375,-0.0352 -0.30469,-0.0351 -0.42188,-0.16406 -0.11718,-0.14062 -0.082,-0.38672 0.0352,-0.24609 0.17578,-0.65625 l 4.67578,-13.45312 q 0.0703,-0.19922 0.16407,-0.31641 0.0937,-0.12891 0.29297,-0.1875 0.21093,-0.0703 0.57421,-0.082 0.36329,-0.0234 0.96094,-0.0234 0.69141,0 1.10156,0.0234 0.41016,0.0117 0.63282,0.082 0.23437,0.0586 0.32812,0.1875 0.10547,0.12891 0.17578,0.35156 z m -6.96093,-11.12109 h -0.0117 l -2.14453,6.44531 h 4.30078 z m 0.80859,-6.98438 q 0.15234,-0.17578 0.29297,-0.28125 0.15234,-0.10547 0.35156,-0.16406 0.21094,-0.0586 0.50391,-0.0703 0.29297,-0.0234 0.72656,-0.0234 0.53906,0 0.83203,0.0703 0.30469,0.0703 0.41016,0.1875 0.11718,0.10547 0.0586,0.24609 -0.0586,0.14063 -0.22266,0.29297 l -2.60156,2.34375 q -0.11719,0.10547 -0.24609,0.1875 -0.11719,0.0703 -0.29297,0.12891 -0.17578,0.0469 -0.42188,0.0703 -0.24609,0.0234 -0.60937,0.0234 -0.39844,0 -0.64453,-0.0352 -0.23438,-0.0351 -0.33985,-0.10547 -0.0937,-0.082 -0.0703,-0.19921 0.0234,-0.11719 0.16406,-0.28125 z m -3.48047,4.08984 z"
         style="font-style:normal;font-variant:normal;font-weight:bold;font-stretch:normal;font-size:24px;line-height:1;font-family:Calibri;-inkscape-font-specification:'Calibri Bold';text-align:center;text-anchor:middle"
         id="path3654" />
      <path
         d="m 371.39841,296.62553 q 0,0.35157 -0.0352,0.59766 -0.0234,0.23438 -0.082,0.39844 -0.0586,0.15234 -0.15234,0.22265 -0.082,0.0703 -0.19922,0.0703 h -6.94922 q -0.38672,0 -0.65625,-0.22266 -0.25781,-0.23437 -0.25781,-0.75 v -13.76953 q 0,-0.11719 0.0703,-0.21094 0.082,-0.0937 0.25781,-0.15234 0.17578,-0.0586 0.46875,-0.0937 0.30469,-0.0352 0.75,-0.0352 0.45703,0 0.75,0.0352 0.29297,0.0352 0.46875,0.0937 0.17578,0.0586 0.24609,0.15234 0.082,0.0937 0.082,0.21094 v 12.19922 h 4.76953 q 0.11718,0 0.19922,0.0703 0.0937,0.0586 0.15234,0.21094 0.0586,0.14062 0.082,0.38672 0.0352,0.23437 0.0352,0.58593 z"
         style="font-style:normal;font-variant:normal;font-weight:bold;font-stretch:normal;font-size:24px;line-height:1;font-family:Calibri;-inkscape-font-specification:'Calibri Bold';text-align:center;text-anchor:middle"
         id="path3656" />
      <path
         d="m 385.63669,296.76616 q 0.14062,0.42187 0.17578,0.66797 0.0352,0.24609 -0.0937,0.375 -0.12891,0.11719 -0.45703,0.14062 -0.32813,0.0352 -0.90235,0.0352 -0.59765,0 -0.9375,-0.0234 -0.32812,-0.0117 -0.5039,-0.0586 -0.17578,-0.0586 -0.2461,-0.15235 -0.0703,-0.0937 -0.11718,-0.24609 l -1.01953,-3.04687 h -5.69532 l -0.96093,2.96484 q -0.0469,0.16406 -0.12891,0.28125 -0.0703,0.10547 -0.24609,0.17578 -0.16407,0.0586 -0.48047,0.082 -0.30469,0.0234 -0.8086,0.0234 -0.53906,0 -0.84375,-0.0352 -0.30468,-0.0351 -0.42187,-0.16406 -0.11719,-0.14062 -0.082,-0.38672 0.0351,-0.24609 0.17578,-0.65625 l 4.67578,-13.45312 q 0.0703,-0.19922 0.16406,-0.31641 0.0937,-0.12891 0.29297,-0.1875 0.21094,-0.0703 0.57422,-0.082 0.36328,-0.0234 0.96094,-0.0234 0.6914,0 1.10156,0.0234 0.41016,0.0117 0.63281,0.082 0.23438,0.0586 0.32813,0.1875 0.10547,0.12891 0.17578,0.35156 z m -6.96094,-11.12109 h -0.0117 l -2.14453,6.44531 h 4.30078 z"
         style="font-style:normal;font-variant:normal;font-weight:bold;font-stretch:normal;font-size:24px;line-height:1;font-family:Calibri;-inkscape-font-specification:'Calibri Bold';text-align:center;text-anchor:middle"
         id="path3658" />
      <path
         d="m 398.73825,293.36772 q 0,0.8086 -0.22266,1.46485 -0.22265,0.65625 -0.62109,1.16015 -0.38672,0.50391 -0.9375,0.86719 -0.53906,0.36328 -1.19531,0.59766 -0.65625,0.23437 -1.40625,0.35156 -0.73828,0.10547 -1.65235,0.10547 h -4.03125 q -0.38671,0 -0.65625,-0.22266 -0.25781,-0.23437 -0.25781,-0.75 v -13.21875 q 0,-0.51562 0.25781,-0.73828 0.26954,-0.23438 0.65625,-0.23438 h 3.8086 q 1.39453,0 2.35547,0.23438 0.97265,0.23437 1.6289,0.71484 0.66797,0.46875 1.01953,1.19532 0.35157,0.72656 0.35157,1.71093 0,0.55078 -0.14063,1.04297 -0.14062,0.48047 -0.41015,0.87891 -0.26954,0.39844 -0.66797,0.70312 -0.38672,0.30469 -0.89063,0.49219 0.64453,0.11719 1.1836,0.41016 0.55078,0.29297 0.94921,0.76172 0.41016,0.45703 0.64454,1.07812 0.23437,0.62109 0.23437,1.39453 z m -3.98437,-6.38672 q 0,-0.45703 -0.14063,-0.82031 -0.14062,-0.36328 -0.42187,-0.59766 -0.28125,-0.24609 -0.71485,-0.375 -0.42187,-0.1289 -1.13672,-0.1289 h -1.55859 v 3.9375 h 1.72266 q 0.66796,0 1.0664,-0.15235 0.39844,-0.16406 0.65625,-0.43359 0.26953,-0.28125 0.39844,-0.64453 0.12891,-0.375 0.12891,-0.78516 z m 0.78515,6.49219 q 0,-0.52734 -0.17578,-0.9375 -0.17578,-0.42187 -0.51562,-0.70312 -0.33985,-0.28125 -0.86719,-0.4336 -0.52735,-0.15234 -1.3711,-0.15234 h -1.82812 v 4.3125 h 2.22656 q 0.64453,0 1.07813,-0.12891 0.44531,-0.14062 0.76172,-0.39844 0.32812,-0.26953 0.5039,-0.65625 0.1875,-0.39843 0.1875,-0.90234 z"
         style="font-style:normal;font-variant:normal;font-weight:bold;font-stretch:normal;font-size:24px;line-height:1;font-family:Calibri;-inkscape-font-specification:'Calibri Bold';text-align:center;text-anchor:middle"
         id="path3660" />
      <path
         d="m 414.85153,290.15678 q 0,1.88672 -0.46875,3.375 -0.46875,1.48829 -1.39453,2.53125 -0.92578,1.03125 -2.29687,1.58204 -1.35938,0.53906 -3.15235,0.53906 -1.76953,0 -3.09375,-0.45703 -1.3125,-0.46875 -2.1914,-1.41797 -0.87891,-0.94922 -1.32422,-2.41406 -0.4336,-1.46485 -0.4336,-3.46875 0,-1.83985 0.46875,-3.30469 0.46875,-1.47656 1.39453,-2.50781 0.92579,-1.03125 2.28516,-1.58204 1.37109,-0.55078 3.17578,-0.55078 1.72266,0 3.03516,0.45703 1.32422,0.45704 2.20312,1.40625 0.89063,0.94922 1.33594,2.40235 0.45703,1.4414 0.45703,3.41015 z m -3.23437,0.16407 q 0,-1.19532 -0.1875,-2.16797 -0.1875,-0.98438 -0.64453,-1.67578 -0.44532,-0.70313 -1.19532,-1.07813 -0.75,-0.38672 -1.875,-0.38672 -1.13672,0 -1.89843,0.4336 -0.76172,0.42187 -1.23047,1.13672 -0.46875,0.71484 -0.66797,1.67578 -0.1875,0.94922 -0.1875,2.01562 0,1.24219 0.1875,2.23828 0.1875,0.98438 0.63281,1.6875 0.44531,0.70313 1.19531,1.07813 0.75,0.36328 1.88672,0.36328 1.13672,0 1.89844,-0.42188 0.76172,-0.42187 1.23047,-1.14843 0.46875,-0.72657 0.65625,-1.6875 0.19922,-0.97266 0.19922,-2.0625 z"
         style="font-style:normal;font-variant:normal;font-weight:bold;font-stretch:normal;font-size:24px;line-height:1;font-family:Calibri;-inkscape-font-specification:'Calibri Bold';text-align:center;text-anchor:middle"
         id="path3662" />
      <path
         d="m 428.69138,297.51616 q 0,0.12891 -0.0469,0.22266 -0.0469,0.082 -0.22266,0.14062 -0.17578,0.0586 -0.51562,0.082 -0.33984,0.0234 -0.92578,0.0234 -0.49219,0 -0.78516,-0.0234 -0.29297,-0.0234 -0.46875,-0.082 -0.16406,-0.0703 -0.23437,-0.16406 -0.0703,-0.10547 -0.11719,-0.2461 l -1.35938,-3.38671 q -0.24609,-0.57422 -0.48046,-1.01954 -0.23438,-0.44531 -0.52735,-0.73828 -0.28125,-0.30468 -0.65625,-0.45703 -0.375,-0.15234 -0.86719,-0.15234 h -0.96093 v 5.77734 q 0,0.11719 -0.082,0.21094 -0.0703,0.0937 -0.2461,0.15234 -0.17578,0.0586 -0.46875,0.0937 -0.29297,0.0352 -0.75,0.0352 -0.44531,0 -0.75,-0.0352 -0.29297,-0.0351 -0.46875,-0.0937 -0.17578,-0.0586 -0.24609,-0.15234 -0.0703,-0.0937 -0.0703,-0.21094 v -13.76953 q 0,-0.51562 0.25781,-0.73828 0.26953,-0.23438 0.65625,-0.23438 h 3.92578 q 0.59766,0 0.98437,0.0234 0.38672,0.0234 0.70313,0.0586 0.91406,0.1289 1.64062,0.44531 0.73829,0.3164 1.24219,0.83203 0.51563,0.50391 0.78516,1.20703 0.26953,0.69141 0.26953,1.59375 0,0.76172 -0.19922,1.39453 -0.1875,0.6211 -0.5625,1.11328 -0.375,0.49219 -0.92578,0.85547 -0.55078,0.36328 -1.25391,0.58594 0.33985,0.16406 0.63282,0.39844 0.30468,0.23437 0.5625,0.57422 0.26953,0.32812 0.5039,0.76171 0.23438,0.42188 0.45703,0.96094 l 1.27735,2.98828 q 0.17578,0.44532 0.23437,0.65625 0.0586,0.19922 0.0586,0.31641 z m -3.97266,-10.28906 q 0,-0.75 -0.33984,-1.26563 -0.33985,-0.51562 -1.11329,-0.72656 -0.23437,-0.0586 -0.53906,-0.0937 -0.29297,-0.0352 -0.82031,-0.0352 h -1.38281 v 4.30078 h 1.57031 q 0.65625,0 1.14844,-0.15234 0.49218,-0.16406 0.82031,-0.44531 0.32812,-0.29297 0.49219,-0.69141 0.16406,-0.39844 0.16406,-0.89062 z"
         style="font-style:normal;font-variant:normal;font-weight:bold;font-stretch:normal;font-size:24px;line-height:1;font-family:Calibri;-inkscape-font-specification:'Calibri Bold';text-align:center;text-anchor:middle"
         id="path3664" />
      <path
         d="m 443.37497,296.76616 q 0.14062,0.42187 0.17578,0.66797 0.0352,0.24609 -0.0937,0.375 -0.12891,0.11719 -0.45703,0.14062 -0.32813,0.0352 -0.90234,0.0352 -0.59766,0 -0.9375,-0.0234 -0.32813,-0.0117 -0.50391,-0.0586 -0.17578,-0.0586 -0.24609,-0.15235 -0.0703,-0.0937 -0.11719,-0.24609 l -1.01953,-3.04687 h -5.69532 l -0.96093,2.96484 q -0.0469,0.16406 -0.12891,0.28125 -0.0703,0.10547 -0.24609,0.17578 -0.16407,0.0586 -0.48047,0.082 -0.30469,0.0234 -0.8086,0.0234 -0.53906,0 -0.84375,-0.0352 -0.30468,-0.0351 -0.42187,-0.16406 -0.11719,-0.14062 -0.082,-0.38672 0.0351,-0.24609 0.17578,-0.65625 l 4.6757,-13.45308 q 0.0703,-0.19922 0.16406,-0.31641 0.0937,-0.12891 0.29297,-0.1875 0.21094,-0.0703 0.57422,-0.082 0.36328,-0.0234 0.96094,-0.0234 0.6914,0 1.10156,0.0234 0.41016,0.0117 0.63281,0.082 0.23438,0.0586 0.32813,0.1875 0.10547,0.12891 0.17578,0.35156 z m -6.96094,-11.12109 h -0.0117 l -2.14453,6.44531 h 4.30078 z"
         style="font-style:normal;font-variant:normal;font-weight:bold;font-stretch:normal;font-size:24px;line-height:1;font-family:Calibri;-inkscape-font-specification:'Calibri Bold';text-align:center;text-anchor:middle"
         id="path3666" />
      <path
         d="m 453.71091,284.01616 q 0,0.33984 -0.0352,0.58594 -0.0234,0.23437 -0.082,0.38672 -0.0586,0.14062 -0.15234,0.21093 -0.082,0.0703 -0.1875,0.0703 H 449.457 v 12.22265 q 0,0.11719 -0.082,0.21094 -0.0703,0.0937 -0.24609,0.15234 -0.17579,0.0586 -0.48047,0.0937 -0.29297,0.0352 -0.73828,0.0352 -0.44532,0 -0.75,-0.0352 -0.29297,-0.0351 -0.46875,-0.0937 -0.17579,-0.0586 -0.25782,-0.15234 -0.0703,-0.0937 -0.0703,-0.21094 v -12.22265 h -3.79687 q -0.11719,0 -0.19922,-0.0703 -0.082,-0.0703 -0.14063,-0.21093 -0.0586,-0.15235 -0.0937,-0.38672 -0.0234,-0.2461 -0.0234,-0.58594 0,-0.35156 0.0234,-0.59766 0.0352,-0.24609 0.0937,-0.38672 0.0586,-0.15234 0.14063,-0.21093 0.082,-0.0703 0.19922,-0.0703 h 10.6875 q 0.10546,0 0.1875,0.0703 0.0937,0.0586 0.15234,0.21093 0.0586,0.14063 0.082,0.38672 0.0352,0.2461 0.0352,0.59766 z"
         style="font-style:normal;font-variant:normal;font-weight:bold;font-stretch:normal;font-size:24px;line-height:1;font-family:Calibri;-inkscape-font-specification:'Calibri Bold';text-align:center;text-anchor:middle"
         id="path3668" />
      <path
         d="m 468.49997,290.15678 q 0,1.88672 -0.46875,3.375 -0.46875,1.48829 -1.39453,2.53125 -0.92578,1.03125 -2.29688,1.58204 -1.35937,0.53906 -3.15234,0.53906 -1.76953,0 -3.09375,-0.45703 -1.3125,-0.46875 -2.19141,-1.41797 -0.8789,-0.94922 -1.32422,-2.41406 -0.43359,-1.46485 -0.43359,-3.46875 0,-1.83985 0.46875,-3.30469 0.46875,-1.47656 1.39453,-2.50781 0.92578,-1.03125 2.28516,-1.58204 1.37109,-0.55078 3.17578,-0.55078 1.72266,0 3.03516,0.45703 1.32421,0.45704 2.20312,1.40625 0.89063,0.94922 1.33594,2.40235 0.45703,1.4414 0.45703,3.41015 z m -3.23438,0.16407 q 0,-1.19532 -0.1875,-2.16797 -0.1875,-0.98438 -0.64453,-1.67578 -0.44531,-0.70313 -1.19531,-1.07813 -0.75,-0.38672 -1.875,-0.38672 -1.13672,0 -1.89844,0.4336 -0.76172,0.42187 -1.23047,1.13672 -0.46875,0.71484 -0.66796,1.67578 -0.1875,0.94922 -0.1875,2.01562 0,1.24219 0.1875,2.23828 0.1875,0.98438 0.63281,1.6875 0.44531,0.70313 1.19531,1.07813 0.75,0.36328 1.88672,0.36328 1.13672,0 1.89844,-0.42188 0.76172,-0.42187 1.23047,-1.14843 0.46875,-0.72657 0.65625,-1.6875 0.19921,-0.97266 0.19921,-2.0625 z"
         style="font-style:normal;font-variant:normal;font-weight:bold;font-stretch:normal;font-size:24px;line-height:1;font-family:Calibri;-inkscape-font-specification:'Calibri Bold';text-align:center;text-anchor:middle"
         id="path3670" />
      <path
         d="m 482.33981,297.51616 q 0,0.12891 -0.0469,0.22266 -0.0469,0.082 -0.22266,0.14062 -0.17578,0.0586 -0.51562,0.082 -0.33985,0.0234 -0.92578,0.0234 -0.49219,0 -0.78516,-0.0234 -0.29297,-0.0234 -0.46875,-0.082 -0.16406,-0.0703 -0.23438,-0.16406 -0.0703,-0.10547 -0.11718,-0.2461 l -1.35938,-3.38671 q -0.24609,-0.57422 -0.48047,-1.01954 -0.23437,-0.44531 -0.52734,-0.73828 -0.28125,-0.30468 -0.65625,-0.45703 -0.375,-0.15234 -0.86719,-0.15234 h -0.96094 v 5.77734 q 0,0.11719 -0.082,0.21094 -0.0703,0.0937 -0.24609,0.15234 -0.17578,0.0586 -0.46875,0.0937 -0.29297,0.0352 -0.75,0.0352 -0.44531,0 -0.75,-0.0352 -0.29297,-0.0351 -0.46875,-0.0937 -0.17578,-0.0586 -0.24609,-0.15234 -0.0703,-0.0937 -0.0703,-0.21094 v -13.76953 q 0,-0.51562 0.25782,-0.73828 0.26953,-0.23438 0.65625,-0.23438 h 3.92578 q 0.59765,0 0.98437,0.0234 0.38672,0.0234 0.70313,0.0586 0.91406,0.1289 1.64062,0.44531 0.73828,0.3164 1.24219,0.83203 0.51562,0.50391 0.78516,1.20703 0.26953,0.69141 0.26953,1.59375 0,0.76172 -0.19922,1.39453 -0.1875,0.6211 -0.5625,1.11328 -0.375,0.49219 -0.92578,0.85547 -0.55078,0.36328 -1.25391,0.58594 0.33984,0.16406 0.63281,0.39844 0.30469,0.23437 0.5625,0.57422 0.26953,0.32812 0.50391,0.76171 0.23437,0.42188 0.45703,0.96094 l 1.27734,2.98828 q 0.17579,0.44532 0.23438,0.65625 0.0586,0.19922 0.0586,0.31641 z m -3.97265,-10.28906 q 0,-0.75 -0.33985,-1.26563 -0.33984,-0.51562 -1.11328,-0.72656 -0.23437,-0.0586 -0.53906,-0.0937 -0.29297,-0.0352 -0.82031,-0.0352 h -1.38282 v 4.30078 h 1.57032 q 0.65625,0 1.14843,-0.15234 0.49219,-0.16406 0.82032,-0.44531 0.32812,-0.29297 0.49218,-0.69141 0.16407,-0.39844 0.16407,-0.89062 z m -2.3086,-5.55469 q -0.375,0 -0.63281,-0.0117 -0.25781,-0.0117 -0.44531,-0.0586 -0.17578,-0.0586 -0.31641,-0.15235 -0.1289,-0.10547 -0.28125,-0.25781 l -2.32031,-2.50781 q -0.15234,-0.17578 -0.1875,-0.28125 -0.0234,-0.11719 0.0703,-0.17578 0.10547,-0.0586 0.35156,-0.082 0.25782,-0.0234 0.65625,-0.0234 0.48047,0 0.78516,0.0234 0.30469,0.0117 0.48047,0.0586 0.1875,0.0352 0.28125,0.10547 0.10547,0.0703 0.19922,0.17578 l 1.38281,1.60547 1.44141,-1.58203 q 0.0937,-0.11719 0.1875,-0.1875 0.10547,-0.082 0.28125,-0.11719 0.1875,-0.0469 0.48047,-0.0586 0.29296,-0.0234 0.78515,-0.0234 0.39844,0 0.63281,0.0352 0.23438,0.0234 0.32813,0.0937 0.10547,0.0586 0.0703,0.17579 -0.0234,0.10546 -0.15234,0.25781 l -2.28516,2.50781 q -0.1289,0.15234 -0.28125,0.24609 -0.15234,0.0937 -0.36328,0.15235 -0.19922,0.0469 -0.48047,0.0703 -0.26953,0.0117 -0.66797,0.0117 z m -5.3789,1.07812 z"
         style="font-style:normal;font-variant:normal;font-weight:bold;font-stretch:normal;font-size:24px;line-height:1;font-family:Calibri;-inkscape-font-specification:'Calibri Bold';text-align:center;text-anchor:middle"
         id="path3672" />
    </g>
    <path
       id="path1909"
       style="font-variation-settings:normal;opacity:1;vector-effect:none;fill:#736359;fill-opacity:1;stroke:#39322d;stroke-width:1;stroke-linecap:round;stroke-linejoin:round;stroke-miterlimit:4;stroke-dasharray:none;stroke-dashoffset:0;stroke-opacity:1;stop-color:#000000;stop-opacity:1"
       d="m 152.52099,238.5933 0.37092,0.66794 5.31903,-1.68352 -4.73023,2.74378 0.6343,1.14221 2.05503,-0.54669 -1.45935,1.61937 0.57777,1.0404 c 1.58459,-0.65962 3.27159,-1.35118 3.49824,-1.39362 0.21659,-0.0406 -1.33272,1.21519 -2.90531,2.46133 l 0.64808,1.16703 c 1.60564,-0.46231 3.2381,-0.93726 3.34755,-0.99805 0.10651,-0.0591 -1.21646,1.18207 -2.5533,2.42829 l 0.8894,1.60158 34.36544,-19.08406 -0.96524,-1.73814 -2.94896,1.24779 2.5408,-1.98277 -0.74736,-1.34581 -1.28837,0.40032 0.99742,-0.92424 -0.49365,-0.88895 -4.44263,1.86933 3.81385,-3.00159 -0.57087,-1.02799 -1.90108,0.49044 1.57428,-1.07892 -0.29371,-0.52889 -1.67927,0.3575 1.18011,-1.25636 -0.46745,-0.84176 z" />
    <path
       id="path1917"
       style="font-variation-settings:normal;opacity:1;vector-effect:none;fill:#736359;fill-opacity:1;stroke:#39322d;stroke-width:1;stroke-linecap:round;stroke-linejoin:round;stroke-miterlimit:4;stroke-dasharray:none;stroke-dashoffset:0;stroke-opacity:1;stop-color:#000000;stop-opacity:1"
       d="m 320.70282,247.81156 -0.49322,0.5835 -4.89249,-2.6814 4.10958,3.60762 -0.84342,0.9978 -1.91032,-0.93419 1.11823,1.87126 -0.76824,0.90887 c -1.42691,-0.95391 -2.94813,-1.95897 -3.16227,-2.0445 -0.20464,-0.0817 1.07225,1.45021 2.37386,2.97722 l -0.86175,1.01949 c -1.48577,-0.76441 -2.99539,-1.54641 -3.09102,-1.62723 -0.093,-0.0787 0.96461,1.3952 2.03491,2.87666 l -1.18263,1.39908 -30.02078,-25.37591 1.28347,-1.5184 2.65161,1.79508 -2.1089,-2.43714 0.99378,-1.17566 1.18649,0.64216 -0.79962,-1.09986 0.6564,-0.77656 3.9967,2.69404 -3.16062,-3.68315 0.75908,-0.89802 1.77018,0.84919 -1.33563,-1.36328 0.39054,-0.46202 1.57829,0.67584 -0.91455,-1.46106 0.62156,-0.73534 z" />
  </g>
</svg>
