<?xml version="1.0" encoding="UTF-8" standalone="no"?>
<!DOCTYPE svg PUBLIC "-//W3C//DTD SVG 1.1//EN" "http://www.w3.org/Graphics/SVG/1.1/DTD/svg11.dtd">
<svg width="100%" height="100%" viewBox="0 0 100 100" version="1.1" xmlns="http://www.w3.org/2000/svg" xmlns:xlink="http://www.w3.org/1999/xlink" xml:space="preserve" xmlns:serif="http://www.serif.com/" style="fill-rule:evenodd;clip-rule:evenodd;stroke-linejoin:bevel;">
    <g id="Vrstva-1" serif:id="Vrstva 1" transform="matrix(1,0,0,1,-709.595,-511.074)">
        <g id="path1064-6-4" transform="matrix(1,0,0,1,-45.4312,-16.9036)">
            <path d="M852.47,584.272C853.127,598.69 848.323,611.224 844.345,611.406C840.368,611.587 836.611,600.046 835.954,585.628C835.296,571.211 837.988,559.376 841.965,559.195C845.943,559.013 851.813,569.854 852.47,584.272Z" style="fill:rgb(115,120,140);stroke:rgb(46,48,56);stroke-width:1.5px;"/>
        </g>
        <g id="path988-1-6" transform="matrix(1,0,0,1,-45.4312,-16.9036)">
            <path d="M849.409,535.645L849.409,567.443C851.141,567.443 851.53,571.516 851.53,572.468L851.53,594.102C853.734,594.102 853.956,591.917 853.956,589.936L853.956,535.55C853.956,532.241 849.409,532.215 849.409,535.645L849.409,535.645Z" style="fill:rgb(115,120,140);stroke:rgb(46,48,56);stroke-width:1.5px;stroke-linecap:round;stroke-linejoin:round;"/>
        </g>
        <g id="ellipse986-1-0" transform="matrix(-1,0,0,1,-45.4312,-16.9036)">
            <ellipse cx="-846.808" cy="584.716" rx="7.251" ry="19.419" style="fill:rgb(85,89,104);stroke:rgb(46,48,56);stroke-width:1.5px;"/>
        </g>
        <g id="path907-5-1" transform="matrix(1,0,0,1,-45.4312,-16.9036)">
            <path d="M828.384,622.885C823.647,622.885 804.968,622.823 786.866,622.885C777.496,622.915 771.691,618.301 768.21,614.819C764.374,610.984 762.249,607.885 761.976,604.832C760.825,591.936 759.963,581.68 762.701,568.779C765.266,556.695 771.801,545.45 786.235,543.504C796.821,542.077 809.207,542.021 819.009,543.772C850.015,549.313 858.365,587.487 844.128,615.88C841.62,620.881 833.262,622.885 828.384,622.885Z" style="fill:rgb(227,228,232);fill-rule:nonzero;stroke:rgb(115,120,140);stroke-width:1.5px;"/>
        </g>
        <g id="path1022-5-8" transform="matrix(1,0,0,1,-45.4312,-16.9036)">
            <path d="M791.692,542.962C783.98,547.244 777.574,553.589 773.821,562.403C778.17,584.195 776.695,591.573 773.235,610.238C776.742,614.989 785.608,620.496 796.695,622.882C792.537,622.882 791.15,622.87 786.863,622.882C777.493,622.912 771.689,618.301 768.208,614.82C764.372,610.984 762.246,607.889 761.973,604.836C760.822,591.94 759.961,581.679 762.7,568.778C765.265,556.694 771.797,545.446 786.231,543.501C787.99,543.264 789.853,543.121 791.691,542.962L791.692,542.962Z" style="fill:rgb(199,201,209);fill-rule:nonzero;"/>
        </g>
        <g id="path1033-6-2" transform="matrix(1,0,0,1,-45.4312,-16.9036)">
            <path d="M828.384,622.885C823.647,622.885 804.968,622.823 786.866,622.885C777.496,622.915 771.691,618.301 768.21,614.819C764.374,610.984 762.249,607.885 761.976,604.832C760.825,591.936 759.963,581.68 762.701,568.779C765.266,556.695 771.801,545.45 786.235,543.504C796.821,542.077 809.207,542.021 819.009,543.772C850.015,549.313 858.365,587.487 844.128,615.88C841.62,620.881 833.262,622.885 828.384,622.885Z" style="fill:none;fill-rule:nonzero;stroke:rgb(115,120,140);stroke-width:1.5px;"/>
        </g>
        <g id="ellipse929-3-8" transform="matrix(1,0,0,1,-45.4312,-16.9036)">
            <path d="M755.993,584.649C755.993,599.081 761.363,611.384 765.345,611.384C769.326,611.384 772.554,599.684 772.554,585.251C772.554,570.819 769.326,559.119 765.345,559.119C761.363,559.119 755.993,570.216 755.993,584.649Z" style="fill:rgb(92,96,112);stroke:rgb(46,48,56);stroke-width:1.5px;"/>
        </g>
        <g id="rect846-5-5" transform="matrix(1,0,0,1,-45.4312,-16.9036)">
            <path d="M829.287,561.117C832.912,561.117 836.318,562.792 838.448,566.481C841.9,572.46 843.635,580.017 843.687,587.722L843.687,587.734C843.772,595.76 842.039,603.688 838.448,609.908C836.318,613.597 832.912,615.272 829.287,615.272L794.794,615.272C791.17,615.272 787.764,613.597 785.634,609.908C782.043,603.688 780.298,595.76 780.383,587.734L780.383,587.722C780.437,580.017 782.182,572.46 785.634,566.481C787.764,562.792 791.17,561.117 794.794,561.117L829.287,561.117Z" style="fill:rgb(23,24,28);stroke:black;stroke-width:1.5px;"/>
        </g>
        <g id="path927-9-9" transform="matrix(-1,0,0,1,-45.4312,-16.9036)">
            <ellipse cx="-761.421" cy="584.716" rx="5.357" ry="19.419" style="fill:rgb(92,96,112);stroke:rgb(46,48,56);stroke-width:1.5px;"/>
        </g>
        <g id="rect932-7-2" transform="matrix(1,0,0,1,-45.4312,-16.9036)">
            <path d="M761.858,535.645L761.858,565.287C760.126,565.287 759.737,566.243 759.737,567.195L759.737,594.102C757.533,594.102 757.311,591.917 757.311,589.936L757.311,535.55C757.311,532.241 761.858,532.215 761.858,535.645L761.858,535.645Z" style="fill:rgb(115,120,140);stroke:rgb(46,48,56);stroke-width:1.5px;stroke-linecap:round;stroke-linejoin:round;"/>
        </g>
        <g id="g1351-7-2" transform="matrix(-6.59652,0,0,6.59652,7104.29,-3065.88)">
            <path id="path1353-7-8" d="M957.632,548.818C958.165,548.678 958.921,548.681 959.419,548.818" style="fill:rgb(0,191,229);fill-rule:nonzero;"/>
            <path id="path1355-5-3" d="M957.576,548.602C957.478,548.627 957.409,548.716 957.409,548.818C957.409,548.837 957.411,548.856 957.416,548.875C957.441,548.973 957.531,549.043 957.632,549.043C957.652,549.043 957.671,549.04 957.689,549.035C958.171,548.909 958.915,548.912 959.359,549.033C959.379,549.039 959.399,549.041 959.419,549.041C959.52,549.041 959.608,548.974 959.635,548.877C959.64,548.857 959.643,548.837 959.643,548.817C959.643,548.717 959.575,548.628 959.479,548.602C958.925,548.45 958.16,548.448 957.576,548.602L957.576,548.602Z" style="fill:rgb(0,191,229);fill-rule:nonzero;"/>
        </g>
        <g id="path964-3-1" transform="matrix(1,0,0,1,-45.4312,-16.9036)">
            <path d="M802.918,542.446C805.753,542.458 808.557,542.565 811.273,542.785C816.341,546.566 818.625,551.557 820.191,557.211L801.922,557.211C799.78,549.894 796.729,546.14 791.879,542.949C795.513,542.64 799.214,542.428 802.918,542.445L802.918,542.446Z" style="fill:rgb(255,187,51);fill-rule:nonzero;stroke:rgb(153,102,0);stroke-width:1.5px;stroke-linecap:round;stroke-linejoin:round;"/>
        </g>
        <g id="ellipse1026-9-8" transform="matrix(-1,0,0,1,-45.4312,-16.9036)">
            <ellipse cx="-826.537" cy="591.415" rx="8.775" ry="14.075" style="fill:rgb(0,191,229);stroke:rgb(51,220,255);stroke-width:1.5px;"/>
        </g>
        <g id="path1032-0-7" transform="matrix(1,0,0,1,-45.4312,-16.9036)">
            <path d="M837.535,584.056L815.539,584.056" style="fill:none;fill-rule:nonzero;stroke:url(#_Linear1);stroke-width:1.5px;"/>
        </g>
        <g id="path1097-3-1" transform="matrix(1,0,0,1,-45.4312,-16.9036)">
            <path d="M838.457,587.037L814.617,587.037" style="fill:none;fill-rule:nonzero;stroke:url(#_Linear2);stroke-width:1.5px;"/>
        </g>
        <g id="path1101-9-5" transform="matrix(1,0,0,1,-45.4312,-16.9036)">
            <path d="M838.457,590.017L814.617,590.017" style="fill:none;fill-rule:nonzero;stroke:url(#_Linear3);stroke-width:1.5px;"/>
        </g>
        <g id="path1105-1-5" transform="matrix(1,0,0,1,-45.4312,-16.9036)">
            <path d="M838.457,592.997L814.617,592.997" style="fill:none;fill-rule:nonzero;stroke:url(#_Linear4);stroke-width:1.5px;"/>
        </g>
        <g id="path1109-6-7" transform="matrix(1,0,0,1,-45.4312,-16.9036)">
            <path d="M837.904,595.977L815.17,595.977" style="fill:none;fill-rule:nonzero;stroke:url(#_Linear5);stroke-width:1.5px;"/>
        </g>
        <g id="path1113-4-1" transform="matrix(1,0,0,1,-45.4312,-16.9036)">
            <path d="M837.397,598.92L815.677,598.92" style="fill:none;fill-rule:nonzero;stroke:url(#_Linear6);stroke-width:1.5px;"/>
        </g>
        <g id="path1117-3-1" transform="matrix(1,0,0,1,-45.4312,-16.9036)">
            <path d="M835.611,601.9L817.463,601.9" style="fill:none;fill-rule:nonzero;stroke:url(#_Linear7);stroke-width:1.5px;"/>
        </g>
        <g id="path1121-1-2" transform="matrix(1,0,0,1,-45.4312,-16.9036)">
            <path d="M833.021,604.842L820.053,604.842" style="fill:none;fill-rule:nonzero;stroke:url(#_Linear8);stroke-width:1.5px;"/>
        </g>
        <g id="path1125-8-0" transform="matrix(1,0,0,1,-45.4312,-16.9036)">
            <path d="M836.007,581.114L817.068,581.114" style="fill:none;fill-rule:nonzero;stroke:url(#_Linear9);stroke-width:1.5px;"/>
        </g>
        <g id="path1129-6-5" transform="matrix(1,0,0,1,-45.4312,-16.9036)">
            <path d="M833.51,578.134L819.564,578.134" style="fill:none;fill-rule:nonzero;stroke:url(#_Linear10);stroke-width:1.5px;"/>
        </g>
        <g id="path1347-5-4" transform="matrix(1,0,0,1,-45.4312,-16.9036)">
            <path d="M835.417,570.925L817.657,570.925" style="fill:none;fill-rule:nonzero;stroke:url(#_Linear11);stroke-width:1.5px;"/>
        </g>
        <g id="g1361-8-3" transform="matrix(-6.59652,0,0,6.59652,7077.1,-3065.88)">
            <path id="path1357-3-0" d="M957.632,548.818C958.165,548.678 958.921,548.681 959.419,548.818" style="fill:rgb(0,191,229);fill-rule:nonzero;"/>
            <path id="path1359-7-4" d="M957.576,548.602C957.478,548.627 957.409,548.716 957.409,548.818C957.409,548.837 957.411,548.856 957.416,548.875C957.441,548.973 957.531,549.043 957.632,549.043C957.652,549.043 957.671,549.04 957.689,549.035C958.171,548.909 958.915,548.912 959.359,549.033C959.379,549.039 959.399,549.041 959.419,549.041C959.52,549.041 959.608,548.974 959.635,548.877C959.64,548.857 959.643,548.837 959.643,548.817C959.643,548.717 959.575,548.628 959.479,548.602C958.925,548.45 958.16,548.448 957.576,548.602L957.576,548.602Z" style="fill:rgb(0,191,229);fill-rule:nonzero;"/>
        </g>
        <g id="ellipse1363-2-8" transform="matrix(-1,0,0,1,-45.4312,-16.9036)">
            <ellipse cx="-799.35" cy="591.415" rx="8.775" ry="14.075" style="fill:rgb(0,191,229);stroke:rgb(51,220,255);stroke-width:1.5px;"/>
        </g>
        <g id="path1365-7-6" transform="matrix(1,0,0,1,-45.4312,-16.9036)">
            <path d="M810.348,584.056L788.352,584.056" style="fill:none;fill-rule:nonzero;stroke:url(#_Linear12);stroke-width:1.5px;"/>
        </g>
        <g id="path1367-8-6" transform="matrix(1,0,0,1,-45.4312,-16.9036)">
            <path d="M811.27,587.037L787.431,587.037" style="fill:none;fill-rule:nonzero;stroke:url(#_Linear13);stroke-width:1.5px;"/>
        </g>
        <g id="path1369-2-2" transform="matrix(1,0,0,1,-45.4312,-16.9036)">
            <path d="M811.27,590.017L787.431,590.017" style="fill:none;fill-rule:nonzero;stroke:url(#_Linear14);stroke-width:1.5px;"/>
        </g>
        <g id="path1371-8-1" transform="matrix(1,0,0,1,-45.4312,-16.9036)">
            <path d="M811.27,592.997L787.431,592.997" style="fill:none;fill-rule:nonzero;stroke:url(#_Linear15);stroke-width:1.5px;"/>
        </g>
        <g id="path1373-0-5" transform="matrix(1,0,0,1,-45.4312,-16.9036)">
            <path d="M810.717,595.977L787.983,595.977" style="fill:none;fill-rule:nonzero;stroke:url(#_Linear16);stroke-width:1.5px;"/>
        </g>
        <g id="path1375-1-0" transform="matrix(1,0,0,1,-45.4312,-16.9036)">
            <path d="M810.21,598.92L788.49,598.92" style="fill:none;fill-rule:nonzero;stroke:url(#_Linear17);stroke-width:1.5px;"/>
        </g>
        <g id="path1377-4-6" transform="matrix(1,0,0,1,-45.4312,-16.9036)">
            <path d="M808.424,601.9L790.276,601.9" style="fill:none;fill-rule:nonzero;stroke:url(#_Linear18);stroke-width:1.5px;"/>
        </g>
        <g id="path1379-8-7" transform="matrix(1,0,0,1,-45.4312,-16.9036)">
            <path d="M805.834,604.842L792.866,604.842" style="fill:none;fill-rule:nonzero;stroke:url(#_Linear19);stroke-width:1.5px;"/>
        </g>
        <g id="path1381-4-8" transform="matrix(1,0,0,1,-45.4312,-16.9036)">
            <path d="M808.82,581.114L789.881,581.114" style="fill:none;fill-rule:nonzero;stroke:url(#_Linear20);stroke-width:1.5px;"/>
        </g>
        <g id="path1383-1-7" transform="matrix(1,0,0,1,-45.4312,-16.9036)">
            <path d="M806.323,578.134L792.377,578.134" style="fill:none;fill-rule:nonzero;stroke:url(#_Linear21);stroke-width:1.5px;"/>
        </g>
        <g id="path1385-9-1" transform="matrix(1,0,0,1,-45.4312,-16.9036)">
            <path d="M808.23,570.925L790.47,570.925" style="fill:none;fill-rule:nonzero;stroke:url(#_Linear22);stroke-width:1.5px;"/>
        </g>
        <g id="ellipse1026-8-5-0" transform="matrix(-1,0,0,1,-45.4312,-16.9036)">
            <ellipse cx="-828.985" cy="587.649" rx="3.903" ry="6.26" style="fill:white;fill-opacity:0.4;"/>
        </g>
        <g id="ellipse1083-1-3" transform="matrix(-1,0,0,1,-45.4312,-16.9036)">
            <ellipse cx="-801.47" cy="587.649" rx="3.903" ry="6.26" style="fill:white;fill-opacity:0.4;"/>
        </g>
    </g>
    <defs>
        <linearGradient id="_Linear1" x1="0" y1="0" x2="1" y2="0" gradientUnits="userSpaceOnUse" gradientTransform="matrix(-21.9962,2.69376e-15,-2.69376e-15,-21.9962,837.535,584.057)"><stop offset="0" style="stop-color:rgb(128,234,255);stop-opacity:0"/><stop offset="0.18" style="stop-color:rgb(128,234,255);stop-opacity:0.75"/><stop offset="0.84" style="stop-color:rgb(128,234,255);stop-opacity:0.75"/><stop offset="1" style="stop-color:rgb(128,234,255);stop-opacity:0"/></linearGradient>
        <linearGradient id="_Linear2" x1="0" y1="0" x2="1" y2="0" gradientUnits="userSpaceOnUse" gradientTransform="matrix(-23.8389,2.91942e-15,-2.91942e-15,-23.8389,838.456,587.037)"><stop offset="0" style="stop-color:rgb(128,234,255);stop-opacity:0"/><stop offset="0.18" style="stop-color:rgb(128,234,255);stop-opacity:0.75"/><stop offset="0.84" style="stop-color:rgb(128,234,255);stop-opacity:0.75"/><stop offset="1" style="stop-color:rgb(128,234,255);stop-opacity:0"/></linearGradient>
        <linearGradient id="_Linear3" x1="0" y1="0" x2="1" y2="0" gradientUnits="userSpaceOnUse" gradientTransform="matrix(-23.8389,2.91942e-15,-2.91942e-15,-23.8389,838.456,590.017)"><stop offset="0" style="stop-color:rgb(128,234,255);stop-opacity:0"/><stop offset="0.18" style="stop-color:rgb(128,234,255);stop-opacity:0.75"/><stop offset="0.84" style="stop-color:rgb(128,234,255);stop-opacity:0.75"/><stop offset="1" style="stop-color:rgb(128,234,255);stop-opacity:0"/></linearGradient>
        <linearGradient id="_Linear4" x1="0" y1="0" x2="1" y2="0" gradientUnits="userSpaceOnUse" gradientTransform="matrix(-23.8389,2.91942e-15,-2.91942e-15,-23.8389,838.456,592.997)"><stop offset="0" style="stop-color:rgb(128,234,255);stop-opacity:0"/><stop offset="0.18" style="stop-color:rgb(128,234,255);stop-opacity:0.75"/><stop offset="0.84" style="stop-color:rgb(128,234,255);stop-opacity:0.75"/><stop offset="1" style="stop-color:rgb(128,234,255);stop-opacity:0"/></linearGradient>
        <linearGradient id="_Linear5" x1="0" y1="0" x2="1" y2="0" gradientUnits="userSpaceOnUse" gradientTransform="matrix(-22.7333,2.78402e-15,-2.78402e-15,-22.7333,837.903,595.977)"><stop offset="0" style="stop-color:rgb(128,234,255);stop-opacity:0"/><stop offset="0.18" style="stop-color:rgb(128,234,255);stop-opacity:0.75"/><stop offset="0.84" style="stop-color:rgb(128,234,255);stop-opacity:0.75"/><stop offset="1" style="stop-color:rgb(128,234,255);stop-opacity:0"/></linearGradient>
        <linearGradient id="_Linear6" x1="0" y1="0" x2="1" y2="0" gradientUnits="userSpaceOnUse" gradientTransform="matrix(-21.7198,2.65991e-15,-2.65991e-15,-21.7198,837.396,598.92)"><stop offset="0" style="stop-color:rgb(128,234,255);stop-opacity:0"/><stop offset="0.18" style="stop-color:rgb(128,234,255);stop-opacity:0.75"/><stop offset="0.84" style="stop-color:rgb(128,234,255);stop-opacity:0.75"/><stop offset="1" style="stop-color:rgb(128,234,255);stop-opacity:0"/></linearGradient>
        <linearGradient id="_Linear7" x1="0" y1="0" x2="1" y2="0" gradientUnits="userSpaceOnUse" gradientTransform="matrix(-18.1472,2.22239e-15,-2.22239e-15,-18.1472,835.61,601.9)"><stop offset="0" style="stop-color:rgb(128,234,255);stop-opacity:0"/><stop offset="0.18" style="stop-color:rgb(128,234,255);stop-opacity:0.75"/><stop offset="0.84" style="stop-color:rgb(128,234,255);stop-opacity:0.75"/><stop offset="1" style="stop-color:rgb(128,234,255);stop-opacity:0"/></linearGradient>
        <linearGradient id="_Linear8" x1="0" y1="0" x2="1" y2="0" gradientUnits="userSpaceOnUse" gradientTransform="matrix(-12.9685,1.58818e-15,-1.58818e-15,-12.9685,833.021,604.842)"><stop offset="0" style="stop-color:rgb(128,234,255);stop-opacity:0"/><stop offset="0.18" style="stop-color:rgb(128,234,255);stop-opacity:0.75"/><stop offset="0.84" style="stop-color:rgb(128,234,255);stop-opacity:0.75"/><stop offset="1" style="stop-color:rgb(128,234,255);stop-opacity:0"/></linearGradient>
        <linearGradient id="_Linear9" x1="0" y1="0" x2="1" y2="0" gradientUnits="userSpaceOnUse" gradientTransform="matrix(-18.9386,2.3193e-15,-2.3193e-15,-18.9386,836.006,581.114)"><stop offset="0" style="stop-color:rgb(128,234,255);stop-opacity:0"/><stop offset="0.18" style="stop-color:rgb(128,234,255);stop-opacity:0.75"/><stop offset="0.84" style="stop-color:rgb(128,234,255);stop-opacity:0.75"/><stop offset="1" style="stop-color:rgb(128,234,255);stop-opacity:0"/></linearGradient>
        <linearGradient id="_Linear10" x1="0" y1="0" x2="1" y2="0" gradientUnits="userSpaceOnUse" gradientTransform="matrix(-13.9461,1.70791e-15,-1.70791e-15,-13.9461,833.51,578.134)"><stop offset="0" style="stop-color:rgb(128,234,255);stop-opacity:0"/><stop offset="0.18" style="stop-color:rgb(128,234,255);stop-opacity:0.75"/><stop offset="0.84" style="stop-color:rgb(128,234,255);stop-opacity:0.75"/><stop offset="1" style="stop-color:rgb(128,234,255);stop-opacity:0"/></linearGradient>
        <linearGradient id="_Linear11" x1="0" y1="0" x2="1" y2="0" gradientUnits="userSpaceOnUse" gradientTransform="matrix(-17.7597,2.17493e-15,-2.17493e-15,-17.7597,835.417,570.925)"><stop offset="0" style="stop-color:rgb(128,234,255);stop-opacity:0"/><stop offset="0.18" style="stop-color:rgb(128,234,255);stop-opacity:0.75"/><stop offset="0.84" style="stop-color:rgb(128,234,255);stop-opacity:0.75"/><stop offset="1" style="stop-color:rgb(128,234,255);stop-opacity:0"/></linearGradient>
        <linearGradient id="_Linear12" x1="0" y1="0" x2="1" y2="0" gradientUnits="userSpaceOnUse" gradientTransform="matrix(-21.9962,2.69376e-15,-2.69376e-15,-21.9962,810.348,584.057)"><stop offset="0" style="stop-color:rgb(128,234,255);stop-opacity:0"/><stop offset="0.18" style="stop-color:rgb(128,234,255);stop-opacity:0.75"/><stop offset="0.84" style="stop-color:rgb(128,234,255);stop-opacity:0.75"/><stop offset="1" style="stop-color:rgb(128,234,255);stop-opacity:0"/></linearGradient>
        <linearGradient id="_Linear13" x1="0" y1="0" x2="1" y2="0" gradientUnits="userSpaceOnUse" gradientTransform="matrix(-23.8389,2.91942e-15,-2.91942e-15,-23.8389,811.269,587.037)"><stop offset="0" style="stop-color:rgb(128,234,255);stop-opacity:0"/><stop offset="0.18" style="stop-color:rgb(128,234,255);stop-opacity:0.75"/><stop offset="0.84" style="stop-color:rgb(128,234,255);stop-opacity:0.75"/><stop offset="1" style="stop-color:rgb(128,234,255);stop-opacity:0"/></linearGradient>
        <linearGradient id="_Linear14" x1="0" y1="0" x2="1" y2="0" gradientUnits="userSpaceOnUse" gradientTransform="matrix(-23.8389,2.91942e-15,-2.91942e-15,-23.8389,811.269,590.017)"><stop offset="0" style="stop-color:rgb(128,234,255);stop-opacity:0"/><stop offset="0.18" style="stop-color:rgb(128,234,255);stop-opacity:0.75"/><stop offset="0.84" style="stop-color:rgb(128,234,255);stop-opacity:0.75"/><stop offset="1" style="stop-color:rgb(128,234,255);stop-opacity:0"/></linearGradient>
        <linearGradient id="_Linear15" x1="0" y1="0" x2="1" y2="0" gradientUnits="userSpaceOnUse" gradientTransform="matrix(-23.8389,2.91942e-15,-2.91942e-15,-23.8389,811.269,592.997)"><stop offset="0" style="stop-color:rgb(128,234,255);stop-opacity:0"/><stop offset="0.18" style="stop-color:rgb(128,234,255);stop-opacity:0.75"/><stop offset="0.84" style="stop-color:rgb(128,234,255);stop-opacity:0.75"/><stop offset="1" style="stop-color:rgb(128,234,255);stop-opacity:0"/></linearGradient>
        <linearGradient id="_Linear16" x1="0" y1="0" x2="1" y2="0" gradientUnits="userSpaceOnUse" gradientTransform="matrix(-22.7333,2.78402e-15,-2.78402e-15,-22.7333,810.716,595.977)"><stop offset="0" style="stop-color:rgb(128,234,255);stop-opacity:0"/><stop offset="0.18" style="stop-color:rgb(128,234,255);stop-opacity:0.75"/><stop offset="0.84" style="stop-color:rgb(128,234,255);stop-opacity:0.75"/><stop offset="1" style="stop-color:rgb(128,234,255);stop-opacity:0"/></linearGradient>
        <linearGradient id="_Linear17" x1="0" y1="0" x2="1" y2="0" gradientUnits="userSpaceOnUse" gradientTransform="matrix(-21.7198,2.65991e-15,-2.65991e-15,-21.7198,810.209,598.92)"><stop offset="0" style="stop-color:rgb(128,234,255);stop-opacity:0"/><stop offset="0.18" style="stop-color:rgb(128,234,255);stop-opacity:0.75"/><stop offset="0.84" style="stop-color:rgb(128,234,255);stop-opacity:0.75"/><stop offset="1" style="stop-color:rgb(128,234,255);stop-opacity:0"/></linearGradient>
        <linearGradient id="_Linear18" x1="0" y1="0" x2="1" y2="0" gradientUnits="userSpaceOnUse" gradientTransform="matrix(-18.1472,2.22239e-15,-2.22239e-15,-18.1472,808.423,601.9)"><stop offset="0" style="stop-color:rgb(128,234,255);stop-opacity:0"/><stop offset="0.18" style="stop-color:rgb(128,234,255);stop-opacity:0.75"/><stop offset="0.84" style="stop-color:rgb(128,234,255);stop-opacity:0.75"/><stop offset="1" style="stop-color:rgb(128,234,255);stop-opacity:0"/></linearGradient>
        <linearGradient id="_Linear19" x1="0" y1="0" x2="1" y2="0" gradientUnits="userSpaceOnUse" gradientTransform="matrix(-12.9685,1.58818e-15,-1.58818e-15,-12.9685,805.834,604.842)"><stop offset="0" style="stop-color:rgb(128,234,255);stop-opacity:0"/><stop offset="0.18" style="stop-color:rgb(128,234,255);stop-opacity:0.75"/><stop offset="0.84" style="stop-color:rgb(128,234,255);stop-opacity:0.75"/><stop offset="1" style="stop-color:rgb(128,234,255);stop-opacity:0"/></linearGradient>
        <linearGradient id="_Linear20" x1="0" y1="0" x2="1" y2="0" gradientUnits="userSpaceOnUse" gradientTransform="matrix(-18.9386,2.3193e-15,-2.3193e-15,-18.9386,808.819,581.114)"><stop offset="0" style="stop-color:rgb(128,234,255);stop-opacity:0"/><stop offset="0.18" style="stop-color:rgb(128,234,255);stop-opacity:0.75"/><stop offset="0.84" style="stop-color:rgb(128,234,255);stop-opacity:0.75"/><stop offset="1" style="stop-color:rgb(128,234,255);stop-opacity:0"/></linearGradient>
        <linearGradient id="_Linear21" x1="0" y1="0" x2="1" y2="0" gradientUnits="userSpaceOnUse" gradientTransform="matrix(-13.9461,1.70791e-15,-1.70791e-15,-13.9461,806.323,578.134)"><stop offset="0" style="stop-color:rgb(128,234,255);stop-opacity:0"/><stop offset="0.18" style="stop-color:rgb(128,234,255);stop-opacity:0.75"/><stop offset="0.84" style="stop-color:rgb(128,234,255);stop-opacity:0.75"/><stop offset="1" style="stop-color:rgb(128,234,255);stop-opacity:0"/></linearGradient>
        <linearGradient id="_Linear22" x1="0" y1="0" x2="1" y2="0" gradientUnits="userSpaceOnUse" gradientTransform="matrix(-17.7597,2.17493e-15,-2.17493e-15,-17.7597,808.23,570.925)"><stop offset="0" style="stop-color:rgb(128,234,255);stop-opacity:0"/><stop offset="0.18" style="stop-color:rgb(128,234,255);stop-opacity:0.75"/><stop offset="0.84" style="stop-color:rgb(128,234,255);stop-opacity:0.75"/><stop offset="1" style="stop-color:rgb(128,234,255);stop-opacity:0"/></linearGradient>
    </defs>
</svg>
