<?xml version="1.0" encoding="UTF-8" standalone="no"?>
<svg
   xmlns:dc="http://purl.org/dc/elements/1.1/"
   xmlns:cc="http://creativecommons.org/ns#"
   xmlns:rdf="http://www.w3.org/1999/02/22-rdf-syntax-ns#"
   xmlns:svg="http://www.w3.org/2000/svg"
   xmlns="http://www.w3.org/2000/svg"
   xmlns:sodipodi="http://sodipodi.sourceforge.net/DTD/sodipodi-0.dtd"
   xmlns:inkscape="http://www.inkscape.org/namespaces/inkscape"
   width="118.26214"
   height="270.51627"
   viewBox="0 0 118.26214 270.51627"
   version="1.1"
   id="svg8"
   inkscape:version="1.0.1 (3bc2e813f5, 2020-09-07)"
   sodipodi:docname="Definitely_not_Borek_stavitel-.svg"
   inkscape:export-filename="C:\Users\micha\Downloads\Definitely_not_Borek_stavitel.png"
   inkscape:export-xdpi="300"
   inkscape:export-ydpi="300">
  <defs
     id="defs2" />
  <sodipodi:namedview
     id="base"
     pagecolor="#e6e6e6"
     bordercolor="#666666"
     borderopacity="1.0"
     inkscape:pageopacity="0"
     inkscape:pageshadow="2"
     inkscape:zoom="2.8284271"
     inkscape:cx="19.551899"
     inkscape:cy="145.01305"
     inkscape:document-units="px"
     inkscape:current-layer="layer1"
     showgrid="false"
     units="px"
     width="2000px"
     inkscape:pagecheckerboard="false"
     showborder="true"
     borderlayer="true"
     inkscape:window-width="1920"
     inkscape:window-height="1017"
     inkscape:window-x="-8"
     inkscape:window-y="-8"
     inkscape:window-maximized="1"
     inkscape:document-rotation="0"
     fit-margin-top="5"
     lock-margins="true"
     fit-margin-left="5"
     fit-margin-right="5"
     fit-margin-bottom="5" />
  <metadata
     id="metadata5">
    <rdf:RDF>
      <cc:Work
         rdf:about="">
        <dc:format>image/svg+xml</dc:format>
        <dc:type
           rdf:resource="http://purl.org/dc/dcmitype/StillImage" />
        <dc:title></dc:title>
      </cc:Work>
    </rdf:RDF>
  </metadata>
  <g
     inkscape:label="Vrstva 1"
     inkscape:groupmode="layer"
     id="layer1"
     transform="translate(-312.69124,-141.08382)">
    <path
       style="font-variation-settings:normal;opacity:1;vector-effect:none;fill:#1a1a1a;fill-opacity:1;stroke:#000000;stroke-width:1.25;stroke-linecap:round;stroke-linejoin:round;stroke-miterlimit:4;stroke-dasharray:none;stroke-dashoffset:0;stroke-opacity:1;stop-color:#000000;stop-opacity:1"
       d="m 334.59655,384.05655 v 6.32741 c -3.59951,1.3253 -7.49595,3.37644 -9.67589,5.75704 -4.02711,4.39781 0.65343,9.63253 5.93383,9.63253 8.49789,0.40782 15.11633,0.2073 20.80048,-0.70175 2.17893,-0.34848 4.07507,-6.07568 3.89707,-8.53822 l -0.75601,-13.17048 c -6.62629,2.75457 -12.9734,2.08734 -20.19948,0.69347 z"
       id="path2766-8"
       sodipodi:nodetypes="ccscsccc" />
    <path
       style="font-variation-settings:normal;opacity:1;vector-effect:none;fill:#0f0f0f;fill-opacity:1;stroke:none;stroke-width:1.25;stroke-linecap:butt;stroke-linejoin:bevel;stroke-miterlimit:4;stroke-dasharray:none;stroke-dashoffset:0;stroke-opacity:1;stop-color:#000000;stop-opacity:1"
       d="m 351.55202,404.60594 c -4.08032,-5.1542 -2.64165,-8.67975 1.59374,-10.50236 z"
       id="path2774-2"
       sodipodi:nodetypes="ccc" />
    <path
       id="path2768-4"
       style="font-variation-settings:normal;opacity:1;vector-effect:none;fill:#0f0f0f;fill-opacity:1;stroke:none;stroke-width:1.25;stroke-linecap:butt;stroke-linejoin:bevel;stroke-miterlimit:4;stroke-dasharray:none;stroke-dashoffset:0;stroke-opacity:1;stop-color:#000000;stop-opacity:1"
       d="m 328.57526,393.29327 c 1.1e-4,2e-5 0.0166,0.004 0.0166,0.004 -2.83339,11.36475 9.66927,11.23463 17.88716,12.30975 0,0 -0.0129,0.056 -0.0129,0.0577 -4.48753,0.36305 -9.55848,0.39885 -15.61159,0.10837 -5.2804,0 -9.96084,-5.23542 -5.93372,-9.63324 0.94082,-1.02742 2.23638,-1.97344 3.65482,-2.84626 z" />
    <path
       id="path2770-4"
       style="font-variation-settings:normal;opacity:1;vector-effect:none;fill:#0f0f0f;fill-opacity:1;stroke:none;stroke-width:1.25;stroke-linecap:butt;stroke-linejoin:bevel;stroke-miterlimit:4;stroke-dasharray:none;stroke-dashoffset:0;stroke-opacity:1;stop-color:#000000;stop-opacity:1"
       d="m 354.79743,383.36384 0.75411,13.1694 c 0.17809,2.46255 -1.71734,8.19034 -3.89627,8.53882 -0.53733,0.086 -1.12873,0.13259 -1.68354,0.20588 1.18941,-3.87811 1.64276,-7.7562 0.74089,-11.63431 -4.45376,0.3354 -9.29483,-1.28654 -16.11763,-4.61615 v -1.58207 l 0.29436,0.0148 10.5246,-2.21778 c 3.14654,-0.0529 6.23512,-0.56945 9.38348,-1.87824 z"
       sodipodi:nodetypes="ccscccccccc" />
    <path
       style="font-variation-settings:normal;opacity:1;vector-effect:none;fill:none;fill-opacity:1;stroke:#000000;stroke-width:1.25;stroke-linecap:round;stroke-linejoin:round;stroke-miterlimit:4;stroke-dasharray:none;stroke-dashoffset:0;stroke-opacity:1;stop-color:#000000;stop-opacity:1"
       d="m 334.59655,384.05655 v 6.32741 c -3.59951,1.3253 -7.49595,3.37644 -9.67589,5.75704 -4.02711,4.39781 0.65343,9.63253 5.93383,9.63253 8.49789,0.40782 15.11633,0.2073 20.80048,-0.70175 2.17893,-0.34848 4.07507,-6.07568 3.89707,-8.53822 l -0.75601,-13.17048 c -6.62629,2.75457 -12.9734,2.08734 -20.19948,0.69347 z"
       id="path2772-4"
       sodipodi:nodetypes="ccscsccc" />
    <path
       style="font-variation-settings:normal;opacity:1;vector-effect:none;fill:#e7d4cb;fill-opacity:1;stroke:#997766;stroke-width:1.25;stroke-linecap:round;stroke-linejoin:round;stroke-miterlimit:4;stroke-dasharray:none;stroke-dashoffset:0;stroke-opacity:1;stop-color:#000000;stop-opacity:1"
       d="m 339.16495,269.18812 c -0.0166,14.58542 -0.37411,32.73631 -3.18977,47.11104 2.2497,4.74588 3.08611,12.74647 1.4258,13.74455 -1.31887,0.79284 -1.72097,-2.48381 -2.13798,-4.24456 -1.65791,3.64546 1.261,7.79388 0.4805,9.29307 -1.37951,2.64985 -3.04966,2.96862 -4.8606,3.01127 -5.45457,0.12834 -8.43518,-9.67785 -8.30402,-12.51265 0.12446,-2.69229 0.52518,-6.09391 2.038,-9.04234 -0.51066,-8.4019 -1.81698,-18.13917 -1.69863,-28.49724 0.0877,-7.67145 -3.07277,-15.21555 -3.26175,-21.58574 4.79544,1.19849 7.67342,3.00555 19.50845,2.7226 z"
       id="path880-7-8"
       sodipodi:nodetypes="ccscssscscc" />
    <path
       id="path2696-5"
       style="font-variation-settings:normal;opacity:1;vector-effect:none;fill:#d7b7a8;fill-opacity:1;stroke:none;stroke-width:1.25;stroke-linecap:butt;stroke-linejoin:bevel;stroke-miterlimit:4;stroke-dasharray:none;stroke-dashoffset:0;stroke-opacity:1;stop-color:#000000;stop-opacity:1"
       d="m 325.43446,268.07187 c 2.97092,0.72561 6.80009,1.28177 13.72928,1.1161 -0.0166,14.58542 -0.37375,32.73682 -3.18941,47.11154 2.2497,4.74588 3.08705,12.74564 1.42674,13.74374 -1.31887,0.79283 -1.7213,-2.48339 -2.13831,-4.24414 -1.65791,3.64547 1.2609,7.79453 0.4804,9.29372 -1.3795,2.64985 -3.07974,2.57134 -4.89068,2.61399 -1.73669,0.0409 -3.17593,-1.29804 -3.62285,-1.76935 -0.27281,-6.30441 -1.11303,-12.80261 -0.28173,-19.10699 -1.54158,-15.86493 -1.60376,-32.28177 -1.51344,-48.75861 z"
       sodipodi:nodetypes="cccscssccc" />
    <path
       style="font-variation-settings:normal;opacity:1;vector-effect:none;fill:#1a1a1a;fill-opacity:1;stroke:#000000;stroke-width:1.25;stroke-linecap:round;stroke-linejoin:round;stroke-miterlimit:4;stroke-dasharray:none;stroke-dashoffset:0;stroke-opacity:1;stop-color:#000000;stop-opacity:1"
       d="m 363.31538,384.05655 v 6.32741 c -3.93085,1.3253 -8.18599,3.37644 -10.56661,5.75704 -4.39783,4.39781 0.71359,9.63253 6.48008,9.63253 9.28016,0.40782 16.50788,0.2073 22.7153,-0.70175 2.37951,-0.34848 4.45019,-6.07568 4.25581,-8.53822 l -0.82561,-13.17048 c -7.23628,2.75457 -14.16767,2.08734 -22.05897,0.69347 z"
       id="path901-2"
       sodipodi:nodetypes="ccscsccc" />
    <path
       id="path2735-4"
       style="font-variation-settings:normal;opacity:1;vector-effect:none;fill:#0f0f0f;fill-opacity:1;stroke:none;stroke-width:1.25;stroke-linecap:butt;stroke-linejoin:bevel;stroke-miterlimit:4;stroke-dasharray:none;stroke-dashoffset:0;stroke-opacity:1;stop-color:#000000;stop-opacity:1"
       d="m 356.73981,393.29327 c 1.1e-4,2e-5 0.0185,0.004 0.0185,0.004 -3.09423,11.36475 10.55938,11.23463 19.53379,12.30975 0,0 -0.0148,0.056 -0.0148,0.0577 -4.90062,0.36305 -10.43837,0.39885 -17.04872,0.10837 -5.76648,0 -10.8778,-5.23542 -6.47996,-9.63324 1.02744,-1.02742 2.44227,-1.97344 3.99127,-2.84626 z" />
    <path
       id="path2729-7"
       style="font-variation-settings:normal;opacity:1;vector-effect:none;fill:#0f0f0f;fill-opacity:1;stroke:none;stroke-width:1.25;stroke-linecap:butt;stroke-linejoin:bevel;stroke-miterlimit:4;stroke-dasharray:none;stroke-dashoffset:0;stroke-opacity:1;stop-color:#000000;stop-opacity:1"
       d="m 385.37588,383.36384 0.82354,13.1694 c 0.19438,2.46255 -1.87545,8.19034 -4.25495,8.53882 -0.58679,0.086 -1.23263,0.13259 -1.83852,0.20588 1.29889,-3.87811 1.79398,-7.7562 0.80909,-11.63431 -4.86376,0.3354 -10.15047,-1.28654 -17.60136,-4.61615 v -1.58207 l 0.32147,0.0148 11.49343,-2.21778 c 3.43621,-0.0529 6.80912,-0.56945 10.2473,-1.87824 z"
       sodipodi:nodetypes="ccscccccccc" />
    <path
       style="font-variation-settings:normal;opacity:1;vector-effect:none;fill:none;fill-opacity:1;stroke:#000000;stroke-width:1.25;stroke-linecap:round;stroke-linejoin:round;stroke-miterlimit:4;stroke-dasharray:none;stroke-dashoffset:0;stroke-opacity:1;stop-color:#000000;stop-opacity:1"
       d="m 363.31538,384.05655 v 6.32741 c -3.93085,1.3253 -8.18599,3.37644 -10.56661,5.75704 -4.39783,4.39781 0.71359,9.63253 6.48008,9.63253 9.28016,0.40782 16.50788,0.2073 22.7153,-0.70175 2.37951,-0.34848 4.45019,-6.07568 4.25581,-8.53822 l -0.82561,-13.17048 c -7.23628,2.75457 -14.16767,2.08734 -22.05897,0.69347 z"
       id="path2740-0"
       sodipodi:nodetypes="ccscsccc" />
    <path
       style="font-variation-settings:normal;opacity:1;vector-effect:none;fill:#596ba6;fill-opacity:1;stroke:none;stroke-width:1.25;stroke-linecap:round;stroke-linejoin:round;stroke-miterlimit:4;stroke-dasharray:none;stroke-dashoffset:0;stroke-opacity:1;stop-color:#000000;stop-opacity:1"
       d="m 388.64267,317.95227 c 2.0573,14.26454 -8.3e-4,22.24531 -1.01675,35.29573 -0.76325,9.80434 -2.13486,23.91773 -0.93463,34.16862 -6.8213,2.15028 -17.81958,2.61419 -25.45865,-0.0584 0.4383,-3.65562 -0.0264,-13.3779 -0.28008,-17.02854 -0.80597,-11.59964 -2.37603,-20.94734 -4.67354,-32.39781 l -0.28905,-17.09 c 14.30012,-0.4309 23.68247,-3.24201 32.65261,-6.10946 z"
       id="path897-1"
       sodipodi:nodetypes="csccscccc" />
    <path
       style="font-variation-settings:normal;opacity:1;vector-effect:none;fill:#7f2424;fill-opacity:1;stroke:#481414;stroke-width:1.25;stroke-linecap:round;stroke-linejoin:round;stroke-miterlimit:4;stroke-dasharray:none;stroke-dashoffset:0;stroke-opacity:1;stop-color:#000000;stop-opacity:1"
       d="m 343.57702,313.18996 c 1.91375,-13.15709 -0.17811,-68.61408 -4.90681,-81.85289 -7.21512,-0.77834 -19.83336,15.05577 -20.35307,33.05973 -0.01,0.33766 2.77662,23.53247 3.68401,36.23741 0.32279,4.51962 -0.51863,8.32939 -0.51792,8.45018 6.30864,4.09508 15.25596,3.83173 22.09379,4.10557 z"
       id="path878-3"
       sodipodi:nodetypes="ccsscc" />
    <path
       style="font-variation-settings:normal;opacity:1;vector-effect:none;fill:#e7d4cb;fill-opacity:1;stroke:#997766;stroke-width:1.25;stroke-linecap:round;stroke-linejoin:round;stroke-miterlimit:4;stroke-dasharray:none;stroke-dashoffset:0;stroke-opacity:1;stop-color:#000000;stop-opacity:1"
       d="m 379.87948,233.22792 -4.5964,-2.35789 c 0.28193,-2.95587 0.0836,-5.81569 0,-8.69846 -6.44083,3.46546 -8.82903,8.24624 -32.10846,6.24654 v 1.83894 c -2.57811,0.0919 -3.98879,0.68302 -5.89627,1.4011 0,20.04591 42.60113,18.44772 42.60113,1.56977 z"
       id="path872-4"
       sodipodi:nodetypes="ccccccc" />
    <path
       id="path2701-1"
       style="font-variation-settings:normal;opacity:1;vector-effect:none;fill:#d7b7a8;fill-opacity:1;stroke:none;stroke-width:1.25;stroke-linecap:butt;stroke-linejoin:bevel;stroke-miterlimit:4;stroke-dasharray:none;stroke-dashoffset:0;stroke-opacity:1;stop-color:#000000;stop-opacity:1"
       d="m 374.85048,222.17036 c 0.0836,2.88278 0.31082,5.90441 0.0288,8.86029 l 4.56559,2.19609 c 0,0.0359 -0.007,0.069 -0.007,0.10467 l -1.78795,1.67237 c -1.53693,-0.82292 -3.13479,-1.58493 -4.82565,-2.2539 0.33919,-1.92423 0.50473,-3.4434 0.37564,-4.97013 -5.107,1.46657 -8.93746,3.46078 -19.53378,2.65844 l 0.9644,-1.5893 c 12.50589,-0.35457 15.10358,-3.92569 20.22008,-6.6786 z"
       sodipodi:nodetypes="sccccccccss" />
    <path
       style="font-variation-settings:normal;opacity:1;vector-effect:none;fill:none;fill-opacity:1;stroke:#997766;stroke-width:1.25;stroke-linecap:round;stroke-linejoin:round;stroke-miterlimit:4;stroke-dasharray:none;stroke-dashoffset:0;stroke-opacity:1;stop-color:#000000;stop-opacity:1"
       d="m 379.87948,233.22792 -4.5964,-2.35789 c 0.28193,-2.95587 0.0836,-5.81569 0,-8.69846 -6.44083,3.46546 -8.82903,8.24624 -32.10846,6.24654 v 1.83894 c -2.57811,0.0919 -3.98879,0.68302 -5.89627,1.4011 0,20.04591 42.60113,18.44772 42.60113,1.56977 z"
       id="path4400"
       sodipodi:nodetypes="ccccccc" />
    <path
       style="font-variation-settings:normal;opacity:1;vector-effect:none;fill:#5a9345;fill-opacity:1;stroke:#997766;stroke-width:1.25;stroke-linecap:round;stroke-linejoin:round;stroke-miterlimit:4;stroke-dasharray:none;stroke-dashoffset:0;stroke-opacity:1;stop-color:#000000;stop-opacity:1"
       d="m 343.17462,230.25705 c 0.006,1.42322 6.1e-4,2.86605 0.23352,3.91142"
       id="path874-7"
       sodipodi:nodetypes="cc" />
    <path
       style="font-variation-settings:normal;opacity:1;vector-effect:none;fill:#596ba6;fill-opacity:1;stroke:none;stroke-width:1.25;stroke-linecap:round;stroke-linejoin:round;stroke-miterlimit:4;stroke-dasharray:none;stroke-dashoffset:0;stroke-opacity:1;stop-color:#000000;stop-opacity:1"
       d="m 356.27902,324.06168 0.75892,13.87015 c 0,0 -1.60712,26.59754 -1.37396,40.05346 0.0525,3.02796 0.64593,9.69078 0.64593,9.69078 -7.28581,2.76746 -17.53497,2.34054 -23.35161,0 0.42733,-9.26696 -1.48838,-25.41789 -2.27101,-37.97737 -0.61465,-9.86361 -0.0383,-23.42292 0.0386,-33.12092 8.63273,2.45524 16.76565,3.81891 25.553,4.26405 z"
       id="path899-5"
       sodipodi:nodetypes="ccsccsccc" />
    <path
       id="path1625-8"
       style="font-variation-settings:normal;opacity:1;vector-effect:none;fill:#354064;fill-opacity:1;stroke:none;stroke-width:1.25;stroke-linecap:butt;stroke-linejoin:bevel;stroke-miterlimit:4;stroke-dasharray:none;stroke-dashoffset:0;stroke-opacity:1;stop-color:#000000;stop-opacity:1"
       d="m 356.30998,346.51765 0.14443,2.70901 c -0.44967,8.97522 -0.93629,20.37609 -0.79104,28.75887 0.0525,3.02797 0.64655,9.69105 0.64655,9.69105 -6.34052,1.60559 -9.67921,2.00561 -15.00794,1.9866 4.54649,-1.98527 6.2291,-3.19343 8.23541,-5.78284 z"
       sodipodi:nodetypes="ccscccc" />
    <path
       id="rect4414-7-1"
       style="font-variation-settings:normal;opacity:1;vector-effect:none;fill:#ffaa00;fill-opacity:1;fill-rule:evenodd;stroke:#481414;stroke-width:1.25;stroke-linecap:round;stroke-linejoin:round;stroke-miterlimit:4;stroke-dasharray:none;stroke-dashoffset:0;stroke-opacity:1;stop-color:#000000;stop-opacity:1"
       d="m 335.09069,255.42433 -15.31836,-0.84179 c -0.68738,2.57964 -1.16221,5.27743 -1.36328,8.0371 l -0.041,0.76172 c -0.0183,0.33816 -0.041,0.67583 -0.0508,1.01563 -0.002,0.0806 0.46228,4.20305 0.71485,6.43359 l 15.16992,0.83203 0.89062,-16.23828 7.39063,0.40625 c -0.54091,-6.19378 -1.19499,-11.83896 -1.95703,-16.39453 -16.67773,-5.27781 -4.15604,-7.29211 -5.43555,15.98828 z m -0.88867,16.23828 -0.89258,16.24024 10.87695,0.5957 c -0.10441,-5.21284 -0.29296,-10.74693 -0.57812,-16.31836 z m -0.89258,16.24024 -12.52344,-0.6875 c 0.48774,4.82936 0.94095,9.583 1.21485,13.41797 0.0737,1.03125 0.0804,2.0175 0.0566,2.93945 l 10.36133,0.56836 z m -0.89062,16.23828 -0.46094,8.375 c 3.99982,0.52805 8.09034,0.5325 11.61914,0.67383 0.28263,-1.94308 0.46581,-4.8883 0.57812,-8.4043 z"
       sodipodi:nodetypes="ccccccccccccccccccccccccccc" />
    <path
       style="font-variation-settings:normal;opacity:1;vector-effect:none;fill:#7f2424;fill-opacity:1;stroke:none;stroke-width:1.25;stroke-linecap:round;stroke-linejoin:round;stroke-miterlimit:4;stroke-dasharray:none;stroke-dashoffset:0;stroke-opacity:1;stop-color:#000000;stop-opacity:1"
       d="m 388.64267,315.06266 v -77.35908 c -2.317,-1.8073 -8.30712,-4.69267 -13.76339,-6.67293 -5.85156,6.41094 -12.7514,10.17872 -21.9163,12.89167 -7.89742,-4.11263 -11.07138,-7.71834 -15.68463,-12.9939 -3.97347,1.34877 -8.80958,4.065 -8.19567,14.1953 1.51242,24.95671 -0.80565,46.77504 1.02491,71.90473 23.04103,6.66482 41.35713,3.71265 58.53508,-1.96579 z"
       id="path870-0"
       sodipodi:nodetypes="cccccscc" />
    <path
       style="font-variation-settings:normal;opacity:1;vector-effect:none;fill:#000000;fill-opacity:0.3;stroke:none;stroke-width:1.25;stroke-linecap:butt;stroke-linejoin:bevel;stroke-miterlimit:4;stroke-dasharray:none;stroke-dashoffset:0;stroke-opacity:1;stop-color:#000000;stop-opacity:1"
       d="m 329.53772,311.4416 0.0631,-51.11819 c -1.41249,4.14336 -1.82363,9.94238 -2.61204,14.96294 l -0.44871,35.44974 c 0.89619,0.25052 1.95166,0.58637 2.99769,0.70551 z"
       id="path2687-3"
       sodipodi:nodetypes="cccccc" />
    <path
       id="rect4414-7-1-2"
       style="font-variation-settings:normal;opacity:1;vector-effect:none;fill:#ffaa00;fill-opacity:1;fill-rule:evenodd;stroke:#481414;stroke-width:1.25;stroke-linecap:round;stroke-linejoin:round;stroke-miterlimit:4;stroke-dasharray:none;stroke-dashoffset:0;stroke-opacity:1;stop-color:#000000;stop-opacity:1"
       d="m 379.88409,232.74474 c -1.13502,1.58756 -2.52185,3.03433 -4.08399,4.33203 l -0.006,7.18945 1.584,-3.43915 4.37522,-4.52616 c -2.317,-1.8073 3.58689,-1.57573 -1.86938,-3.55599 z m -4.08984,11.52148 -16.26172,-0.0117 v -2.23189 c -0.99492,0.57442 -2.72821,0.48148 -6.60857,1.99946 -5.11818,-2.70294 -6.84782,-4.10695 -10.31411,-7.65563 l 0.65891,7.87829 16.26172,0.01 -0.01,16.26367 -16.26172,-0.01 -0.0117,16.26367 16.26367,0.01 0.0117,-16.26367 16.26172,0.0117 z m -0.01,16.26368 -0.0117,16.26367 12.875,0.008 V 260.5379 Z m -0.0117,16.26367 -16.26172,-0.0117 -0.01,16.26367 16.26172,0.0117 z m -0.01,16.26367 -0.01,16.26367 12.89453,0.008 v -16.26367 z m -0.01,16.26367 -16.26172,-0.0117 -0.008,11.55469 c 5.64824,-0.22572 11.04465,-0.97758 16.26367,-2.11914 z m -16.26172,-0.0117 0.01,-16.26367 -16.26368,-0.01 -0.01,16.26367 z m -16.26367,-0.01 -13.55664,-0.008 c 0.11011,2.58295 0.24844,5.18892 0.44141,7.8379 4.54647,1.3151 8.90132,2.24216 13.10742,2.86132 z m 0.01,-16.26367 0.01,-16.26368 -13.71094,-0.008 c -0.072,5.40596 -0.14064,10.81182 -0.15039,16.26367 z m 0.0215,-32.52735 0.01,-16.26367 -14.21093,-0.008 c 0.009,0.32763 0.008,0.64177 0.0293,0.98633 0.3158,5.21109 0.45924,10.28119 0.51367,15.27734 z"
       sodipodi:nodetypes="cccccccccccccccccccccccccccccccccccccccccccccccccccccccccccccc" />
    <path
       style="font-variation-settings:normal;opacity:1;vector-effect:none;fill:none;fill-opacity:0.3;stroke:#481414;stroke-width:1.25;stroke-linecap:round;stroke-linejoin:round;stroke-miterlimit:4;stroke-dasharray:none;stroke-dashoffset:0;stroke-opacity:1;stop-color:#000000;stop-opacity:1"
       d="m 352.95635,244.20959 c -1.37678,8.38265 -0.78716,17.9943 -0.96829,27.12423"
       id="path4673"
       sodipodi:nodetypes="cc" />
    <path
       style="font-variation-settings:normal;opacity:1;vector-effect:none;fill:none;fill-opacity:1;stroke:#481414;stroke-width:1.25;stroke-linecap:round;stroke-linejoin:round;stroke-miterlimit:4;stroke-dasharray:none;stroke-dashoffset:0;stroke-opacity:1;stop-color:#000000;stop-opacity:1"
       d="m 329.6007,260.32341 c 0.21044,18.96168 -0.94361,36.79393 0.5068,56.70504 23.04103,6.66482 41.35713,3.71265 58.53508,-1.96579 v -77.35908 c -2.317,-1.8073 -7.90323,-4.85329 -13.3595,-6.83355 -4.85156,5.06237 -13.5459,10.36599 -22.3201,13.05229 -8.95234,-4.15124 -8.19461,-6.09796 -15.68472,-12.9939 -1.35549,0.4601 -4.84002,2.36369 -6.91919,4.57887"
       id="path1619-2"
       sodipodi:nodetypes="cccccccc" />
    <path
       style="font-variation-settings:normal;opacity:1;vector-effect:none;fill:#000000;fill-opacity:0.3;stroke:none;stroke-width:1.25;stroke-linecap:butt;stroke-linejoin:bevel;stroke-miterlimit:4;stroke-dasharray:none;stroke-dashoffset:0;stroke-opacity:1;stop-color:#000000;stop-opacity:1"
       d="m 377.03424,311.8915 c -2.63165,-17.70105 -4.21048,-42.16172 -1.41741,-52.9486 l 14.41314,48.01233 z"
       id="path2683-2"
       sodipodi:nodetypes="cccc" />
    <path
       style="font-variation-settings:normal;opacity:1;vector-effect:none;fill:#596ba6;fill-opacity:1;stroke:none;stroke-width:0.5;stroke-linecap:butt;stroke-linejoin:bevel;stroke-miterlimit:4;stroke-dasharray:none;stroke-dashoffset:0;stroke-opacity:1;stop-color:#000000;stop-opacity:1"
       d="m 330.17383,317.75765 c 13.14659,10.74561 55.15754,5.25901 58.46879,-3.02524 l -5.79229,-22.89928 c -4.11885,-1.61334 -10.72264,3.87655 -10.19062,-23.33834 -15.56067,5.14136 -29.63121,4.07995 -43.12195,0.36089 z"
       id="path3141"
       sodipodi:nodetypes="cccccc" />
    <path
       style="font-variation-settings:normal;opacity:1;vector-effect:none;fill:none;fill-opacity:0.3;stroke:#0d0d0d;stroke-width:2;stroke-linecap:round;stroke-linejoin:round;stroke-miterlimit:4;stroke-dasharray:none;stroke-dashoffset:0;stroke-opacity:1;stop-color:#000000;stop-opacity:1"
       d="m 336.41838,319.67757 -0.75222,8.76294"
       id="path3161"
       sodipodi:nodetypes="cc" />
    <path
       id="path1623-4"
       style="font-variation-settings:normal;opacity:1;vector-effect:none;fill:#354064;fill-opacity:1;stroke:none;stroke-width:1.25;stroke-linecap:butt;stroke-linejoin:bevel;stroke-miterlimit:4;stroke-dasharray:none;stroke-dashoffset:0;stroke-opacity:1;stop-color:#000000;stop-opacity:1"
       d="m 388.64112,315.06421 v 2.88962 c 2.05729,14.26453 9.8e-4,22.24259 -1.01494,35.293 -0.76325,9.80435 -2.13575,23.91879 -0.93552,34.16968 -6.8213,2.15028 -9.38076,1.86354 -16.90424,1.61827 4.3967,-1.2383 6.29338,-2.0949 9.31899,-4.61254 2.80384,-23.16098 4.0216,-46.49819 9.53571,-69.35803 z"
       sodipodi:nodetypes="ccscccc" />
    <path
       style="font-variation-settings:normal;opacity:1;vector-effect:none;fill:#354064;fill-opacity:1;stroke:none;stroke-width:1.25;stroke-linecap:butt;stroke-linejoin:bevel;stroke-miterlimit:4;stroke-dasharray:none;stroke-dashoffset:0;stroke-opacity:1;stop-color:#000000;stop-opacity:1"
       d="m 387.32172,338.59236 c -4.17745,-2.83355 -6.2325,-5.63113 -4.68573,-13.75782 0.0919,-0.48309 -6.20202,-34.72098 -6.20771,-35.18328 1.02594,1.60734 3.88962,1.76383 6.42201,2.18187 l 6.98951,30.7838 z"
       id="path1677-7"
       sodipodi:nodetypes="cscccc" />
    <path
       style="font-variation-settings:normal;opacity:1;vector-effect:none;fill:none;fill-opacity:1;stroke:#1b2032;stroke-width:1.25;stroke-linecap:round;stroke-linejoin:round;stroke-miterlimit:4;stroke-dasharray:none;stroke-dashoffset:0;stroke-opacity:1;stop-color:#000000;stop-opacity:1"
       d="m 357.03794,333.44195 v 4.48988 c 0,0 -1.60712,26.59754 -1.37396,40.05346 0.0525,3.02796 0.64593,9.69078 0.64593,9.69078 -7.28581,2.76746 -17.06794,2.45729 -22.88458,0.11669 0.42733,-9.26696 -1.90117,-25.41789 -2.6838,-37.97736 -0.61465,-9.86362 0.41695,-22.78893 -0.63403,-32.78695 -1.37593,-13.08928 -0.72651,-42.07757 -0.56974,-48.17277 15.77786,3.77609 25.98804,4.653 43.12191,-0.36089"
       id="path1615-2"
       sodipodi:nodetypes="ccsccsscc" />
    <path
       style="font-variation-settings:normal;opacity:1;vector-effect:none;fill:none;fill-opacity:1;stroke:#1b2032;stroke-width:1.25;stroke-linecap:round;stroke-linejoin:round;stroke-miterlimit:4;stroke-dasharray:none;stroke-dashoffset:0;stroke-opacity:1;stop-color:#000000;stop-opacity:1"
       d="m 372.65967,268.49479 c 0,25.9232 5.72229,22.33417 10.19062,23.33834 1.46394,5.4635 3.33603,13.85113 5.79238,22.89929 2.0573,14.26454 -8.3e-4,25.46516 -1.01675,38.51558 -0.76325,9.80434 -2.13486,23.91773 -0.93463,34.16862 -6.8213,2.15028 -17.81958,2.61419 -25.45865,-0.0584 0.4383,-3.65562 -0.0264,-13.3779 -0.28008,-17.02854 -0.80597,-11.59964 -1.61711,-20.94734 -3.91462,-32.39781 v -4.95691"
       id="path1617-0"
       sodipodi:nodetypes="cccsccscc" />
    <path
       style="font-variation-settings:normal;opacity:1;vector-effect:none;fill:#596ba6;fill-opacity:1;stroke:#1b2032;stroke-width:1.25;stroke-linecap:round;stroke-linejoin:round;stroke-miterlimit:4;stroke-dasharray:none;stroke-dashoffset:0;stroke-opacity:1;stop-color:#000000;stop-opacity:1"
       d="m 340.2271,278.87713 c 1.11664,-17.49817 2.03829,-37.41634 1.26002,-48.87008 -4.3849,0.61591 -5.58885,1.45985 -6.89636,2.29637 -0.66151,11.42627 -0.0387,26.04368 -1.40256,46.12104 z"
       id="path3145"
       sodipodi:nodetypes="ccccc" />
    <path
       style="font-variation-settings:normal;opacity:1;vector-effect:none;fill:#503d16;fill-opacity:1;stroke:#281e0b;stroke-width:1.5;stroke-linecap:round;stroke-linejoin:round;stroke-miterlimit:4;stroke-dasharray:none;stroke-dashoffset:0;stroke-opacity:1;stop-color:#000000;stop-opacity:1"
       d="m 330.29345,318.49876 c 17.01729,3.0241 36.36388,2.17789 58.68068,-0.56859 l -2.37529,-6.55966 c -18.6018,2.68821 -37.81229,2.33856 -56.76677,0.44195 z"
       id="path3147"
       sodipodi:nodetypes="ccccc" />
    <path
       style="font-variation-settings:normal;opacity:1;vector-effect:none;fill:#e7d4cb;fill-opacity:1;stroke:#997766;stroke-width:1.25;stroke-linecap:round;stroke-linejoin:round;stroke-miterlimit:4;stroke-dasharray:none;stroke-dashoffset:0;stroke-opacity:1;stop-color:#000000;stop-opacity:1"
       d="m 377.66216,270.72772 c 2.2274,16.14683 5.6855,31.73508 10.98051,47.22455 -1.77201,5.59553 -1.48616,14.58065 0.50332,15.43424 1.58039,0.67806 1.52927,-3.01084 1.72427,-5.02353 2.38788,3.7852 -0.2156,8.82056 0.87568,10.36228 1.92882,2.72496 3.82631,2.82494 5.83791,2.59786 6.05887,-0.68401 8.56544,-12.04136 7.99083,-15.16024 -0.54571,-2.96211 -1.9578,-7.25763 -4.07945,-10.29301 0.25014,-16.584 -0.0666,-33.04204 -1.78947,-49.18759 -5.12807,2.05341 -7.07403,4.81884 -22.0436,4.04544 z"
       id="path880-73"
       sodipodi:nodetypes="ccscsssccc" />
    <path
       id="path2691-0"
       style="font-variation-settings:normal;opacity:1;vector-effect:none;fill:#d7b7a8;fill-opacity:1;stroke:none;stroke-width:1.25;stroke-linecap:round;stroke-linejoin:round;stroke-miterlimit:4;stroke-dasharray:none;stroke-dashoffset:0;stroke-opacity:1;stop-color:#000000;stop-opacity:1"
       d="m 399.70474,266.68125 c 1.7229,16.14555 2.04171,32.60444 1.79156,49.18843 2.12165,3.03538 3.53225,7.33215 4.07795,10.29426 0.57462,3.11887 -1.93091,14.47562 -7.98977,15.15962 -1.06366,0.12002 -2.09582,0.13519 -3.11718,-0.26729 5.2358,-1.86133 7.39292,-11.97602 6.85563,-14.89233 -0.54571,-2.96211 -1.95632,-7.25888 -4.07798,-10.29426 0.24059,-15.94978 -0.0562,-31.78103 -1.61097,-47.33187 1.34739,-0.61163 2.5834,-1.261 4.07076,-1.85656 z"
       sodipodi:nodetypes="ccsscsccc" />
    <path
       style="font-variation-settings:normal;opacity:1;vector-effect:none;fill:none;fill-opacity:1;stroke:#997766;stroke-width:1.25;stroke-linecap:round;stroke-linejoin:round;stroke-miterlimit:4;stroke-dasharray:none;stroke-dashoffset:0;stroke-opacity:1;stop-color:#000000;stop-opacity:1"
       d="m 377.66216,270.72772 c 2.2274,16.14683 5.6855,31.73508 10.98051,47.22455 -1.77201,5.59553 -1.48616,14.58065 0.50332,15.43424 1.58039,0.67806 1.52927,-3.01084 1.72427,-5.02353 2.38788,3.7852 -0.2156,8.82056 0.87568,10.36228 1.92882,2.72496 3.82631,2.82494 5.83791,2.59786 6.05887,-0.68401 8.56544,-12.04136 7.99083,-15.16024 -0.54571,-2.96211 -1.9578,-7.25763 -4.07945,-10.29301 0.25014,-16.584 -0.0666,-33.04204 -1.78947,-49.18759 -5.12807,2.05341 -7.07403,4.81884 -22.0436,4.04544 z"
       id="path2694-4"
       sodipodi:nodetypes="ccscsssccc" />
    <path
       style="font-variation-settings:normal;opacity:1;vector-effect:none;fill:#7f2424;fill-opacity:1;stroke:#481414;stroke-width:1.25;stroke-linecap:round;stroke-linejoin:round;stroke-miterlimit:4;stroke-dasharray:none;stroke-dashoffset:0;stroke-opacity:1;stop-color:#000000;stop-opacity:1"
       d="m 380.18154,232.56437 c 15.35295,6.22993 18.51369,20.33572 19.90677,29.1505 0.10666,0.67492 1.77908,20.41819 2.73622,33.88478 0.27122,3.81593 0.40452,4.33554 0.6973,7.60364 -6.79573,1.49049 -8.76622,4.82093 -20.08231,5.18717 -0.52865,-4.44326 -0.98421,-8.36436 -1.58321,-10.5703 -3.07029,-11.30704 -4.4247,-19.11052 -5.14155,-28.56871 -0.30906,-4.07779 -0.68343,-8.1843 -0.54987,-12.32351"
       id="path2471"
       sodipodi:nodetypes="cssccssc" />
    <rect
       style="font-variation-settings:normal;opacity:1;vector-effect:none;fill:#666666;fill-opacity:1;fill-rule:evenodd;stroke:#333333;stroke-width:1.5;stroke-linecap:butt;stroke-linejoin:bevel;stroke-miterlimit:4;stroke-dasharray:none;stroke-dashoffset:0;stroke-opacity:1;stop-color:#000000;stop-opacity:1"
       id="rect3149"
       width="12.993087"
       height="10.562407"
       x="348.06955"
       y="306.71939"
       ry="1.6415"
       transform="rotate(0.76323039)" />
    <circle
       style="font-variation-settings:normal;opacity:1;vector-effect:none;fill:#666666;fill-opacity:1;fill-rule:evenodd;stroke:#1a1a1a;stroke-width:1.25;stroke-linecap:butt;stroke-linejoin:bevel;stroke-miterlimit:4;stroke-dasharray:none;stroke-dashoffset:0;stroke-opacity:1;stop-color:#000000;stop-opacity:1"
       id="path3153"
       cx="336.94464"
       cy="274.5567"
       r="1.8540459" />
    <path
       style="font-variation-settings:normal;opacity:1;vector-effect:none;fill:#503d16;fill-opacity:1;stroke:#281e0b;stroke-width:1.25;stroke-linecap:butt;stroke-linejoin:bevel;stroke-miterlimit:4;stroke-dasharray:none;stroke-dashoffset:0;stroke-opacity:1;stop-color:#000000;stop-opacity:1"
       d="m 338.99029,312.32834 -0.46722,6.85469 c -0.21427,1.04358 -3.27374,1.43648 -3.89137,-0.22934 l 0.6074,-7.21061 c 0.37043,1.32926 2.57584,2.46255 3.75119,0.58526 z"
       id="path3157"
       sodipodi:nodetypes="ccccc" />
    <path
       style="font-variation-settings:normal;opacity:1;vector-effect:none;fill:#503d16;fill-opacity:1;stroke:#281e0b;stroke-width:1.25;stroke-linecap:butt;stroke-linejoin:bevel;stroke-miterlimit:4;stroke-dasharray:none;stroke-dashoffset:0;stroke-opacity:1;stop-color:#000000;stop-opacity:1"
       d="m 372.74277,312.74041 0.34343,6.86201 c 0.1954,1.04727 3.24728,1.49533 3.89487,-0.15908 l -0.47716,-7.22039 c -0.39436,1.32235 -2.61987,2.41566 -3.76114,0.51746 z"
       id="path3159"
       sodipodi:nodetypes="ccccc" />
    <path
       style="font-variation-settings:normal;opacity:1;vector-effect:none;fill:none;fill-opacity:0.3;stroke:#0d0d0d;stroke-width:2;stroke-linecap:round;stroke-linejoin:round;stroke-miterlimit:4;stroke-dasharray:none;stroke-dashoffset:0;stroke-opacity:1;stop-color:#000000;stop-opacity:1"
       d="m 337.46245,310.15696 -0.16312,1.90023"
       id="path3161-6"
       sodipodi:nodetypes="cc" />
    <path
       style="font-variation-settings:normal;opacity:1;vector-effect:none;fill:#354064;fill-opacity:1;stroke:none;stroke-width:0.5;stroke-linecap:butt;stroke-linejoin:bevel;stroke-miterlimit:4;stroke-dasharray:none;stroke-dashoffset:0;stroke-opacity:1;stop-color:#000000;stop-opacity:1"
       d="m 364.22931,282.82152 c -1.61705,6.01307 -1.48749,11.95627 -5.74125,18.0748 -5.69163,3.46592 -13.38057,2.53774 -20.125,3.6875 10.66032,0.875 21.64478,1.05994 24.13957,-0.80237 2.52082,-1.88174 1.72668,-10.11311 1.72668,-20.95993 z"
       id="path3980"
       sodipodi:nodetypes="cccsc" />
    <path
       style="font-variation-settings:normal;opacity:1;vector-effect:none;fill:none;fill-opacity:0.3;stroke:#1b2032;stroke-width:1.25;stroke-linecap:round;stroke-linejoin:round;stroke-miterlimit:4;stroke-dasharray:none;stroke-dashoffset:0;stroke-opacity:1;stop-color:#000000;stop-opacity:1"
       d="m 335.33039,282.62013 c 8.30123,0.65903 17.02341,1.13095 28.89892,0.20139 l -0.16195,16.90337 c 0,2.37318 -1.59222,4.83051 -4.16709,4.83051 -6.81575,0.74092 -13.43218,0.64498 -19.93744,0.1161 -2.84339,-0.23117 -3.65483,-1.1108 -3.83597,-3.1795 z"
       id="path3151"
       sodipodi:nodetypes="ccccscc" />
    <path
       id="path2471-6"
       style="font-variation-settings:normal;opacity:1;vector-effect:none;fill:#ffaa00;fill-opacity:1;stroke:#481414;stroke-width:1.25;stroke-linecap:round;stroke-linejoin:round;stroke-miterlimit:4;stroke-dasharray:none;stroke-dashoffset:0;stroke-opacity:1;stop-color:#000000;stop-opacity:1"
       d="m 384.42612,234.65641 1.69922,14.98242 -9.86133,1.01172 -0.0976,6.27735 c -0.11006,3.41095 0.13553,6.79333 0.39453,10.16211 l 11.40039,-1.29297 -1.83399,-16.16016 10.35157,-1.17383 c -2.27519,-5.14059 -5.92956,-10.19823 -12.05274,-13.80664 z m 3.53516,31.14063 1.83203,16.16015 11.88672,-1.34765 c -0.64268,-8.05647 -1.12798,-13.71874 -1.35938,-16.21289 z m 1.83203,16.16015 -11.3125,1.28321 c 0.80519,4.4292 1.88596,9.08719 3.37695,14.57812 0.10497,0.38656 0.20151,0.88757 0.29883,1.37305 l 9.4707,-1.07422 z m 1.83398,16.16016 1.01563,8.95703 c 4.13356,-1.20236 6.51688,-2.91438 10.87891,-3.87109 -0.2476,-2.76379 -0.39244,-3.87873 -0.5918,-6.36719 z"
       sodipodi:nodetypes="ccccccccccccccccscccccccc" />
    <path
       style="font-variation-settings:normal;opacity:1;vector-effect:none;fill:#ffaa00;fill-opacity:1;stroke:#481414;stroke-width:1.25;stroke-linecap:round;stroke-linejoin:round;stroke-miterlimit:4;stroke-dasharray:none;stroke-dashoffset:0;stroke-opacity:1;stop-color:#000000;stop-opacity:1"
       d="m 329.05773,244.05974 -5.20104,0.12909 c 1.57943,-3.13886 3.93024,-5.95631 6.50238,-8.68154 z"
       id="path4649"
       sodipodi:nodetypes="cccc" />
    <path
       id="path4651"
       style="font-variation-settings:normal;opacity:1;vector-effect:none;fill:#000000;fill-opacity:0.3;stroke:none;stroke-width:0.5;stroke-linecap:butt;stroke-linejoin:bevel;stroke-miterlimit:4;stroke-dasharray:none;stroke-dashoffset:0;stroke-opacity:1;stop-color:#000000;stop-opacity:1"
       d="m 71.664062,93.521484 c 2.730094,4.3459 5.317095,10.534496 7.220704,17.837896 3.938576,15.11077 5.451882,34.91685 5.59375,52.96484 1.942797,-0.82476 3.813629,-1.64501 6.367187,-2.20508 -0.29278,-3.2681 -0.426045,-3.78759 -0.697265,-7.60352 -0.95714,-13.46658 -2.629669,-33.20984 -2.736329,-33.88476 -1.256971,-7.95354 -3.955018,-20.21291 -15.748047,-27.109376 z"
       transform="translate(312.67556,141.08382)" />
    <path
       style="font-variation-settings:normal;opacity:1;vector-effect:none;fill:none;fill-opacity:1;stroke:#481414;stroke-width:1.25;stroke-linecap:round;stroke-linejoin:round;stroke-miterlimit:4;stroke-dasharray:none;stroke-dashoffset:0;stroke-opacity:1;stop-color:#000000;stop-opacity:1"
       d="m 380.18097,232.56404 c 15.35295,6.22993 18.51369,20.33572 19.90677,29.1505 0.10666,0.67492 1.77908,20.41819 2.73622,33.88478 0.27122,3.81593 0.40452,4.33554 0.6973,7.60364 -6.79573,1.49049 -8.76622,4.82093 -20.08231,5.18717 -0.52865,-4.44326 -0.98421,-8.36436 -1.58321,-10.5703 -3.07029,-11.30704 -4.4247,-19.11052 -5.14155,-28.56871 -0.30906,-4.07779 -0.68343,-8.1843 -0.54987,-12.32351"
       id="path2471-0"
       sodipodi:nodetypes="cssccssc" />
    <path
       style="font-variation-settings:normal;opacity:1;vector-effect:none;fill:#596ba6;fill-opacity:1;stroke:#1b2032;stroke-width:1.25;stroke-linecap:round;stroke-linejoin:round;stroke-miterlimit:4;stroke-dasharray:none;stroke-dashoffset:0;stroke-opacity:1;stop-color:#000000;stop-opacity:1"
       d="m 369.4146,279.56463 c -0.88336,-15.62317 2.1007,-37.88444 15.63493,-45.83818 l -8.40761,-3.11948 c -12.47401,8.36377 -15.58988,30.05263 -14.82872,49.31749 z"
       id="path3143"
       sodipodi:nodetypes="ccccc" />
    <circle
       style="font-variation-settings:normal;opacity:1;vector-effect:none;fill:#666666;fill-opacity:1;fill-rule:evenodd;stroke:#1a1a1a;stroke-width:1.25;stroke-linecap:butt;stroke-linejoin:bevel;stroke-miterlimit:4;stroke-dasharray:none;stroke-dashoffset:0;stroke-opacity:1;stop-color:#000000;stop-opacity:1"
       id="circle3155"
       cx="365.56964"
       cy="275.7442"
       r="1.8540459" />
    <path
       style="font-variation-settings:normal;opacity:1;vector-effect:none;fill:#7f2424;fill-opacity:1;stroke:#481414;stroke-width:1.25;stroke-linecap:round;stroke-linejoin:round;stroke-miterlimit:4;stroke-dasharray:none;stroke-dashoffset:0;stroke-opacity:1;stop-color:#000000;stop-opacity:1"
       d="m 355.86306,238.45882 -2.9391,5.56327 6.60857,-1.99946 z"
       id="path4677" />
    <path
       style="font-variation-settings:normal;opacity:1;vector-effect:none;fill:#7f2424;fill-opacity:1;stroke:#481414;stroke-width:1.25;stroke-linecap:round;stroke-linejoin:round;stroke-miterlimit:4;stroke-dasharray:none;stroke-dashoffset:0;stroke-opacity:1;stop-color:#000000;stop-opacity:1"
       d="m 357.86306,247.27132 c 8.87411,-5.3902 17.80043,-11.68437 20.42364,-15.45397 l -2.04106,-4.71653 c -2.79527,3.20697 -10.16947,7.56232 -20.38258,11.358 z"
       id="path4675"
       sodipodi:nodetypes="ccccc" />
    <path
       style="font-variation-settings:normal;opacity:1;vector-effect:none;fill:#7f2424;fill-opacity:1;stroke:#481414;stroke-width:1.25;stroke-linecap:round;stroke-linejoin:round;stroke-miterlimit:4;stroke-dasharray:none;stroke-dashoffset:0;stroke-opacity:1;stop-color:#000000;stop-opacity:1"
       d="m 350.01725,238.64632 2.9391,5.56327 -6.60857,-1.99946 z"
       id="path4679" />
    <path
       style="font-variation-settings:normal;opacity:1;vector-effect:none;fill:#7f2424;fill-opacity:1;stroke:#481414;stroke-width:1.25;stroke-linecap:round;stroke-linejoin:round;stroke-miterlimit:4;stroke-dasharray:none;stroke-dashoffset:0;stroke-opacity:1;stop-color:#000000;stop-opacity:1"
       d="m 347.78146,247.27132 c -4.44732,-5.60604 -6.75614,-11.1679 -7.60865,-16.77394 l 1.19964,-2.58091 c 1.37879,2.79059 2.5514,6.4885 8.40901,10.54235 z"
       id="path4681"
       sodipodi:nodetypes="ccccc" />
    <path
       style="font-variation-settings:normal;opacity:1;vector-effect:none;fill:#e7d4cb;fill-opacity:1;stroke:#997766;stroke-width:1.25;stroke-linecap:round;stroke-linejoin:round;stroke-miterlimit:4;stroke-dasharray:none;stroke-dashoffset:0;stroke-opacity:1;stop-color:#000000;stop-opacity:1"
       d="m 325.08795,186.3134 c -0.272,1.8907 0.18557,5.53087 0.63135,7.83622 1.05977,5.48047 0.26792,10.48034 0.23352,15.3537 -0.044,6.24382 9.24604,15.04883 13.95259,17.74722 8.31877,4.76938 23.46135,2.42968 27.66041,1.14218 6.8061,-2.08685 10.76325,-8.42046 15.073,-13.3434 7.30469,-8.34402 8.51243,-15.15413 8.5817,-25.8035 0.069,-10.6106 -8.21891,-21.80832 -20.89964,-29.07276 -17.76387,-10.1764 -40.79339,-4.71901 -45.23293,26.14034 z"
       id="path860-3"
       sodipodi:nodetypes="sssssssss" />
    <path
       id="path2715-2"
       style="font-variation-settings:normal;opacity:1;vector-effect:none;fill:#d7b7a8;fill-opacity:1;stroke:none;stroke-width:1.25;stroke-linecap:butt;stroke-linejoin:bevel;stroke-miterlimit:4;stroke-dasharray:none;stroke-dashoffset:0;stroke-opacity:1;stop-color:#000000;stop-opacity:1"
       d="m 352.85328,155.5106 c 5.85165,-0.17144 11.91651,1.48298 17.46771,4.6631 12.68073,7.26445 20.96811,18.46252 20.89913,29.07312 -0.0444,6.82554 -0.56461,12.07115 -2.84989,17.15709 l -1.55315,-14.05075 -6.61722,-3.43502 -6.94952,6.21266 c -9.18976,-19.70904 -41.2977,-31.06413 -47.82311,-2.72345 -0.32008,-2.13005 -0.55014,-4.62939 -0.33952,-6.09349 3.05219,-21.21579 14.89197,-30.42609 27.76557,-30.80326 z m 34.75843,52.44647 c -1.2192,2.32233 -2.82817,4.64315 -4.97374,7.09401 -4.30975,4.92294 -8.26684,11.25594 -15.07294,13.34278 -0.009,0.004 -0.0268,0.004 -0.0361,0.007 l -7.59247,1.34366 c 9.87584,-3.60527 18.24777,-12.89736 19.48539,-21.01643 z"
       sodipodi:nodetypes="ssscccccsscsscccc" />
    <path
       style="font-variation-settings:normal;opacity:1;vector-effect:none;fill:none;fill-opacity:0.3;stroke:#211612;stroke-width:2;stroke-linecap:round;stroke-linejoin:round;stroke-miterlimit:4;stroke-dasharray:none;stroke-dashoffset:0;stroke-opacity:1;stop-color:#000000;stop-opacity:1"
       d="m 341.1079,184.25679 c -4.00875,-1.1653 -11.18972,0.40043 -12.93589,2.33896"
       id="path1611-7"
       sodipodi:nodetypes="cc" />
    <path
       style="font-variation-settings:normal;opacity:1;vector-effect:none;fill:none;fill-opacity:0.3;stroke:#997766;stroke-width:1.75;stroke-linecap:round;stroke-linejoin:round;stroke-miterlimit:4;stroke-dasharray:none;stroke-dashoffset:0;stroke-opacity:1;stop-color:#000000;stop-opacity:1"
       d="m 341.42767,216.86371 c 4.25912,2.11853 8.75268,0.50134 9.92444,0"
       id="path866-9"
       sodipodi:nodetypes="cc" />
    <path
       style="font-variation-settings:normal;opacity:1;vector-effect:none;fill:none;fill-opacity:0.3;stroke:#211612;stroke-width:2;stroke-linecap:round;stroke-linejoin:round;stroke-miterlimit:4;stroke-dasharray:none;stroke-dashoffset:0;stroke-opacity:1;stop-color:#000000;stop-opacity:1"
       d="m 368.10325,187.78021 c -3.15113,-3.36373 -6.28689,-4.51445 -14.7999,-3.48142"
       id="path1609-4"
       sodipodi:nodetypes="cc" />
    <path
       style="font-variation-settings:normal;opacity:1;vector-effect:none;fill:#201a13;fill-opacity:1;stroke:none;stroke-width:1.25;stroke-linecap:round;stroke-linejoin:round;stroke-miterlimit:4;stroke-dasharray:none;stroke-dashoffset:0;stroke-opacity:1;stop-color:#000000;stop-opacity:1"
       d="m 332.79161,201.18554 c -0.50213,-1.92795 -0.4652,-5.89679 0.0362,-8.1994 0.85649,-3.93261 4.90778,-3.15982 5.38182,-1.50317 0.93775,3.27718 0.96544,7.06402 0.31313,9.88305 -1.08547,4.69099 -4.9086,2.97808 -5.73129,-0.1805 z"
       id="path1607-5"
       sodipodi:nodetypes="ssssss" />
    <path
       style="font-variation-settings:normal;opacity:1;vector-effect:none;fill:#201a13;fill-opacity:1;stroke:none;stroke-width:1.25;stroke-linecap:round;stroke-linejoin:round;stroke-miterlimit:4;stroke-dasharray:none;stroke-dashoffset:0;stroke-opacity:1;stop-color:#000000;stop-opacity:1"
       d="m 354.72409,201.96064 c -0.53735,-2.0631 -0.49783,-6.31019 0.0388,-8.77423 0.91654,-4.20832 5.25185,-3.38134 5.75913,-1.60855 1.00349,3.50692 1.03312,7.55926 0.33508,10.57591 -1.16158,5.01986 -5.25273,3.18688 -6.1331,-0.19315 z"
       id="path1613-7"
       sodipodi:nodetypes="ssssss" />
    <path
       style="font-variation-settings:normal;opacity:1;vector-effect:none;fill:none;fill-opacity:1;stroke:#997766;stroke-width:1.25;stroke-linecap:round;stroke-linejoin:round;stroke-miterlimit:4;stroke-dasharray:none;stroke-dashoffset:0;stroke-opacity:1;stop-color:#000000;stop-opacity:1"
       d="m 325.08795,186.3134 c -0.272,1.8907 0.18557,5.53087 0.63135,7.83622 1.05977,5.48047 0.26792,10.48034 0.23352,15.3537 -0.044,6.24382 9.24604,15.04883 13.95259,17.74722 8.31877,4.76938 23.46135,2.42968 27.66041,1.14218 6.8061,-2.08685 10.76325,-8.42046 15.073,-13.3434 7.30469,-8.34402 8.51243,-15.15413 8.5817,-25.8035 0.069,-10.6106 -8.21891,-21.80832 -20.89964,-29.07276 -17.76387,-10.1764 -40.79339,-4.71901 -45.23293,26.14034 z"
       id="path2720-8"
       sodipodi:nodetypes="sssssssss" />
    <path
       style="font-variation-settings:normal;opacity:1;vector-effect:none;fill:#52382d;fill-opacity:1;stroke:#211612;stroke-width:1.25;stroke-linecap:round;stroke-linejoin:round;stroke-miterlimit:4;stroke-dasharray:none;stroke-dashoffset:0;stroke-opacity:1;stop-color:#000000;stop-opacity:1"
       d="m 375.35047,155.39087 c -4.65214,-5.7449 -8.95135,-12.22279 -19.154,-6.4397 -23.64041,-5.21151 -33.95833,14.41611 -34.61128,29.63484 -0.16848,3.92713 1.38546,6.86712 2.24761,9.82903 3.04692,-6.43551 6.13141,-9.0811 10.01054,-9.94732 l -2.45466,6.4597 c 3.7665,-1.8348 4.80978,-3.09534 7.02027,-6.59574 1.9526,-3.092 1.31346,-3.21926 4.56553,-8.21097 -0.0827,3.59137 -0.78098,4.49239 2.53197,11.125 0.86931,-6.77649 1.89324,-11.32292 3.79818,-11.84041 1.13151,-0.30738 3.01811,5.55396 2.7538,11.0031 4.17097,-1.37844 5.05559,-6.24928 6.59533,-9.52805 0.51785,4.07312 0.0349,8.19868 2.70506,12.1591 l 5.60909,-3.24689 c 0.21981,2.69427 -0.47828,5.57214 1.13534,7.98765 l 4.10992,-1.80069 c 1.29843,2.30453 0.22631,5.94533 0.7155,8.61872 0.18456,1.00838 2.19453,0.93573 3.41252,0.6693 0.79906,-3.34709 3.37817,-3.3276 5.4475,-2.92494 5.072,0.98695 2.88348,16.566 -2.36685,16.38573 0,0 1.65876,4.17216 1.05738,7.31025 -0.46121,2.40673 -4.13803,6.30877 -4.13803,6.30877 3.55985,-0.2065 27.43769,-17.40099 17.3919,-49.75215 -1.91058,-6.15276 -6.87682,-11.20488 -14.41972,-13.9019 3.31856,-0.78206 6.33635,-1.96512 12.81374,1.46463 -4.24877,-4.80514 -9.16496,-8.25044 -16.77664,-4.76706 z"
       id="path858-0"
       sodipodi:nodetypes="ccscccsccsccccccscscscsccc" />
    <path
       style="font-variation-settings:normal;opacity:1;vector-effect:none;fill:none;fill-opacity:0.3;stroke:#211612;stroke-width:1.25;stroke-linecap:round;stroke-linejoin:round;stroke-miterlimit:4;stroke-dasharray:none;stroke-dashoffset:0;stroke-opacity:1;stop-color:#000000;stop-opacity:1"
       d="m 356.19647,148.95117 c 5.3201,1.46446 6.26418,1.68705 9.84127,4.5848"
       id="path1582-9"
       sodipodi:nodetypes="cc" />
    <path
       style="font-variation-settings:normal;opacity:1;vector-effect:none;fill:none;fill-opacity:0.3;stroke:#211612;stroke-width:1.25;stroke-linecap:round;stroke-linejoin:round;stroke-miterlimit:4;stroke-dasharray:none;stroke-dashoffset:0;stroke-opacity:1;stop-color:#000000;stop-opacity:1"
       d="m 331.86415,164.03108 c -2.81104,5.39632 -3.11463,7.05342 -3.66651,11.62374"
       id="path1582-1-7"
       sodipodi:nodetypes="cc" />
    <path
       style="font-variation-settings:normal;opacity:1;vector-effect:none;fill:none;fill-opacity:0.3;stroke:#211612;stroke-width:1.25;stroke-linecap:round;stroke-linejoin:round;stroke-miterlimit:4;stroke-dasharray:none;stroke-dashoffset:0;stroke-opacity:1;stop-color:#000000;stop-opacity:1"
       d="m 368.325,158.76822 c -3.75084,2.21744 -4.56237,3.11013 -6.6271,5.68012"
       id="path1599-0"
       sodipodi:nodetypes="cc" />
    <path
       style="font-variation-settings:normal;opacity:1;vector-effect:none;fill:none;fill-opacity:0.3;stroke:#211612;stroke-width:1.25;stroke-linecap:round;stroke-linejoin:round;stroke-miterlimit:4;stroke-dasharray:none;stroke-dashoffset:0;stroke-opacity:1;stop-color:#000000;stop-opacity:1"
       d="m 371.07025,159.26031 c 0.45041,6.96649 0.0255,8.8481 -1.4338,13.90624"
       id="path1601-8"
       sodipodi:nodetypes="cc" />
    <path
       style="font-variation-settings:normal;opacity:1;vector-effect:none;fill:none;fill-opacity:0.3;stroke:#211612;stroke-width:1.25;stroke-linecap:round;stroke-linejoin:round;stroke-miterlimit:4;stroke-dasharray:none;stroke-dashoffset:0;stroke-opacity:1;stop-color:#000000;stop-opacity:1"
       d="m 377.21608,162.21663 c 5.37531,7.92695 6.09591,10.39732 7.60877,17.22927"
       id="path1603-6"
       sodipodi:nodetypes="cc" />
    <path
       id="path2722-5"
       style="font-variation-settings:normal;opacity:1;vector-effect:none;fill:#3c2920;fill-opacity:1;stroke:none;stroke-width:1.25;stroke-linecap:butt;stroke-linejoin:bevel;stroke-miterlimit:4;stroke-dasharray:none;stroke-dashoffset:0;stroke-opacity:1;stop-color:#000000;stop-opacity:1"
       d="m 379.31493,158.69278 c 7.5429,2.69702 12.50856,7.7499 14.41914,13.90266 10.04579,32.35116 -13.83199,49.54541 -17.39185,49.75191 0,0 3.5431,-3.77346 4.09604,-6.18738 16.11123,-15.80276 10.22559,-48.17571 -1.12333,-57.46719 z"
       sodipodi:nodetypes="csccc" />
    <path
       style="font-variation-settings:normal;opacity:1;vector-effect:none;fill:none;fill-opacity:1;stroke:#211612;stroke-width:1.25;stroke-linecap:round;stroke-linejoin:round;stroke-miterlimit:4;stroke-dasharray:none;stroke-dashoffset:0;stroke-opacity:1;stop-color:#000000;stop-opacity:1"
       d="m 375.35047,155.39087 c -4.65214,-5.7449 -8.95135,-12.22279 -19.154,-6.4397 -23.64041,-5.21151 -33.95833,14.41611 -34.61128,29.63484 -0.16848,3.92713 1.38546,6.86712 2.24761,9.82903 3.04692,-6.43551 6.13141,-9.0811 10.01054,-9.94732 l -2.45466,6.4597 c 3.7665,-1.8348 4.80978,-3.09534 7.02027,-6.59574 1.9526,-3.092 1.31346,-3.21926 4.56553,-8.21097 -0.0827,3.59137 -0.78098,4.49239 2.53197,11.125 0.86931,-6.77649 1.89324,-11.32292 3.79818,-11.84041 1.13151,-0.30738 3.01811,5.55396 2.7538,11.0031 4.17097,-1.37844 5.05559,-6.24928 6.59533,-9.52805 0.51785,4.07312 0.0349,8.19868 2.70506,12.1591 l 5.60909,-3.24689 c 0.21981,2.69427 -0.47828,5.57214 1.13534,7.98765 l 4.10992,-1.80069 c 1.29843,2.30453 0.22631,5.94533 0.7155,8.61872 0.18456,1.00838 2.19453,0.93573 3.41252,0.6693 0.79906,-3.34709 3.37817,-3.3276 5.4475,-2.92494 5.072,0.98695 2.88348,16.566 -2.36685,16.38573 0,0 1.65876,4.17216 1.05738,7.31025 -0.46121,2.40673 -4.13803,6.30877 -4.13803,6.30877 3.55985,-0.2065 27.43769,-17.40099 17.3919,-49.75215 -1.91058,-6.15276 -6.87682,-11.20488 -14.41972,-13.9019 3.31856,-0.78206 6.33635,-1.96512 12.81374,1.46463 -4.24877,-4.80514 -9.16496,-8.25044 -16.77664,-4.76706 z"
       id="path2727-6"
       sodipodi:nodetypes="ccscccsccsccccccscscscsccc" />
    <path
       id="path4683"
       style="font-variation-settings:normal;opacity:1;vector-effect:none;fill:#ffaa00;fill-opacity:1;stroke:#481414;stroke-width:1.25;stroke-linecap:round;stroke-linejoin:round;stroke-miterlimit:4;stroke-dasharray:none;stroke-dashoffset:0;stroke-opacity:1;stop-color:#000000;stop-opacity:1"
       d="m 63.570312,86.017578 c -1.648764,1.891603 -4.92452,4.183278 -9.402343,6.523438 l 2.939453,5.769531 c 3.959506,-2.890669 7.119956,-5.58741 8.503906,-7.576172 z"
       transform="translate(312.67556,141.08382)" />
    <path
       id="path4688"
       style="font-variation-settings:normal;opacity:1;vector-effect:none;fill:#ffaa00;fill-opacity:1;stroke:#481414;stroke-width:1.25;stroke-linecap:round;stroke-linejoin:round;stroke-miterlimit:4;stroke-dasharray:none;stroke-dashoffset:0;stroke-opacity:1;stop-color:#000000;stop-opacity:1"
       d="m 31.603516,92.144531 -2.082032,4.585938 c 1.27015,3.14891 3.076207,6.295871 5.583985,9.457031 l 2,-8.8125 c -2.653008,-1.836055 -4.316614,-3.591672 -5.501953,-5.230469 z"
       transform="translate(312.67556,141.08382)" />
    <path
       style="font-variation-settings:normal;opacity:1;vector-effect:none;fill:#4d4d4d;fill-opacity:1;stroke:#1a1a1a;stroke-width:1.25;stroke-linecap:round;stroke-linejoin:round;stroke-miterlimit:4;stroke-dasharray:none;stroke-dashoffset:0;stroke-opacity:1;stop-color:#000000;stop-opacity:1"
       d="m 367.10843,328.1357 -6.16022,0.57201 1.00269,10.7985 c -3.50879,0.3258 -5.98669,-1.35573 -6.58864,-7.83844 -0.49208,-5.29947 1.08856,-6.81869 5.19228,-7.19973 l 6.16022,-0.57201 z"
       id="path6084"
       sodipodi:nodetypes="cccsccc" />
    <path
       id="path6080"
       style="font-variation-settings:normal;opacity:1;vector-effect:none;fill:#b24d4d;fill-opacity:1;stroke:#471f1f;stroke-width:1.25;stroke-linecap:round;stroke-linejoin:round;stroke-miterlimit:4;stroke-dasharray:none;stroke-dashoffset:0;stroke-opacity:1;stop-color:#000000;stop-opacity:1"
       d="m 372.33146,321.65612 -5.88867,0.54688 c -1.43668,5.99972 -0.8325,11.54928 1.55078,16.70703 l 5.56446,-0.90039 48.59375,-4.51172 c 4.60328,-0.42743 4.02794,-6.67982 -0.58008,-6.25196 l -39.60742,3.67774 -0.41211,-4.45117 -3.90039,0.36133 0.4121,4.45117 -4.79687,0.44531 z m 49.65821,7.65039 a 1.1269515,1.1269515 0 0 1 1.12695,1.12695 1.1269515,1.1269515 0 0 1 -1.12695,1.12696 1.1269515,1.1269515 0 0 1 -1.12696,-1.12696 1.1269515,1.1269515 0 0 1 1.12696,-1.12695 z" />
    <path
       id="path880-73-1"
       style="font-variation-settings:normal;opacity:1;vector-effect:none;fill:#e7d4cb;fill-opacity:1;stroke:none;stroke-width:1.25;stroke-linecap:round;stroke-linejoin:round;stroke-miterlimit:4;stroke-dasharray:none;stroke-dashoffset:0;stroke-opacity:1;stop-color:#000000;stop-opacity:1"
       d="m 404.47769,322.04267 c 0.50107,1.47761 0.87482,2.91156 1.09765,4.12109 0.57461,3.11888 -1.93136,14.47615 -7.99023,15.16016 -2.0116,0.22708 -3.90907,0.1273 -5.83789,-2.59766 -1.09128,-1.54172 1.51092,-6.57808 -0.87696,-10.36328 -1.40845,-3.12593 -1.36586,-2.79141 -2.22265,-6.03906 z"
       sodipodi:nodetypes="csssccc" />
    <rect
       style="font-variation-settings:normal;opacity:1;vector-effect:none;fill:#4d4d4d;fill-opacity:1;fill-rule:evenodd;stroke:#1a1a1a;stroke-width:1.25;stroke-linecap:round;stroke-linejoin:round;stroke-miterlimit:4;stroke-dasharray:none;stroke-dashoffset:0;stroke-opacity:1;stop-color:#000000;stop-opacity:1"
       id="rect6082"
       width="9.8828936"
       height="3.2942979"
       x="-371.48254"
       y="331.86658"
       ry="0.47790524"
       transform="rotate(-95.304956)" />
    <rect
       style="font-variation-settings:normal;opacity:1;vector-effect:none;fill:#262626;fill-opacity:1;fill-rule:evenodd;stroke:#000000;stroke-width:1.25;stroke-linecap:round;stroke-linejoin:round;stroke-miterlimit:4;stroke-dasharray:none;stroke-dashoffset:0;stroke-opacity:1;stop-color:#000000;stop-opacity:1"
       id="rect6086"
       width="7.7416606"
       height="3.8708303"
       x="-364.2287"
       y="341.48117"
       ry="0.47790524"
       transform="rotate(-95.304956)" />
    <rect
       style="font-variation-settings:normal;opacity:1;vector-effect:none;fill:#cca400;fill-opacity:1;fill-rule:evenodd;stroke:#665200;stroke-width:1.25;stroke-linecap:butt;stroke-linejoin:bevel;stroke-miterlimit:4;stroke-dasharray:none;stroke-dashoffset:0;stroke-opacity:1;stop-color:#000000;stop-opacity:1"
       id="rect3178"
       width="3.5"
       height="14"
       x="-360.00409"
       y="271.57434"
       ry="1.6415"
       transform="matrix(-0.99760322,-0.06919402,-0.06919402,0.99760322,0,0)" />
    <path
       style="font-variation-settings:normal;opacity:1;vector-effect:none;fill:#503d16;fill-opacity:1;stroke:#281e0b;stroke-width:1.25;stroke-linecap:butt;stroke-linejoin:bevel;stroke-miterlimit:4;stroke-dasharray:none;stroke-dashoffset:0;stroke-opacity:1;stop-color:#000000;stop-opacity:1"
       d="m 367.47413,312.91852 0.1266,6.86943 c 0.16223,1.05291 3.19845,1.59711 3.89795,-0.036 l -0.24895,-7.23185 c -0.43591,1.30924 -2.69483,2.33173 -3.7756,0.39845 z"
       id="path6088"
       sodipodi:nodetypes="ccccc" />
    <path
       id="path2691-0-3"
       style="font-variation-settings:normal;opacity:1;vector-effect:none;fill:#d7b7a8;fill-opacity:1;stroke:none;stroke-width:1.25;stroke-linecap:round;stroke-linejoin:round;stroke-miterlimit:4;stroke-dasharray:none;stroke-dashoffset:0;stroke-opacity:1;stop-color:#000000;stop-opacity:1"
       d="m 404.47769,322.04267 c 0.5008,1.47792 0.87482,2.91151 1.09765,4.12109 0.57462,3.11887 -1.93137,14.47616 -7.99023,15.16016 -1.06366,0.12002 -2.09583,0.1349 -3.11719,-0.26758 5.2358,-1.86133 7.39276,-11.97627 6.85547,-14.89258 -0.22284,-1.20958 -0.59685,-2.64317 -1.09766,-4.12109 z" />
    <path
       id="path2694-4-7"
       style="font-variation-settings:normal;opacity:1;vector-effect:none;fill:none;fill-opacity:1;stroke:#997766;stroke-width:1.25;stroke-linecap:round;stroke-linejoin:round;stroke-miterlimit:4;stroke-dasharray:none;stroke-dashoffset:0;stroke-opacity:1;stop-color:#000000;stop-opacity:1"
       d="m 404.47769,322.04267 c 0.50107,1.47761 0.87482,2.91156 1.09765,4.12109 0.57461,3.11888 -1.93136,14.47615 -7.99023,15.16016 -2.0116,0.22708 -3.90907,0.1273 -5.83789,-2.59766 -1.09128,-1.54172 1.51092,-6.57808 -0.87696,-10.36328"
       sodipodi:nodetypes="csssc" />
  </g>
</svg>
